<svg width="13" height="23" viewBox="0 0 13 23" fill="none" xmlns="http://www.w3.org/2000/svg">
<path d="M1.15213 11.807L11.4719 22.0177C11.5457 22.0913 11.6335 22.1497 11.7303 22.1896C11.827 22.2295 11.9308 22.25 12.0356 22.25C12.1403 22.25 12.2441 22.2295 12.3408 22.1896C12.4376 22.1497 12.5254 22.0913 12.5992 22.0177C12.6736 21.9447 12.7326 21.8578 12.7729 21.7621C12.8132 21.6664 12.834 21.5637 12.834 21.46C12.834 21.3563 12.8132 21.2537 12.7729 21.1579C12.7326 21.0622 12.6736 20.9754 12.5992 20.9023L2.83505 11.2493L12.5992 1.59631C12.7487 1.44841 12.8326 1.24781 12.8326 1.03865C12.8326 0.935084 12.812 0.832531 12.772 0.736847C12.7319 0.641164 12.6732 0.554223 12.5992 0.48099C12.5252 0.407757 12.4373 0.349666 12.3406 0.310032C12.2439 0.270399 12.1402 0.25 12.0356 0.25C11.8242 0.25 11.6214 0.33309 11.4719 0.48099L1.15213 10.6917C1.07773 10.7647 1.01867 10.8516 0.978368 10.9473C0.938066 11.043 0.917317 11.1456 0.917317 11.2493C0.917317 11.353 0.938066 11.4557 0.978368 11.5514C1.01867 11.6471 1.07773 11.734 1.15213 11.807Z" fill="#2751A0"/>
</svg>
