<svg width="12" height="23" viewBox="0 0 12 23" fill="none" xmlns="http://www.w3.org/2000/svg">
<path d="M11.7658 11.807L1.44604 22.0177C1.37224 22.0913 1.28444 22.1497 1.18771 22.1896C1.09097 22.2295 0.987213 22.25 0.882418 22.25C0.777623 22.25 0.673865 22.2295 0.577129 22.1896C0.480394 22.1497 0.392595 22.0913 0.318798 22.0177C0.244394 21.9447 0.185337 21.8578 0.145036 21.7621C0.104734 21.6664 0.0839844 21.5637 0.0839844 21.46C0.0839844 21.3563 0.104734 21.2537 0.145036 21.1579C0.185337 21.0622 0.244394 20.9754 0.318798 20.9023L10.0829 11.2493L0.318798 1.59631C0.169317 1.44841 0.0853395 1.24781 0.0853395 1.03865C0.0853395 0.935084 0.105956 0.832531 0.146013 0.736847C0.18607 0.641164 0.244783 0.554223 0.318798 0.48099C0.392814 0.407757 0.480683 0.349666 0.577389 0.310032C0.674095 0.270399 0.777744 0.25 0.882418 0.25C1.09382 0.25 1.29656 0.33309 1.44604 0.48099L11.7658 10.6917C11.8402 10.7647 11.8993 10.8516 11.9396 10.9473C11.9799 11.043 12.0007 11.1456 12.0007 11.2493C12.0007 11.353 11.9799 11.4557 11.9396 11.5514C11.8993 11.6471 11.8402 11.734 11.7658 11.807V11.807Z" fill="#2751A0"/>
</svg>
