<svg width="23" height="16" viewBox="0 0 23 16" fill="none" xmlns="http://www.w3.org/2000/svg">
<path d="M13.843 15.4729C13.5596 15.1896 13.4236 14.8472 13.435 14.4458C13.4472 14.0444 13.5951 13.7021 13.8784 13.4187L17.8805 9.41663H2.08464C1.68325 9.41663 1.34655 9.28063 1.07455 9.00863C0.803497 8.73758 0.667969 8.40136 0.667969 7.99997C0.667969 7.59858 0.803497 7.26188 1.07455 6.98988C1.34655 6.71883 1.68325 6.5833 2.08464 6.5833H17.8805L13.843 2.5458C13.5596 2.26247 13.418 1.92577 13.418 1.53572C13.418 1.14661 13.5596 0.810384 13.843 0.52705C14.1263 0.243717 14.463 0.102051 14.8531 0.102051C15.2422 0.102051 15.5784 0.243717 15.8617 0.52705L22.343 7.0083C22.4846 7.14997 22.5852 7.30344 22.6447 7.46872C22.7033 7.634 22.7326 7.81108 22.7326 7.99997C22.7326 8.18886 22.7033 8.36594 22.6447 8.53122C22.5852 8.6965 22.4846 8.84997 22.343 8.99163L15.8263 15.5083C15.5666 15.768 15.2422 15.8979 14.8531 15.8979C14.463 15.8979 14.1263 15.7562 13.843 15.4729Z" fill="#2751A0"/>
</svg>
