<svg width="7" height="13" viewBox="0 0 7 13" fill="none" xmlns="http://www.w3.org/2000/svg">
<path d="M6.43816 6.93741L0.750662 12.6249C0.709991 12.6659 0.661603 12.6985 0.608289 12.7207C0.554976 12.7429 0.497792 12.7543 0.440037 12.7543C0.382282 12.7543 0.325098 12.7429 0.271784 12.7207C0.218471 12.6985 0.170083 12.6659 0.129412 12.6249C0.0884056 12.5842 0.0558582 12.5359 0.0336469 12.4825C0.0114356 12.4292 0 12.372 0 12.3143C0 12.2565 0.0114356 12.1994 0.0336469 12.146C0.0558582 12.0927 0.0884056 12.0443 0.129412 12.0037L5.51066 6.62679L0.129412 1.24992C0.0470289 1.16753 0.000746846 1.0558 0.000746846 0.93929C0.000746846 0.881602 0.0121091 0.824478 0.0341855 0.771181C0.0562619 0.717884 0.0886199 0.669457 0.129412 0.628665C0.170204 0.587873 0.21863 0.555515 0.271928 0.533439C0.325225 0.511363 0.382348 0.5 0.440037 0.5C0.556544 0.5 0.668279 0.546282 0.750662 0.628665L6.43816 6.31616C6.47917 6.35684 6.51172 6.40522 6.53393 6.45854C6.55614 6.51185 6.56757 6.56903 6.56757 6.62679C6.56757 6.68455 6.55614 6.74173 6.53393 6.79504C6.51172 6.84836 6.47917 6.89674 6.43816 6.93741Z" fill="#252525"/>
</svg>
