<svg width="47" height="47" viewBox="0 0 47 47" fill="none" xmlns="http://www.w3.org/2000/svg">
<g clip-path="url(#clip0_352_56)">
<path d="M46.7817 14.1931C46.7813 13.4037 46.4666 12.7075 45.8717 12.18L38.7594 5.8722C37.8747 5.08782 36.7593 4.28613 35.1911 4.28613C35.1906 4.28613 35.1899 4.28613 35.1894 4.28613C33.6202 4.28667 32.5047 5.08945 31.6205 5.87472L24.5127 12.1873C23.9181 12.7154 23.604 13.4118 23.6042 14.2013L23.6075 22.3029H18.8871C19.7415 20.5525 20.3365 17.7874 19.6683 15.7168C19.198 14.2596 18.1622 13.2989 16.6731 12.9386C16.4831 12.8926 16.2823 12.9238 16.1157 13.025C15.9491 13.1262 15.8305 13.2892 15.7866 13.4773C15.7055 13.8247 15.6305 14.1504 15.56 14.4565C14.6818 18.2719 14.569 18.7623 12.1434 20.3264C10.4299 21.4314 10.3082 21.5741 9.24252 23.108C9.13367 23.2647 9.01359 23.4375 8.87915 23.6294C8.44761 24.2452 7.89552 24.523 7.09321 24.5299L7.03134 24.5301V24.3573C7.03134 23.4589 6.29054 22.728 5.37984 22.728H1.65141C0.740805 22.728 0 23.4589 0 24.3573V40.2507C0 41.1493 0.740805 41.8802 1.65141 41.8802H5.37993C6.29054 41.8802 7.03143 41.1493 7.03143 40.2507V39.5113C7.36099 39.6248 7.69044 39.7458 8.02968 39.8708C9.69069 40.4828 11.5732 41.1766 14.3684 41.1766H24.0736C24.4873 41.1766 24.881 41.0914 25.2385 40.9385C25.5894 41.0943 25.9696 41.1766 26.3594 41.1766H26.36L44.0476 41.1705C45.5612 41.1699 46.7921 39.9545 46.7914 38.4612L46.7817 14.1931ZM5.5692 40.2507C5.5692 40.352 5.48256 40.4375 5.37993 40.4375H1.65141C1.54887 40.4375 1.46224 40.352 1.46224 40.2507V24.3573C1.46224 24.2562 1.54887 24.1707 1.65141 24.1707H5.37993C5.48256 24.1707 5.5692 24.2562 5.5692 24.3573V40.2507ZM14.3684 39.7339C11.8374 39.7339 10.1618 39.1163 8.54138 38.5192C8.05217 38.339 7.55053 38.1541 7.03153 37.9891V25.9728L7.10199 25.9726C8.37916 25.9616 9.38189 25.4492 10.0821 24.4497C10.2177 24.2562 10.3388 24.0819 10.4487 23.9237C11.4315 22.509 11.4315 22.509 12.9435 21.534C15.8641 19.6506 16.0794 18.7147 16.986 14.776C16.9994 14.7176 17.013 14.6582 17.0268 14.5983C17.6294 14.9139 18.0405 15.428 18.275 16.1545C18.9648 18.2919 17.877 21.5824 17.0259 22.552C16.8386 22.7654 16.7947 23.0671 16.9136 23.324C17.0326 23.5809 17.2924 23.7456 17.5786 23.7456H25.9371C26.7517 23.7456 27.4144 24.3994 27.4144 25.2031C27.4144 26.0068 26.7517 26.6607 25.9371 26.6607H20.1746C19.7708 26.6607 19.4434 26.9837 19.4434 27.382C19.4434 27.7804 19.7708 28.1034 20.1746 28.1034H27.1448C27.9593 28.1034 28.622 28.7572 28.622 29.5609C28.622 30.3645 27.9593 31.0184 27.1448 31.0184H20.1746C19.7708 31.0184 19.4434 31.3414 19.4434 31.7398C19.4434 32.1382 19.7708 32.4611 20.1746 32.4611H26.3857C27.2002 32.4611 27.8629 33.115 27.8629 33.9186C27.8629 34.7223 27.2002 35.3761 26.3857 35.3761H20.1746C19.7708 35.3761 19.4434 35.6991 19.4434 36.0975C19.4434 36.4958 19.7708 36.8188 20.1746 36.8188H24.0737C24.8883 36.8188 25.551 37.4727 25.551 38.2764C25.551 39.0801 24.8883 39.7339 24.0737 39.7339H14.3684ZM44.047 39.7278L26.6134 39.7338C26.867 39.3052 27.0132 38.8075 27.0132 38.2764C27.0132 37.742 26.8659 37.2409 26.6094 36.8105C28.1261 36.6973 29.3251 35.4435 29.3251 33.9186C29.3251 33.2111 29.067 32.5619 28.6387 32.0579C29.5033 31.5524 30.0842 30.6222 30.0842 29.5609C30.0842 28.3731 29.3567 27.3498 28.3183 26.9019C28.6694 26.4241 28.8766 25.8371 28.8766 25.2031C28.8766 23.604 27.5579 22.3029 25.9371 22.3029H25.0698L25.0666 14.2008C25.0665 13.8214 25.2053 13.5135 25.4911 13.2597L32.5988 6.94701C33.5727 6.08202 34.3235 5.72919 35.1901 5.72883H35.1912C36.057 5.72883 36.8078 6.0813 37.7821 6.94512L44.8944 13.253C45.1803 13.5066 45.3194 13.8143 45.3196 14.1938L45.3293 38.4617C45.3296 39.1596 44.7544 39.7276 44.047 39.7278ZM39.5821 29.9659C39.6892 30.8365 39.4527 31.6311 38.8982 32.2636C38.2461 33.0075 37.1623 33.5062 35.929 33.6461V34.5637C35.929 34.9621 35.6017 35.285 35.1979 35.285C34.7942 35.285 34.4668 34.9621 34.4668 34.5637V33.6357C32.6405 33.3881 31.2208 32.2487 30.8099 30.6222C30.7122 30.2357 30.9506 29.8442 31.3424 29.7478C31.7344 29.652 32.131 29.8867 32.2287 30.2732C32.6074 31.7717 34.1358 32.2717 35.3303 32.2423C36.3558 32.2182 37.3222 31.8562 37.7923 31.3199C38.0776 30.9945 38.1883 30.6084 38.1306 30.1398C37.9942 29.0307 37.0564 28.3941 35.09 28.0755C31.9604 27.5685 31.2317 26.0025 31.1716 24.7782C31.088 23.0817 32.2918 21.6597 34.1671 21.2401C34.2654 21.2182 34.3655 21.1992 34.467 21.1834V20.2452C34.467 19.8468 34.7944 19.5238 35.1981 19.5238C35.6019 19.5238 35.9292 19.8468 35.9292 20.2452V21.1773C37.2678 21.3728 38.5883 22.1379 39.248 23.6884C39.4043 24.0556 39.2293 24.4785 38.857 24.6327C38.4846 24.7871 38.0561 24.6142 37.8999 24.2469C37.2657 22.7567 35.7306 22.3697 34.4905 22.6473C33.5534 22.8569 32.573 23.5086 32.6322 24.7084C32.6506 25.0842 32.7068 26.2276 35.327 26.652C36.2977 26.8091 39.2526 27.2878 39.5821 29.9659ZM35.1919 13.9588C36.6275 13.9588 37.7956 12.8064 37.7956 11.3899C37.7956 9.97334 36.6276 8.82099 35.1919 8.82099C33.7562 8.82099 32.5881 9.97334 32.5881 11.3899C32.5881 12.8064 33.7562 13.9588 35.1919 13.9588ZM35.1919 10.2636C35.8213 10.2636 36.3334 10.7689 36.3334 11.3898C36.3334 12.0107 35.8213 12.516 35.1919 12.516C34.5625 12.516 34.0504 12.0107 34.0504 11.3898C34.0504 10.7689 34.5625 10.2636 35.1919 10.2636Z" fill="#2751A0"/>
</g>
<defs>
<clipPath id="clip0_352_56">
<rect width="46.7915" height="46.1664" fill="white"/>
</clipPath>
</defs>
</svg>
