<svg width="8" height="4" viewBox="0 0 8 4" fill="none" xmlns="http://www.w3.org/2000/svg">
<path d="M3.79746 3.92118L0.0844841 0.457193C0.057714 0.432422 0.0364652 0.402951 0.021965 0.37048C0.00746489 0.33801 0 0.303182 0 0.268006C0 0.23283 0.00746489 0.198002 0.021965 0.165531C0.0364652 0.13306 0.057714 0.10359 0.0844841 0.0788186C0.111035 0.0538437 0.142624 0.0340206 0.177429 0.0204927C0.212234 0.00696488 0.249565 0 0.287269 0C0.324974 0 0.362305 0.00696488 0.39711 0.0204927C0.431914 0.0340206 0.463503 0.0538437 0.490055 0.0788186L4.00024 3.35628L7.51043 0.0788186C7.56421 0.0286431 7.63716 0.000454869 7.71322 0.000454869C7.75088 0.000454869 7.78817 0.0073751 7.82296 0.0208208C7.85776 0.0342665 7.88937 0.0539742 7.916 0.0788186C7.94263 0.103663 7.96376 0.133157 7.97817 0.165618C7.99258 0.198079 8 0.23287 8 0.268006C8 0.338965 7.96979 0.407017 7.916 0.457193L4.20303 3.92118C4.17648 3.94616 4.14489 3.96598 4.11008 3.97951C4.07528 3.99304 4.03795 4 4.00024 4C3.96254 4 3.92521 3.99304 3.8904 3.97951C3.8556 3.96598 3.82401 3.94616 3.79746 3.92118Z" fill="black"/>
</svg>
