<svg width="39" height="39" viewBox="0 0 39 39" fill="none" xmlns="http://www.w3.org/2000/svg">
<path d="M14.2281 11.5778H19.7734C20.0781 11.5778 20.3219 11.3341 20.3219 11.0294C20.3219 10.7247 20.0781 10.481 19.7734 10.481H14.2281C13.9234 10.481 13.6797 10.7247 13.6797 11.0294C13.6797 11.3341 13.9234 11.5778 14.2281 11.5778Z" fill="white"/>
<path d="M24.7703 14.8687H14.2281C13.9234 14.8687 13.6797 15.1124 13.6797 15.4171C13.6797 15.7218 13.9234 15.9655 14.2281 15.9655H24.7703C25.075 15.9655 25.3187 15.7218 25.3187 15.4171C25.3187 15.1124 25.075 14.8687 24.7703 14.8687Z" fill="white"/>
<path d="M24.7703 19.2256H14.2281C13.9234 19.2256 13.6797 19.4693 13.6797 19.774C13.6797 20.0787 13.9234 20.3225 14.2281 20.3225H24.7703C25.075 20.3225 25.3187 20.0787 25.3187 19.774C25.3187 19.4693 25.075 19.2256 24.7703 19.2256V19.2256Z" fill="white"/>
<path d="M24.7703 23.5825H14.2281C13.9234 23.5825 13.6797 23.8263 13.6797 24.131C13.6797 24.4356 13.9234 24.6794 14.2281 24.6794H24.7703C25.075 24.6794 25.3187 24.4356 25.3187 24.131C25.3187 23.8263 25.075 23.5825 24.7703 23.5825Z" fill="white"/>
<path d="M29.432 11.578C29.432 11.4562 29.4016 11.3343 29.2797 11.2124C29.1273 11.0601 23.6734 5.57568 23.4906 5.42334C23.3992 5.33193 23.2469 5.271 23.125 5.271C20.3523 5.271 12.0344 5.271 12.0344 5.271C10.6633 5.271 9.56641 6.36787 9.56641 7.73896V33.2108C9.56641 33.6983 10.1453 33.9116 10.4805 33.5765L14.5328 29.5241H26.9641C28.3352 29.5241 29.432 28.4272 29.432 27.0562C29.432 27.0562 29.432 15.4476 29.432 11.578V11.578ZM27.6039 11.0296H24.7703C24.1609 11.0296 23.643 10.5421 23.643 9.90225V7.06865C24.0695 7.49522 22.1805 5.60615 27.6039 11.0296ZM26.9641 28.4577H14.3195C14.1672 28.4577 14.0453 28.5187 13.9539 28.6101L10.6633 31.9312V7.73896C10.6633 6.97725 11.3031 6.3374 12.0648 6.3374H22.607V9.93271C22.607 11.1515 23.582 12.1265 24.8008 12.1265H28.3961V27.0866C28.3656 27.8179 27.7258 28.4577 26.9641 28.4577Z" fill="white"/>
</svg>
