<svg width="18" height="18" viewBox="0 0 18 18" fill="none" xmlns="http://www.w3.org/2000/svg">
<path fill-rule="evenodd" clip-rule="evenodd" d="M16.7071 15.0737C16.6009 15.1796 16.4727 15.315 16.3369 15.4582C15.9979 15.818 15.5744 16.2653 15.309 16.4467C13.9125 17.401 12.0442 16.9444 10.7227 16.3937C8.97937 15.6673 7.08136 14.3283 5.37716 12.6238C3.67136 10.9192 2.33261 9.02047 1.60624 7.27805C1.05626 5.95617 0.598689 4.0874 1.55311 2.69051C1.73436 2.42489 2.18262 2.00204 2.54191 1.66238C2.68566 1.52694 2.82002 1.39897 2.92627 1.29306C3.11489 1.10537 3.37016 1 3.63625 1C3.90234 1 4.15761 1.10537 4.34624 1.29306L6.91574 3.86196C7.10333 4.05059 7.20862 4.3058 7.20862 4.57183C7.20862 4.83785 7.10333 5.09307 6.91574 5.28169L6.21578 5.98029C5.98201 6.21236 5.82942 6.51371 5.78073 6.8395C5.73203 7.16528 5.78982 7.49808 5.94551 7.78837C6.90827 9.60559 8.39459 11.0917 10.2119 12.0542C10.5021 12.2099 10.8348 12.2676 11.1605 12.2188C11.4861 12.17 11.7874 12.0174 12.0192 11.7835L12.7175 11.0849C12.9061 10.8972 13.1614 10.7918 13.4275 10.7918C13.6936 10.7918 13.9488 10.8972 14.1374 11.0849L16.7071 13.6542C16.8947 13.8428 17 14.098 17 14.3639C17 14.6299 16.8947 14.8851 16.7071 15.0737V15.0737Z" fill="#2751A0"/>
</svg>
