<svg width="24" height="24" viewBox="0 0 24 24" fill="none" xmlns="http://www.w3.org/2000/svg">
<path d="M12 0.75C9.77497 0.75 7.59989 1.4098 5.74984 2.64597C3.89979 3.88213 2.45785 5.63914 1.60636 7.69481C0.754874 9.75048 0.532087 12.0125 0.966171 14.1948C1.40025 16.3771 2.47171 18.3816 4.04505 19.955C5.61839 21.5283 7.62295 22.5998 9.80524 23.0338C11.9875 23.4679 14.2495 23.2451 16.3052 22.3936C18.3609 21.5422 20.1179 20.1002 21.354 18.2502C22.5902 16.4001 23.25 14.225 23.25 12C23.2461 9.01753 22.0595 6.15834 19.9506 4.04941C17.8417 1.94049 14.9825 0.753953 12 0.75ZM18.2859 8.91094L11.2547 15.9422C11.1683 16.0298 11.0655 16.0993 10.952 16.1468C10.8385 16.1943 10.7168 16.2188 10.5938 16.2188C10.4708 16.2188 10.349 16.1943 10.2355 16.1468C10.1221 16.0993 10.0192 16.0298 9.93282 15.9422L6.65157 12.6609C6.47628 12.4856 6.3778 12.2479 6.3778 12C6.3778 11.7521 6.47628 11.5144 6.65157 11.3391C6.82686 11.1638 7.06461 11.0653 7.3125 11.0653C7.5604 11.0653 7.79815 11.1638 7.97344 11.3391L10.5938 13.9547L16.9641 7.58906C17.1394 7.41377 17.3771 7.31529 17.625 7.31529C17.8729 7.31529 18.1107 7.41377 18.2859 7.58906C18.4612 7.76435 18.5597 8.0021 18.5597 8.25C18.5597 8.4979 18.4612 8.73565 18.2859 8.91094Z" fill="#F1EE00"/>
</svg>
