<svg width="52" height="47" viewBox="0 0 52 47" fill="none" xmlns="http://www.w3.org/2000/svg">
<path d="M26.5479 15.1483C26.7595 15.1483 26.9623 15.0723 27.1119 14.937C27.2615 14.8017 27.3455 14.6182 27.3455 14.4269C27.3455 14.2356 27.2615 14.0521 27.1119 13.9168C26.9623 13.7816 26.7595 13.7056 26.5479 13.7056H21.7624C21.5509 13.7056 21.348 13.7816 21.1984 13.9168C21.0489 14.0521 20.9648 14.2356 20.9648 14.4269V23.0831C20.9648 23.2744 21.0489 23.4579 21.1984 23.5932C21.348 23.7285 21.5509 23.8045 21.7624 23.8045H26.5479C26.7595 23.8045 26.9623 23.7285 27.1119 23.5932C27.2615 23.4579 27.3455 23.2744 27.3455 23.0831C27.3455 22.8918 27.2615 22.7083 27.1119 22.573C26.9623 22.4378 26.7595 22.3618 26.5479 22.3618H22.56V19.4764H26.5479C26.7595 19.4764 26.9623 19.4004 27.1119 19.2651C27.2615 19.1298 27.3455 18.9463 27.3455 18.755C27.3455 18.5637 27.2615 18.3802 27.1119 18.2449C26.9623 18.1097 26.7595 18.0337 26.5479 18.0337H22.56V15.1483H26.5479Z" fill="#2751A0"/>
<path d="M17.7738 14.4271V20.0277L14.4997 14.1047C14.4195 13.9591 14.2872 13.8423 14.1244 13.7733C13.9616 13.7043 13.7778 13.687 13.6028 13.7243C13.4277 13.7617 13.2718 13.8514 13.1603 13.979C13.0487 14.1066 12.9881 14.2645 12.9883 14.4271V23.0833C12.9883 23.2746 13.0723 23.4581 13.2219 23.5934C13.3715 23.7286 13.5743 23.8046 13.7859 23.8046C13.9974 23.8046 14.2003 23.7286 14.3498 23.5934C14.4994 23.4581 14.5834 23.2746 14.5834 23.0833V17.4827L17.8583 23.4057C17.9245 23.5255 18.0263 23.6263 18.1522 23.6968C18.2781 23.7672 18.4233 23.8046 18.5714 23.8046C18.6331 23.8044 18.6946 23.7981 18.7548 23.7859C18.9297 23.7485 19.0856 23.6588 19.197 23.5312C19.3085 23.4037 19.3691 23.2459 19.3689 23.0833V14.4271C19.3689 14.2358 19.2849 14.0523 19.1353 13.917C18.9858 13.7818 18.7829 13.7058 18.5714 13.7058C18.3598 13.7058 18.157 13.7818 18.0074 13.917C17.8578 14.0523 17.7738 14.2358 17.7738 14.4271Z" fill="#2751A0"/>
<path d="M31.6194 23.8045C31.8043 23.8045 31.9834 23.7463 32.1261 23.64C32.2689 23.5337 32.3663 23.3858 32.4018 23.2217L33.4993 18.1722L34.596 23.2217C34.6314 23.3859 34.7289 23.5339 34.8717 23.6403C35.0145 23.7467 35.1938 23.8049 35.3788 23.8049C35.5638 23.8049 35.7431 23.7467 35.8859 23.6403C36.0287 23.5339 36.1262 23.3859 36.1616 23.2217L38.0415 14.5655C38.0821 14.3777 38.0386 14.183 37.9205 14.0243C37.8024 13.8655 37.6194 13.7557 37.4118 13.719C37.2042 13.6823 36.989 13.7216 36.8134 13.8284C36.6379 13.9352 36.5165 14.1007 36.4759 14.2885L35.3784 19.3379L34.2817 14.2885C34.2459 14.1246 34.1483 13.9771 34.0056 13.8711C33.8629 13.7651 33.684 13.7071 33.4993 13.7071C33.3146 13.7071 33.1357 13.7651 32.993 13.8711C32.8503 13.9771 32.7527 14.1246 32.7169 14.2885L31.6194 19.3379L30.5219 14.2885C30.4813 14.1007 30.3599 13.9352 30.1843 13.8284C30.0088 13.7216 29.7936 13.6823 29.5859 13.719C29.3783 13.7557 29.1953 13.8655 29.0772 14.0243C28.9592 14.183 28.9156 14.3777 28.9562 14.5655L30.8361 23.2217C30.8717 23.3859 30.9692 23.5339 31.1121 23.6402C31.255 23.7465 31.4343 23.8046 31.6194 23.8045Z" fill="#2751A0"/>
<path d="M46.2596 5.04956H27.1177C26.9061 5.04956 26.7033 5.12556 26.5537 5.26084C26.4041 5.39612 26.3201 5.5796 26.3201 5.77091C26.3201 5.96222 26.4041 6.1457 26.5537 6.28098C26.7033 6.41626 26.9061 6.49226 27.1177 6.49226H46.2596C46.4712 6.49226 46.674 6.56826 46.8236 6.70354C46.9732 6.83882 47.0572 7.0223 47.0572 7.21361V29.5754H3.98774V7.21361C3.98774 7.0223 4.07178 6.83882 4.22135 6.70354C4.37093 6.56826 4.5738 6.49226 4.78533 6.49226H23.9273C24.1389 6.49226 24.3417 6.41626 24.4913 6.28098C24.6409 6.1457 24.7249 5.96222 24.7249 5.77091C24.7249 5.5796 24.6409 5.39612 24.4913 5.26084C24.3417 5.12556 24.1389 5.04956 23.9273 5.04956H4.78533C4.15073 5.04956 3.54213 5.27756 3.0934 5.6834C2.64467 6.08923 2.39258 6.63967 2.39258 7.21361V33.1822C2.39258 33.7561 2.64467 34.3066 3.0934 34.7124C3.54213 35.1182 4.15073 35.3462 4.78533 35.3462H20.6636V36.7889H16.4412C15.8066 36.7889 15.198 37.0169 14.7493 37.4228C14.3005 37.8286 14.0485 38.3791 14.0485 38.953V40.3957C14.0485 40.587 14.1325 40.7705 14.2821 40.9058C14.4316 41.041 14.6345 41.117 14.846 41.117H23.9273C24.1389 41.117 24.3417 41.041 24.4913 40.9058C24.6409 40.7705 24.7249 40.587 24.7249 40.3957C24.7249 40.2044 24.6409 40.0209 24.4913 39.8856C24.3417 39.7503 24.1389 39.6743 23.9273 39.6743H15.6436V38.953C15.6436 38.7617 15.7277 38.5782 15.8772 38.4429C16.0268 38.3076 16.2297 38.2316 16.4412 38.2316H34.6038C34.8153 38.2316 35.0182 38.3076 35.1677 38.4429C35.3173 38.5782 35.4014 38.7617 35.4014 38.953V39.6743H27.1177C26.9061 39.6743 26.7033 39.7503 26.5537 39.8856C26.4041 40.0209 26.3201 40.2044 26.3201 40.3957C26.3201 40.587 26.4041 40.7705 26.5537 40.9058C26.7033 41.041 26.9061 41.117 27.1177 41.117H36.1989C36.4105 41.117 36.6133 41.041 36.7629 40.9058C36.9125 40.7705 36.9965 40.587 36.9965 40.3957V38.953C36.9965 38.3791 36.7444 37.8286 36.2957 37.4228C35.847 37.0169 35.2384 36.7889 34.6038 36.7889H30.3814V35.3462H46.2596C46.8942 35.3462 47.5028 35.1182 47.9516 34.7124C48.4003 34.3066 48.6524 33.7561 48.6524 33.1822V7.21361C48.6524 6.63967 48.4003 6.08923 47.9516 5.6834C47.5028 5.27756 46.8942 5.04956 46.2596 5.04956ZM28.7862 36.7889H22.2588V35.3462H28.7862V36.7889ZM47.0572 33.1822C47.0572 33.3735 46.9732 33.557 46.8236 33.6923C46.674 33.8275 46.4712 33.9035 46.2596 33.9035H4.78533C4.5738 33.9035 4.37093 33.8275 4.22135 33.6923C4.07178 33.557 3.98774 33.3735 3.98774 33.1822V31.0181H47.0572V33.1822Z" fill="#2751A0"/>
</svg>
