<svg width="47" height="49" viewBox="0 0 47 49" fill="none" xmlns="http://www.w3.org/2000/svg">
<path d="M7.79838 37.2042C7.6705 37.2076 7.54364 37.18 7.42794 37.1237C7.24992 37.0483 7.09753 36.9202 6.98998 36.7556C6.88242 36.5909 6.82451 36.3972 6.82355 36.1986V29.0896C5.1992 28.8478 3.71377 28.0102 2.63952 26.7304C1.56527 25.4506 0.974188 23.8142 0.97461 22.1214V12.0662C0.97461 10.1995 1.69354 8.40915 2.97324 7.08915C4.25295 5.76916 5.9886 5.02759 7.79838 5.02759H33.1438C34.9536 5.02759 36.6892 5.76916 37.9689 7.08915C39.2486 8.40915 39.9676 10.1995 39.9676 12.0662V22.1214C39.9676 23.9881 39.2486 25.7785 37.9689 27.0984C36.6892 28.4184 34.9536 29.16 33.1438 29.16H15.9966L8.4905 36.9126C8.39941 37.0058 8.29139 37.0795 8.17262 37.1295C8.05385 37.1796 7.92667 37.2049 7.79838 37.2042ZM7.79838 7.03862C6.50568 7.03862 5.26593 7.56831 4.35185 8.51117C3.43778 9.45403 2.92426 10.7328 2.92426 12.0662V22.1214C2.92426 23.4548 3.43778 24.7336 4.35185 25.6764C5.26593 26.6193 6.50568 27.149 7.79838 27.149C8.05692 27.149 8.30487 27.2549 8.48768 27.4435C8.6705 27.6321 8.7732 27.8878 8.7732 28.1545V33.7753L14.9048 27.4406C14.9959 27.3474 15.104 27.2737 15.2227 27.2236C15.3415 27.1736 15.4687 27.1482 15.597 27.149H33.1438C34.4365 27.149 35.6762 26.6193 36.5903 25.6764C37.5044 24.7336 38.0179 23.4548 38.0179 22.1214V12.0662C38.0179 10.7328 37.5044 9.45403 36.5903 8.51117C35.6762 7.56831 34.4365 7.03862 33.1438 7.03862H7.79838Z" fill="#2751A0"/>
<path d="M38.9932 43.2372C38.8649 43.238 38.7377 43.2126 38.619 43.1626C38.5002 43.1125 38.3922 43.0388 38.3011 42.9456L30.7949 35.1931H17.5471C17.2886 35.1931 17.0406 35.0871 16.8578 34.8986C16.675 34.71 16.5723 34.4542 16.5723 34.1876C16.5723 33.9209 16.675 33.6651 16.8578 33.4765C17.0406 33.288 17.2886 33.182 17.5471 33.182H31.1946C31.3229 33.1813 31.4501 33.2066 31.5689 33.2567C31.6876 33.3067 31.7957 33.3804 31.8867 33.4736L38.0184 39.8084V34.1876C38.0184 33.9209 38.1211 33.6651 38.3039 33.4765C38.4867 33.288 38.7347 33.182 38.9932 33.182C40.2859 33.182 41.5257 32.6523 42.4397 31.7095C43.3538 30.7666 43.8673 29.4878 43.8673 28.1544V18.0993C43.8673 17.8326 43.97 17.5768 44.1529 17.3883C44.3357 17.1997 44.5836 17.0938 44.8422 17.0938C45.1007 17.0938 45.3486 17.1997 45.5315 17.3883C45.7143 17.5768 45.817 17.8326 45.817 18.0993V28.1544C45.8174 29.8473 45.2263 31.4836 44.1521 32.7634C43.0778 34.0433 41.5924 34.8808 39.968 35.1227V42.2317C39.9671 42.4302 39.9092 42.624 39.8016 42.7886C39.6941 42.9532 39.5417 43.0813 39.3636 43.1568C39.248 43.2131 39.1211 43.2406 38.9932 43.2372Z" fill="#2751A0"/>
<path d="M9.74891 21.1159C8.9777 21.1159 8.22381 20.88 7.58257 20.4381C6.94134 19.9961 6.44156 19.368 6.14643 18.633C5.8513 17.8981 5.77408 17.0894 5.92453 16.3092C6.07499 15.529 6.44636 14.8123 6.99169 14.2498C7.53701 13.6873 8.2318 13.3043 8.98819 13.1491C9.74458 12.9939 10.5286 13.0735 11.2411 13.3779C11.9536 13.6824 12.5626 14.1979 12.9911 14.8593C13.4195 15.5207 13.6482 16.2984 13.6482 17.0939C13.6482 18.1606 13.2374 19.1836 12.5061 19.9379C11.7749 20.6922 10.7831 21.1159 9.74891 21.1159ZM9.74891 15.0828C9.3633 15.0828 8.98636 15.2008 8.66574 15.4217C8.34512 15.6427 8.09523 15.9568 7.94767 16.3243C7.8001 16.6917 7.76149 17.0961 7.83672 17.4862C7.91195 17.8763 8.09763 18.2346 8.3703 18.5159C8.64296 18.7971 8.99035 18.9886 9.36855 19.0662C9.74674 19.1438 10.1388 19.104 10.495 18.9518C10.8513 18.7996 11.1557 18.5418 11.37 18.2111C11.5842 17.8804 11.6986 17.4916 11.6986 17.0939C11.6986 16.5605 11.4931 16.049 11.1275 15.6718C10.7619 15.2947 10.266 15.0828 9.74891 15.0828Z" fill="#2751A0"/>
<path d="M20.4716 21.1159C19.7004 21.1159 18.9465 20.88 18.3052 20.4381C17.664 19.9961 17.1642 19.368 16.8691 18.633C16.574 17.8981 16.4967 17.0894 16.6472 16.3092C16.7976 15.529 17.169 14.8123 17.7143 14.2498C18.2597 13.6873 18.9545 13.3043 19.7108 13.1491C20.4672 12.9939 21.2513 13.0735 21.9638 13.3779C22.6763 13.6824 23.2852 14.1979 23.7137 14.8593C24.1422 15.5207 24.3709 16.2984 24.3709 17.0939C24.3709 18.1606 23.96 19.1836 23.2288 19.9379C22.4975 20.6922 21.5057 21.1159 20.4716 21.1159ZM20.4716 15.0828C20.086 15.0828 19.709 15.2008 19.3884 15.4217C19.0678 15.6427 18.8179 15.9568 18.6703 16.3243C18.5228 16.6917 18.4841 17.0961 18.5594 17.4862C18.6346 17.8763 18.8203 18.2346 19.093 18.5159C19.3656 18.7971 19.713 18.9886 20.0912 19.0662C20.4694 19.1438 20.8614 19.104 21.2177 18.9518C21.5739 18.7996 21.8784 18.5418 22.0926 18.2111C22.3069 17.8804 22.4212 17.4916 22.4212 17.0939C22.4212 16.5605 22.2158 16.049 21.8502 15.6718C21.4845 15.2947 20.9886 15.0828 20.4716 15.0828Z" fill="#2751A0"/>
<path d="M31.1942 21.1159C30.423 21.1159 29.6691 20.88 29.0279 20.4381C28.3867 19.9961 27.8869 19.368 27.5917 18.633C27.2966 17.8981 27.2194 17.0894 27.3698 16.3092C27.5203 15.529 27.8917 14.8123 28.437 14.2498C28.9823 13.6873 29.6771 13.3043 30.4335 13.1491C31.1899 12.9939 31.9739 13.0735 32.6864 13.3779C33.3989 13.6824 34.0079 14.1979 34.4364 14.8593C34.8648 15.5207 35.0935 16.2984 35.0935 17.0939C35.0935 18.1606 34.6827 19.1836 33.9514 19.9379C33.2202 20.6922 32.2284 21.1159 31.1942 21.1159ZM31.1942 15.0828C30.8086 15.0828 30.4317 15.2008 30.1111 15.4217C29.7904 15.6427 29.5405 15.9568 29.393 16.3243C29.2454 16.6917 29.2068 17.0961 29.282 17.4862C29.3573 17.8763 29.5429 18.2346 29.8156 18.5159C30.0883 18.7971 30.4357 18.9886 30.8139 19.0662C31.1921 19.1438 31.5841 19.104 31.9403 18.9518C32.2966 18.7996 32.6011 18.5418 32.8153 18.2111C33.0295 17.8804 33.1439 17.4916 33.1439 17.0939C33.1439 16.5605 32.9385 16.049 32.5728 15.6718C32.2072 15.2947 31.7113 15.0828 31.1942 15.0828Z" fill="#2751A0"/>
</svg>
