<svg width="45" height="45" viewBox="0 0 45 45" fill="none" xmlns="http://www.w3.org/2000/svg">
<path fill-rule="evenodd" clip-rule="evenodd" d="M22.5 0C34.9264 0 45 10.0736 45 22.5C45 34.9264 34.9264 45 22.5 45C10.0736 45 0 34.9264 0 22.5C0 10.0736 10.0736 0 22.5 0ZM11.7326 30.5336H33.2677C33.3873 30.5335 33.5061 30.5151 33.6201 30.4791L25.5916 23.0497L23.2153 24.8818C23.0103 25.04 22.7587 25.1258 22.4998 25.1258C22.2409 25.1258 21.9893 25.04 21.7843 24.8818L19.4083 23.0499L11.3795 30.4793C11.4937 30.5154 11.6128 30.5338 11.7326 30.5339V30.5336ZM17.5265 21.5984L10.5612 16.2274V28.0441L17.5265 21.5984ZM22.5 22.475L32.8855 14.4668H12.1145L22.5 22.475ZM34.4391 28.0441V16.2274L27.4733 21.5984L34.4391 28.0441ZM11.7326 32.877H33.2677C34.1996 32.8759 35.0929 32.5052 35.7518 31.8463C36.4106 31.1874 36.7812 30.294 36.7822 29.3621V15.6379C36.7812 14.7061 36.4106 13.8128 35.7517 13.1539C35.0929 12.495 34.1996 12.1243 33.2678 12.1231H11.7326C10.8008 12.1242 9.90742 12.4949 9.24851 13.1538C8.58961 13.8127 8.21895 14.706 8.21786 15.6379V29.3621C8.21888 30.294 8.58951 31.1874 9.24843 31.8463C9.90735 32.5053 10.8007 32.8759 11.7326 32.877Z" fill="url(#paint0_linear_411_14680)"/>
<defs>
<linearGradient id="paint0_linear_411_14680" x1="22.5" y1="45" x2="22.5" y2="0" gradientUnits="userSpaceOnUse">
<stop stop-color="#098AD4"/>
<stop offset="1" stop-color="#2F4496"/>
</linearGradient>
</defs>
</svg>
