<svg width="60" height="61" viewBox="0 0 60 61" fill="none" xmlns="http://www.w3.org/2000/svg">
<path d="M31.9918 40.1556H47.9868C48.5866 40.1556 48.9864 39.7491 48.9864 39.1393V29.9921C48.9864 29.3823 48.5866 28.9758 47.9868 28.9758H31.9918C31.392 28.9758 30.9922 29.3823 30.9922 29.9921V39.1393C30.9921 39.749 31.392 40.1556 31.9918 40.1556ZM32.9915 31.0084H46.9871V38.1229H32.9915V31.0084Z" fill="#F1EE00"/>
<path d="M4.99965 26.943H12.9972C13.597 26.943 13.9968 26.5365 13.9968 25.9267C13.9968 25.3169 13.597 24.9104 12.9972 24.9104H4.99965C4.39984 24.9104 4 25.3169 4 25.9267C4 26.5365 4.39984 26.943 4.99965 26.943Z" fill="#2751A0"/>
<path d="M16.9957 26.943H24.9933C25.5931 26.943 25.9929 26.5365 25.9929 25.9267C25.9929 25.3169 25.5931 24.9104 24.9933 24.9104H16.9957C16.3959 24.9104 15.9961 25.3169 15.9961 25.9267C15.9961 26.5365 16.3959 26.943 16.9957 26.943Z" fill="#2751A0"/>
<path d="M4.99965 31.0084H17.9956C18.5954 31.0084 18.9952 30.6019 18.9952 29.9921C18.9952 29.3823 18.5954 28.9758 17.9956 28.9758H4.99965C4.39984 28.9758 4 29.3823 4 29.9921C4 30.6019 4.39984 31.0084 4.99965 31.0084Z" fill="#2751A0"/>
<path d="M24.9909 28.9756H21.9918C21.392 28.9756 20.9922 29.3821 20.9922 29.9919C20.9922 30.6017 21.392 31.0082 21.9918 31.0082H24.9909C25.5907 31.0082 25.9905 30.6017 25.9905 29.9919C25.9905 29.3821 25.5907 28.9756 24.9909 28.9756Z" fill="#2751A0"/>
<path d="M59.0815 16.3729C58.3818 15.4582 57.4821 14.9499 56.3824 14.8483L53.9831 14.5527V11.6976V9.66497C53.9831 7.42904 52.1837 5.59961 49.9844 5.59961H3.99871C1.79944 5.59949 0 7.42892 0 9.66497V11.6977V19.8285V42.1882C0 44.0239 1.21333 45.5848 2.86469 46.085C2.81432 48.141 4.34442 49.9258 6.39808 50.1157L52.5837 55.4007C52.6836 55.4007 52.8836 55.4007 52.9835 55.4007C54.9829 55.4007 56.7823 53.8761 56.9822 51.9451L59.9813 19.3203C60.0812 18.3039 59.7813 17.1859 59.0815 16.3729ZM1.99941 12.714H51.9838V15.3566V18.8121H1.99941V12.714ZM3.99871 7.63223H49.9843C51.084 7.63223 51.9837 8.54694 51.9837 9.66497V10.6813H1.99941V9.66497C1.99941 8.54694 2.89913 7.63223 3.99871 7.63223ZM1.99941 42.1881V20.8447H51.9838V42.1881C51.9838 43.3061 51.0841 44.2208 49.9844 44.2208H4.09876H3.99883C2.89913 44.2208 1.99941 43.3061 1.99941 42.1881ZM57.9818 18.9137L54.9828 51.5385C54.8829 52.6565 53.8831 53.4695 52.7835 53.3679L6.69787 48.083C5.69822 47.9814 4.99836 47.1682 4.89843 46.2535H49.9843C52.1836 46.2535 53.983 44.4241 53.983 42.1882V19.8284V16.4745L56.2823 16.6778C56.7822 16.6778 57.282 16.9827 57.5819 17.3892C57.8819 17.7957 58.0819 18.4055 57.9818 18.9137Z" fill="#2751A0"/>
</svg>
