<svg width="47" height="47" viewBox="0 0 47 47" fill="none" xmlns="http://www.w3.org/2000/svg">
<g clip-path="url(#clip0_352_121)">
<path d="M40.079 17.0147C39.7032 16.8663 39.2768 17.0467 39.1266 17.4174L38.4458 19.0966C37.6403 16.136 35.9418 13.4563 33.5606 11.4323C30.7373 9.0322 27.1273 7.71042 23.3958 7.71042C20.8372 7.71042 18.3339 8.32708 16.0943 9.50063C15.8637 7.41187 15.4514 5.7038 14.8497 4.33396C13.5868 1.45812 11.4665 0 8.5475 0C5.62851 0 3.50818 1.45812 2.24526 4.33396C1.29189 6.50522 0.813094 9.52479 0.781474 13.5654C0.777087 14.1287 1.11925 14.6452 1.65324 14.8811C2.13806 15.0954 2.6641 15.2842 3.22688 15.4471L1.55043 16.3923C0.594125 16.9314 0 17.9415 0 19.0282V19.999C0 21.2479 1.02978 22.2639 2.29562 22.2639H14.7994C16.0652 22.2639 17.095 21.2479 17.095 19.999V19.0282C17.095 17.9415 16.5009 16.9314 15.5445 16.3922L13.8684 15.4472C14.431 15.2845 14.9568 15.0954 15.4416 14.881C15.9754 14.645 16.3177 14.1285 16.3134 13.5653C16.3066 12.6909 16.2788 11.8644 16.2297 11.0838C18.3947 9.82289 20.8648 9.15609 23.3958 9.15609C26.7764 9.15609 30.0467 10.3534 32.6043 12.5274C34.8511 14.4372 36.4268 16.99 37.1166 19.8032L35.5576 18.6496C35.234 18.4101 34.7747 18.4748 34.532 18.7941C34.2892 19.1134 34.3549 19.5666 34.6785 19.8061L37.8045 22.1192C37.9327 22.2141 38.0872 22.2637 38.244 22.2637C38.3102 22.2637 38.3767 22.2549 38.4417 22.237C38.6612 22.1763 38.8395 22.0182 38.9241 21.8093L40.487 17.954C40.6375 17.5836 40.4547 17.163 40.079 17.0147ZM14.8177 17.6476C15.3187 17.9301 15.6299 18.4592 15.6299 19.0284V19.9991C15.6299 20.4508 15.2574 20.8183 14.7996 20.8183H2.2958C1.83776 20.8183 1.46525 20.4508 1.46525 19.9991V19.0283C1.46525 18.4591 1.77653 17.93 2.27743 17.6475L4.08795 16.6268C4.4069 17.0722 5.99215 19.1496 8.31592 19.9138C8.39113 19.9386 8.46936 19.9509 8.54759 19.9509C8.62582 19.9509 8.70405 19.9386 8.77926 19.9138C11.103 19.1496 12.6883 17.0722 13.0072 16.6268L14.8177 17.6476ZM6.81639 14.4199L7.36647 14.7455C7.73075 14.9611 8.13917 15.0689 8.54759 15.0689C8.95601 15.0689 9.36443 14.9611 9.72871 14.7455L10.2788 14.4199C10.4555 14.9428 10.8204 15.3937 11.3162 15.6732L11.7272 15.905C11.3616 16.389 10.1714 17.8316 8.54777 18.4592C6.9331 17.8341 5.73617 16.3889 5.3686 15.9048L5.77921 15.6733C6.27482 15.3938 6.63974 14.9428 6.81639 14.4199ZM5.37271 10.9789V7.59239C5.85863 7.56858 6.54131 7.51863 7.28358 7.41412C8.83492 7.19546 10.0243 6.82604 10.8328 6.31307L11.7223 7.19059V10.9789C11.7223 11.5343 11.4225 12.0568 10.9397 12.3426L8.97465 13.5059C8.71118 13.6618 8.38373 13.6618 8.12025 13.5059L6.15519 12.3426C5.67265 12.0567 5.37271 11.5343 5.37271 10.9789ZM14.8426 13.5618C14.0431 13.9152 13.0664 14.2017 12.0098 14.3963C11.7718 14.2464 11.6245 13.9833 11.6245 13.6982V13.6231L11.6936 13.5823C12.6151 13.0368 13.1875 12.0392 13.1875 10.9789V6.89123C13.1875 6.69954 13.1104 6.51577 12.973 6.38016L11.41 4.83809C11.1239 4.55577 10.66 4.55577 10.3739 4.83809C9.85739 5.34773 8.69235 5.75348 7.09349 5.98053C5.791 6.16547 4.65128 6.16844 4.64013 6.16844C4.23555 6.16844 3.90746 6.49206 3.90746 6.89132V10.9789C3.90746 12.0392 4.47992 13.0369 5.40141 13.5823L5.4705 13.6231V13.6982C5.4705 13.9835 5.32309 14.2467 5.08511 14.3965C4.02892 14.202 3.05169 13.9151 2.25248 13.5618C2.2502 13.5609 2.24846 13.5599 2.24691 13.5591C2.27807 9.72533 2.71747 6.89556 3.58988 4.90878C4.61317 2.57855 6.23479 1.44586 8.5475 1.44586C10.8602 1.44586 12.4819 2.57864 13.5051 4.90878C14.3775 6.89556 14.8168 9.72542 14.8481 13.5591C14.8466 13.5599 14.8448 13.5608 14.8426 13.5618Z" fill="#2751A0"/>
<path d="M44.7951 38.8065L41.0786 37.4314C40.8365 37.3418 40.6542 37.1455 40.5784 36.9093L40.9488 36.6352C41.6669 36.1037 42.1131 35.2921 42.1728 34.4084L42.3477 31.8184C42.3477 31.8182 42.3477 31.818 42.3478 31.8178C42.3478 31.8178 42.3478 31.8177 42.3478 31.8176L42.6603 27.1916C42.7311 26.1442 42.3549 25.104 41.6281 24.3375C40.9012 23.571 39.8742 23.1313 38.8103 23.1313H34.552C33.4882 23.1313 32.4611 23.571 31.7344 24.3374C31.0076 25.104 30.6313 26.1443 30.7021 27.1916L31.1897 34.4084C31.1958 34.4979 31.2068 34.5864 31.2207 34.6742C28.901 36.2028 26.2054 37.0102 23.396 37.0102C20.0155 37.0102 16.7451 35.8129 14.1876 33.6389C11.9408 31.7291 10.365 29.1762 9.67521 26.363L11.2341 27.5167C11.5578 27.7563 12.0172 27.6914 12.2598 27.3722C12.5025 27.0529 12.4369 26.5997 12.1133 26.3602L8.98732 24.0471C8.805 23.9123 8.56949 23.8686 8.34988 23.9293C8.13036 23.99 7.95215 24.1481 7.86752 24.357L6.30458 28.2123C6.15424 28.5829 6.33702 29.0036 6.71272 29.1519C6.80201 29.1871 6.89404 29.2038 6.98461 29.2038C7.27541 29.2038 7.55049 29.0318 7.6651 28.7491L8.34586 27.0701C9.15137 30.0307 10.8499 32.7103 13.2312 34.7345C16.0546 37.1344 19.6645 38.4562 23.396 38.4562C26.4029 38.4562 29.2926 37.6191 31.8001 36.0297C31.973 36.2567 32.1785 36.4614 32.4138 36.6356L32.7842 36.9097C32.7085 37.1458 32.5261 37.3421 32.2839 37.4317L28.5675 38.8068C27.3732 39.2486 26.5708 40.3911 26.5708 41.6495V43.9017C26.5708 45.1506 27.6006 46.1667 28.8664 46.1667H44.4962C45.762 46.1663 46.7918 45.1503 46.7918 43.9014V41.6491C46.7918 40.3907 45.9894 39.2483 44.7951 38.8065ZM32.1642 27.0954C32.1197 26.4363 32.347 25.8076 32.8045 25.3252C33.262 24.8427 33.8825 24.577 34.5522 24.577H38.8104C39.48 24.577 40.1007 24.8427 40.5582 25.3252C41.0157 25.8076 41.243 26.4363 41.1985 27.0954L41.1913 27.202C38.7011 28.6013 33.7094 29.1424 32.3113 29.27L32.1642 27.0954ZM32.6519 34.3122L32.4087 30.7139C33.7148 30.5989 38.1676 30.1293 41.0786 28.869L40.8858 31.7222C40.8047 32.9168 39.7114 33.9259 38.4979 33.9259H36.6813C36.2767 33.9259 35.9487 34.2495 35.9487 34.6488C35.9487 35.048 36.2767 35.3717 36.6813 35.3717H38.4979C39.2741 35.3717 40.0098 35.1284 40.6272 34.7163C40.5239 35.017 40.3326 35.2842 40.0698 35.4787L38.43 36.6921C38.1529 36.8972 37.8093 37.0101 37.4629 37.0101H35.8999C35.5536 37.0101 35.21 36.8971 34.9329 36.6921L33.2931 35.4787C32.9168 35.2003 32.6831 34.7752 32.6519 34.3122ZM35.9487 44.7206H28.8664C28.4086 44.7206 28.036 44.3531 28.036 43.9014V41.6491C28.036 40.99 28.4563 40.3915 29.082 40.1602L31.7107 39.1876L35.9487 41.9752V44.7206ZM33.3204 38.5087C33.5903 38.3185 33.8148 38.0739 33.9789 37.7934L34.0535 37.8486C34.5827 38.2402 35.2384 38.4558 35.8998 38.4558H37.4627C38.1241 38.4558 38.7798 38.2402 39.309 37.8486L39.3834 37.7935C39.5477 38.0741 39.7722 38.3186 40.042 38.5088L36.6812 40.7194L33.3204 38.5087ZM45.3266 43.9014H45.3265C45.3265 44.3531 44.954 44.7206 44.4962 44.7206H37.4139V41.9752L41.6519 39.1875L44.2807 40.1601C44.9062 40.3914 45.3266 40.9899 45.3266 41.649V43.9014Z" fill="#2751A0"/>
</g>
<defs>
<clipPath id="clip0_352_121">
<rect width="46.7915" height="46.1664" fill="white"/>
</clipPath>
</defs>
</svg>
