<svg width="41" height="37" viewBox="0 0 41 37" fill="none" xmlns="http://www.w3.org/2000/svg">
<path d="M26.9062 24.1875H14.0938C13.9238 24.1875 13.7609 24.12 13.6408 23.9999C13.5206 23.8797 13.4531 23.7168 13.4531 23.5469C13.4531 23.377 13.5206 23.214 13.6408 23.0939C13.7609 22.9737 13.9238 22.9062 14.0938 22.9062H26.9062C27.0762 22.9062 27.2391 22.9737 27.3592 23.0939C27.4794 23.214 27.5469 23.377 27.5469 23.5469C27.5469 23.7168 27.4794 23.8797 27.3592 23.9999C27.2391 24.12 27.0762 24.1875 26.9062 24.1875Z" fill="#2751A0"/>
<path d="M39.0781 24.1875H34.5938C34.4238 24.1875 34.2609 24.12 34.1408 23.9999C34.0206 23.8797 33.9531 23.7168 33.9531 23.5469C33.9531 23.377 34.0206 23.214 34.1408 23.0939C34.2609 22.9737 34.4238 22.9062 34.5938 22.9062H39.0781C39.248 22.9062 39.411 22.9737 39.5311 23.0939C39.6513 23.214 39.7188 23.377 39.7188 23.5469C39.7188 23.7168 39.6513 23.8797 39.5311 23.9999C39.411 24.12 39.248 24.1875 39.0781 24.1875Z" fill="#2751A0"/>
<path d="M10.25 29.3125C9.61648 29.3125 8.99719 29.1246 8.47044 28.7727C7.94369 28.4207 7.53314 27.9205 7.2907 27.3352C7.04826 26.7499 6.98483 26.1058 7.10842 25.4845C7.23202 24.8631 7.53709 24.2924 7.98505 23.8444C8.43302 23.3965 9.00376 23.0914 9.6251 22.9678C10.2464 22.8442 10.8905 22.9076 11.4758 23.1501C12.0611 23.3925 12.5613 23.8031 12.9133 24.3298C13.2653 24.8566 13.4531 25.4759 13.4531 26.1094C13.4521 26.9586 13.1143 27.7727 12.5138 28.3732C11.9133 28.9737 11.0992 29.3115 10.25 29.3125ZM10.25 24.1875C9.86989 24.1875 9.49832 24.3002 9.18227 24.5114C8.86621 24.7226 8.61988 25.0227 8.47442 25.3739C8.32896 25.7251 8.2909 26.1115 8.36505 26.4843C8.43921 26.8571 8.62225 27.1996 8.89103 27.4683C9.15981 27.7371 9.50226 27.9202 9.87506 27.9943C10.2479 28.0685 10.6343 28.0304 10.9855 27.885C11.3366 27.7395 11.6368 27.4932 11.848 27.1771C12.0592 26.8611 12.1719 26.4895 12.1719 26.1094C12.1719 25.5997 11.9694 25.1108 11.609 24.7504C11.2486 24.39 10.7597 24.1875 10.25 24.1875Z" fill="#2751A0"/>
<path d="M39.0781 26.75H35.2344C35.0645 26.75 34.9015 26.6825 34.7814 26.5624C34.6612 26.4422 34.5938 26.2793 34.5938 26.1094C34.5938 25.09 34.1888 24.1123 33.4679 23.3914C32.7471 22.6706 31.7694 22.2656 30.75 22.2656C29.7306 22.2656 28.7529 22.6706 28.0321 23.3914C27.3112 24.1123 26.9063 25.09 26.9063 26.1094C26.9063 26.2793 26.8388 26.4422 26.7186 26.5624C26.5985 26.6825 26.4355 26.75 26.2656 26.75H14.7344C14.5645 26.75 14.4015 26.6825 14.2814 26.5624C14.1612 26.4422 14.0938 26.2793 14.0938 26.1094C14.0938 25.09 13.6888 24.1123 12.9679 23.3914C12.2471 22.6706 11.2694 22.2656 10.25 22.2656C9.23058 22.2656 8.2529 22.6706 7.53206 23.3914C6.81122 24.1123 6.40625 25.09 6.40625 26.1094C6.40625 26.2793 6.33876 26.4422 6.21862 26.5624C6.09848 26.6825 5.93553 26.75 5.76563 26.75C5.59572 26.75 5.43278 26.6825 5.31264 26.5624C5.1925 26.4422 5.125 26.2793 5.125 26.1094C5.12403 24.805 5.62042 23.5494 6.51303 22.5983C7.40564 21.6473 8.62729 21.0723 9.92907 20.9906C11.2309 20.9089 12.5148 21.3267 13.5193 22.1587C14.5238 22.9908 15.1732 24.1745 15.3353 25.4688H25.6647C25.8199 24.2295 26.4223 23.0895 27.3587 22.2631C28.2951 21.4366 29.5011 20.9806 30.75 20.9806C31.9989 20.9806 33.2049 21.4366 34.1413 22.2631C35.0777 23.0895 35.6801 24.2295 35.8353 25.4688H38.4375V19.4584L34.948 17.7172C34.8074 17.647 34.6975 17.5275 34.6392 17.3815L31.1158 8.57804C31.0694 8.45857 30.988 8.35588 30.8823 8.28342C30.7765 8.21095 30.6514 8.17208 30.5232 8.17188H23.7031V19.7031C23.7031 19.873 23.6356 20.036 23.5155 20.1561C23.3954 20.2763 23.2324 20.3438 23.0625 20.3438H5.76563C5.59572 20.3438 5.43278 20.2763 5.31264 20.1561C5.1925 20.036 5.125 19.873 5.125 19.7031C5.125 19.5332 5.1925 19.3703 5.31264 19.2501C5.43278 19.13 5.59572 19.0625 5.76563 19.0625H22.4219V7.53126C22.4219 7.36135 22.4894 7.19841 22.6095 7.07827C22.7297 6.95813 22.8926 6.89063 23.0625 6.89063H30.5232C30.9077 6.88944 31.2835 7.00406 31.6019 7.21957C31.9202 7.43508 32.1663 7.74148 32.308 8.09885L35.7385 16.6762L39.3645 18.4891C39.471 18.5424 39.5605 18.6242 39.6231 18.7255C39.6857 18.8268 39.7188 18.9435 39.7188 19.0625V26.1094C39.7188 26.2793 39.6513 26.4422 39.5311 26.5624C39.411 26.6825 39.248 26.75 39.0781 26.75Z" fill="#2751A0"/>
<path d="M30.75 29.3125C30.1165 29.3125 29.4972 29.1246 28.9704 28.7727C28.4437 28.4207 28.0331 27.9205 27.7907 27.3352C27.5483 26.7499 27.4848 26.1058 27.6084 25.4845C27.732 24.8631 28.0371 24.2924 28.4851 23.8444C28.933 23.3965 29.5038 23.0914 30.1251 22.9678C30.7464 22.8442 31.3905 22.9076 31.9758 23.1501C32.5611 23.3925 33.0613 23.8031 33.4133 24.3298C33.7653 24.8566 33.9531 25.4759 33.9531 26.1094C33.9521 26.9586 33.6143 27.7727 33.0138 28.3732C32.4133 28.9737 31.5992 29.3115 30.75 29.3125ZM30.75 24.1875C30.3699 24.1875 29.9983 24.3002 29.6823 24.5114C29.3662 24.7226 29.1199 25.0227 28.9744 25.3739C28.829 25.7251 28.7909 26.1115 28.8651 26.4843C28.9392 26.8571 29.1223 27.1996 29.391 27.4683C29.6598 27.7371 30.0023 27.9202 30.3751 27.9943C30.7479 28.0685 31.1343 28.0304 31.4855 27.885C31.8366 27.7395 32.1368 27.4932 32.348 27.1771C32.5592 26.8611 32.6719 26.4895 32.6719 26.1094C32.6719 25.5997 32.4694 25.1108 32.109 24.7504C31.7485 24.39 31.2597 24.1875 30.75 24.1875Z" fill="#2751A0"/>
<path d="M32.0313 17.7812H25.625C25.4551 17.7812 25.2921 17.7138 25.172 17.5936C25.0519 17.4735 24.9844 17.3105 24.9844 17.1406V10.0938C24.9844 9.92385 25.0519 9.7609 25.172 9.64076C25.2921 9.52062 25.4551 9.45313 25.625 9.45313H29.4688C29.6003 9.45309 29.7286 9.49352 29.8363 9.56893C29.944 9.64434 30.026 9.75108 30.0709 9.87466L32.6334 16.9215C32.6687 17.0183 32.68 17.1222 32.6666 17.2243C32.6531 17.3264 32.6152 17.4238 32.5562 17.5082C32.4971 17.5925 32.4185 17.6614 32.3271 17.7089C32.2357 17.7565 32.1343 17.7813 32.0313 17.7812ZM26.2656 16.5H31.1164L29.0203 10.7344H26.2656V16.5Z" fill="#2751A0"/>
<path d="M23.0625 8.17188C22.8926 8.17188 22.7296 8.10438 22.6095 7.98424C22.4894 7.8641 22.4219 7.70115 22.4219 7.53125V4.96875H8.32812C8.15822 4.96875 7.99528 4.90126 7.87513 4.78112C7.75499 4.66097 7.6875 4.49803 7.6875 4.32812C7.6875 4.15822 7.75499 3.99528 7.87513 3.87513C7.99528 3.75499 8.15822 3.6875 8.32812 3.6875H23.0625C23.2324 3.6875 23.3954 3.75499 23.5155 3.87513C23.6356 3.99528 23.7031 4.15822 23.7031 4.32812V7.53125C23.7031 7.70115 23.6356 7.8641 23.5155 7.98424C23.3954 8.10438 23.2324 8.17188 23.0625 8.17188Z" fill="#2751A0"/>
<path d="M5.76562 4.96875H3.84375C3.67385 4.96875 3.5109 4.90126 3.39076 4.78112C3.27062 4.66097 3.20312 4.49803 3.20312 4.32812C3.20312 4.15822 3.27062 3.99528 3.39076 3.87513C3.5109 3.75499 3.67385 3.6875 3.84375 3.6875H5.76562C5.93553 3.6875 6.09847 3.75499 6.21862 3.87513C6.33876 3.99528 6.40625 4.15822 6.40625 4.32812C6.40625 4.49803 6.33876 4.66097 6.21862 4.78112C6.09847 4.90126 5.93553 4.96875 5.76562 4.96875Z" fill="#2751A0"/>
<path d="M11.5312 9.45312H2.5625C2.3926 9.45312 2.22965 9.38563 2.10951 9.26549C1.98937 9.14535 1.92188 8.9824 1.92188 8.8125C1.92188 8.6426 1.98937 8.47965 2.10951 8.35951C2.22965 8.23937 2.3926 8.17188 2.5625 8.17188H11.5312C11.7012 8.17188 11.8641 8.23937 11.9842 8.35951C12.1044 8.47965 12.1719 8.6426 12.1719 8.8125C12.1719 8.9824 12.1044 9.14535 11.9842 9.26549C11.8641 9.38563 11.7012 9.45312 11.5312 9.45312Z" fill="#F1EE00"/>
<path d="M7.60742 15.2188H1.92188C1.75197 15.2188 1.58903 15.1513 1.46888 15.0311C1.34874 14.911 1.28125 14.748 1.28125 14.5781C1.28125 14.4082 1.34874 14.2453 1.46888 14.1251C1.58903 14.005 1.75197 13.9375 1.92188 13.9375H7.60742C7.77733 13.9375 7.94027 14.005 8.06041 14.1251C8.18055 14.2453 8.24805 14.4082 8.24805 14.5781C8.24805 14.748 8.18055 14.911 8.06041 15.0311C7.94027 15.1513 7.77733 15.2188 7.60742 15.2188Z" fill="#F1EE00"/>
<path d="M3.20312 20.3438H1.92188C1.75197 20.3438 1.58903 20.2763 1.46888 20.1561C1.34874 20.036 1.28125 19.873 1.28125 19.7031C1.28125 19.5332 1.34874 19.3703 1.46888 19.2501C1.58903 19.13 1.75197 19.0625 1.92188 19.0625H3.20312C3.37303 19.0625 3.53597 19.13 3.65612 19.2501C3.77626 19.3703 3.84375 19.5332 3.84375 19.7031C3.84375 19.873 3.77626 20.036 3.65612 20.1561C3.53597 20.2763 3.37303 20.3438 3.20312 20.3438Z" fill="#F1EE00"/>
</svg>
