<svg width="24" height="24" viewBox="0 0 24 24" fill="none" xmlns="http://www.w3.org/2000/svg">
<path d="M21.1667 3.95H2.83335C1.79459 3.95 0.95 4.79459 0.95 5.83335V18.6667C0.95 19.7054 1.79459 20.55 2.83335 20.55H21.1667C22.2054 20.55 23.05 19.7054 23.05 18.6667V5.83335C23.05 4.79459 22.2054 3.95 21.1667 3.95ZM2.83335 4.96665H21.1667C21.1945 4.96665 21.2216 4.9717 21.2512 4.97918C21.2527 4.97954 21.2541 4.97992 21.2556 4.98031C19.5916 6.50322 14.4479 11.2085 12.6317 12.8448C12.4915 12.9711 12.2708 13.1167 12 13.1167C11.7293 13.1167 11.5086 12.9711 11.3679 12.8444C9.55191 11.2083 4.40797 6.50284 2.74412 4.9804C2.74568 4.97999 2.74721 4.9796 2.74871 4.97922C2.77838 4.97171 2.80558 4.96665 2.83335 4.96665ZM1.96665 18.6667V5.83335C1.96665 5.77776 1.97809 5.72566 1.99336 5.67103C3.25672 6.82728 6.81626 10.0834 9.16074 12.2156C6.82287 14.2276 3.26306 17.5994 1.99053 18.8122C1.97697 18.7629 1.96665 18.7167 1.96665 18.6667ZM2.83335 19.5333C2.80251 19.5333 2.77236 19.528 2.74022 19.52C2.73535 19.5188 2.7305 19.5176 2.72562 19.5163C4.04153 18.2625 7.62563 14.87 9.91931 12.9046C10.2105 13.1687 10.4762 13.4093 10.6873 13.5995C11.0732 13.9479 11.527 14.1333 12 14.1333C12.473 14.1333 12.9268 13.9479 13.3122 13.5999C13.5234 13.4096 13.7893 13.1689 14.0807 12.9046C16.3745 14.8698 19.9581 18.2621 21.2744 19.5163C21.2695 19.5176 21.2647 19.5188 21.2598 19.52C21.2277 19.528 21.1975 19.5333 21.1667 19.5333H2.83335ZM22.0333 18.6667C22.0333 18.7167 22.023 18.7629 22.0095 18.8122C20.7365 17.5988 17.1771 14.2274 14.8393 12.2156C17.1839 10.0834 20.7429 6.82758 22.0066 5.67095C22.0219 5.72559 22.0333 5.77771 22.0333 5.8333V18.6667Z" fill="#2751A0" stroke="#2751A0" stroke-width="0.1"/>
</svg>
