<svg width="64" height="64" viewBox="0 0 64 64" fill="none" xmlns="http://www.w3.org/2000/svg">
<path d="M64 0H0V64H64V0Z" fill="#FDC858"/>
<path d="M8 22.5808L29.7276 3.07464C31.3621 1.63459 33.6744 1.63459 35.2691 3.11828L56 22.5371V49.8544C56 52.1236 54.3256 54 52.2126 54H11.7874C9.71429 54 8 52.1672 8 49.8544V22.5808Z" fill="#2B2A28"/>
<path d="M41 35H23V23H25.52L26.6 27L27.36 23H34.52L36.2 29.2222L37.96 23H41V35Z" fill="white"/>
<path d="M23 37V40.5714L25.8 41.4643C28.28 42.1339 29.8 43.5179 29.8 46.375V58.4732C29.8 59.9018 31.2 62 32.16 62C33.36 62 34.44 59.9464 34.48 58.5179L34.56 46.4196C34.56 44.0536 35.44 42.2679 38 41.2411L41 40.5714V37H23ZM32.2 59.3214C31.52 59.3214 31 58.2054 31 56.8661C31 55.5268 31.52 54.4107 32.2 54.4107C32.88 54.4107 33.4 55.5268 33.4 56.8661C33.4 58.2054 32.84 59.3214 32.2 59.3214Z" fill="white"/>
</svg>
