<svg width="24" height="18" viewBox="0 0 24 18" fill="none" xmlns="http://www.w3.org/2000/svg">
<path d="M2.74022 16.52C2.77236 16.528 2.80251 16.5333 2.83335 16.5333H21.1667C21.1975 16.5333 21.2277 16.528 21.2598 16.52C21.2647 16.5188 21.2695 16.5176 21.2744 16.5163C19.9581 15.2621 16.3745 11.8698 14.0807 9.90462C13.7893 10.1689 13.5234 10.4096 13.3122 10.5999C12.9268 10.9479 12.473 11.1333 12 11.1333C11.527 11.1333 11.0732 10.9479 10.6873 10.5995M2.74022 16.52L10.7208 10.5624M2.74022 16.52C2.73535 16.5188 2.7305 16.5176 2.72562 16.5163M2.74022 16.52L2.72562 16.5163M10.6873 10.5995L10.7208 10.5624M10.6873 10.5995C10.6873 10.5995 10.6873 10.5995 10.6873 10.5995L10.7208 10.5624M10.6873 10.5995C10.4762 10.4093 10.2105 10.1687 9.91932 9.90462M10.7208 10.5624C10.5019 10.3651 10.2242 10.1137 9.92027 9.83798L9.95277 9.87598C9.94165 9.88549 9.9305 9.89504 9.91932 9.90462M9.91932 9.90462C7.62563 11.87 4.04153 15.2625 2.72562 16.5163M9.91932 9.90462L2.72562 16.5163M21.1667 0.95H2.83335C1.79459 0.95 0.95 1.79459 0.95 2.83335V15.6667C0.95 16.7054 1.79459 17.55 2.83335 17.55H21.1667C22.2054 17.55 23.05 16.7054 23.05 15.6667V2.83335C23.05 1.79459 22.2054 0.95 21.1667 0.95ZM2.83335 1.96665H21.1667C21.1945 1.96665 21.2216 1.9717 21.2512 1.97918C21.2527 1.97954 21.2541 1.97992 21.2556 1.98031C19.5916 3.50322 14.4479 8.20848 12.6317 9.84484C12.4915 9.9711 12.2708 10.1167 12 10.1167C11.7293 10.1167 11.5086 9.97111 11.3679 9.8444C9.55191 8.20831 4.40797 3.50284 2.74412 1.9804C2.74568 1.97999 2.74721 1.9796 2.74871 1.97922C2.77838 1.97171 2.80558 1.96665 2.83335 1.96665ZM1.96665 15.6667V2.83335C1.96665 2.77776 1.97809 2.72566 1.99336 2.67103C3.25672 3.82728 6.81626 7.08341 9.16074 9.21561C6.82287 11.2276 3.26306 14.5994 1.99053 15.8122C1.97697 15.7629 1.96665 15.7167 1.96665 15.6667ZM22.0333 15.6667C22.0333 15.7167 22.023 15.7629 22.0095 15.8122C20.7365 14.5988 17.1771 11.2274 14.8393 9.21565C17.1839 7.08344 20.7429 3.82758 22.0066 2.67095C22.0219 2.72559 22.0333 2.77771 22.0333 2.8333V15.6667Z" fill="#2751A0" stroke="#2751A0" stroke-width="0.1"/>
</svg>
