<svg width="22" height="22" viewBox="0 0 22 22" fill="none" xmlns="http://www.w3.org/2000/svg">
<path d="M6.1566 18.7418C6.0783 18.6927 5.98864 18.6681 5.89923 18.6681C5.85104 18.6681 5.80323 18.6754 5.75724 18.6893L5.75673 18.6894L2.46956 19.7013C2.73009 18.7512 3.14844 17.2336 3.39727 16.3664C3.43606 16.2316 3.41419 16.0864 3.33823 15.9688L3.33808 15.9686C2.37713 14.4899 1.86923 12.7719 1.86923 11C1.86923 5.96561 5.96561 1.86923 11 1.86923C16.0344 1.86923 20.1308 5.96561 20.1308 11C20.1308 16.0344 16.0344 20.1308 11 20.1308C9.28064 20.1308 7.60599 19.6503 6.1566 18.7418ZM6.1566 18.7418L6.10346 18.8265L6.15657 18.7418C6.15658 18.7418 6.15659 18.7418 6.1566 18.7418ZM5.83296 19.6798C7.39218 20.6097 9.17383 21.1 11 21.1C16.5695 21.1 21.1 16.5695 21.1 11C21.1 5.43054 16.5695 0.9 11 0.9C5.43054 0.9 0.9 5.43054 0.9 11C0.9 12.8849 1.41964 14.7153 2.40591 16.3083C2.20917 16.9987 1.93855 17.9757 1.7145 18.7897C1.60013 19.2051 1.49787 19.5782 1.42372 19.8491L1.33558 20.1714L1.31108 20.261L1.30439 20.2855L1.30253 20.2923L1.302 20.2942L1.30182 20.2948L1.3016 20.2956C1.25509 20.4661 1.30497 20.6485 1.4326 20.7713C1.5599 20.8938 1.7438 20.9374 1.9116 20.886L1.91171 20.886L5.83296 19.6798Z" fill="#2751A0" stroke="#2751A0" stroke-width="0.2"/>
<path d="M15.8314 12.1943L15.8313 12.1943L15.8288 12.1926C15.4956 11.975 15.247 11.8127 15.0627 11.7202L15.0624 11.7201C14.5236 11.4513 14.0994 11.6365 13.9263 11.8111C13.9038 11.8337 13.8834 11.8584 13.8658 11.8848L13.8657 11.8848C13.6094 12.2695 13.3137 12.6459 13.0582 12.9304C12.9304 13.0727 12.8139 13.1906 12.7185 13.2746C12.6707 13.3166 12.6297 13.3489 12.5962 13.3712C12.5759 13.3848 12.561 13.3929 12.551 13.3975C12.5324 13.3924 12.5059 13.3833 12.4705 13.3688C12.4206 13.3484 12.3584 13.3195 12.2853 13.2823C12.1393 13.208 11.9532 13.1023 11.7402 12.9697C11.3144 12.7044 10.7842 12.3332 10.2557 11.8931C9.71594 11.4433 9.27855 11.0049 8.96456 10.6078C8.66733 10.232 8.4872 9.9012 8.42866 9.63806C9.10262 8.93774 9.36896 8.46846 9.36896 7.923C9.36896 7.8413 9.3459 7.73709 9.31104 7.62342C9.27551 7.50756 9.22505 7.37357 9.16469 7.22924C9.04391 6.94045 8.88113 6.60472 8.71203 6.2799C8.54283 5.95488 8.36653 5.6393 8.21822 5.39052C8.1441 5.26618 8.07659 5.15789 8.0202 5.07316C7.96554 4.99104 7.91676 4.92399 7.88082 4.88805L7.88076 4.88799C7.744 4.75147 7.5332 4.68311 7.27188 4.66487C7.00873 4.64651 6.67979 4.67789 6.28941 4.75569L6.28941 4.75569L6.28915 4.75575C6.19576 4.77462 6.10969 4.82056 6.04196 4.8878L6.04171 4.88805C5.99098 4.93878 5.41208 5.52893 4.97667 6.45042C4.54079 7.37288 4.24539 8.6353 4.77793 10.02L4.77793 10.02C5.35345 11.5163 6.37868 13.1318 7.73044 14.4446C9.08221 15.7573 10.7657 16.7722 12.6584 17.0561L12.6584 17.0561C13.0868 17.1202 13.4895 17.1522 13.8674 17.1522C14.9822 17.1522 15.8806 16.8716 16.5477 16.3018C17.2146 15.7321 17.6382 14.8838 17.8233 13.7719C17.8577 13.5696 17.7602 13.368 17.581 13.2686C16.8745 12.8764 16.2727 12.4828 15.8315 12.1944L15.8314 12.1943ZM12.8023 16.0976L12.8022 16.0976C10.858 15.806 9.26863 14.6963 8.06762 13.4066C6.86648 12.1168 6.0604 10.6539 5.68267 9.67209L5.58973 9.70785L5.68267 9.67209C5.31569 8.71831 5.46928 7.81441 5.76151 7.09506C6.04162 6.40551 6.44689 5.89168 6.63138 5.67889C6.7597 5.65823 6.88939 5.64345 7.00217 5.63569C7.09978 5.62897 7.18005 5.62786 7.23483 5.63144C7.37127 5.83374 7.64109 6.31505 7.88966 6.79669C8.02144 7.05204 8.1459 7.30486 8.23967 7.51242C8.28659 7.61627 8.32539 7.70784 8.3535 7.7822C8.38058 7.85383 8.39511 7.90284 8.3997 7.93013C8.39842 8.08928 8.34968 8.34891 7.58025 9.11874C7.489 9.20956 7.43819 9.33278 7.43819 9.46146C7.43819 9.99749 7.71929 10.5713 8.13372 11.1224C8.55007 11.6759 9.11091 12.2196 9.69257 12.6977C10.2746 13.1761 10.8805 13.5914 11.3892 13.8876C11.6436 14.0356 11.875 14.1547 12.0681 14.2371C12.2567 14.3177 12.4219 14.3692 12.5382 14.3692C12.7287 14.3692 12.9237 14.2897 13.111 14.1705C13.2994 14.0506 13.4886 13.8849 13.6695 13.6996C14.013 13.3476 14.3357 12.9154 14.5764 12.5643C14.5909 12.5693 14.6084 12.5766 14.629 12.587L14.674 12.4976L14.629 12.587C14.761 12.6533 14.9948 12.8056 15.3011 13.0059L15.3012 13.0059C15.6885 13.2591 16.2007 13.5936 16.8044 13.9425C16.6601 14.5947 16.3949 15.226 15.828 15.6509C15.2415 16.0904 14.3112 16.3242 12.8023 16.0976Z" fill="#2751A0" stroke="#2751A0" stroke-width="0.2"/>
</svg>
