<svg width="14" height="19" viewBox="0 0 14 19" fill="none" xmlns="http://www.w3.org/2000/svg">
<path d="M7.41765 17.8638C7.37031 17.9499 7.30097 18.0219 7.21671 18.0724C7.13246 18.1229 7.03631 18.1501 6.93808 18.1513H6.93625H6.93548C6.93547 18.1513 6.93545 18.1513 6.93544 18.1513C6.83843 18.1514 6.74311 18.126 6.65897 18.0777C6.57485 18.0294 6.50485 17.9599 6.45595 17.8761C6.45594 17.8761 6.45593 17.8761 6.45591 17.876L6.31823 17.6404L6.31818 17.6404L6.31612 17.6366C5.86486 16.8108 5.36247 15.9538 4.78132 15.0186C3.77499 13.419 2.72543 11.9085 1.82827 10.6372L1.82775 10.6365C0.932208 9.35105 0.553348 7.77562 0.766523 6.22355C0.979699 4.67149 1.76929 3.25654 2.97824 2.26016L3.07364 2.37591L2.97858 2.25988C4.14389 1.30517 5.61585 0.805366 7.12156 0.853133C8.62727 0.900899 10.0646 1.49299 11.167 2.51965C12.2695 3.5463 12.9623 4.93787 13.1171 6.43637C13.2718 7.93486 12.8779 9.43864 12.0085 10.6689L12.0079 10.6698L11.6842 11.1206L11.5621 11.0336L11.6838 11.1211L11.6841 11.1207C10.7844 12.3844 9.85816 13.6854 9.03818 15.0154L9.03792 15.0158C8.7027 15.5557 8.3873 16.105 8.07948 16.6641L8.07942 16.6642L7.41765 17.8638ZM7.41765 17.8638L7.28622 17.7915L7.41756 17.864L7.41765 17.8638ZM2.72261 9.97981L2.72622 9.9827L2.73847 10.0001C3.64049 11.2781 4.70199 12.8054 5.72411 14.4307L5.72462 14.4315C6.16701 15.145 6.56521 15.8144 6.92889 16.4563L7.11015 16.1259L7.1102 16.1258C7.42639 15.5503 7.75249 14.9875 8.09743 14.4295C8.92582 13.0849 9.85363 11.7807 10.7489 10.5223L10.7836 10.4735L10.784 10.473L11.1077 10.0222C11.1077 10.0221 11.1078 10.0221 11.1078 10.022C11.602 9.32881 11.9149 8.52297 12.018 7.6779C12.1212 6.83278 12.0112 5.97528 11.6983 5.1835C11.3853 4.39173 10.8792 3.69082 10.2261 3.14463C9.57307 2.5985 8.79378 2.22439 7.95922 2.05638C7.62192 1.98953 7.27897 1.95523 6.93511 1.95397C5.99952 1.95303 5.08158 2.20868 4.28117 2.69311C3.4807 3.17757 2.82843 3.87228 2.39533 4.70165C1.96222 5.53102 1.76486 6.46329 1.82473 7.39703C1.88414 8.32361 2.19459 9.21641 2.72261 9.97981Z" fill="#2751A0" stroke="#2751A0" stroke-width="0.3"/>
<path d="M6.93609 4.08437C7.52655 4.08437 8.10374 4.25946 8.59469 4.5875C9.08563 4.91554 9.46828 5.3818 9.69423 5.92731C9.92019 6.47281 9.97931 7.07308 9.86412 7.65219C9.74893 8.23129 9.4646 8.76324 9.04708 9.18075C8.62957 9.59827 8.09762 9.8826 7.51851 9.99779C6.93941 10.113 6.33914 10.0539 5.79363 9.82791C5.24813 9.60195 4.78187 9.2193 4.45383 8.72836C4.12579 8.23741 3.9507 7.66022 3.9507 7.06976C3.9507 6.27799 4.26524 5.51864 4.8251 4.95878C5.38497 4.39891 6.14432 4.08437 6.93609 4.08437ZM6.93609 8.94504C7.30699 8.94504 7.66955 8.83506 7.97794 8.629C8.28633 8.42294 8.52669 8.13006 8.66862 7.7874C8.81056 7.44474 8.8477 7.06768 8.77534 6.70392C8.70298 6.34015 8.52438 6.006 8.26212 5.74374C7.99985 5.48148 7.66571 5.30288 7.30194 5.23052C6.93817 5.15816 6.56112 5.1953 6.21846 5.33723C5.87579 5.47917 5.58291 5.71953 5.37686 6.02792C5.1708 6.3363 5.06082 6.69887 5.06082 7.06976C5.06082 7.31603 5.10932 7.55988 5.20356 7.7874C5.2978 8.01492 5.43594 8.22165 5.61007 8.39579C5.78421 8.56992 5.99094 8.70805 6.21846 8.8023C6.44597 8.89654 6.68983 8.94504 6.93609 8.94504Z" fill="#2751A0" stroke="#2751A0" stroke-width="0.3"/>
</svg>
