<svg width="138" height="16" viewBox="0 0 138 16" fill="none" xmlns="http://www.w3.org/2000/svg">
<path fill-rule="evenodd" clip-rule="evenodd" d="M33.7035 2.59988L28.6406 13.5729H29.4786L30.8481 10.5217H37.2595L38.6396 13.5694H39.5268L34.464 2.59634L33.7035 2.59988ZM31.2002 9.78192L34.0767 3.48481L36.932 9.78192H31.2002ZM54.4373 5.76437C54.4412 5.38532 54.3707 5.00921 54.23 4.65755C54.0892 4.30589 53.8809 3.98556 53.6169 3.71489C52.9656 3.06358 51.8988 2.65298 50.5644 2.65298H46.0156V13.5198H46.8219V9.01735H50.3708L53.8247 13.5198H54.8492L51.2686 8.87576C53.0959 8.62798 54.4373 7.58731 54.4373 5.77145V5.76437ZM46.8148 8.28109V3.41047H50.5187C52.4868 3.41047 53.6345 4.32725 53.6345 5.78561C53.6345 7.38555 52.2861 8.30233 50.4658 8.30233L46.8148 8.28109ZM70.1152 2.64944H69.0168L62.1055 9.78192V2.64944H61.2992V13.5198H62.1055V10.7553L64.8024 8.01208L69.2632 13.5092H70.3194L65.3904 7.43865L70.1152 2.64944ZM90.9722 3.41047H94.7536V13.534H95.5598V3.41047H99.3376V2.64944H90.9722V3.41047ZM105.819 13.534H106.626V2.64944H105.819V13.534ZM121.353 12.1181L113.868 2.64944H113.107V13.5198H113.882V3.86001L121.522 13.5198H122.128V2.64944H121.353V12.1181ZM133.725 7.87049V8.57843H137.246V11.6119C136.298 12.3819 135.119 12.8072 133.901 12.819C131.084 12.819 129.401 10.7837 129.401 8.05101C129.401 5.47058 131.186 3.30074 133.735 3.30074C134.982 3.25745 136.195 3.71318 137.108 4.56795L137.619 3.98036C136.565 3.03821 135.191 2.54007 133.781 2.58926C130.648 2.58926 128.592 5.20156 128.592 8.05101C128.592 11.0527 130.556 13.5128 133.873 13.5128C135.393 13.5011 136.859 12.938 137.999 11.927V7.86341L133.725 7.87049ZM76.773 3.42817H84.5187V2.6459H76.773V3.42817ZM82.1492 7.72182H76.773V8.49701H82.1492V7.72182ZM76.773 13.5198H84.5187V12.7446H76.773V13.5198Z" fill="white"/>
<path fill-rule="evenodd" clip-rule="evenodd" d="M17.872 0L14.3228 6.31449L10.7911 0H6.50977V9.38122C7.83535 10.598 9.26885 11.6818 10.7911 12.6181V7.96553L14.1311 13.7586H14.5146L17.872 7.96553V15.5111H22.1324V0H17.872Z" fill="white"/>
<path fill-rule="evenodd" clip-rule="evenodd" d="M3.90566 7.10923V0H0C0.936168 2.60332 2.2569 5.00737 3.90566 7.10923Z" fill="white"/>
<path fill-rule="evenodd" clip-rule="evenodd" d="M0 9.04883V15.5118H3.90566V12.09C2.53453 11.1946 1.22854 10.1777 0 9.04883H0Z" fill="white"/>
</svg>
