<svg width="21" height="20" viewBox="0 0 21 20" fill="none" xmlns="http://www.w3.org/2000/svg">
<path d="M15.0862 0H5.91382C2.92859 0 0.5 2.42859 0.5 5.41382V14.5863C0.5 17.5714 2.92859 20 5.91382 20H15.0863C18.0714 20 20.5 17.5714 20.5 14.5863V5.41382C20.5 2.42859 18.0714 0 15.0862 0ZM19.3275 14.5863C19.3275 16.9249 17.4249 18.8275 15.0862 18.8275H5.91382C3.5751 18.8275 1.67249 16.9249 1.67249 14.5863V5.41382C1.67249 3.0751 3.5751 1.17249 5.91382 1.17249H15.0863C17.4249 1.17249 19.3275 3.0751 19.3275 5.41382V14.5863Z" fill="#F8B540"/>
<path d="M10.4998 4.53137C7.48441 4.53137 5.03125 6.98453 5.03125 9.99997C5.03125 13.0154 7.48441 15.4686 10.4998 15.4686C13.5153 15.4686 15.9684 13.0154 15.9684 9.99997C15.9684 6.98453 13.5153 4.53137 10.4998 4.53137ZM10.4998 14.2961C8.13107 14.2961 6.20374 12.3689 6.20374 9.99997C6.20374 7.6312 8.13107 5.70386 10.4998 5.70386C12.8688 5.70386 14.796 7.6312 14.796 9.99997C14.796 12.3689 12.8688 14.2961 10.4998 14.2961Z" fill="#F8B540"/>
<path d="M16.0993 2.58923C15.2082 2.58923 14.4834 3.31418 14.4834 4.20514C14.4834 5.09625 15.2082 5.8212 16.0993 5.8212C16.9904 5.8212 17.7154 5.09625 17.7154 4.20514C17.7154 3.31403 16.9904 2.58923 16.0993 2.58923ZM16.0993 4.64856C15.8549 4.64856 15.6559 4.44958 15.6559 4.20514C15.6559 3.96054 15.8549 3.76172 16.0993 3.76172C16.3439 3.76172 16.5429 3.96054 16.5429 4.20514C16.5429 4.44958 16.3439 4.64856 16.0993 4.64856Z" fill="#F8B540"/>
</svg>
