<svg width="73" height="72" viewBox="0 0 73 72" fill="none" xmlns="http://www.w3.org/2000/svg">
<g id="Group 276">
<rect id="Rectangle 108" x="0.166504" width="72" height="72" rx="36" fill="#373125"/>
<g id="icon">
<path id="Vector" d="M52.1651 39.6242C52.0618 40.2475 51.9818 40.8758 51.851 41.4933C51.5468 42.9315 50.9835 44.2681 50.1969 45.5089C49.9636 45.8764 49.6127 45.983 49.2978 45.7906C48.9761 45.5939 48.9103 45.2197 49.1486 44.8381C50.0377 43.4148 50.616 41.8783 50.806 40.2075C51.221 36.5627 50.1969 33.3745 47.637 30.7497C42.1248 25.0991 32.5878 26.7665 29.2738 33.9328C26.1773 40.6275 30.1146 48.4212 37.3442 49.867C40.2574 50.4495 43.0022 49.9528 45.5471 48.3996C46.0438 48.0963 46.3862 48.1129 46.6121 48.4596C46.8387 48.8087 46.6971 49.1587 46.2021 49.467C39.6324 53.5668 30.8579 50.7295 27.9322 43.549C27.8205 43.2748 27.6864 43.204 27.4097 43.2065C26.1523 43.2207 24.894 43.2132 23.6366 43.2124C23.5224 43.2124 23.4074 43.214 23.2941 43.2007C22.9616 43.1624 22.735 42.9199 22.7275 42.6032C22.7191 42.2766 22.9525 42.0166 23.2966 41.9741C23.3991 41.9616 23.5041 41.9641 23.6083 41.9641C24.7415 41.9641 25.8748 41.9641 27.0073 41.9641H27.3481C27.2181 41.1516 27.0939 40.3758 26.9631 39.5617C26.6206 39.5617 26.2598 39.5617 25.8998 39.5617C25.349 39.5617 24.7982 39.5675 24.2474 39.5592C23.8683 39.5525 23.6033 39.2876 23.6016 38.9392C23.6008 38.5918 23.8658 38.3201 24.2441 38.3159C25.034 38.3068 25.824 38.3126 26.6139 38.3126C26.7264 38.3126 26.8389 38.3126 26.9431 38.3126C27.0456 37.5135 27.1439 36.7427 27.2497 35.9169C27.1472 35.9169 27.0306 35.9169 26.9131 35.9169C24.9799 35.9169 23.0458 35.9169 21.1126 35.9152C20.9684 35.9152 20.8192 35.9094 20.6801 35.8752C20.3959 35.8052 20.2118 35.5294 20.2343 35.2403C20.2559 34.9478 20.4734 34.7145 20.7684 34.6778C20.8809 34.6636 20.9967 34.667 21.1109 34.667C23.19 34.667 25.269 34.6628 27.3481 34.672C27.5722 34.6728 27.6647 34.5978 27.7489 34.3928C28.0414 33.6854 28.363 32.9896 28.6822 32.2696C28.5997 32.2654 28.5013 32.2554 28.4038 32.2554C27.3439 32.2546 26.2831 32.2554 25.2232 32.2538C24.7715 32.2529 24.4824 32.0079 24.4824 31.633C24.4824 31.2613 24.7765 31.0063 25.2223 31.0055C26.5739 31.003 27.9255 30.9997 29.2763 31.0088C29.5013 31.0105 29.6488 30.9522 29.7996 30.7688C31.5795 28.6031 33.8227 27.1624 36.5468 26.4866C36.6259 26.4666 36.7026 26.4366 36.7909 26.4074V24.8383C36.0326 24.5942 35.4968 24.12 35.2743 23.3476C34.8902 22.0151 35.8526 20.6802 37.2601 20.6469C38.7875 20.611 40.3166 20.6202 41.844 20.6444C42.9139 20.6619 43.7214 21.4077 43.8997 22.4709C44.0589 23.4217 43.4931 24.3825 42.5414 24.7483C42.3715 24.8133 42.3015 24.8883 42.3081 25.0775C42.3231 25.5133 42.3131 25.9499 42.3131 26.3591C43.0522 26.6157 43.788 26.8107 44.473 27.119C48.8011 29.0681 51.321 32.4104 52.0551 37.1068C52.0951 37.3627 52.1293 37.6185 52.1668 37.8751V39.625L52.1651 39.6242ZM39.5391 23.6367C40.2449 23.6367 40.9507 23.6392 41.6565 23.6342C41.7998 23.6334 41.9498 23.6259 42.0848 23.5834C42.4764 23.4592 42.7239 23.0517 42.6673 22.6593C42.5989 22.1926 42.2456 21.8918 41.7223 21.8893C40.2899 21.8826 38.8575 21.8835 37.425 21.8885C36.8284 21.8901 36.4368 22.2543 36.4434 22.7801C36.4501 23.2959 36.8301 23.6325 37.4217 23.6359C38.1275 23.64 38.8333 23.6367 39.5391 23.6367ZM41.0557 24.9075H38.0692V26.1541H41.0557V24.9075Z" fill="#F8B540"/>
<path id="Vector_2" d="M39.5865 29.0431C44.9587 29.0706 49.271 33.4287 49.2368 38.7943C49.2027 44.1298 44.8387 48.4613 39.5282 48.4313C34.186 48.4013 29.867 44.0348 29.8937 38.6884C29.9195 33.347 34.2726 29.0156 39.5865 29.0431ZM39.5598 30.293C34.9042 30.2989 31.1394 34.0753 31.1411 38.7384C31.1428 43.3907 34.9317 47.1855 39.5715 47.1805C44.2154 47.1755 47.9952 43.3798 47.9902 38.7259C47.9844 34.0612 44.2113 30.2864 39.5598 30.2922V30.293Z" fill="#F8B540"/>
<path id="Vector_3" d="M21.475 42.5899C21.475 42.9299 21.2033 43.2015 20.86 43.2049C20.5042 43.2082 20.2217 42.9249 20.2317 42.5732C20.2409 42.2366 20.5234 41.9658 20.8617 41.9708C21.2 41.9758 21.4758 42.2541 21.475 42.5907V42.5899Z" fill="#F8B540"/>
<path id="Vector_4" d="M47.4189 47.1913C47.4314 46.8488 47.7081 46.5921 48.053 46.6013C48.3913 46.6105 48.6655 46.8946 48.6588 47.2279C48.6513 47.5771 48.353 47.8512 48.0005 47.8329C47.6589 47.8154 47.4064 47.5371 47.4189 47.1904V47.1913Z" fill="#F8B540"/>
<path id="Vector_5" d="M37.62 38.6824C37.64 38.5608 37.63 38.3891 37.6983 38.2574C37.8683 37.9291 37.7175 37.735 37.4867 37.5233C37.1417 37.2075 36.8175 36.8683 36.4925 36.5317C36.2026 36.2317 36.1876 35.8784 36.4409 35.6151C36.695 35.3509 37.0792 35.3626 37.3808 35.6584C37.7675 36.0367 38.15 36.42 38.5258 36.8083C38.6458 36.9325 38.7441 36.9792 38.9249 36.9083C39.3449 36.745 39.784 36.7459 40.2049 36.9067C40.3832 36.975 40.4823 36.935 40.6057 36.8108C41.5123 35.8934 42.4264 34.9826 43.3372 34.0693C43.403 34.0035 43.4663 33.9335 43.5388 33.8735C43.8038 33.6552 44.1563 33.6652 44.388 33.8935C44.618 34.121 44.6396 34.4851 44.418 34.7418C44.2488 34.9384 44.0563 35.1159 43.873 35.3001C43.0947 36.0809 42.3197 36.8658 41.5323 37.6383C41.374 37.7941 41.3281 37.9125 41.4006 38.1416C41.6498 38.9307 41.4598 39.634 40.8407 40.1807C40.2332 40.7173 39.5224 40.8315 38.7791 40.4965C38.025 40.1565 37.6617 39.5374 37.62 38.6807V38.6824ZM39.5632 38.0499C39.1766 38.0508 38.8733 38.3583 38.8791 38.7432C38.8841 39.1107 39.1866 39.4165 39.5516 39.4249C39.9265 39.434 40.2482 39.1182 40.2515 38.7391C40.2548 38.3549 39.9499 38.0491 39.5632 38.0499Z" fill="#F8B540"/>
<path id="Vector_6" d="M40.1913 32.3371C40.1913 32.4405 40.1971 32.5446 40.1905 32.648C40.168 32.9921 39.9263 33.2363 39.5997 33.2504C39.2647 33.2638 38.9839 33.0221 38.9539 32.6705C38.9355 32.4546 38.9364 32.2346 38.9539 32.0188C38.9822 31.6638 39.2547 31.4247 39.5938 31.4338C39.9355 31.443 40.1746 31.6913 40.193 32.058C40.198 32.1513 40.193 32.2446 40.193 32.338C40.193 32.338 40.193 32.338 40.1921 32.338L40.1913 32.3371Z" fill="#F8B540"/>
<path id="Vector_7" d="M45.9468 39.3758C45.8126 39.3683 45.676 39.3758 45.546 39.3508C45.2243 39.2891 45.0285 39.0266 45.0443 38.7025C45.0602 38.385 45.2918 38.145 45.6202 38.1242C45.826 38.1117 46.0335 38.1134 46.2401 38.1225C46.5934 38.1375 46.8534 38.3992 46.8584 38.7317C46.8626 39.0491 46.6226 39.32 46.2885 39.3608C46.1768 39.375 46.0618 39.3633 45.9476 39.3633V39.375L45.9468 39.3758Z" fill="#F8B540"/>
<path id="Vector_8" d="M38.9393 45.1304C38.9393 45.0271 38.9343 44.9229 38.941 44.8196C38.9626 44.4788 39.2068 44.2305 39.5309 44.2146C39.8518 44.1988 40.1367 44.4288 40.1742 44.7638C40.1992 44.9888 40.1959 45.2196 40.1784 45.4462C40.1517 45.7979 39.8684 46.0504 39.5409 46.0395C39.2101 46.0279 38.9585 45.7654 38.941 45.4096C38.936 45.3162 38.941 45.2229 38.941 45.1304H38.9393Z" fill="#F8B540"/>
<path id="Vector_9" d="M33.2083 38.0991C33.3225 38.1041 33.4375 38.1016 33.5508 38.1158C33.8649 38.155 34.0791 38.3924 34.0883 38.7033C34.0974 39.0182 33.9091 39.2824 33.5941 39.3249C33.3391 39.3591 33.075 39.3599 32.8183 39.3341C32.4908 39.3007 32.2684 39.0257 32.2725 38.7166C32.2775 38.3916 32.52 38.14 32.8658 38.1108C32.9791 38.1016 33.0941 38.1091 33.2083 38.1091C33.2083 38.1058 33.2083 38.1025 33.2083 38.0991Z" fill="#F8B540"/>
</g>
</g>
</svg>
