<svg width="73" height="72" viewBox="0 0 73 72" fill="none" xmlns="http://www.w3.org/2000/svg">
<g id="Group 275">
<rect id="Rectangle 107" x="0.833252" width="72" height="72" rx="36" fill="#373125"/>
<g id="icon">
<path id="Vector" d="M20.8333 35.0334C20.9149 34.4384 20.9724 33.8392 21.0824 33.2492C21.9116 28.7967 24.2158 25.2909 27.9616 22.7517C30.7374 20.8692 33.8374 19.9775 37.1882 20.0734C41.8407 20.2067 45.7357 22.035 48.8349 25.4975C50.9799 27.8942 52.2391 30.715 52.6907 33.895C52.7441 34.2734 52.7857 34.6534 52.8332 35.0334V37.0292C52.8157 37.1092 52.7874 37.1892 52.7816 37.27C52.5707 40.0084 51.7241 42.5359 50.1882 44.8117C47.6391 48.5884 44.1132 50.9142 39.6199 51.7525C39.0299 51.8625 38.4291 51.9192 37.8332 52H35.8332C35.7532 51.9825 35.6741 51.955 35.5932 51.9484C32.4066 51.695 29.5374 50.605 27.0249 48.6342C23.7916 46.0975 21.7966 42.8009 21.0733 38.7525C20.9708 38.1817 20.9116 37.6042 20.8333 37.0292C20.8333 36.3642 20.8333 35.6984 20.8333 35.0334ZM21.8983 36.035C21.8999 44.2475 28.5949 50.9342 36.8191 50.9375C45.0549 50.9409 51.7666 44.245 51.7674 36.0234C51.7682 27.8134 45.0732 21.1309 36.8424 21.125C28.6007 21.12 21.8974 27.8075 21.8983 36.035Z" fill="#F8B540"/>
<path id="Vector_2" d="M37.1408 22.1927C43.665 22.3043 49.3033 27.0993 50.4658 33.5243C51.82 41.0068 47.0067 48.0827 39.5242 49.611C32.145 51.1177 24.7575 46.2318 23.2625 38.8627C22.6883 36.031 22.9517 33.286 24.0708 30.621C24.18 30.3602 24.3225 30.1627 24.6325 30.1685C25.0317 30.176 25.2258 30.5402 25.0867 30.961C24.8192 31.7677 24.5083 32.566 24.32 33.391C23.0725 38.8443 25.865 44.766 30.8467 47.3268C33.1292 48.5002 35.5392 48.9785 38.0933 48.7493C43.6875 48.2485 48.3917 43.9377 49.41 38.3793C50.4508 32.6977 47.6625 27.096 42.4633 24.5677C39.0683 22.9168 35.5775 22.821 32.0517 24.1835C31.9258 24.2318 31.8033 24.291 31.6758 24.3352C31.3742 24.4385 31.0775 24.3152 30.9742 24.0485C30.8658 23.771 30.9725 23.4652 31.2817 23.361C32.2458 23.0385 33.2042 22.6727 34.1942 22.4618C35.1542 22.2577 36.1517 22.2252 37.1325 22.1177C37.135 22.1427 37.1383 22.1677 37.1408 22.1927Z" fill="#F8B540"/>
<path id="Vector_3" d="M41.0291 36.5651C39.6024 34.8568 38.2324 33.216 36.8341 31.5418C35.4408 33.2093 34.0708 34.8493 32.6608 36.5376C32.8008 36.5501 32.8858 36.5634 32.9708 36.5634C33.3458 36.5659 33.7208 36.5593 34.0958 36.5659C34.8058 36.5793 35.2208 36.9901 35.2274 37.6959C35.2349 38.6109 35.2299 39.5259 35.2299 40.4409C35.2299 40.5534 35.2299 40.6659 35.2299 40.8018H38.4383C38.4383 40.4918 38.4349 40.1826 38.4383 39.8743C38.4433 39.4701 38.6341 39.2326 38.9533 39.2234C39.2816 39.2143 39.4974 39.4668 39.5033 39.8784C39.5083 40.1801 39.5124 40.4818 39.5016 40.7826C39.4783 41.4534 39.0391 41.8826 38.3633 41.8868C37.3533 41.8926 36.3424 41.891 35.3324 41.8868C34.6049 41.8843 34.1674 41.4501 34.1624 40.7201C34.1566 39.8159 34.1608 38.9109 34.1608 38.0068C34.1608 37.8951 34.1608 37.7834 34.1608 37.6301C33.6549 37.6301 33.1791 37.6393 32.7041 37.6276C31.9941 37.6101 31.5116 37.1143 31.5908 36.4568C31.6149 36.2526 31.7108 36.0284 31.8416 35.8693C33.2183 34.2001 34.6033 32.5376 35.9983 30.8835C36.4516 30.346 37.2133 30.3443 37.6666 30.8818C39.0683 32.5435 40.4649 34.2101 41.8449 35.8901C42.4008 36.5668 41.9908 37.5259 41.1183 37.6118C40.6741 37.6551 40.2233 37.6309 39.7758 37.6293C39.6199 37.6293 39.5124 37.6401 39.4466 37.8251C39.3516 38.0943 39.1183 38.2034 38.8416 38.1376C38.5641 38.0709 38.4358 37.8693 38.4408 37.5818C38.4491 37.0593 38.8583 36.6134 39.4033 36.5776C39.8183 36.5509 40.2358 36.5668 40.6524 36.5634C40.7516 36.5634 40.8508 36.5634 41.0283 36.5634L41.0291 36.5651Z" fill="#F8B540"/>
<path id="Vector_4" d="M48.5607 36.3394C48.4865 38.6844 47.7865 40.8244 46.4324 42.7452C46.3415 42.8744 46.1999 43.0411 46.069 43.0536C45.8874 43.0711 45.6565 43.0052 45.514 42.8911C45.3307 42.7436 45.3382 42.4986 45.464 42.2919C45.6207 42.0352 45.8024 41.7927 45.9582 41.5352C46.939 39.9194 47.4432 38.1636 47.4982 36.2769C47.5007 36.1836 47.4999 36.0894 47.5099 35.9969C47.5399 35.7069 47.7424 35.5136 48.0182 35.5061C48.2932 35.4986 48.514 35.6802 48.5574 35.9669C48.5757 36.0886 48.5607 36.2152 48.5607 36.3402V36.3394Z" fill="#F8B540"/>
<path id="Vector_5" d="M37.3916 47.7449C37.2149 47.7449 37.0383 47.7524 36.8624 47.7432C36.5199 47.7257 36.2999 47.5057 36.3058 47.1982C36.3116 46.9024 36.5216 46.7182 36.8541 46.6807C37.6874 46.5866 38.5208 46.4857 39.3524 46.3774C39.7091 46.3307 39.9616 46.4616 40.0299 46.7574C40.1033 47.0732 39.9391 47.3424 39.5758 47.4116C38.8533 47.5482 38.1258 47.6549 37.3999 47.7741C37.3974 47.7641 37.3941 47.7541 37.3916 47.7441V47.7449Z" fill="#F8B540"/>
<path id="Vector_6" d="M44.349 44.8219C44.2306 44.9961 44.1681 45.1669 44.0465 45.2519C43.519 45.6203 42.9815 45.9769 42.4315 46.3119C42.154 46.4811 41.8523 46.3769 41.7056 46.1153C41.5656 45.8653 41.6365 45.5803 41.894 45.4086C42.404 45.0678 42.9065 44.7144 43.4365 44.4078C43.5873 44.3203 43.8456 44.3169 44.0106 44.3836C44.1498 44.4394 44.2248 44.6519 44.349 44.8228V44.8219Z" fill="#F8B540"/>
<path id="Vector_7" d="M28.2817 26.3407C28.1658 26.5257 28.0983 26.6766 27.9933 26.7932C27.69 27.1324 27.37 27.4574 27.0592 27.7907C26.7892 28.0791 26.4875 28.1257 26.2425 27.9116C26.0058 27.7041 26.0042 27.3749 26.2633 27.0882C26.6033 26.7124 26.9383 26.3266 27.32 25.9949C27.4517 25.8807 27.735 25.8516 27.9108 25.9057C28.0575 25.9507 28.1492 26.1749 28.2817 26.3399V26.3407Z" fill="#F8B540"/>
</g>
</g>
</svg>
