<svg width="73" height="72" viewBox="0 0 73 72" fill="none" xmlns="http://www.w3.org/2000/svg">
<g id="Group 274">
<rect id="Rectangle 107" x="0.5" width="72" height="72" rx="36" fill="#373125"/>
<g id="icon">
<path id="Vector" d="M49.6895 52C48.9163 51.8583 48.3504 51.3958 47.8112 50.8526C45.2668 48.2879 42.706 45.7388 40.153 43.1827C40.0724 43.1021 40.0097 43.0035 39.9385 42.9127C36.6099 44.9953 33.099 45.5643 29.3728 44.4475C26.5404 43.5983 24.2762 41.9132 22.6381 39.4565C19.1279 34.1916 20.1109 27.597 24.3357 23.5265C28.8962 19.1319 35.8938 18.7852 40.8871 22.8206C45.4867 26.5373 47.214 33.5264 43.3853 39.4769C43.4683 39.5246 43.5966 39.5676 43.6819 39.653C46.2404 42.2044 48.7887 44.7652 51.3534 47.3096C51.8966 47.8481 52.3607 48.4139 52.5016 49.1879V49.8125C52.3364 50.2007 52.2175 50.6186 51.9968 50.9716C51.6172 51.5789 50.9911 51.845 50.3149 51.9992H49.6903L49.6895 52ZM33.0199 21.256C26.8511 21.2333 21.7678 26.3072 21.7576 32.4972C21.7482 38.6762 26.8018 43.7321 33.0074 43.7509C39.1645 43.7689 44.2431 38.6997 44.2525 32.5269C44.2619 26.3386 39.2193 21.2787 33.0199 21.256ZM43.6444 44.9076C43.6381 44.9014 43.6725 44.9405 43.7085 44.9773C45.475 46.7437 47.2414 48.5094 49.0094 50.2743C49.083 50.3478 49.1589 50.4198 49.2411 50.4832C49.7459 50.8753 50.4417 50.8276 50.8885 50.3744C51.398 49.8579 51.3714 49.1073 50.8071 48.5399C49.486 47.2118 48.1587 45.8891 46.8344 44.5641C46.3421 44.071 45.8499 43.5779 45.4233 43.1506C44.8277 43.7384 44.2447 44.3144 43.6436 44.9076H43.6444ZM44.4583 42.2999C43.7923 41.6307 43.2155 41.0515 42.731 40.5655C42.1769 41.1165 41.5985 41.6917 41.0616 42.2255C41.5743 42.7342 42.1534 43.3087 42.8007 43.952C43.3438 43.4104 43.9167 42.8399 44.4583 42.3006V42.2999Z" fill="#F8B540"/>
<path id="Vector_2" d="M43.0019 32.505C42.9996 37.9992 38.4939 42.5033 33.0028 42.5009C27.5086 42.4986 23.0045 37.9929 23.0068 32.5018C23.0092 27.0076 27.5149 22.5035 33.0059 22.5059C38.5001 22.5082 43.0043 27.0139 43.0019 32.505ZM41.7528 32.5144C41.7661 27.7144 37.831 23.7691 33.0169 23.7557C28.2169 23.7424 24.2716 27.6776 24.2583 32.4917C24.245 37.2916 28.1801 41.237 32.9942 41.2503C37.7942 41.2636 41.7395 37.3284 41.7528 32.5144Z" fill="#F8B540"/>
<path id="Vector_3" d="M33.2773 24.9993C36.1833 25.0893 38.9108 27.0084 39.9588 29.7109C40.1161 30.1171 40.0058 30.4645 39.6723 30.6101C39.3233 30.762 38.9891 30.6054 38.8083 30.1812C38.0617 28.4297 36.7977 27.2142 34.9984 26.6014C34.4357 26.4096 33.8221 26.3674 33.2304 26.2609C33.1083 26.239 32.9791 26.2508 32.8594 26.2218C32.5792 26.1537 32.389 25.9095 32.3843 25.6364C32.3804 25.3546 32.5823 25.0948 32.8743 25.0314C33.005 25.0032 33.1419 25.0087 33.2766 24.9985L33.2773 24.9993Z" fill="#F8B540"/>
<path id="Vector_4" d="M40.499 32.5068C40.4966 32.8339 40.2024 33.1259 39.876 33.1235C39.5481 33.1212 39.2577 32.8269 39.2593 32.5005C39.2616 32.1734 39.5559 31.8822 39.8823 31.8838C40.2094 31.8861 40.5006 32.1804 40.499 32.5068Z" fill="#F8B540"/>
</g>
</g>
</svg>
