<svg width="120" height="177" viewBox="0 0 120 177" fill="none" xmlns="http://www.w3.org/2000/svg">
<g clip-path="url(#clip0_2118_14002)">
<path d="M120 0H0V120H120V0Z" fill="white"/>
</g>
<path d="M0 128H120L60 177L0 128Z" fill="white"/>
<rect y="118" width="120" height="10" fill="white"/>
<path d="M37 28.5835L60.5 14.6841V23.4249L37 36.3213V28.5835Z" fill="black"/>
<path d="M84 28.6755L60.5 14.6841V23.4828L84 36.4646V28.6755Z" fill="black"/>
<path d="M83.2837 42.3396L63.0794 30.4463V39.245L83.2837 50.5073V42.3396Z" fill="black"/>
<path d="M37 42.3396L57.2043 30.4463V39.245L37 50.5073V42.3396Z" fill="black"/>
<path d="M46.8872 52.6567L57.3476 57.0409V66.1263L46.8872 60.108V52.6567Z" fill="black"/>
<path d="M46.8872 52.6567L57.3476 57.0409V66.1263L46.8872 60.108V52.6567Z" fill="black"/>
<path d="M50.1656 61.9149L49.9679 38.4708L57.239 38.1843L57.239 65.9988L50.1656 61.9149Z" fill="black"/>
<path d="M73.2837 53.0864L62.8233 57.4706V66.5559L73.2837 60.5376V53.0864Z" fill="black"/>
<path d="M70.1361 62.1088L70.3341 38.6651L63.063 38.3786L63.0627 66.1926L70.1361 62.1088Z" fill="black"/>
<path d="M37.2078 78.5402H41.2518V80.0522H37.2078V78.5402ZM37.3518 81.9962H41.9238V83.5562H35.4198V75.1562H41.7678V76.7162H37.3518V81.9962ZM45.2106 83.5562V76.7402H42.5226V75.1562H49.8426V76.7402H47.1546V83.5562H45.2106ZM49.3627 83.5562L53.1067 75.1562H55.0267L58.7827 83.5562H56.7427L53.6707 76.1402H54.4387L51.3547 83.5562H49.3627ZM51.2347 81.7562L51.7507 80.2802H56.0707L56.5987 81.7562H51.2347ZM59.6542 83.5562V75.1562H61.5982V81.9722H65.8102V83.5562H59.6542ZM70.8358 83.7002C70.1718 83.7002 69.5558 83.5922 68.9878 83.3762C68.4278 83.1602 67.9398 82.8562 67.5238 82.4642C67.1158 82.0722 66.7958 81.6122 66.5638 81.0842C66.3398 80.5562 66.2278 79.9802 66.2278 79.3562C66.2278 78.7322 66.3398 78.1562 66.5638 77.6282C66.7958 77.1002 67.1198 76.6402 67.5358 76.2482C67.9518 75.8562 68.4398 75.5522 68.9998 75.3362C69.5598 75.1202 70.1678 75.0122 70.8238 75.0122C71.4878 75.0122 72.0958 75.1202 72.6478 75.3362C73.2078 75.5522 73.6918 75.8562 74.0998 76.2482C74.5158 76.6402 74.8398 77.1002 75.0718 77.6282C75.3038 78.1482 75.4198 78.7242 75.4198 79.3562C75.4198 79.9802 75.3038 80.5602 75.0718 81.0962C74.8398 81.6242 74.5158 82.0842 74.0998 82.4762C73.6918 82.8602 73.2078 83.1602 72.6478 83.3762C72.0958 83.5922 71.4918 83.7002 70.8358 83.7002ZM70.8238 82.0442C71.1998 82.0442 71.5438 81.9802 71.8558 81.8522C72.1758 81.7242 72.4558 81.5402 72.6958 81.3002C72.9358 81.0602 73.1198 80.7762 73.2478 80.4482C73.3838 80.1202 73.4518 79.7562 73.4518 79.3562C73.4518 78.9562 73.3838 78.5922 73.2478 78.2642C73.1198 77.9362 72.9358 77.6522 72.6958 77.4122C72.4638 77.1722 72.1878 76.9882 71.8678 76.8602C71.5478 76.7322 71.1998 76.6682 70.8238 76.6682C70.4478 76.6682 70.0998 76.7322 69.7798 76.8602C69.4678 76.9882 69.1918 77.1722 68.9518 77.4122C68.7118 77.6522 68.5238 77.9362 68.3878 78.2642C68.2598 78.5922 68.1958 78.9562 68.1958 79.3562C68.1958 79.7482 68.2598 80.1122 68.3878 80.4482C68.5238 80.7762 68.7078 81.0602 68.9398 81.3002C69.1798 81.5402 69.4598 81.7242 69.7798 81.8522C70.0998 81.9802 70.4478 82.0442 70.8238 82.0442ZM76.8808 83.5562V75.1562H78.4888L83.4448 81.2042H82.6648V75.1562H84.5848V83.5562H82.9888L78.0208 77.5082H78.8008V83.5562H76.8808ZM14.2328 98.7002C13.5848 98.7002 12.9808 98.5962 12.4208 98.3882C11.8688 98.1722 11.3888 97.8682 10.9808 97.4762C10.5728 97.0842 10.2528 96.6242 10.0208 96.0962C9.7968 95.5682 9.6848 94.9882 9.6848 94.3562C9.6848 93.7242 9.7968 93.1442 10.0208 92.6162C10.2528 92.0882 10.5728 91.6282 10.9808 91.2362C11.3968 90.8442 11.8808 90.5442 12.4328 90.3362C12.9848 90.1202 13.5888 90.0122 14.2448 90.0122C14.9728 90.0122 15.6288 90.1402 16.2128 90.3962C16.8048 90.6442 17.3008 91.0122 17.7008 91.5002L16.4528 92.6522C16.1648 92.3242 15.8448 92.0802 15.4928 91.9202C15.1408 91.7522 14.7568 91.6682 14.3408 91.6682C13.9488 91.6682 13.5888 91.7322 13.2608 91.8602C12.9328 91.9882 12.6488 92.1722 12.4088 92.4122C12.1688 92.6522 11.9808 92.9362 11.8448 93.2642C11.7168 93.5922 11.6528 93.9562 11.6528 94.3562C11.6528 94.7562 11.7168 95.1202 11.8448 95.4482C11.9808 95.7762 12.1688 96.0602 12.4088 96.3002C12.6488 96.5402 12.9328 96.7242 13.2608 96.8522C13.5888 96.9802 13.9488 97.0442 14.3408 97.0442C14.7568 97.0442 15.1408 96.9642 15.4928 96.8042C15.8448 96.6362 16.1648 96.3842 16.4528 96.0482L17.7008 97.2002C17.3008 97.6882 16.8048 98.0602 16.2128 98.3162C15.6288 98.5722 14.9688 98.7002 14.2328 98.7002ZM22.9178 98.7002C22.2538 98.7002 21.6378 98.5922 21.0698 98.3762C20.5098 98.1602 20.0218 97.8562 19.6058 97.4642C19.1978 97.0722 18.8778 96.6122 18.6458 96.0842C18.4218 95.5562 18.3098 94.9802 18.3098 94.3562C18.3098 93.7322 18.4218 93.1562 18.6458 92.6282C18.8778 92.1002 19.2018 91.6402 19.6178 91.2482C20.0338 90.8562 20.5218 90.5522 21.0818 90.3362C21.6418 90.1202 22.2498 90.0122 22.9058 90.0122C23.5698 90.0122 24.1778 90.1202 24.7298 90.3362C25.2898 90.5522 25.7738 90.8562 26.1818 91.2482C26.5978 91.6402 26.9218 92.1002 27.1538 92.6282C27.3858 93.1482 27.5018 93.7242 27.5018 94.3562C27.5018 94.9802 27.3858 95.5602 27.1538 96.0962C26.9218 96.6242 26.5978 97.0842 26.1818 97.4762C25.7738 97.8602 25.2898 98.1602 24.7298 98.3762C24.1778 98.5922 23.5738 98.7002 22.9178 98.7002ZM22.9058 97.0442C23.2818 97.0442 23.6258 96.9802 23.9378 96.8522C24.2578 96.7242 24.5378 96.5402 24.7778 96.3002C25.0178 96.0602 25.2018 95.7762 25.3298 95.4482C25.4658 95.1202 25.5338 94.7562 25.5338 94.3562C25.5338 93.9562 25.4658 93.5922 25.3298 93.2642C25.2018 92.9362 25.0178 92.6522 24.7778 92.4122C24.5458 92.1722 24.2698 91.9882 23.9498 91.8602C23.6298 91.7322 23.2818 91.6682 22.9058 91.6682C22.5298 91.6682 22.1818 91.7322 21.8618 91.8602C21.5498 91.9882 21.2738 92.1722 21.0338 92.4122C20.7938 92.6522 20.6058 92.9362 20.4698 93.2642C20.3418 93.5922 20.2778 93.9562 20.2778 94.3562C20.2778 94.7482 20.3418 95.1122 20.4698 95.4482C20.6058 95.7762 20.7898 96.0602 21.0218 96.3002C21.2618 96.5402 21.5418 96.7242 21.8618 96.8522C22.1818 96.9802 22.5298 97.0442 22.9058 97.0442ZM28.9628 98.5562V90.1562H30.5708L35.5268 96.2042H34.7468V90.1562H36.6668V98.5562H35.0708L30.1028 92.5082H30.8828V98.5562H28.9628ZM41.4142 98.7002C40.7422 98.7002 40.0982 98.6122 39.4822 98.4362C38.8662 98.2522 38.3702 98.0162 37.9942 97.7282L38.6542 96.2642C39.0142 96.5202 39.4382 96.7322 39.9262 96.9002C40.4222 97.0602 40.9222 97.1402 41.4262 97.1402C41.8102 97.1402 42.1182 97.1042 42.3502 97.0322C42.5902 96.9522 42.7662 96.8442 42.8782 96.7082C42.9902 96.5722 43.0462 96.4162 43.0462 96.2402C43.0462 96.0162 42.9582 95.8402 42.7822 95.7122C42.6062 95.5762 42.3742 95.4682 42.0862 95.3882C41.7982 95.3002 41.4782 95.2202 41.1262 95.1482C40.7822 95.0682 40.4342 94.9722 40.0822 94.8602C39.7382 94.7482 39.4222 94.6042 39.1342 94.4282C38.8462 94.2522 38.6102 94.0202 38.4262 93.7322C38.2502 93.4442 38.1622 93.0762 38.1622 92.6282C38.1622 92.1482 38.2902 91.7122 38.5462 91.3202C38.8102 90.9202 39.2022 90.6042 39.7222 90.3722C40.2502 90.1322 40.9102 90.0122 41.7022 90.0122C42.2302 90.0122 42.7502 90.0762 43.2622 90.2042C43.7742 90.3242 44.2262 90.5082 44.6182 90.7562L44.0182 92.2322C43.6262 92.0082 43.2342 91.8442 42.8422 91.7402C42.4502 91.6282 42.0662 91.5722 41.6902 91.5722C41.3142 91.5722 41.0062 91.6162 40.7662 91.7042C40.5262 91.7922 40.3542 91.9082 40.2502 92.0522C40.1462 92.1882 40.0942 92.3482 40.0942 92.5322C40.0942 92.7482 40.1822 92.9242 40.3582 93.0602C40.5342 93.1882 40.7662 93.2922 41.0542 93.3722C41.3422 93.4522 41.6582 93.5322 42.0022 93.6122C42.3542 93.6922 42.7022 93.7842 43.0462 93.8882C43.3982 93.9922 43.7182 94.1322 44.0062 94.3082C44.2942 94.4842 44.5262 94.7162 44.7022 95.0042C44.8862 95.2922 44.9782 95.6562 44.9782 96.0962C44.9782 96.5682 44.8462 97.0002 44.5822 97.3922C44.3182 97.7842 43.9222 98.1002 43.3942 98.3402C42.8742 98.5802 42.2142 98.7002 41.4142 98.7002ZM47.9294 98.5562V91.7402H45.2414V90.1562H52.5614V91.7402H49.8734V98.5562H47.9294ZM53.6073 98.5562V90.1562H57.2433C57.9953 90.1562 58.6433 90.2802 59.1873 90.5282C59.7313 90.7682 60.1513 91.1162 60.4473 91.5722C60.7433 92.0282 60.8913 92.5722 60.8913 93.2042C60.8913 93.8282 60.7433 94.3682 60.4473 94.8242C60.1513 95.2722 59.7313 95.6162 59.1873 95.8562C58.6433 96.0962 57.9953 96.2162 57.2433 96.2162H54.6873L55.5513 95.3642V98.5562H53.6073ZM58.9473 98.5562L56.8473 95.5082H58.9233L61.0473 98.5562H58.9473ZM55.5513 95.5802L54.6873 94.6682H57.1353C57.7353 94.6682 58.1833 94.5402 58.4793 94.2842C58.7753 94.0202 58.9233 93.6602 58.9233 93.2042C58.9233 92.7402 58.7753 92.3802 58.4793 92.1242C58.1833 91.8682 57.7353 91.7402 57.1353 91.7402H54.6873L55.5513 90.8162V95.5802ZM66.1635 98.7002C64.9715 98.7002 64.0395 98.3682 63.3675 97.7042C62.6955 97.0402 62.3595 96.0922 62.3595 94.8602V90.1562H64.3035V94.7882C64.3035 95.5882 64.4675 96.1642 64.7955 96.5162C65.1235 96.8682 65.5835 97.0442 66.1755 97.0442C66.7675 97.0442 67.2275 96.8682 67.5555 96.5162C67.8835 96.1642 68.0475 95.5882 68.0475 94.7882V90.1562H69.9675V94.8602C69.9675 96.0922 69.6315 97.0402 68.9595 97.7042C68.2875 98.3682 67.3555 98.7002 66.1635 98.7002ZM75.9086 98.7002C75.2606 98.7002 74.6566 98.5962 74.0966 98.3882C73.5446 98.1722 73.0646 97.8682 72.6566 97.4762C72.2486 97.0842 71.9286 96.6242 71.6966 96.0962C71.4726 95.5682 71.3606 94.9882 71.3606 94.3562C71.3606 93.7242 71.4726 93.1442 71.6966 92.6162C71.9286 92.0882 72.2486 91.6282 72.6566 91.2362C73.0726 90.8442 73.5566 90.5442 74.1086 90.3362C74.6606 90.1202 75.2646 90.0122 75.9206 90.0122C76.6486 90.0122 77.3046 90.1402 77.8886 90.3962C78.4806 90.6442 78.9766 91.0122 79.3766 91.5002L78.1286 92.6522C77.8406 92.3242 77.5206 92.0802 77.1686 91.9202C76.8166 91.7522 76.4326 91.6682 76.0166 91.6682C75.6246 91.6682 75.2646 91.7322 74.9366 91.8602C74.6086 91.9882 74.3246 92.1722 74.0846 92.4122C73.8446 92.6522 73.6566 92.9362 73.5206 93.2642C73.3926 93.5922 73.3286 93.9562 73.3286 94.3562C73.3286 94.7562 73.3926 95.1202 73.5206 95.4482C73.6566 95.7762 73.8446 96.0602 74.0846 96.3002C74.3246 96.5402 74.6086 96.7242 74.9366 96.8522C75.2646 96.9802 75.6246 97.0442 76.0166 97.0442C76.4326 97.0442 76.8166 96.9642 77.1686 96.8042C77.5206 96.6362 77.8406 96.3842 78.1286 96.0482L79.3766 97.2002C78.9766 97.6882 78.4806 98.0602 77.8886 98.3162C77.3046 98.5722 76.6446 98.7002 75.9086 98.7002ZM82.3473 98.5562V91.7402H79.6593V90.1562H86.9793V91.7402H84.2913V98.5562H82.3473ZM88.0253 98.5562V90.1562H89.9693V98.5562H88.0253ZM96.0428 98.7002C95.3788 98.7002 94.7628 98.5922 94.1948 98.3762C93.6348 98.1602 93.1468 97.8562 92.7308 97.4642C92.3228 97.0722 92.0028 96.6122 91.7708 96.0842C91.5468 95.5562 91.4348 94.9802 91.4348 94.3562C91.4348 93.7322 91.5468 93.1562 91.7708 92.6282C92.0028 92.1002 92.3268 91.6402 92.7428 91.2482C93.1588 90.8562 93.6468 90.5522 94.2068 90.3362C94.7668 90.1202 95.3748 90.0122 96.0308 90.0122C96.6948 90.0122 97.3028 90.1202 97.8548 90.3362C98.4148 90.5522 98.8988 90.8562 99.3068 91.2482C99.7228 91.6402 100.047 92.1002 100.279 92.6282C100.511 93.1482 100.627 93.7242 100.627 94.3562C100.627 94.9802 100.511 95.5602 100.279 96.0962C100.047 96.6242 99.7228 97.0842 99.3068 97.4762C98.8988 97.8602 98.4148 98.1602 97.8548 98.3762C97.3028 98.5922 96.6988 98.7002 96.0428 98.7002ZM96.0308 97.0442C96.4068 97.0442 96.7508 96.9802 97.0628 96.8522C97.3828 96.7242 97.6628 96.5402 97.9028 96.3002C98.1428 96.0602 98.3268 95.7762 98.4548 95.4482C98.5908 95.1202 98.6588 94.7562 98.6588 94.3562C98.6588 93.9562 98.5908 93.5922 98.4548 93.2642C98.3268 92.9362 98.1428 92.6522 97.9028 92.4122C97.6708 92.1722 97.3948 91.9882 97.0748 91.8602C96.7548 91.7322 96.4068 91.6682 96.0308 91.6682C95.6548 91.6682 95.3068 91.7322 94.9868 91.8602C94.6748 91.9882 94.3988 92.1722 94.1588 92.4122C93.9188 92.6522 93.7308 92.9362 93.5948 93.2642C93.4668 93.5922 93.4028 93.9562 93.4028 94.3562C93.4028 94.7482 93.4668 95.1122 93.5948 95.4482C93.7308 95.7762 93.9148 96.0602 94.1468 96.3002C94.3868 96.5402 94.6668 96.7242 94.9868 96.8522C95.3068 96.9802 95.6548 97.0442 96.0308 97.0442ZM102.088 98.5562V90.1562H103.696L108.652 96.2042H107.872V90.1562H109.792V98.5562H108.196L103.228 92.5082H104.008V98.5562H102.088Z" fill="black"/>
<path d="M42.7537 115.616C42.3137 115.616 41.9103 115.516 41.5437 115.316C41.1837 115.109 40.8937 114.806 40.6737 114.406C40.4603 114.006 40.3537 113.506 40.3537 112.906C40.3537 112.306 40.457 111.806 40.6637 111.406C40.877 111.006 41.1637 110.706 41.5237 110.506C41.8903 110.306 42.3003 110.206 42.7537 110.206C43.2737 110.206 43.7337 110.319 44.1337 110.546C44.5337 110.773 44.8503 111.089 45.0837 111.496C45.317 111.896 45.4337 112.366 45.4337 112.906C45.4337 113.446 45.317 113.919 45.0837 114.326C44.8503 114.733 44.5337 115.049 44.1337 115.276C43.7337 115.503 43.2737 115.616 42.7537 115.616ZM39.9437 117.496V110.256H40.8637V111.686L40.8037 112.916L40.9037 114.146V117.496H39.9437ZM42.6737 114.776C43.0137 114.776 43.317 114.699 43.5837 114.546C43.857 114.393 44.0703 114.176 44.2237 113.896C44.3837 113.609 44.4637 113.279 44.4637 112.906C44.4637 112.526 44.3837 112.199 44.2237 111.926C44.0703 111.646 43.857 111.429 43.5837 111.276C43.317 111.123 43.0137 111.046 42.6737 111.046C42.3403 111.046 42.037 111.123 41.7637 111.276C41.497 111.429 41.2837 111.646 41.1237 111.926C40.9703 112.199 40.8937 112.526 40.8937 112.906C40.8937 113.279 40.9703 113.609 41.1237 113.896C41.2837 114.176 41.497 114.393 41.7637 114.546C42.037 114.699 42.3403 114.776 42.6737 114.776ZM49.1884 115.616C48.6218 115.616 48.1218 115.499 47.6884 115.266C47.2618 115.033 46.9284 114.713 46.6884 114.306C46.4551 113.899 46.3384 113.433 46.3384 112.906C46.3384 112.379 46.4518 111.913 46.6784 111.506C46.9118 111.099 47.2284 110.783 47.6284 110.556C48.0351 110.323 48.4918 110.206 48.9984 110.206C49.5118 110.206 49.9651 110.319 50.3584 110.546C50.7518 110.773 51.0584 111.093 51.2784 111.506C51.5051 111.913 51.6184 112.389 51.6184 112.936C51.6184 112.976 51.6151 113.023 51.6084 113.076C51.6084 113.129 51.6051 113.179 51.5984 113.226H47.0884V112.536H51.0984L50.7084 112.776C50.7151 112.436 50.6451 112.133 50.4984 111.866C50.3518 111.599 50.1484 111.393 49.8884 111.246C49.6351 111.093 49.3384 111.016 48.9984 111.016C48.6651 111.016 48.3684 111.093 48.1084 111.246C47.8484 111.393 47.6451 111.603 47.4984 111.876C47.3518 112.143 47.2784 112.449 47.2784 112.796V112.956C47.2784 113.309 47.3584 113.626 47.5184 113.906C47.6851 114.179 47.9151 114.393 48.2084 114.546C48.5018 114.699 48.8384 114.776 49.2184 114.776C49.5318 114.776 49.8151 114.723 50.0684 114.616C50.3284 114.509 50.5551 114.349 50.7484 114.136L51.2784 114.756C51.0384 115.036 50.7384 115.249 50.3784 115.396C50.0251 115.543 49.6284 115.616 49.1884 115.616ZM53.1077 115.556V110.256H54.0977L56.3777 114.176H55.9777L58.3177 110.256H59.2177V115.556H58.3477V111.336L58.5077 111.426L56.3677 114.956H55.9477L53.7977 111.356L53.9877 111.316V115.556H53.1077ZM63.3563 115.616C62.8229 115.616 62.3496 115.499 61.9363 115.266C61.5229 115.033 61.1963 114.713 60.9563 114.306C60.7163 113.893 60.5963 113.426 60.5963 112.906C60.5963 112.379 60.7163 111.913 60.9563 111.506C61.1963 111.099 61.5229 110.783 61.9363 110.556C62.3496 110.323 62.8229 110.206 63.3563 110.206C63.8829 110.206 64.3529 110.323 64.7663 110.556C65.1863 110.783 65.5129 111.099 65.7463 111.506C65.9863 111.906 66.1063 112.373 66.1063 112.906C66.1063 113.433 65.9863 113.899 65.7463 114.306C65.5129 114.713 65.1863 115.033 64.7663 115.266C64.3529 115.499 63.8829 115.616 63.3563 115.616ZM63.3563 114.776C63.6963 114.776 63.9996 114.699 64.2663 114.546C64.5396 114.393 64.7529 114.176 64.9063 113.896C65.0596 113.609 65.1363 113.279 65.1363 112.906C65.1363 112.526 65.0596 112.199 64.9063 111.926C64.7529 111.646 64.5396 111.429 64.2663 111.276C63.9996 111.123 63.6963 111.046 63.3563 111.046C63.0163 111.046 62.7129 111.123 62.4463 111.276C62.1796 111.429 61.9663 111.646 61.8063 111.926C61.6463 112.199 61.5663 112.526 61.5663 112.906C61.5663 113.279 61.6463 113.609 61.8063 113.896C61.9663 114.176 62.1796 114.393 62.4463 114.546C62.7129 114.699 63.0163 114.776 63.3563 114.776ZM67.4925 115.556V110.256H68.4525V112.506H71.4725V110.256H72.4325V115.556H71.4725V113.336H68.4525V115.556H67.4925ZM75.3491 115.556V110.846L75.5891 111.096H73.4091V110.256H78.2491V111.096H76.0791L76.3091 110.846V115.556H75.3491ZM21.6234 127.556V122.256H26.5334V127.556H25.5734V122.856L25.8034 123.096H22.3534L22.5834 122.856V127.556H21.6234ZM30.6609 127.616C30.1276 127.616 29.6543 127.499 29.2409 127.266C28.8276 127.033 28.5009 126.713 28.2609 126.306C28.0209 125.893 27.9009 125.426 27.9009 124.906C27.9009 124.379 28.0209 123.913 28.2609 123.506C28.5009 123.099 28.8276 122.783 29.2409 122.556C29.6543 122.323 30.1276 122.206 30.6609 122.206C31.1876 122.206 31.6576 122.323 32.0709 122.556C32.4909 122.783 32.8176 123.099 33.0509 123.506C33.2909 123.906 33.4109 124.373 33.4109 124.906C33.4109 125.433 33.2909 125.899 33.0509 126.306C32.8176 126.713 32.4909 127.033 32.0709 127.266C31.6576 127.499 31.1876 127.616 30.6609 127.616ZM30.6609 126.776C31.0009 126.776 31.3043 126.699 31.5709 126.546C31.8443 126.393 32.0576 126.176 32.2109 125.896C32.3643 125.609 32.4409 125.279 32.4409 124.906C32.4409 124.526 32.3643 124.199 32.2109 123.926C32.0576 123.646 31.8443 123.429 31.5709 123.276C31.3043 123.123 31.0009 123.046 30.6609 123.046C30.3209 123.046 30.0176 123.123 29.7509 123.276C29.4843 123.429 29.2709 123.646 29.1109 123.926C28.9509 124.199 28.8709 124.526 28.8709 124.906C28.8709 125.279 28.9509 125.609 29.1109 125.896C29.2709 126.176 29.4843 126.393 29.7509 126.546C30.0176 126.699 30.3209 126.776 30.6609 126.776ZM33.8781 127.546L33.9381 126.736C33.9848 126.743 34.0281 126.749 34.0681 126.756C34.1081 126.763 34.1448 126.766 34.1781 126.766C34.3915 126.766 34.5581 126.693 34.6781 126.546C34.8048 126.399 34.8981 126.206 34.9581 125.966C35.0181 125.719 35.0615 125.443 35.0881 125.136C35.1148 124.829 35.1348 124.523 35.1481 124.216L35.2381 122.256H39.3081V127.556H38.3481V122.816L38.5781 123.096H35.8581L36.0781 122.806L36.0081 124.276C35.9881 124.743 35.9515 125.179 35.8981 125.586C35.8448 125.993 35.7615 126.349 35.6481 126.656C35.5415 126.963 35.3915 127.203 35.1981 127.376C35.0115 127.549 34.7681 127.636 34.4681 127.636C34.3815 127.636 34.2881 127.626 34.1881 127.606C34.0948 127.593 33.9915 127.573 33.8781 127.546ZM41.1644 127.556V122.256H42.1244V124.506H45.1444V122.256H46.1044V127.556H45.1444V125.336H42.1244V127.556H41.1644ZM50.241 127.616C49.7077 127.616 49.2343 127.499 48.821 127.266C48.4077 127.033 48.081 126.713 47.841 126.306C47.601 125.893 47.481 125.426 47.481 124.906C47.481 124.379 47.601 123.913 47.841 123.506C48.081 123.099 48.4077 122.783 48.821 122.556C49.2343 122.323 49.7077 122.206 50.241 122.206C50.7677 122.206 51.2377 122.323 51.651 122.556C52.071 122.783 52.3977 123.099 52.631 123.506C52.871 123.906 52.991 124.373 52.991 124.906C52.991 125.433 52.871 125.899 52.631 126.306C52.3977 126.713 52.071 127.033 51.651 127.266C51.2377 127.499 50.7677 127.616 50.241 127.616ZM50.241 126.776C50.581 126.776 50.8843 126.699 51.151 126.546C51.4243 126.393 51.6377 126.176 51.791 125.896C51.9443 125.609 52.021 125.279 52.021 124.906C52.021 124.526 51.9443 124.199 51.791 123.926C51.6377 123.646 51.4243 123.429 51.151 123.276C50.8843 123.123 50.581 123.046 50.241 123.046C49.901 123.046 49.5977 123.123 49.331 123.276C49.0643 123.429 48.851 123.646 48.691 123.926C48.531 124.199 48.451 124.526 48.451 124.906C48.451 125.279 48.531 125.609 48.691 125.896C48.851 126.176 49.0643 126.393 49.331 126.546C49.5977 126.699 49.901 126.776 50.241 126.776ZM54.3773 127.556V122.256H58.2773V123.096H55.1073L55.3373 122.876V127.556H54.3773ZM61.2957 127.616C60.7624 127.616 60.289 127.499 59.8757 127.266C59.4624 127.033 59.1357 126.713 58.8957 126.306C58.6557 125.893 58.5357 125.426 58.5357 124.906C58.5357 124.379 58.6557 123.913 58.8957 123.506C59.1357 123.099 59.4624 122.783 59.8757 122.556C60.289 122.323 60.7624 122.206 61.2957 122.206C61.8224 122.206 62.2924 122.323 62.7057 122.556C63.1257 122.783 63.4524 123.099 63.6857 123.506C63.9257 123.906 64.0457 124.373 64.0457 124.906C64.0457 125.433 63.9257 125.899 63.6857 126.306C63.4524 126.713 63.1257 127.033 62.7057 127.266C62.2924 127.499 61.8224 127.616 61.2957 127.616ZM61.2957 126.776C61.6357 126.776 61.939 126.699 62.2057 126.546C62.479 126.393 62.6924 126.176 62.8457 125.896C62.999 125.609 63.0757 125.279 63.0757 124.906C63.0757 124.526 62.999 124.199 62.8457 123.926C62.6924 123.646 62.479 123.429 62.2057 123.276C61.939 123.123 61.6357 123.046 61.2957 123.046C60.9557 123.046 60.6524 123.123 60.3857 123.276C60.119 123.429 59.9057 123.646 59.7457 123.926C59.5857 124.199 59.5057 124.526 59.5057 124.906C59.5057 125.279 59.5857 125.609 59.7457 125.896C59.9057 126.176 60.119 126.393 60.3857 126.546C60.6524 126.699 60.9557 126.776 61.2957 126.776ZM68.1175 127.556V122.256H69.0775V126.716H71.9775V122.256H72.9375V127.556H68.1175ZM72.8675 128.786V127.506L73.1075 127.556H71.9775V126.716H73.7775V128.786H72.8675ZM75.0218 127.556V122.256H75.9818V126.116L79.2318 122.256H80.1018V127.556H79.1418V123.696L75.9018 127.556H75.0218ZM85.8052 127.556L83.7552 124.976L84.5452 124.496L86.9352 127.556H85.8052ZM81.9652 127.556V122.256H82.9252V127.556H81.9652ZM82.6352 125.316V124.496H84.3852V125.316H82.6352ZM84.6252 125.016L83.7352 124.896L85.7652 122.256H86.7952L84.6252 125.016ZM87.0617 127.546L87.1217 126.736C87.1684 126.743 87.2117 126.749 87.2517 126.756C87.2917 126.763 87.3284 126.766 87.3617 126.766C87.5751 126.766 87.7417 126.693 87.8617 126.546C87.9884 126.399 88.0817 126.206 88.1417 125.966C88.2017 125.719 88.2451 125.443 88.2717 125.136C88.2984 124.829 88.3184 124.523 88.3317 124.216L88.4217 122.256H92.4917V127.556H91.5317V122.816L91.7617 123.096H89.0417L89.2617 122.806L89.1917 124.276C89.1717 124.743 89.1351 125.179 89.0817 125.586C89.0284 125.993 88.9451 126.349 88.8317 126.656C88.7251 126.963 88.5751 127.203 88.3817 127.376C88.1951 127.549 87.9517 127.636 87.6517 127.636C87.5651 127.636 87.4717 127.626 87.3717 127.606C87.2784 127.593 87.1751 127.573 87.0617 127.546ZM97.598 127.556V126.436L97.548 126.226V124.316C97.548 123.909 97.428 123.596 97.188 123.376C96.9546 123.149 96.6013 123.036 96.128 123.036C95.8146 123.036 95.508 123.089 95.208 123.196C94.908 123.296 94.6546 123.433 94.448 123.606L94.048 122.886C94.3213 122.666 94.648 122.499 95.028 122.386C95.4146 122.266 95.818 122.206 96.238 122.206C96.9646 122.206 97.5246 122.383 97.918 122.736C98.3113 123.089 98.508 123.629 98.508 124.356V127.556H97.598ZM95.858 127.616C95.4646 127.616 95.118 127.549 94.818 127.416C94.5246 127.283 94.298 127.099 94.138 126.866C93.978 126.626 93.898 126.356 93.898 126.056C93.898 125.769 93.9646 125.509 94.098 125.276C94.238 125.043 94.4613 124.856 94.768 124.716C95.0813 124.576 95.5013 124.506 96.028 124.506H97.708V125.196H96.068C95.588 125.196 95.2646 125.276 95.098 125.436C94.9313 125.596 94.848 125.789 94.848 126.016C94.848 126.276 94.9513 126.486 95.158 126.646C95.3646 126.799 95.6513 126.876 96.018 126.876C96.378 126.876 96.6913 126.796 96.958 126.636C97.2313 126.476 97.428 126.243 97.548 125.936L97.738 126.596C97.6113 126.909 97.388 127.159 97.068 127.346C96.748 127.526 96.3446 127.616 95.858 127.616Z" fill="black"/>
<defs>
<clipPath id="clip0_2118_14002">
<rect width="120" height="120" fill="white"/>
</clipPath>
</defs>
</svg>
