<svg width="73" height="72" viewBox="0 0 73 72" fill="none" xmlns="http://www.w3.org/2000/svg">
<g id="Group 274">
<rect id="Rectangle 107" x="0.666992" width="72" height="72" rx="36" fill="#373125" fill-opacity="0.3"/>
<g id="icon">
<path id="Vector" d="M49.8565 52C49.0833 51.8583 48.5174 51.3958 47.9782 50.8526C45.4338 48.2879 42.873 45.7388 40.32 43.1827C40.2393 43.1021 40.1767 43.0035 40.1055 42.9127C36.7769 44.9953 33.266 45.5643 29.5398 44.4475C26.7074 43.5983 24.4432 41.9132 22.8051 39.4565C19.2949 34.1916 20.2779 27.597 24.5027 23.5265C29.0631 19.1319 36.0608 18.7852 41.0541 22.8206C45.6537 26.5373 47.381 33.5264 43.5523 39.4769C43.6353 39.5246 43.7636 39.5676 43.8489 39.653C46.4074 42.2044 48.9557 44.7652 51.5204 47.3096C52.0636 47.8481 52.5277 48.4139 52.6686 49.1879V49.8125C52.5034 50.2007 52.3845 50.6186 52.1638 50.9716C51.7842 51.5789 51.1581 51.845 50.4819 51.9992H49.8573L49.8565 52ZM33.1869 21.256C27.0181 21.2333 21.9348 26.3072 21.9246 32.4972C21.9152 38.6762 26.9688 43.7321 33.1744 43.7509C39.3315 43.7689 44.4101 38.6997 44.4195 32.5269C44.4289 26.3386 39.3863 21.2787 33.1869 21.256ZM43.8114 44.9076C43.8051 44.9014 43.8395 44.9405 43.8755 44.9773C45.642 46.7437 47.4084 48.5094 49.1764 50.2743C49.25 50.3478 49.3259 50.4198 49.4081 50.4832C49.9129 50.8753 50.6086 50.8276 51.0555 50.3744C51.565 49.8579 51.5384 49.1073 50.9741 48.5399C49.653 47.2118 48.3257 45.8891 47.0014 44.5641C46.5091 44.071 46.0169 43.5779 45.5903 43.1506C44.9947 43.7384 44.4116 44.3144 43.8106 44.9076H43.8114ZM44.6253 42.2999C43.9593 41.6307 43.3825 41.0515 42.898 40.5655C42.3439 41.1165 41.7655 41.6917 41.2286 42.2255C41.7412 42.7342 42.3204 43.3087 42.9677 43.952C43.5108 43.4104 44.0837 42.8399 44.6253 42.3006V42.2999Z" fill="#F8B540"/>
<path id="Vector_2" d="M43.1689 32.505C43.1666 37.9992 38.6609 42.5033 33.1698 42.5009C27.6756 42.4986 23.1715 37.9929 23.1738 32.5018C23.1762 27.0076 27.6819 22.5035 33.1729 22.5059C38.6671 22.5082 43.1713 27.0139 43.1689 32.505ZM41.9198 32.5144C41.9331 27.7144 37.998 23.7691 33.1839 23.7557C28.3839 23.7424 24.4386 27.6776 24.4253 32.4917C24.412 37.2916 28.3471 41.237 33.1612 41.2503C37.9612 41.2636 41.9065 37.3284 41.9198 32.5144Z" fill="#F8B540"/>
<path id="Vector_3" d="M33.4448 24.9998C36.3508 25.0898 39.0783 27.0089 40.1263 29.7113C40.2836 30.1175 40.1732 30.465 39.8398 30.6106C39.4908 30.7624 39.1566 30.6059 38.9758 30.1817C38.2291 28.4302 36.9652 27.2147 35.1659 26.6019C34.6031 26.4101 33.9895 26.3679 33.3979 26.2614C33.2758 26.2395 33.1466 26.2513 33.0269 26.2223C32.7467 26.1542 32.5565 25.91 32.5518 25.6369C32.5479 25.3551 32.7498 25.0953 33.0418 25.0319C33.1725 25.0037 33.3094 25.0092 33.444 24.999L33.4448 24.9998Z" fill="#F8B540"/>
<path id="Vector_4" d="M40.6655 32.5068C40.6632 32.8339 40.3689 33.1259 40.0425 33.1235C39.7146 33.1212 39.4242 32.8269 39.4258 32.5005C39.4281 32.1734 39.7224 31.8822 40.0488 31.8838C40.3759 31.8861 40.6671 32.1804 40.6655 32.5068Z" fill="#F8B540"/>
</g>
</g>
</svg>
