<svg width="135px" height="15px" viewBox="0 0 135 15" fill="none" xmlns="http://www.w3.org/2000/svg">
<g id="olP3pM29dkxURBliNVUs 1" clip-path="url(#clip0_312_415)">
<g id="Clip path group">
<mask id="mask0_312_415" style="mask-type:luminance" maskUnits="userSpaceOnUse" x="0" y="0" width="135" height="15">
<g id="A">
<path id="Vector" d="M0 0H135V15H0V0Z" fill="white"/>
</g>
</mask>
<g mask="url(#mask0_312_415)">
<g id="Group">
<g id="Group_2">
<path id="Vector_2" fill-rule="evenodd" clip-rule="evenodd" d="M33.3327 2.34964L28.3969 13.2037H29.2138L30.5489 10.1855H36.7995L38.1452 13.2H39.0101L34.0744 2.34643L33.3332 2.35018L33.3327 2.34964ZM30.892 9.45375L33.6966 3.225L36.4804 9.45375H30.892ZM53.5469 5.47982C53.5507 5.10513 53.482 4.73326 53.3447 4.38482C53.2076 4.03661 53.0043 3.72 52.7471 3.45214C52.1121 2.80768 51.0721 2.40161 49.7712 2.40161H45.3365V13.1518H46.1225V8.69786H49.5823L52.9498 13.1518H53.9487L50.4579 8.55804C52.2396 8.31321 53.5475 7.28357 53.5475 5.48732V5.48036L53.5469 5.47982ZM46.1155 7.96929V3.15161H49.7264C51.6452 3.15161 52.7641 4.05857 52.7641 5.50125C52.7641 7.08375 51.4494 7.99071 49.6746 7.99071L46.115 7.96982L46.1155 7.96929ZM68.8318 2.39839H67.7609L61.0226 9.45375V2.39893H60.2366V13.1518H61.0226V10.417L63.6522 7.70357L68.001 13.1411H69.0308L64.2253 7.13625L68.8318 2.39839ZM89.1656 3.15107H92.8522V13.1652H93.6382V3.15161H97.3211V2.39893H89.1656V3.15107ZM103.64 13.1652H104.426V2.39893H103.64V13.1652ZM118.784 11.7648L111.487 2.39893H110.746V13.1518H111.501V3.59625L118.949 13.1518H119.54V2.39893H118.784V11.7648ZM130.846 7.56321V8.26339H134.279V11.2639C133.36 12.0238 132.209 12.4452 131.018 12.458C128.272 12.458 126.632 10.4448 126.632 7.74161C126.632 5.18893 128.372 3.04286 130.857 3.04286C131.46 3.02232 132.062 3.12259 132.626 3.33781C133.191 3.55302 133.707 3.87889 134.145 4.29643L134.643 3.71518C133.615 2.78304 132.275 2.29071 130.901 2.33893C127.847 2.33893 125.842 4.92321 125.842 7.74161C125.842 10.7105 127.757 13.1443 130.991 13.1443C132.477 13.1311 133.908 12.5733 135.013 11.5757V7.55625L130.846 7.56321ZM75.3225 3.16929H82.8739V2.39518H75.3225V3.16929ZM80.564 7.41643H75.3225V8.18303H80.564V7.41643ZM75.3225 13.1518H82.8739V12.3852H75.3225V13.1518ZM17.5057 0L14.0117 6.10661L10.5342 0H6.31934V9.07232C7.62451 10.2493 9.03588 11.2971 10.5342 12.2025V7.70304L13.8228 13.3055H14.2006L17.5062 7.70304V15H21.7008V0H17.5057Z" fill="#6B6B6A"/>
</g>
<path id="Vector_3" fill-rule="evenodd" clip-rule="evenodd" d="M4.21488 6.91554V0H0C1.0101 2.53232 2.43587 4.87071 4.21488 6.91554Z" fill="#6B6B6A"/>
<g id="Group_3">
<path id="Vector_4" fill-rule="evenodd" clip-rule="evenodd" d="M0 8.70435V15.007H4.21488V11.6701C2.73354 10.7957 1.3241 9.80396 0 8.70435ZM6.31939 12.8079V15.0001H10.5343V14.5276C9.09196 14.0551 7.68326 13.4802 6.31939 12.8079Z" fill="#6B6B6A"/>
</g>
</g>
</g>
</g>
</g>
<defs>
<clipPath id="clip0_312_415">
<rect width="135" height="15" fill="white"/>
</clipPath>
</defs>
</svg>
