<svg width="47" height="47" viewBox="0 0 47 47" fill="none" xmlns="http://www.w3.org/2000/svg">
<path d="M37.6248 28.5588C34.4762 27.1354 31.2443 25.8986 27.9464 24.8551C30.8531 22.2568 32.4201 17.4181 32.8144 13.7995C33.0959 13.4957 33.3131 13.1394 33.4533 12.7517C33.5935 12.364 33.6538 11.9526 33.6308 11.5415C33.6308 8.86313 32.5524 6.29444 30.6328 4.40052C28.7133 2.50661 26.1098 1.44263 23.3951 1.44263C20.6805 1.44263 18.077 2.50661 16.1574 4.40052C14.2379 6.29444 13.1595 8.86313 13.1595 11.5415C13.1232 12.3648 13.4154 13.1692 13.9734 13.7824C14.365 17.4028 15.9325 22.2527 18.8439 24.8551C15.5459 25.8986 12.3141 27.1354 9.16547 28.5588C5.11719 30.6439 5.11719 39.6664 5.11719 44.0023C5.11716 44.097 5.13606 44.1908 5.17279 44.2783C5.20952 44.3659 5.26338 44.4454 5.33127 44.5124C5.39917 44.5794 5.47977 44.6325 5.56849 44.6687C5.6572 44.705 5.75229 44.7236 5.84831 44.7236H40.942C41.038 44.7236 41.1331 44.705 41.2218 44.6687C41.3105 44.6325 41.3911 44.5794 41.459 44.5124C41.5269 44.4454 41.5807 44.3659 41.6175 44.2783C41.6542 44.1908 41.6731 44.097 41.6731 44.0023C41.6731 39.6664 41.6731 30.6439 37.6248 28.5588ZM19.7395 35.8216C19.7391 35.2615 19.8711 34.709 20.1249 34.208C20.3787 33.707 20.7474 33.2713 21.2018 32.9354V35.8216C21.2018 35.9163 21.2206 36.0101 21.2574 36.0976C21.2941 36.1852 21.348 36.2647 21.4159 36.3317C21.4838 36.3987 21.5644 36.4518 21.6531 36.4881C21.7418 36.5243 21.8369 36.5429 21.9329 36.5429H24.8574C24.9534 36.5429 25.0485 36.5243 25.1372 36.4881C25.2259 36.4518 25.3065 36.3987 25.3744 36.3317C25.4423 36.2647 25.4962 36.1852 25.5329 36.0976C25.5696 36.0101 25.5885 35.9163 25.5885 35.8216V32.9354C26.0871 33.3043 26.4818 33.7927 26.7352 34.3545C26.9887 34.9162 27.0924 35.5325 27.0365 36.1448C26.9806 36.7572 26.767 37.3453 26.4159 37.8533C26.0648 38.3613 25.588 38.7723 25.0306 39.0473C24.4733 39.3224 23.8539 39.4523 23.2314 39.4247C22.6088 39.3971 22.0038 39.213 21.4737 38.8898C20.9435 38.5666 20.5059 38.115 20.2024 37.578C19.8989 37.041 19.7396 36.4364 19.7395 35.8216ZM28.513 35.8216C28.5142 34.777 28.1861 33.758 27.5741 32.9057C26.9622 32.0533 26.0967 31.4099 25.0976 31.0645C24.9875 31.0215 24.8683 31.0064 24.7507 31.0204C24.6332 31.0345 24.5211 31.0773 24.4246 31.145C24.3281 31.2127 24.2502 31.303 24.1981 31.4079C24.146 31.5129 24.1213 31.6289 24.1262 31.7457V35.1002H22.664V31.7457C22.6662 31.6298 22.6398 31.5152 22.5869 31.4117C22.534 31.3082 22.4564 31.2191 22.3607 31.152C22.2649 31.0848 22.1541 31.0418 22.0376 31.0265C21.9212 31.0113 21.8028 31.0243 21.6926 31.0645C20.737 31.3958 19.9027 31.9999 19.2958 32.8C18.6889 33.6002 18.3368 34.5603 18.2842 35.5583C18.2316 36.5564 18.4809 37.5473 19.0004 38.4053C19.5199 39.2632 20.2861 39.9495 21.2018 40.3768V43.2809H13.1595V28.4058C14.3228 27.955 15.5512 27.5106 16.6573 27.124C18.5361 28.7061 20.9251 29.5753 23.3951 29.5753C25.8651 29.5753 28.2542 28.7061 30.1329 27.124C31.239 27.5106 32.4675 27.955 33.6308 28.4058V43.2809H25.5885V40.3768C26.4623 39.9676 27.2007 39.3226 27.7183 38.5164C28.2359 37.7102 28.5114 36.7759 28.513 35.8216ZM14.8147 12.42C14.7175 12.2893 14.6533 12.1376 14.6274 11.9776C14.6016 11.8175 14.6148 11.6537 14.6661 11.4997C14.7174 11.3457 14.8051 11.206 14.9221 11.0922C15.0391 10.9784 15.182 10.8939 15.3388 10.8455C20.6542 9.76546 26.1374 9.77098 31.4505 10.8617C32.2632 11.0917 32.2357 11.8817 31.9921 12.4136L31.3884 13.3111C31.0966 13.7615 30.6498 14.0928 30.1301 14.2441C29.6104 14.3954 29.0529 14.3565 28.56 14.1346C26.9587 13.3803 25.2069 12.9883 23.4324 12.9873C21.658 12.9864 19.9058 13.3764 18.3036 14.1289C17.8212 14.3523 17.2739 14.3991 16.7597 14.2609C16.2455 14.1226 15.7979 13.8084 15.4969 13.3745L14.8147 12.42ZM23.3951 2.88533C25.361 2.88875 27.2688 3.54289 28.8132 4.74301C30.3575 5.94314 31.4491 7.61983 31.913 9.50463C26.3046 8.27792 20.4926 8.27207 14.8817 9.4875C15.3488 7.6066 16.4411 5.93431 17.9842 4.7376C19.5274 3.5409 21.4324 2.88877 23.3951 2.88533ZM15.7055 15.4022C16.2018 15.6509 16.7495 15.7836 17.3061 15.79C17.8627 15.7964 18.4134 15.6764 18.9155 15.4392C20.3263 14.7671 21.8731 14.419 23.4398 14.4209C25.0065 14.4229 26.5525 14.7749 27.9616 15.4505C28.4512 15.6724 28.9842 15.7854 29.523 15.7815C30.0618 15.7776 30.5931 15.6568 31.0793 15.4278C30.1889 19.7995 27.6697 25.2472 23.3951 25.2472C19.1118 25.2472 16.5912 19.7783 15.7055 15.4022ZM23.3951 26.6899C24.4856 26.6908 25.5578 26.413 26.5072 25.8835C26.6352 25.9293 27.5182 26.2319 28.4732 26.5542C26.9846 27.5816 25.2118 28.1326 23.3951 28.1326C21.5785 28.1326 19.8057 27.5816 18.3171 26.5542C19.2721 26.2319 20.2524 25.8984 20.2831 25.8835C21.2325 26.413 22.3046 26.6908 23.3951 26.6899ZM9.84232 29.838C10.3552 29.5739 10.9943 29.2868 11.6972 28.9928V43.2809H6.58015C6.59263 39.4579 6.78826 31.411 9.84232 29.838ZM22.664 43.2809V40.8134C23.1484 40.8891 23.6419 40.8891 24.1262 40.8134V43.2809H22.664ZM35.093 43.2809V28.9928C35.7959 29.2868 36.435 29.5739 36.9479 29.838C40.002 31.411 40.1976 39.4579 40.2101 43.2809H35.093Z" fill="#2751A0"/>
</svg>
