<svg width="24" height="13" viewBox="0 0 24 13" fill="none" xmlns="http://www.w3.org/2000/svg">
<path d="M22.5625 7.00133H1.4375C1.22201 7.00133 1.01535 6.91937 0.862976 6.77348C0.710602 6.62759 0.625 6.42972 0.625 6.2234C0.625 6.01709 0.710602 5.81922 0.862976 5.67333C1.01535 5.52744 1.22201 5.44548 1.4375 5.44548H22.5625C22.778 5.44548 22.9847 5.52744 23.137 5.67333C23.2894 5.81922 23.375 6.01709 23.375 6.2234C23.375 6.42972 23.2894 6.62759 23.137 6.77348C22.9847 6.91937 22.778 7.00133 22.5625 7.00133ZM23.375 11.6689C23.375 11.4626 23.2894 11.2647 23.137 11.1188C22.9847 10.9729 22.778 10.891 22.5625 10.891H1.4375C1.22201 10.891 1.01535 10.9729 0.862976 11.1188C0.710602 11.2647 0.625 11.4626 0.625 11.6689C0.625 11.8752 0.710602 12.0731 0.862976 12.219C1.01535 12.3648 1.22201 12.4468 1.4375 12.4468H22.5625C22.778 12.4468 22.9847 12.3648 23.137 12.219C23.2894 12.0731 23.375 11.8752 23.375 11.6689ZM23.375 0.777925C23.375 0.571607 23.2894 0.373739 23.137 0.227849C22.9847 0.0819599 22.778 0 22.5625 0H1.4375C1.22201 0 1.01535 0.0819599 0.862976 0.227849C0.710602 0.373739 0.625 0.571607 0.625 0.777925C0.625 0.984244 0.710602 1.18211 0.862976 1.328C1.01535 1.47389 1.22201 1.55585 1.4375 1.55585H22.5625C22.778 1.55585 22.9847 1.47389 23.137 1.328C23.2894 1.18211 23.375 0.984244 23.375 0.777925Z" fill="white"/>
</svg>
