<svg width="89" height="88" viewBox="0 0 89 88" fill="none" xmlns="http://www.w3.org/2000/svg">
<g clip-path="url(#clip0_2223_13245)">
<path d="M88.4974 36.3342C88.4624 35.53 88.0143 34.0392 85.4078 33.0906L15.9165 7.82274C12.3544 6.52663 8.40127 8.36947 7.10464 11.9318L5.22347 17.0999C5.22347 17.0999 5.2233 17.1004 5.22312 17.1007L0.991047 28.7286C-0.305406 32.291 1.53778 36.2438 5.10058 37.5406L25.3536 44.9036C24.9688 47.2445 25.6108 49.5574 27.0081 51.3269L22.6937 63.1799C22.4952 63.7254 21.9713 64.092 21.3902 64.092H8.75V59.967C8.75 57.6926 6.89959 55.842 4.625 55.842H1.875C1.11566 55.842 0.5 56.4577 0.5 57.217V79.217C0.5 79.9764 1.11566 80.592 1.875 80.592H4.625C6.89959 80.592 8.75 78.7415 8.75 76.467V72.342H21.3902C25.4272 72.342 29.0665 69.7935 30.4461 66.0005L34.6698 54.3966C37.0869 54.0573 39.2834 52.646 40.5873 50.4419L64.255 59.0463C65.0286 59.3278 65.8202 59.4614 66.5995 59.4614C68.963 59.4612 71.2087 58.2327 72.4663 56.182L75.1823 57.1705C75.4891 57.282 75.807 57.3377 76.1241 57.3377C76.52 57.3377 76.9144 57.2511 77.2838 57.0788C77.9491 56.7686 78.4537 56.2178 78.7047 55.5282L82.4682 45.1879C82.9259 43.9302 82.4036 42.552 81.2945 41.8899L85.7024 39.8346C88.2162 38.6624 88.5325 37.1384 88.4974 36.3342ZM6 76.467C6 77.2252 5.38314 77.842 4.625 77.842H3.25V58.592H4.625C5.38314 58.592 6 59.2089 6 59.967V76.467ZM27.862 65.0602C26.8759 67.7709 24.2751 69.592 21.3902 69.592H8.75V66.842H21.3902C23.123 66.842 24.6852 65.7484 25.2778 64.1206L29.225 53.2763C29.6778 53.5484 30.163 53.7819 30.6783 53.9695C31.0441 54.1027 31.4131 54.208 31.7828 54.2879L27.862 65.0602ZM33.6898 51.7201C33.658 51.72 33.6263 51.72 33.5947 51.7219C32.9399 51.7306 32.2718 51.623 31.6188 51.3853C30.8545 51.1071 30.188 50.6789 29.6419 50.1456C29.5919 50.0847 29.5364 50.0284 29.4757 49.9766C28.4517 48.8859 27.9034 47.4052 28.0072 45.8683L37.9344 49.4773C36.9299 50.8568 35.3576 51.6687 33.6898 51.7201ZM79.8844 44.2473L76.1233 54.5865L73.5372 53.6453L77.1047 43.8438L77.835 43.5033L79.8844 44.2473ZM84.5405 37.3423L77.1899 40.7698C77.1891 40.7701 77.1884 40.7705 77.1877 40.7708L75.4274 41.5917C75.4267 41.5921 75.4262 41.5922 75.4255 41.5926L73.3616 42.5549C70.9395 43.6843 66.7714 43.8661 64.2594 42.9519L24.486 28.5005C23.7726 28.2415 22.9835 28.6096 22.7241 29.3233C22.4648 30.0371 22.8331 30.8258 23.5469 31.0853L63.3196 45.5364C64.7036 46.0402 66.4094 46.2854 68.1502 46.2854C70.0533 46.2854 71.9966 45.9907 73.6048 45.4199L70.4832 53.9966C69.7053 56.1341 67.3334 57.2399 65.1956 56.4618L6.04056 34.9563C3.90313 34.1784 2.79728 31.8067 3.57519 29.6693L5.92781 23.2054C6.71242 24.4116 7.87928 25.3829 9.33266 25.9119L10.6252 26.3821C11.3381 26.642 12.1277 26.2739 12.3874 25.5602C12.6471 24.8468 12.2791 24.0577 11.5655 23.798L10.2732 23.3278C8.13606 22.5499 7.03005 20.1787 7.80744 18.0414L8.27803 16.7484L8.2782 16.7479L9.68878 12.8723C10.4669 10.7348 12.8386 9.62846 14.9763 10.4069L84.4676 35.6749C85.3504 35.9961 85.677 36.331 85.7433 36.4544C85.688 36.5833 85.392 36.9451 84.5405 37.3423Z" fill="white"/>
<path d="M19.3178 26.6197L16.7333 25.6788C16.0198 25.4188 15.2307 25.7871 14.9709 26.5005C14.7112 27.214 15.079 28.0031 15.7926 28.263L18.3771 29.2038C18.5323 29.2603 18.6911 29.287 18.8473 29.287C19.409 29.287 19.9362 28.9401 20.1395 28.3819C20.3994 27.6686 20.0314 26.8795 19.3178 26.6197Z" fill="white"/>
</g>
<defs>
<clipPath id="clip0_2223_13245">
<rect width="88" height="88" fill="white" transform="translate(0.5)"/>
</clipPath>
</defs>
</svg>
