<svg width="89" height="88" viewBox="0 0 89 88" fill="none" xmlns="http://www.w3.org/2000/svg">
<g id="fi_82669" clip-path="url(#clip0_2223_13245)">
<g id="Group">
<path id="Vector" d="M88.4974 36.3343C88.4624 35.5301 88.0143 34.0392 85.4078 33.0907L15.9165 7.8228C12.3544 6.52669 8.40127 8.36953 7.10464 11.9318L5.22347 17.0999C5.22347 17.0999 5.2233 17.1004 5.22312 17.1008L0.991047 28.7286C-0.305406 32.2911 1.53778 36.2439 5.10058 37.5407L25.3536 44.9036C24.9688 47.2446 25.6108 49.5575 27.0081 51.3269L22.6937 63.18C22.4952 63.7255 21.9713 64.0921 21.3902 64.0921H8.75V59.9671C8.75 57.6927 6.89959 55.8421 4.625 55.8421H1.875C1.11566 55.8421 0.5 56.4578 0.5 57.2171V79.2171C0.5 79.9764 1.11566 80.5921 1.875 80.5921H4.625C6.89959 80.5921 8.75 78.7415 8.75 76.4671V72.3421H21.3902C25.4272 72.3421 29.0665 69.7935 30.4461 66.0006L34.6698 54.3966C37.0869 54.0574 39.2834 52.6461 40.5873 50.442L64.255 59.0464C65.0286 59.3279 65.8202 59.4614 66.5995 59.4614C68.963 59.4613 71.2087 58.2327 72.4663 56.1821L75.1823 57.1705C75.4891 57.2821 75.807 57.3378 76.1241 57.3378C76.52 57.3378 76.9144 57.2511 77.2838 57.0789C77.9491 56.7687 78.4537 56.2178 78.7047 55.5283L82.4682 45.1879C82.9259 43.9303 82.4036 42.552 81.2945 41.89L85.7024 39.8347C88.2162 38.6625 88.5325 37.1385 88.4974 36.3343ZM6 76.4671C6 77.2252 5.38314 77.8421 4.625 77.8421H3.25V58.5921H4.625C5.38314 58.5921 6 59.209 6 59.9671V76.4671ZM27.862 65.0603C26.8759 67.7709 24.2751 69.5921 21.3902 69.5921H8.75V66.8421H21.3902C23.123 66.8421 24.6852 65.7485 25.2778 64.1206L29.225 53.2763C29.6778 53.5484 30.163 53.782 30.6783 53.9695C31.0441 54.1027 31.4131 54.2081 31.7828 54.288L27.862 65.0603ZM33.6898 51.7202C33.658 51.72 33.6263 51.72 33.5947 51.7219C32.9399 51.7307 32.2718 51.6231 31.6188 51.3854C30.8545 51.1071 30.188 50.679 29.6419 50.1456C29.5919 50.0848 29.5364 50.0284 29.4757 49.9767C28.4517 48.886 27.9034 47.4053 28.0072 45.8684L37.9344 49.4774C36.9299 50.8569 35.3576 51.6688 33.6898 51.7202ZM79.8844 44.2474L76.1233 54.5866L73.5372 53.6454L77.1047 43.8438L77.835 43.5034L79.8844 44.2474ZM84.5405 37.3423L77.1899 40.7699C77.1891 40.7702 77.1884 40.7706 77.1877 40.7709L75.4274 41.5918C75.4267 41.5921 75.4262 41.5923 75.4255 41.5926L73.3616 42.555C70.9395 43.6843 66.7714 43.8662 64.2594 42.952L24.486 28.5006C23.7726 28.2416 22.9835 28.6097 22.7241 29.3233C22.4648 30.0371 22.8331 30.8259 23.5469 31.0854L63.3196 45.5365C64.7036 46.0402 66.4094 46.2855 68.1502 46.2855C70.0533 46.2855 71.9966 45.9907 73.6048 45.4199L70.4832 53.9967C69.7053 56.1341 67.3334 57.24 65.1956 56.4619L6.04056 34.9564C3.90313 34.1785 2.79728 31.8068 3.57519 29.6693L5.92781 23.2054C6.71242 24.4117 7.87928 25.3829 9.33266 25.912L10.6252 26.3822C11.3381 26.6421 12.1277 26.2739 12.3874 25.5603C12.6471 24.8468 12.2791 24.0578 11.5655 23.7981L10.2732 23.3278C8.13606 22.5499 7.03005 20.1787 7.80744 18.0415L8.27803 16.7484L8.2782 16.7479L9.68878 12.8723C10.4669 10.7349 12.8386 9.62852 14.9763 10.4069L84.4676 35.675C85.3504 35.9962 85.677 36.331 85.7433 36.4544C85.688 36.5833 85.392 36.9451 84.5405 37.3423Z" fill="#F8B540"/>
<path id="Vector_2" d="M19.3179 26.6197L16.7334 25.6789C16.0199 25.4188 15.2309 25.7872 14.971 26.5006C14.7113 27.2141 15.0791 28.0031 15.7927 28.263L18.3772 29.2039C18.5324 29.2604 18.6912 29.287 18.8475 29.287C19.4092 29.287 19.9363 28.9402 20.1396 28.382C20.3995 27.6687 20.0315 26.8796 19.3179 26.6197Z" fill="#F8B540"/>
</g>
</g>
<defs>
<clipPath id="clip0_2223_13245">
<rect width="88" height="88" fill="white" transform="translate(0.5)"/>
</clipPath>
</defs>
</svg>
