<svg width="81" height="80" viewBox="0 0 81 80" fill="none" xmlns="http://www.w3.org/2000/svg">
<g id="g3798">
<g id="g3800">
<g id="Clip path group">
<mask id="mask0_2223_13217" style="mask-type:luminance" maskUnits="userSpaceOnUse" x="0" y="0" width="81" height="80">
<g id="clipPath3806">
<path id="path3804" d="M0.5 -1.52588e-05H80.5V80H0.5V-1.52588e-05Z" fill="white"/>
</g>
</mask>
<g mask="url(#mask0_2223_13217)">
<g id="g3802">
<g id="g3808">
<path id="path3810" d="M65.5029 54.416C66.905 50.4437 67.6612 46.1876 67.6612 41.7893V17.9812C67.6612 15.449 65.7742 13.3273 63.2635 12.9982C58.7271 12.4037 54.6854 11.0543 51.2273 9.43163" stroke="#F8B540" stroke-width="3" stroke-miterlimit="10" stroke-linecap="round" stroke-linejoin="round"/>
</g>
<g id="g3812">
<path id="path3814" d="M46.4727 6.84219C43.8452 5.20485 41.7516 3.54001 40.2616 2.22516C38.7527 0.893914 36.4902 0.893914 34.9815 2.22516C31.0641 5.68173 22.9752 11.557 11.9793 12.998C9.46866 13.3272 7.58179 15.4489 7.58179 17.9811V41.7892C7.58179 59.3822 19.6809 74.7013 36.818 78.68C36.8207 78.6808 36.8234 78.6814 36.826 78.6819C37.3491 78.8033 37.8938 78.8033 38.4169 78.6819C38.4196 78.6814 38.4224 78.6808 38.4249 78.68C42.8226 77.6591 46.8885 75.8913 50.5032 73.53" stroke="#F8B540" stroke-width="3" stroke-miterlimit="10" stroke-linecap="round" stroke-linejoin="round"/>
</g>
<g id="g3816">
<path id="path3818" d="M73.418 66.1164C73.418 73.1064 67.7514 78.7729 60.7614 78.7729C53.7714 78.7729 48.105 73.1064 48.105 66.1164C48.105 59.1265 53.7714 53.46 60.7614 53.46C67.7514 53.46 73.418 59.1265 73.418 66.1164Z" stroke="#F8B540" stroke-width="3" stroke-miterlimit="10" stroke-linecap="round" stroke-linejoin="round"/>
</g>
<g id="g3820">
<path id="path3822" d="M66.9923 61.3235C66.0465 60.3777 64.5131 60.3777 63.5673 61.3235L59.1934 65.6974L57.9532 64.4572C57.0079 63.5119 55.4753 63.5119 54.5298 64.4572C53.5839 65.4032 53.5845 66.9372 54.5315 67.8824L57.6214 70.966C58.4932 71.8361 59.9056 71.8355 60.7767 70.9644L66.9923 64.7486C67.9381 63.8028 67.9381 62.2694 66.9923 61.3235Z" stroke="#F8B540" stroke-width="3" stroke-miterlimit="10" stroke-linecap="round" stroke-linejoin="round"/>
</g>
<g id="g3824">
<path id="path3826" d="M37.6214 26.5392C24.492 26.7236 15.2847 36.6037 13.0013 39.3169C12.6662 39.715 12.6662 40.2848 13.0013 40.6828C15.2847 43.3961 24.492 53.2762 37.6214 53.4604C50.7509 53.2762 59.9581 43.3961 62.2417 40.6828C62.5766 40.2848 62.5766 39.715 62.2417 39.3169C59.9581 36.6037 50.7509 26.7236 37.6214 26.5392Z" stroke="#F8B540" stroke-width="3" stroke-miterlimit="10" stroke-linecap="round" stroke-linejoin="round"/>
</g>
<g id="g3828">
<path id="path3830" d="M51.0821 40C51.0821 47.434 45.0556 53.4604 37.6215 53.4604C30.1875 53.4604 24.1609 47.434 24.1609 40C24.1609 32.5659 30.1875 26.5393 37.6215 26.5393C45.0556 26.5393 51.0821 32.5659 51.0821 40Z" stroke="#F8B540" stroke-width="3" stroke-miterlimit="10" stroke-linecap="round" stroke-linejoin="round"/>
</g>
<g id="g3832">
<path id="path3834" d="M46.5471 39.3244C46.5637 39.5474 46.5722 39.7727 46.5722 39.9999C46.5722 44.9433 42.5647 48.9507 37.6213 48.9507C34.9897 48.9507 32.6235 47.8152 30.9858 46.0074" stroke="#F8B540" stroke-width="3" stroke-miterlimit="10" stroke-linecap="round" stroke-linejoin="round"/>
</g>
<g id="g3836">
<path id="path3838" d="M28.7392 41.1138C28.6939 40.7489 28.6707 40.3772 28.6707 40.0002C28.6707 35.0567 32.678 31.0492 37.6214 31.0492C38.0191 31.0492 38.4105 31.0752 38.7942 31.1253" stroke="#F8B540" stroke-width="3" stroke-miterlimit="10" stroke-linecap="round" stroke-linejoin="round"/>
</g>
<g id="g3840">
<path id="path3842" d="M48.8022 34.5508C48.8022 37.6383 46.2992 40.1411 43.2119 40.1411C40.1244 40.1411 37.6216 37.6383 37.6216 34.5508C37.6216 31.4633 40.1244 28.9605 43.2119 28.9605C46.2992 28.9605 48.8022 31.4633 48.8022 34.5508Z" stroke="#F8B540" stroke-width="3" stroke-miterlimit="10" stroke-linecap="round" stroke-linejoin="round"/>
</g>
</g>
</g>
</g>
</g>
</g>
</svg>
