<svg width="81" height="80" viewBox="0 0 81 80" fill="none" xmlns="http://www.w3.org/2000/svg">
<mask id="mask0_2223_13217" style="mask-type:luminance" maskUnits="userSpaceOnUse" x="0" y="0" width="81" height="80">
<path d="M0.5 -1.52588e-05H80.5V80H0.5V-1.52588e-05Z" fill="white"/>
</mask>
<g mask="url(#mask0_2223_13217)">
<path d="M65.5029 54.4161C66.905 50.4438 67.6612 46.1877 67.6612 41.7894V17.9813C67.6612 15.4491 65.7742 13.3274 63.2635 12.9983C58.7271 12.4038 54.6854 11.0544 51.2273 9.43176" stroke="white" stroke-width="3" stroke-miterlimit="10" stroke-linecap="round" stroke-linejoin="round"/>
<path d="M46.4727 6.84232C43.8452 5.20497 41.7516 3.54013 40.2616 2.22529C38.7527 0.894036 36.4902 0.894036 34.9814 2.22529C31.0641 5.68185 22.9752 11.5572 11.9792 12.9981C9.4686 13.3273 7.58173 15.449 7.58173 17.9812V41.7894C7.58173 59.3823 19.6808 74.7014 36.818 78.6801C36.8206 78.6809 36.8233 78.6815 36.8259 78.682C37.3491 78.8034 37.8938 78.8034 38.4169 78.682C38.4195 78.6815 38.4224 78.6809 38.4249 78.6801C42.8225 77.6592 46.8884 75.8914 50.5031 73.5301" stroke="white" stroke-width="3" stroke-miterlimit="10" stroke-linecap="round" stroke-linejoin="round"/>
<path d="M73.4178 66.1166C73.4178 73.1066 67.7512 78.7732 60.7612 78.7732C53.7712 78.7732 48.1048 73.1066 48.1048 66.1166C48.1048 59.1268 53.7712 53.4602 60.7612 53.4602C67.7512 53.4602 73.4178 59.1268 73.4178 66.1166Z" stroke="white" stroke-width="3" stroke-miterlimit="10" stroke-linecap="round" stroke-linejoin="round"/>
<path d="M66.9923 61.3238C66.0466 60.378 64.5131 60.378 63.5673 61.3238L59.1934 65.6977L57.9533 64.4575C57.008 63.5122 55.4753 63.5122 54.5298 64.4575C53.5839 65.4035 53.5845 66.9375 54.5316 67.8827L57.6214 70.9663C58.4933 71.8364 59.9056 71.8358 60.7767 70.9647L66.9923 64.7489C67.9381 63.8032 67.9381 62.2697 66.9923 61.3238Z" stroke="white" stroke-width="3" stroke-miterlimit="10" stroke-linecap="round" stroke-linejoin="round"/>
<path d="M37.6214 26.5394C24.492 26.7238 15.2846 36.604 13.0012 39.3171C12.6662 39.7152 12.6662 40.2851 13.0012 40.683C15.2846 43.3963 24.492 53.2765 37.6214 53.4607C50.7509 53.2765 59.9581 43.3963 62.2417 40.683C62.5765 40.2851 62.5765 39.7152 62.2417 39.3171C59.9581 36.604 50.7509 26.7238 37.6214 26.5394Z" stroke="white" stroke-width="3" stroke-miterlimit="10" stroke-linecap="round" stroke-linejoin="round"/>
<path d="M51.082 40.0002C51.082 47.4343 45.0555 53.4607 37.6214 53.4607C30.1873 53.4607 24.1608 47.4343 24.1608 40.0002C24.1608 32.5662 30.1873 26.5396 37.6214 26.5396C45.0555 26.5396 51.082 32.5662 51.082 40.0002Z" stroke="white" stroke-width="3" stroke-miterlimit="10" stroke-linecap="round" stroke-linejoin="round"/>
<path d="M46.5471 39.3247C46.5637 39.5476 46.5723 39.773 46.5723 40.0001C46.5723 44.9436 42.5648 48.9509 37.6213 48.9509C34.9898 48.9509 32.6235 47.8155 30.9859 46.0076" stroke="white" stroke-width="3" stroke-miterlimit="10" stroke-linecap="round" stroke-linejoin="round"/>
<path d="M28.7391 41.1138C28.6938 40.7489 28.6705 40.3772 28.6705 40.0002C28.6705 35.0567 32.6779 31.0492 37.6213 31.0492C38.019 31.0492 38.4104 31.0752 38.7941 31.1253" stroke="white" stroke-width="3" stroke-miterlimit="10" stroke-linecap="round" stroke-linejoin="round"/>
<path d="M48.8021 34.5508C48.8021 37.6383 46.2991 40.1411 43.2117 40.1411C40.1242 40.1411 37.6214 37.6383 37.6214 34.5508C37.6214 31.4633 40.1242 28.9605 43.2117 28.9605C46.2991 28.9605 48.8021 31.4633 48.8021 34.5508Z" stroke="white" stroke-width="3" stroke-miterlimit="10" stroke-linecap="round" stroke-linejoin="round"/>
</g>
</svg>
