<svg width="89" height="88" viewBox="0 0 89 88" fill="none" xmlns="http://www.w3.org/2000/svg">
<g id="fi_11666451" clip-path="url(#clip0_2223_13081)">
<g id="Group">
<path id="Vector" d="M62.0331 45.6936C53.2911 45.6936 46.179 52.8057 46.179 61.5478C46.179 70.2898 53.2911 77.4019 62.0331 77.4019C70.7752 77.4019 77.8873 70.2898 77.8873 61.5478C77.8873 52.8057 70.7752 45.6936 62.0331 45.6936ZM62.0331 73.9643C55.1865 73.9643 49.6164 68.3942 49.6164 61.5476C49.6164 54.701 55.1865 49.1309 62.0331 49.1309C68.8797 49.1309 74.4498 54.701 74.4498 61.5476C74.4498 68.3942 68.8797 73.9643 62.0331 73.9643Z" fill="#F8B540"/>
<path id="Vector_2" d="M88.4959 57.1297C88.4956 56.2846 87.881 55.5651 87.046 55.4328L83.9155 54.9368C83.4774 53.4841 82.8954 52.0804 82.1772 50.7434L84.0379 48.178C84.5343 47.4939 84.4593 46.5505 83.8615 45.9531L77.6256 39.7216C77.0277 39.124 76.0839 39.0501 75.4007 39.5468L72.8417 41.4058C71.5023 40.6858 70.0958 40.1028 68.64 39.6642L68.1433 36.544C68.0105 35.7096 67.2908 35.0955 66.4459 35.0955C66.4457 35.0955 66.4454 35.0955 66.4452 35.0955L62.3078 35.0972V15.2643C62.3078 12.5092 60.0663 10.2676 57.3111 10.2676H45.3956V4.73479C45.3955 2.12402 43.2714 0 40.6607 0H22.1474C19.5367 0 17.4126 2.12402 17.4126 4.73479V10.2676H5.49696C2.74182 10.2676 0.500244 12.5092 0.500244 15.2643V52.0654C0.500244 54.8206 2.74182 57.0622 5.49696 57.0622H35.5991C35.5976 57.0914 35.5952 57.1204 35.5952 57.15L35.5988 65.9658C35.5991 66.8109 36.2138 67.5303 37.0487 67.6627L40.1495 68.1539C40.5902 69.6167 41.1768 71.0295 41.9011 72.3746L40.0569 74.9173C39.5607 75.6014 39.6354 76.5448 40.2332 77.1422L46.469 83.3738C47.0669 83.9713 48.0105 84.0452 48.6939 83.5486L51.2412 81.6982C52.5849 82.4193 53.9957 83.0023 55.4559 83.44L55.9513 86.5515C56.0841 87.3859 56.8038 88 57.6487 88H57.6494L66.4651 87.9964C67.3102 87.996 68.0299 87.3813 68.1621 86.5466L68.6564 83.4263C70.1118 82.9864 71.5175 82.4024 72.8566 81.6814L75.4169 83.5383C76.1009 84.0345 77.0442 83.9599 77.6416 83.362L83.8732 77.1261C84.4708 76.5281 84.5447 75.5847 84.0482 74.901L82.1851 72.3366C82.9025 70.9991 83.4832 69.595 83.9203 68.1422L87.051 67.6438C87.8856 67.5109 88.4999 66.7909 88.4996 65.9456L88.4959 57.1297ZM20.8501 4.73479C20.8501 4.01945 21.4321 3.43748 22.1474 3.43748H40.6607C41.376 3.43748 41.9581 4.01945 41.9581 4.73479V10.2676H20.8501V4.73479ZM5.49696 13.7051H57.3111C57.5206 13.7051 57.7204 13.7472 57.9029 13.8225L53.9565 27.6941C53.5455 29.1381 52.2103 30.1467 50.7088 30.1467H36.4446V29.7156C36.4446 28.1793 35.1946 26.9292 33.658 26.9292H29.1499C27.6135 26.9292 26.3633 28.1793 26.3633 29.7156V30.1467H12.0992C10.5978 30.1467 9.26238 29.1381 8.85143 27.6941L4.9052 13.8225C5.0879 13.7472 5.28745 13.7051 5.49696 13.7051ZM5.49696 53.6247C4.63708 53.6247 3.93772 52.9252 3.93772 52.0654V22.9837L5.54543 28.6347C6.37438 31.549 9.06954 33.5842 12.0993 33.5842H26.3635V34.1663C26.3635 36.9457 28.6247 39.2069 31.4042 39.2069C34.1836 39.2069 36.4448 36.9457 36.4448 34.1663V33.5842H50.7089C53.7387 33.5842 56.4339 31.5488 57.2628 28.6347L58.8705 22.984V35.0989L57.6296 35.0994C56.7845 35.0998 56.0649 35.7146 55.9327 36.5492L55.4398 39.6604C53.9799 40.0994 52.5693 40.6836 51.2259 41.4057L48.6779 39.5575C47.994 39.0615 47.0506 39.1361 46.4532 39.7338L40.2215 45.9696C39.6239 46.5675 39.55 47.511 40.0466 48.1947L41.8932 50.7365C41.3918 51.6688 40.9585 52.6338 40.5926 53.6249H5.49696V53.6247ZM82.2853 64.9216C81.6028 65.0302 81.0519 65.5369 80.8866 66.2078C80.4217 68.0953 79.6764 69.8969 78.6716 71.5623C78.3148 72.1537 78.3466 72.9016 78.7528 73.4603L80.4046 75.734L76.2473 79.8941L73.9769 78.2474C73.4173 77.8414 72.6688 77.8103 72.0773 78.1686C70.4114 79.1777 68.6084 79.9267 66.7188 80.3948C66.0485 80.5608 65.5425 81.112 65.4344 81.7942L64.9963 84.5594L59.1156 84.562L58.6765 81.8039C58.5677 81.1209 58.0603 80.5697 57.3886 80.4049C55.4944 79.9401 53.687 79.1932 52.016 78.1848C51.7421 78.0195 51.4348 77.9376 51.1281 77.9376C50.7725 77.9376 50.4179 78.0478 50.1179 78.2659L47.861 79.9054L43.7009 75.7481L45.3353 73.4949C45.7413 72.9351 45.7724 72.1864 45.414 71.595C44.4013 69.924 43.6506 68.115 43.1822 66.2181C43.0167 65.5471 42.4652 65.0406 41.7825 64.9324L39.0358 64.4973L39.0334 58.6161L41.7799 58.1788C42.4626 58.0702 43.0136 57.5632 43.1786 56.8922C43.6454 54.9954 44.3948 53.1857 45.4064 51.5137C45.7643 50.9221 45.7327 50.1735 45.3264 49.614L43.6899 47.3618L47.8472 43.2017L50.1048 44.839C50.6641 45.2446 51.4117 45.2759 52.003 44.9186C53.6732 43.9088 55.4803 43.1605 57.3745 42.6942C58.0461 42.5288 58.5529 41.9773 58.6612 41.2943L59.0981 38.5364L64.9793 38.5338L65.4195 41.2989C65.5281 41.9809 66.0344 42.5318 66.7049 42.6973C68.5952 43.1641 70.3986 43.9116 72.0651 44.9194C72.6569 45.2775 73.4054 45.2457 73.9647 44.8392L76.2341 43.1907L80.3942 47.3479L78.7442 49.6226C78.3385 50.1819 78.3071 50.9295 78.6644 51.5208C79.6706 53.1854 80.417 54.9863 80.8835 56.8736C81.0493 57.5444 81.6007 58.0508 82.2832 58.1589L85.0593 58.5987L85.0617 64.4799L82.2853 64.9216Z" fill="#F8B540"/>
<path id="Vector_3" d="M62.0332 51.8394C61.0841 51.8394 60.3144 52.6088 60.3144 53.5581V59.8287H57.2986C56.3495 59.8287 55.5798 60.5982 55.5798 61.5475C55.5798 62.4967 56.3495 63.2662 57.2986 63.2662H62.0332C62.9823 63.2662 63.7519 62.4967 63.7519 61.5475V53.5581C63.7519 52.6088 62.9824 51.8394 62.0332 51.8394Z" fill="#F8B540"/>
</g>
</g>
<defs>
<clipPath id="clip0_2223_13081">
<rect width="88" height="88" fill="white" transform="translate(0.5)"/>
</clipPath>
</defs>
</svg>
