<svg width="89" height="88" viewBox="0 0 89 88" fill="none" xmlns="http://www.w3.org/2000/svg">
<g clip-path="url(#clip0_2223_13081)">
<path d="M62.0333 45.6936C53.2913 45.6936 46.1791 52.8057 46.1791 61.5478C46.1791 70.2898 53.2913 77.4019 62.0333 77.4019C70.7753 77.4019 77.8875 70.2898 77.8875 61.5478C77.8875 52.8057 70.7753 45.6936 62.0333 45.6936ZM62.0333 73.9643C55.1867 73.9643 49.6166 68.3942 49.6166 61.5476C49.6166 54.701 55.1867 49.1309 62.0333 49.1309C68.8799 49.1309 74.45 54.701 74.45 61.5476C74.45 68.3942 68.8799 73.9643 62.0333 73.9643Z" fill="white"/>
<path d="M88.496 57.1297C88.4957 56.2846 87.881 55.5651 87.0461 55.4328L83.9156 54.9368C83.4775 53.4841 82.8955 52.0804 82.1772 50.7434L84.0379 48.178C84.5343 47.4939 84.4594 46.5505 83.8616 45.9531L77.6257 39.7216C77.0277 39.124 76.084 39.0501 75.4008 39.5468L72.8417 41.4058C71.5023 40.6858 70.0959 40.1028 68.6401 39.6642L68.1434 36.544C68.0105 35.7096 67.2909 35.0955 66.4459 35.0955C66.4458 35.0955 66.4454 35.0955 66.4453 35.0955L62.3079 35.0972V15.2643C62.3079 12.5092 60.0663 10.2676 57.3112 10.2676H45.3957V4.73479C45.3955 2.12402 43.2715 0 40.6607 0H22.1475C19.5367 0 17.4127 2.12402 17.4127 4.73479V10.2676H5.49703C2.74189 10.2676 0.500305 12.5092 0.500305 15.2643V52.0654C0.500305 54.8206 2.74189 57.0622 5.49703 57.0622H35.5992C35.5977 57.0914 35.5953 57.1204 35.5953 57.15L35.5989 65.9658C35.5992 66.8109 36.2138 67.5303 37.0488 67.6627L40.1496 68.1539C40.5903 69.6167 41.1769 71.0295 41.9011 72.3746L40.0569 74.9173C39.5607 75.6014 39.6355 76.5448 40.2333 77.1422L46.469 83.3738C47.067 83.9713 48.0106 84.0452 48.6939 83.5486L51.2413 81.6982C52.585 82.4193 53.9957 83.0023 55.456 83.44L55.9513 86.5515C56.0842 87.3859 56.8038 88 57.6488 88H57.6494L66.4652 87.9964C67.3103 87.996 68.0299 87.3813 68.1621 86.5466L68.6564 83.4263C70.1119 82.9864 71.5176 82.4024 72.8567 81.6814L75.4169 83.5383C76.101 84.0345 77.0442 83.9599 77.6416 83.362L83.8733 77.1261C84.4709 76.5281 84.5448 75.5847 84.0483 74.901L82.1851 72.3366C82.9025 70.9991 83.4833 69.595 83.9204 68.1422L87.0511 67.6438C87.8857 67.5109 88.5 66.7909 88.4996 65.9456L88.496 57.1297ZM20.8502 4.73479C20.8502 4.01945 21.4322 3.43748 22.1475 3.43748H40.6607C41.3761 3.43748 41.9582 4.01945 41.9582 4.73479V10.2676H20.8502V4.73479ZM5.49703 13.7051H57.3112C57.5207 13.7051 57.7204 13.7472 57.903 13.8225L53.9566 27.6941C53.5456 29.1381 52.2103 30.1467 50.7088 30.1467H36.4447V29.7156C36.4447 28.1793 35.1946 26.9292 33.6581 26.9292H29.15C27.6136 26.9292 26.3634 28.1793 26.3634 29.7156V30.1467H12.0992C10.5979 30.1467 9.26244 29.1381 8.85149 27.6941L4.90526 13.8225C5.08797 13.7472 5.28751 13.7051 5.49703 13.7051ZM5.49703 53.6247C4.63714 53.6247 3.93779 52.9252 3.93779 52.0654V22.9837L5.54549 28.6347C6.37444 31.549 9.0696 33.5842 12.0994 33.5842H26.3636V34.1663C26.3636 36.9457 28.6247 39.2069 31.4043 39.2069C34.1837 39.2069 36.4448 36.9457 36.4448 34.1663V33.5842H50.709C53.7388 33.5842 56.4339 31.5488 57.2629 28.6347L58.8706 22.984V35.0989L57.6297 35.0994C56.7846 35.0998 56.0649 35.7146 55.9328 36.5492L55.4398 39.6604C53.9799 40.0994 52.5694 40.6836 51.226 41.4057L48.678 39.5575C47.9941 39.0615 47.0507 39.1361 46.4532 39.7338L40.2216 45.9696C39.624 46.5675 39.5501 47.511 40.0466 48.1947L41.8932 50.7365C41.3919 51.6688 40.9586 52.6338 40.5927 53.6249H5.49703V53.6247ZM82.2853 64.9216C81.6028 65.0302 81.052 65.5369 80.8866 66.2078C80.4217 68.0953 79.6765 69.8969 78.6717 71.5623C78.3149 72.1537 78.3467 72.9016 78.7528 73.4603L80.4047 75.734L76.2474 79.8941L73.977 78.2474C73.4173 77.8414 72.6688 77.8103 72.0774 78.1686C70.4114 79.1777 68.6085 79.9267 66.7189 80.3948C66.0486 80.5608 65.5426 81.112 65.4345 81.7942L64.9964 84.5594L59.1157 84.562L58.6766 81.8039C58.5678 81.1209 58.0604 80.5697 57.3887 80.4049C55.4945 79.9401 53.6871 79.1932 52.0161 78.1848C51.7421 78.0195 51.4348 77.9376 51.1282 77.9376C50.7726 77.9376 50.418 78.0478 50.1179 78.2659L47.861 79.9054L43.701 75.7481L45.3354 73.4949C45.7413 72.9351 45.7724 72.1864 45.4141 71.595C44.4014 69.924 43.6507 68.115 43.1823 66.2181C43.0168 65.5471 42.4652 65.0406 41.7826 64.9324L39.0358 64.4973L39.0334 58.6161L41.78 58.1788C42.4627 58.0702 43.0137 57.5632 43.1787 56.8922C43.6455 54.9954 44.3949 53.1857 45.4065 51.5137C45.7644 50.9221 45.7327 50.1735 45.3264 49.614L43.69 47.3618L47.8473 43.2017L50.1049 44.839C50.6641 45.2446 51.4118 45.2759 52.003 44.9186C53.6733 43.9088 55.4804 43.1605 57.3746 42.6942C58.0461 42.5288 58.553 41.9773 58.6613 41.2943L59.0982 38.5364L64.9793 38.5338L65.4195 41.2989C65.5281 41.9809 66.0345 42.5318 66.705 42.6973C68.5952 43.1641 70.3987 43.9116 72.0652 44.9194C72.657 45.2775 73.4055 45.2457 73.9648 44.8392L76.2342 43.1907L80.3942 47.3479L78.7442 49.6226C78.3386 50.1819 78.3072 50.9295 78.6645 51.5208C79.6706 53.1854 80.4171 54.9863 80.8835 56.8736C81.0494 57.5444 81.6008 58.0508 82.2833 58.1589L85.0594 58.5987L85.0618 64.4799L82.2853 64.9216Z" fill="white"/>
<path d="M62.0333 51.8395C61.0842 51.8395 60.3145 52.609 60.3145 53.5582V59.8289H57.2987C56.3496 59.8289 55.5799 60.5983 55.5799 61.5476C55.5799 62.4969 56.3496 63.2663 57.2987 63.2663H62.0333C62.9824 63.2663 63.752 62.4969 63.752 61.5476V53.5582C63.752 52.609 62.9825 51.8395 62.0333 51.8395Z" fill="white"/>
</g>
<defs>
<clipPath id="clip0_2223_13081">
<rect width="88" height="88" fill="white" transform="translate(0.5)"/>
</clipPath>
</defs>
</svg>
