<svg width="91" height="92" viewBox="0 0 91 92" fill="none" xmlns="http://www.w3.org/2000/svg">
<path d="M17.3246 76.8966H87.7294C88.7067 76.8966 89.5 76.1037 89.5 75.1269V22.74C89.5 21.7631 88.7067 20.9702 87.7294 20.9702H75.0175" stroke="white" stroke-width="3" stroke-miterlimit="10" stroke-linecap="round" stroke-linejoin="round"/>
<path d="M16.0938 20.9702H3.27062C2.29324 20.9702 1.5 21.7631 1.5 22.74V75.1267C1.5 76.1035 2.29324 76.8964 3.27062 76.8964H11.0722" stroke="white" stroke-width="3" stroke-miterlimit="10" stroke-linecap="round" stroke-linejoin="round"/>
<path d="M43.0175 77.4043V84.7529" stroke="white" stroke-width="3" stroke-miterlimit="10" stroke-linecap="round" stroke-linejoin="round"/>
<path d="M47.9822 84.5187V77.17" stroke="white" stroke-width="3" stroke-miterlimit="10" stroke-linecap="round" stroke-linejoin="round"/>
<path d="M61.9849 85.0372H66.5009C68.479 85.0372 70.0825 86.6407 70.0825 88.6188C70.0825 89.3815 69.4644 89.9996 68.7018 89.9996H22.2983C21.5357 89.9996 20.9176 89.3815 20.9176 88.6188C20.9176 86.6407 22.5211 85.0372 24.4992 85.0372H55.8949" stroke="white" stroke-width="3" stroke-miterlimit="10" stroke-linecap="round" stroke-linejoin="round"/>
<path d="M57.6213 13.5183H74.4972V53.8644" stroke="white" stroke-width="3" stroke-miterlimit="10" stroke-linecap="round" stroke-linejoin="round"/>
<path d="M16.0939 36.7854V13.5183H32.2716" stroke="white" stroke-width="3" stroke-miterlimit="10" stroke-linecap="round" stroke-linejoin="round"/>
<path d="M16.0939 54.2055V43.1189" stroke="white" stroke-width="3" stroke-miterlimit="10" stroke-linecap="round" stroke-linejoin="round"/>
<path d="M57.3334 7.84323H32.4976L38.3434 2H51.3632L57.3334 7.84323Z" stroke="white" stroke-width="3" stroke-miterlimit="10" stroke-linecap="round" stroke-linejoin="round"/>
<path d="M30.8549 18.1982V23.0477H39.9861V18.1982H30.8549Z" stroke="white" stroke-width="3" stroke-miterlimit="10" stroke-linecap="round" stroke-linejoin="round"/>
<path d="M49.8447 18.1982V23.0477H58.976V18.1982H49.8447Z" stroke="white" stroke-width="3" stroke-miterlimit="10" stroke-linecap="round" stroke-linejoin="round"/>
<path d="M38.284 7.84326V18.2209" stroke="white" stroke-width="3" stroke-miterlimit="10" stroke-linecap="round" stroke-linejoin="round"/>
<path d="M32.4976 18.2209V7.84326" stroke="white" stroke-width="3" stroke-miterlimit="10" stroke-linecap="round" stroke-linejoin="round"/>
<path d="M57.3442 7.84326V18.2209" stroke="white" stroke-width="3" stroke-miterlimit="10" stroke-linecap="round" stroke-linejoin="round"/>
<path d="M51.5577 18.2209V7.84326" stroke="white" stroke-width="3" stroke-miterlimit="10" stroke-linecap="round" stroke-linejoin="round"/>
<path d="M57.6002 63.5496H68.2103" stroke="white" stroke-width="3" stroke-miterlimit="10" stroke-linecap="round" stroke-linejoin="round"/>
<path d="M65.1111 54.2054H16.0938L14.1525 63.5494H51.3475" stroke="white" stroke-width="3" stroke-miterlimit="10" stroke-linecap="round" stroke-linejoin="round"/>
<path d="M36.9695 42.7262L41.0521 32.0116C41.1018 31.8809 41.2272 31.7947 41.3669 31.7947C41.5071 31.7947 41.6327 31.8814 41.6821 32.0126L45.7272 42.7263" stroke="white" stroke-width="3" stroke-miterlimit="10" stroke-linecap="round" stroke-linejoin="round"/>
<path d="M38.2687 40.0034H44.4494" stroke="white" stroke-width="3" stroke-miterlimit="10" stroke-linecap="round" stroke-linejoin="round"/>
<path d="M51.782 31.9305V42.8622H55.6149" stroke="white" stroke-width="3" stroke-miterlimit="10" stroke-linecap="round" stroke-linejoin="round"/>
<path d="M65.6263 31.9305H61.0182V42.8622H65.6263" stroke="white" stroke-width="3" stroke-miterlimit="10" stroke-linecap="round" stroke-linejoin="round"/>
<path d="M65.111 37.3967H61.0444" stroke="white" stroke-width="3" stroke-miterlimit="10" stroke-linecap="round" stroke-linejoin="round"/>
<path d="M31.0131 32.8971C31.0131 32.8971 29.0507 31.2483 26.7365 31.945C24.6115 32.5847 24.3265 35.0668 25.8517 36.0357C26.576 36.4959 27.3339 36.7466 29.0333 37.3252C32.8632 38.6293 31.3259 42.7047 28.0837 42.7047C26.4601 42.7047 25.0974 41.994 24.2726 41.0843" stroke="white" stroke-width="3" stroke-miterlimit="10" stroke-linecap="round" stroke-linejoin="round"/>
<path d="M79.6883 57.5036L76.854 60.3423L79.3154 62.8073C79.727 63.2197 79.727 63.8881 79.3154 64.3005L77.6993 65.919C77.2877 66.3314 76.6201 66.3314 76.2085 65.919L73.7471 63.454L70.9129 66.2926C70.3578 66.8486 69.4123 66.6235 69.1663 65.8769L64.6054 52.0288C64.4354 51.5091 64.9275 51.0166 65.4463 51.1867L79.2729 55.7547C80.0187 56.0007 80.2434 56.9476 79.6883 57.5036Z" stroke="white" stroke-width="3" stroke-miterlimit="10" stroke-linecap="round" stroke-linejoin="round"/>
<path d="M38.4762 13.5183H51.3348" stroke="white" stroke-width="3" stroke-miterlimit="10" stroke-linecap="round" stroke-linejoin="round"/>
</svg>
