<svg width="89" height="88" viewBox="0 0 89 88" fill="none" xmlns="http://www.w3.org/2000/svg">
<g id="fi_3350354" clip-path="url(#clip0_2223_13128)">
<g id="Group">
<g id="Group_2">
<path id="Vector" d="M16.7218 70.9749C16.0058 71.0233 15.4644 71.6431 15.5128 72.3591L15.8276 77.042C15.8737 77.7236 16.4396 78.2531 17.1227 78.2539H17.2118C17.9278 78.2056 18.4692 77.5858 18.4208 76.8698L18.1059 72.1914C18.0598 71.4735 17.4406 70.9288 16.7226 70.9749C16.7223 70.9749 16.7218 70.9749 16.7218 70.9749Z" fill="#F8B540"/>
<path id="Vector_2" d="M81.8953 86.4359L77.3187 64.4317C77.2183 58.3131 72.2336 53.4035 66.1143 53.3959H65.8915V49.9265C65.8904 49.2818 65.4159 48.7359 64.7776 48.6455V3.52815C64.7795 2.59244 64.4071 1.69464 63.7431 1.03517C62.3676 -0.343264 60.1352 -0.345699 58.7568 1.02978C58.0933 1.69186 57.7207 2.59087 57.7214 3.52815V48.6453C57.083 48.7356 56.6082 49.2816 56.6075 49.9263V53.3957H56.3774C53.8825 53.3955 51.4595 54.2323 49.4963 55.7721L49.9166 49.5699C51.7667 48.9782 52.7871 46.999 52.1955 45.1489C51.7282 43.6877 50.3679 42.6981 48.8339 42.7031H10.5895C8.64706 42.7033 7.07258 44.2779 7.07275 46.2203C7.07293 47.7499 8.0617 49.104 9.51859 49.5699L11.7465 82.6278C11.9536 85.6463 14.4583 87.9914 17.4839 87.9998H80.6279C81.3453 88.0001 81.927 87.4189 81.9273 86.7015C81.9273 86.6123 81.9183 86.5232 81.9 86.4357L81.8953 86.4359ZM61.2487 2.59992C61.4943 2.60113 61.7297 2.69907 61.9037 2.87251C62.0787 3.04577 62.1771 3.282 62.177 3.52815V48.6267H60.3205V3.52815C60.3208 3.01567 60.7362 2.60026 61.2487 2.59992ZM59.2065 51.226H63.2908V53.3959H59.2065V51.226ZM56.3772 55.995H66.1143C70.3672 56.0007 73.9815 59.1048 74.629 63.3081H47.8624C48.51 59.1048 52.1243 56.0005 56.3772 55.995ZM56.7484 65.9072L55.8893 85.4007H51.1128L53.544 65.9072H56.7484ZM59.3475 65.9072H63.1348L63.9925 85.4007H58.492L59.3475 65.9072ZM65.734 65.9072H68.9392L71.3697 85.4007H66.5984L65.734 65.9072ZM10.5917 45.2999H48.836C49.3487 45.2999 49.7642 45.7155 49.7642 46.2282C49.7642 46.7408 49.3487 47.1564 48.836 47.1564H10.5917C10.0791 47.1564 9.6635 46.7408 9.6635 46.2282C9.6635 45.7155 10.0791 45.2999 10.5917 45.2999ZM46.9795 49.7555C45.3369 56.2824 39.478 60.8651 32.7474 60.8872H26.554C19.8149 60.8955 13.9421 56.2991 12.3308 49.7555H46.9795ZM14.3351 82.454L12.5788 56.3632C13.1129 57.0991 13.7036 57.792 14.3456 58.4359C17.5782 61.679 21.972 63.4969 26.5511 63.4857H32.7445C38.3685 63.4671 43.6335 60.7197 46.8651 56.1169L46.6683 59.0197C45.7178 60.6636 45.2038 62.5234 45.1749 64.4222L40.8098 85.4009H17.4794C15.8205 85.3956 14.4478 84.109 14.3351 82.454ZM47.52 65.9072H50.9249L48.4944 85.4007H43.4647L47.52 65.9072ZM73.9956 85.4007L71.5644 65.9072H74.9699L79.0261 85.4007H73.9956Z" fill="#F8B540"/>
</g>
</g>
</g>
<defs>
<clipPath id="clip0_2223_13128">
<rect width="88" height="88" fill="white" transform="translate(0.5)"/>
</clipPath>
</defs>
</svg>
