<svg width="89" height="88" viewBox="0 0 89 88" fill="none" xmlns="http://www.w3.org/2000/svg">
<g clip-path="url(#clip0_2223_13128)">
<path d="M16.722 70.975C16.006 71.0234 15.4647 71.6432 15.513 72.3592L15.8279 77.0421C15.874 77.7237 16.4399 78.2532 17.123 78.2541H17.2121C17.9281 78.2057 18.4694 77.5859 18.4211 76.8699L18.1062 72.1915C18.0601 71.4736 17.4408 70.9289 16.7229 70.975C16.7225 70.975 16.722 70.975 16.722 70.975Z" fill="white"/>
<path d="M81.8954 86.436L77.3188 64.4318C77.2184 58.3133 72.2336 53.4037 66.1144 53.396H65.8915V49.9266C65.8905 49.2819 65.4159 48.736 64.7777 48.6456V3.52827C64.7796 2.59256 64.4071 1.69477 63.7431 1.03529C62.3677 -0.343141 60.1353 -0.345577 58.7568 1.0299C58.0934 1.69198 57.7208 2.59099 57.7215 3.52827V48.6454C57.083 48.7357 56.6083 49.2818 56.6076 49.9264V53.3958H56.3775C53.8826 53.3957 51.4595 54.2324 49.4964 55.7723L49.9167 49.57C51.7667 48.9784 52.7872 46.9991 52.1955 45.1491C51.7283 43.6878 50.3679 42.6982 48.834 42.7032H10.5895C8.64713 42.7034 7.07264 44.278 7.07281 46.2205C7.07299 47.7501 8.06176 49.1041 9.51865 49.57L11.7465 82.6279C11.9537 85.6464 14.4583 87.9915 17.484 87.9999H80.6279C81.3453 88.0002 81.927 87.4191 81.9274 86.7017C81.9274 86.6124 81.9184 86.5233 81.9001 86.4358L81.8954 86.436ZM61.2488 2.60004C61.4944 2.60126 61.7298 2.69919 61.9037 2.87263C62.0787 3.04589 62.1772 3.28212 62.177 3.52827V48.6268H60.3205V3.52827C60.3209 3.01579 60.7363 2.60039 61.2488 2.60004ZM59.2065 51.2261H63.2909V53.396H59.2065V51.2261ZM56.3773 55.9951H66.1144C70.3673 56.0008 73.9816 59.1049 74.629 63.3083H47.8624C48.5101 59.1049 52.1244 56.0007 56.3773 55.9951ZM56.7485 65.9073L55.8893 85.4008H51.1128L53.544 65.9073H56.7485ZM59.3476 65.9073H63.1348L63.9926 85.4008H58.4921L59.3476 65.9073ZM65.7341 65.9073H68.9392L71.3698 85.4008H66.5985L65.7341 65.9073ZM10.5918 45.3001H48.8361C49.3487 45.3001 49.7643 45.7156 49.7643 46.2283C49.7643 46.7409 49.3487 47.1565 48.8361 47.1565H10.5918C10.0791 47.1565 9.66356 46.7409 9.66356 46.2283C9.66356 45.7156 10.0791 45.3001 10.5918 45.3001ZM46.9796 49.7556C45.3369 56.2825 39.4781 60.8652 32.7475 60.8873H26.5541C19.815 60.8956 13.9422 56.2992 12.3308 49.7556H46.9796ZM14.3352 82.4541L12.5789 56.3634C13.113 57.0992 13.7037 57.7921 14.3456 58.4361C17.5783 61.6791 21.9721 63.497 26.5511 63.4859H32.7445C38.3686 63.4673 43.6335 60.7198 46.8651 56.1171L46.6684 59.0199C45.7179 60.6638 45.2038 62.5235 45.175 64.4223L40.8099 85.401H17.4794C15.8206 85.3958 14.4479 84.1092 14.3352 82.4541ZM47.5201 65.9073H50.9249L48.4944 85.4008H43.4648L47.5201 65.9073ZM73.9957 85.4008L71.5644 65.9073H74.97L79.0261 85.4008H73.9957Z" fill="white"/>
</g>
<defs>
<clipPath id="clip0_2223_13128">
<rect width="88" height="88" fill="white" transform="translate(0.5)"/>
</clipPath>
</defs>
</svg>
