<svg width="81" height="80" viewBox="0 0 81 80" fill="none" xmlns="http://www.w3.org/2000/svg">
<path d="M11.75 51.25C11.0083 51.25 10.2833 51.4699 9.66661 51.882C9.04993 52.294 8.56928 52.8797 8.28545 53.5649C8.00162 54.2502 7.92736 55.0042 8.07205 55.7316C8.21675 56.459 8.5739 57.1272 9.09835 57.6516C9.6228 58.1761 10.291 58.5333 11.0184 58.6779C11.7458 58.8226 12.4998 58.7484 13.1851 58.4645C13.8703 58.1807 14.456 57.7001 14.868 57.0834C15.2801 56.4667 15.5 55.7417 15.5 55C15.4989 54.0058 15.1034 53.0526 14.4004 52.3496C13.6974 51.6466 12.7442 51.2511 11.75 51.25ZM11.75 56.25C11.5028 56.25 11.2611 56.1767 11.0555 56.0393C10.85 55.902 10.6898 55.7068 10.5951 55.4784C10.5005 55.2499 10.4758 54.9986 10.524 54.7561C10.5722 54.5137 10.6913 54.2909 10.8661 54.1161C11.0409 53.9413 11.2637 53.8222 11.5061 53.774C11.7486 53.7258 11.9999 53.7505 12.2284 53.8452C12.4568 53.9398 12.652 54.1 12.7893 54.3055C12.9267 54.5111 13 54.7528 13 55C12.9996 55.3314 12.8678 55.6491 12.6335 55.8835C12.3991 56.1178 12.0814 56.2496 11.75 56.25Z" fill="white"/>
<path d="M59.25 51.25C58.5083 51.25 57.7833 51.4699 57.1666 51.882C56.5499 52.294 56.0693 52.8797 55.7855 53.5649C55.5016 54.2502 55.4274 55.0042 55.5721 55.7316C55.7167 56.459 56.0739 57.1272 56.5984 57.6516C57.1228 58.1761 57.791 58.5333 58.5184 58.6779C59.2458 58.8226 59.9998 58.7484 60.6851 58.4645C61.3703 58.1807 61.956 57.7001 62.368 57.0834C62.7801 56.4667 63 55.7417 63 55C62.9989 54.0058 62.6034 53.0526 61.9004 52.3496C61.1974 51.6466 60.2442 51.2511 59.25 51.25ZM59.25 56.25C59.0028 56.25 58.7611 56.1767 58.5555 56.0393C58.35 55.902 58.1898 55.7068 58.0952 55.4784C58.0005 55.2499 57.9758 54.9986 58.024 54.7561C58.0722 54.5137 58.1913 54.2909 58.3661 54.1161C58.5409 53.9413 58.7637 53.8222 59.0061 53.774C59.2486 53.7258 59.4999 53.7505 59.7284 53.8452C59.9568 53.9398 60.152 54.1 60.2893 54.3055C60.4267 54.5111 60.5 54.7528 60.5 55C60.4996 55.3314 60.3678 55.6491 60.1335 55.8835C59.8991 56.1178 59.5814 56.2496 59.25 56.25Z" fill="white"/>
<path d="M68 55C68 53.8384 67.7687 52.6884 67.3196 51.6171C66.8705 50.5458 66.2126 49.5747 65.3843 48.7603C64.5559 47.9459 63.5737 47.3047 62.4949 46.8739C61.4161 46.4431 60.2624 46.2314 59.1009 46.2512C54.3584 46.3304 50.5 50.3104 50.5 55.1234V59.3226C47.0758 58.3906 42.0817 57.5 35.5 57.5C28.9183 57.5 23.9242 58.3906 20.5 59.3226V55C20.5 53.8223 20.2623 52.6568 19.8011 51.5732C19.3399 50.4896 18.6647 49.5102 17.8159 48.6938C16.9672 47.8774 15.9624 47.2407 14.8617 46.8219C13.761 46.4031 12.5871 46.2108 11.4103 46.2565C9.21122 46.3492 7.12712 47.2643 5.57074 48.8207C4.01437 50.3771 3.09923 52.4612 3.00656 54.6603C2.92313 56.8214 3.64255 58.9368 5.02616 60.599C6.40977 62.2611 8.35965 63.3524 10.5 63.6623V68.75C10.5015 70.0756 11.0288 71.3465 11.9661 72.2839C12.9035 73.2212 14.1744 73.7485 15.5 73.75V77.5C15.5 77.8315 15.6317 78.1494 15.8661 78.3839C16.1005 78.6183 16.4185 78.75 16.75 78.75H20.5C20.7321 78.75 20.9597 78.6853 21.1571 78.5633C21.3546 78.4413 21.5142 78.2667 21.618 78.059L23.7725 73.75H47.2275L49.382 78.059C49.4858 78.2667 49.6454 78.4413 49.8429 78.5633C50.0403 78.6853 50.2679 78.75 50.5 78.75H54.25C54.5815 78.75 54.8995 78.6183 55.1339 78.3839C55.3683 78.1494 55.5 77.8315 55.5 77.5V73.75C56.8256 73.7485 58.0965 73.2212 59.0339 72.2839C59.9712 71.3465 60.4985 70.0756 60.5 68.75V63.6609C62.5814 63.3577 64.4844 62.3159 65.8613 60.7258C67.2383 59.1357 67.9974 57.1034 68 55ZM19.7275 76.25H18V73.75H20.9775L19.7275 76.25ZM53 76.25H51.2725L50.0225 73.75H53V76.25ZM59.25 61.25C58.9185 61.25 58.6005 61.3817 58.3661 61.6161C58.1317 61.8505 58 62.1685 58 62.5V68.75C57.9992 69.4128 57.7356 70.0482 57.2669 70.5169C56.7982 70.9855 56.1628 71.2492 55.5 71.25H15.5C14.8372 71.2492 14.2018 70.9855 13.7331 70.5169C13.2644 70.0482 13.0008 69.4128 13 68.75V62.5C13 62.1685 12.8683 61.8505 12.6339 61.6161C12.3995 61.3817 12.0815 61.25 11.75 61.25C10.9086 61.25 10.0759 61.0801 9.30178 60.7506C8.52764 60.421 7.82801 59.9385 7.24483 59.3321C6.66165 58.7256 6.20693 58.0076 5.90791 57.2212C5.6089 56.4347 5.47175 55.596 5.50469 54.7553C5.57092 53.1852 6.22433 51.6973 7.33551 50.5861C8.44669 49.4749 9.93463 48.8215 11.5047 48.7553C12.3454 48.7223 13.1841 48.8593 13.9706 49.1583C14.7571 49.4572 15.4751 49.9119 16.0816 50.495C16.6882 51.0781 17.1707 51.7777 17.5003 52.5518C17.83 53.3259 17.9999 54.1586 18 55V60.0937C16.0295 60.7812 14.9941 61.3503 14.8872 61.4104L16.1102 63.5909C16.1747 63.555 22.7177 60 35.5 60C48.2823 60 54.8253 63.555 54.8872 63.5895L56.1128 61.4104C56.0059 61.3503 54.9705 60.7806 53 60.0937V55.1234C53 51.6662 55.7556 48.8075 59.1427 48.7509C59.9679 48.7366 60.7878 48.8859 61.555 49.1902C62.3222 49.4945 63.0216 49.9477 63.6127 50.5237C64.2038 51.0997 64.675 51.7871 64.9991 52.5461C65.3231 53.3052 65.4936 54.121 65.5007 54.9463C65.5078 55.7716 65.3513 56.5902 65.0403 57.3547C64.7294 58.1192 64.2701 58.8146 63.6889 59.4007C63.1078 59.9868 62.4163 60.4519 61.6544 60.7693C60.8926 61.0867 60.0753 61.2501 59.25 61.25Z" fill="white"/>
<path d="M13 37.5C13.0008 36.8372 13.2644 36.2018 13.7331 35.7331C14.2018 35.2644 14.8372 35.0008 15.5 35H55.5C56.1628 35.0008 56.7982 35.2644 57.2669 35.7331C57.7356 36.2018 57.9992 36.8372 58 37.5V43.75H60.5V37.5C60.4985 36.1744 59.9712 34.9035 59.0339 33.9661C58.0965 33.0288 56.8256 32.5015 55.5 32.5H15.5C14.1744 32.5015 12.9035 33.0288 11.9661 33.9661C11.0288 34.9035 10.5015 36.1744 10.5 37.5V43.75H13V37.5Z" fill="white"/>
<path d="M28 40H30.5V42.5H28V40Z" fill="white"/>
<path d="M34.25 46.25H36.75V48.75H34.25V46.25Z" fill="white"/>
<path d="M21.75 46.25H24.25V48.75H21.75V46.25Z" fill="white"/>
<path d="M28 52.5H30.5V55H28V52.5Z" fill="white"/>
<path d="M40.5 40H43V42.5H40.5V40Z" fill="white"/>
<path d="M46.75 46.25H49.25V48.75H46.75V46.25Z" fill="white"/>
<path d="M40.5 52.5H43V55H40.5V52.5Z" fill="white"/>
<path d="M73 1.25H38C36.6744 1.25149 35.4035 1.77875 34.4661 2.71611C33.5288 3.65347 33.0015 4.92437 33 6.25V7.5H35.5V6.25C35.5008 5.5872 35.7644 4.95177 36.2331 4.4831C36.7018 4.01443 37.3372 3.75079 38 3.75H54.25V30H56.75V3.75H73C73.6628 3.75079 74.2982 4.01443 74.7669 4.4831C75.2356 4.95177 75.4992 5.5872 75.5 6.25V68.75C75.4992 69.4128 75.2356 70.0482 74.7669 70.5169C74.2982 70.9856 73.6628 71.2492 73 71.25H61.75V73.75H64.7275L66.882 78.0591C66.9858 78.2667 67.1454 78.4413 67.3429 78.5633C67.5403 78.6853 67.7679 78.75 68 78.75H71.75C72.0815 78.75 72.3995 78.6183 72.6339 78.3839C72.8683 78.1495 73 77.8315 73 77.5V73.75C74.3256 73.7485 75.5965 73.2212 76.5339 72.2839C77.4712 71.3465 77.9985 70.0756 78 68.75V6.25C77.9985 4.92437 77.4712 3.65347 76.5339 2.71611C75.5965 1.77875 74.3256 1.25149 73 1.25ZM70.5 76.25H68.7725L67.5225 73.75H70.5V76.25Z" fill="white"/>
<path d="M11.75 27.5H23V30H25.5V27.5H36.75C36.9229 27.5 37.0939 27.4641 37.2523 27.3946C37.4106 27.3252 37.5528 27.2236 37.6699 27.0963C37.7869 26.9691 37.8763 26.8189 37.9324 26.6554C37.9885 26.4918 38.01 26.3184 37.9956 26.1461L36.7456 11.1461C36.7196 10.8337 36.577 10.5424 36.3463 10.3301C36.1156 10.1178 35.8135 10 35.5 10H25.5V7.5H23V10H13C12.6865 10 12.3844 10.1178 12.1537 10.3301C11.923 10.5424 11.7804 10.8337 11.7544 11.1461L10.5044 26.1461C10.49 26.3184 10.5115 26.4918 10.5676 26.6554C10.6237 26.8189 10.7131 26.9691 10.8301 27.0963C10.9472 27.2236 11.0894 27.3252 11.2477 27.3946C11.4061 27.4641 11.5771 27.5 11.75 27.5ZM14.1502 12.5H34.3498L35.3916 25H13.1084L14.1502 12.5Z" fill="white"/>
</svg>
