<svg width="81" height="80" viewBox="0 0 81 80" fill="none" xmlns="http://www.w3.org/2000/svg">
<g id="fi_2590393">
<g id="Outline">
<path id="Vector" d="M11.75 51.25C11.0083 51.25 10.2833 51.4699 9.66661 51.882C9.04993 52.294 8.56928 52.8797 8.28545 53.5649C8.00162 54.2502 7.92736 55.0042 8.07206 55.7316C8.21675 56.459 8.5739 57.1272 9.09835 57.6516C9.6228 58.1761 10.291 58.5333 11.0184 58.6779C11.7458 58.8226 12.4998 58.7484 13.1851 58.4645C13.8703 58.1807 14.456 57.7001 14.868 57.0834C15.2801 56.4667 15.5 55.7417 15.5 55C15.4989 54.0058 15.1034 53.0526 14.4004 52.3496C13.6974 51.6466 12.7442 51.2511 11.75 51.25ZM11.75 56.25C11.5028 56.25 11.2611 56.1767 11.0555 56.0393C10.85 55.902 10.6898 55.7068 10.5952 55.4784C10.5005 55.2499 10.4758 54.9986 10.524 54.7561C10.5723 54.5137 10.6913 54.2909 10.8661 54.1161C11.0409 53.9413 11.2637 53.8222 11.5061 53.774C11.7486 53.7258 11.9999 53.7505 12.2284 53.8452C12.4568 53.9398 12.652 54.1 12.7893 54.3055C12.9267 54.5111 13 54.7528 13 55C12.9996 55.3314 12.8678 55.6491 12.6335 55.8835C12.3991 56.1178 12.0814 56.2496 11.75 56.25Z" fill="#F8B540"/>
<path id="Vector_2" d="M59.25 51.25C58.5083 51.25 57.7833 51.4699 57.1666 51.882C56.5499 52.294 56.0693 52.8797 55.7855 53.5649C55.5016 54.2502 55.4274 55.0042 55.5721 55.7316C55.7168 56.459 56.0739 57.1272 56.5984 57.6516C57.1228 58.1761 57.791 58.5333 58.5184 58.6779C59.2458 58.8226 59.9998 58.7484 60.6851 58.4645C61.3703 58.1807 61.956 57.7001 62.368 57.0834C62.7801 56.4667 63 55.7417 63 55C62.9989 54.0058 62.6034 53.0526 61.9004 52.3496C61.1974 51.6466 60.2442 51.2511 59.25 51.25ZM59.25 56.25C59.0028 56.25 58.7611 56.1767 58.5555 56.0393C58.35 55.902 58.1898 55.7068 58.0952 55.4784C58.0005 55.2499 57.9758 54.9986 58.024 54.7561C58.0723 54.5137 58.1913 54.2909 58.3661 54.1161C58.5409 53.9413 58.7637 53.8222 59.0061 53.774C59.2486 53.7258 59.4999 53.7505 59.7284 53.8452C59.9568 53.9398 60.152 54.1 60.2893 54.3055C60.4267 54.5111 60.5 54.7528 60.5 55C60.4996 55.3314 60.3678 55.6491 60.1335 55.8835C59.8991 56.1178 59.5814 56.2496 59.25 56.25Z" fill="#F8B540"/>
<path id="Vector_3" d="M68 55C68 53.8384 67.7687 52.6884 67.3196 51.6171C66.8705 50.5459 66.2126 49.5747 65.3842 48.7604C64.5559 47.946 63.5737 47.3047 62.4949 46.8739C61.4161 46.4432 60.2623 46.2315 59.1009 46.2513C54.3584 46.3305 50.5 50.3105 50.5 55.1235V59.3227C47.0757 58.3907 42.0817 57.5 35.5 57.5C28.9182 57.5 23.9242 58.3907 20.5 59.3227V55C20.5 53.8224 20.2622 52.6568 19.801 51.5732C19.3398 50.4896 18.6646 49.5103 17.8159 48.6939C16.9671 47.8775 15.9623 47.2408 14.8616 46.822C13.7609 46.4032 12.587 46.2109 11.4103 46.2566C9.21118 46.3493 7.12708 47.2644 5.5707 48.8208C4.01433 50.3772 3.09919 52.4613 3.00652 54.6603C2.92309 56.8214 3.64251 58.9369 5.02612 60.599C6.40973 62.2612 8.35961 63.3524 10.5 63.6624V68.75C10.5014 70.0757 11.0287 71.3466 11.9661 72.2839C12.9034 73.2213 14.1743 73.7485 15.5 73.75V77.5C15.5 77.8316 15.6317 78.1495 15.8661 78.3839C16.1005 78.6183 16.4184 78.75 16.75 78.75H20.5C20.7321 78.75 20.9596 78.6854 21.1571 78.5634C21.3545 78.4413 21.5141 78.2667 21.6179 78.0591L23.7725 73.75H47.2275L49.382 78.0591C49.4858 78.2667 49.6454 78.4413 49.8428 78.5634C50.0403 78.6854 50.2678 78.75 50.5 78.75H54.25C54.5815 78.75 54.8994 78.6183 55.1338 78.3839C55.3683 78.1495 55.5 77.8316 55.5 77.5V73.75C56.8256 73.7485 58.0965 73.2213 59.0338 72.2839C59.9712 71.3466 60.4985 70.0757 60.5 68.75V63.661C62.5814 63.3577 64.4843 62.3159 65.8613 60.7258C67.2382 59.1358 67.9973 57.1035 68 55ZM19.7275 76.25H18V73.75H20.9775L19.7275 76.25ZM53 76.25H51.2725L50.0225 73.75H53V76.25ZM59.25 61.25C58.9184 61.25 58.6005 61.3817 58.3661 61.6161C58.1317 61.8506 58 62.1685 58 62.5V68.75C57.9992 69.4128 57.7355 70.0483 57.2669 70.5169C56.7982 70.9856 56.1628 71.2493 55.5 71.25H15.5C14.8372 71.2493 14.2017 70.9856 13.7331 70.5169C13.2644 70.0483 13.0007 69.4128 13 68.75V62.5C13 62.1685 12.8683 61.8506 12.6338 61.6161C12.3994 61.3817 12.0815 61.25 11.75 61.25C10.9086 61.25 10.0759 61.0802 9.30174 60.7506C8.5276 60.4211 7.82797 59.9386 7.24479 59.3321C6.66161 58.7256 6.20689 58.0077 5.90787 57.2212C5.60886 56.4348 5.47171 55.5961 5.50465 54.7553C5.57088 53.1853 6.22429 51.6974 7.33547 50.5862C8.44665 49.475 9.93459 48.8216 11.5046 48.7553C12.3454 48.7223 13.1841 48.8594 13.9706 49.1583C14.7571 49.4573 15.4751 49.9119 16.0816 50.495C16.6881 51.0782 17.1707 51.7777 17.5003 52.5519C17.8299 53.326 17.9999 54.1587 18 55V60.0938C16.0295 60.7813 14.994 61.3503 14.8871 61.4105L16.1101 63.591C16.1746 63.555 22.7176 60 35.5 60C48.2823 60 54.8253 63.555 54.8871 63.5896L56.1128 61.4105C56.0059 61.3503 54.9704 60.7807 53 60.0938V55.1235C53 51.6663 55.7556 48.8075 59.1426 48.751C59.9678 48.7367 60.7877 48.886 61.555 49.1902C62.3222 49.4945 63.0215 49.9477 63.6127 50.5237C64.2038 51.0997 64.675 51.7871 64.999 52.5462C65.3231 53.3053 65.4935 54.121 65.5006 54.9464C65.5077 55.7717 65.3513 56.5902 65.0403 57.3548C64.7293 58.1193 64.27 58.8147 63.6889 59.4008C63.1077 59.9868 62.4163 60.452 61.6544 60.7694C60.8925 61.0868 60.0753 61.2502 59.25 61.25Z" fill="#F8B540"/>
<path id="Vector_4" d="M13 37.5C13.0008 36.8372 13.2644 36.2018 13.7331 35.7331C14.2018 35.2644 14.8372 35.0008 15.5 35H55.5C56.1628 35.0008 56.7982 35.2644 57.2669 35.7331C57.7356 36.2018 57.9992 36.8372 58 37.5V43.75H60.5V37.5C60.4985 36.1744 59.9712 34.9035 59.0339 33.9661C58.0965 33.0288 56.8256 32.5015 55.5 32.5H15.5C14.1744 32.5015 12.9035 33.0288 11.9661 33.9661C11.0288 34.9035 10.5015 36.1744 10.5 37.5V43.75H13V37.5Z" fill="#F8B540"/>
<path id="Vector_5" d="M28 40H30.5V42.5H28V40Z" fill="#F8B540"/>
<path id="Vector_6" d="M34.25 46.25H36.75V48.75H34.25V46.25Z" fill="#F8B540"/>
<path id="Vector_7" d="M21.75 46.25H24.25V48.75H21.75V46.25Z" fill="#F8B540"/>
<path id="Vector_8" d="M28 52.5H30.5V55H28V52.5Z" fill="#F8B540"/>
<path id="Vector_9" d="M40.5 40H43V42.5H40.5V40Z" fill="#F8B540"/>
<path id="Vector_10" d="M46.75 46.25H49.25V48.75H46.75V46.25Z" fill="#F8B540"/>
<path id="Vector_11" d="M40.5 52.5H43V55H40.5V52.5Z" fill="#F8B540"/>
<path id="Vector_12" d="M73 1.25H38C36.6744 1.25149 35.4035 1.77875 34.4661 2.71611C33.5288 3.65347 33.0015 4.92437 33 6.25V7.5H35.5V6.25C35.5008 5.5872 35.7644 4.95177 36.2331 4.4831C36.7018 4.01443 37.3372 3.75079 38 3.75H54.25V30H56.75V3.75H73C73.6628 3.75079 74.2982 4.01443 74.7669 4.4831C75.2356 4.95177 75.4992 5.5872 75.5 6.25V68.75C75.4992 69.4128 75.2356 70.0482 74.7669 70.5169C74.2982 70.9856 73.6628 71.2492 73 71.25H61.75V73.75H64.7275L66.882 78.0591C66.9858 78.2667 67.1454 78.4413 67.3429 78.5633C67.5403 78.6853 67.7679 78.75 68 78.75H71.75C72.0815 78.75 72.3995 78.6183 72.6339 78.3839C72.8683 78.1495 73 77.8315 73 77.5V73.75C74.3256 73.7485 75.5965 73.2212 76.5339 72.2839C77.4712 71.3465 77.9985 70.0756 78 68.75V6.25C77.9985 4.92437 77.4712 3.65347 76.5339 2.71611C75.5965 1.77875 74.3256 1.25149 73 1.25ZM70.5 76.25H68.7725L67.5225 73.75H70.5V76.25Z" fill="#F8B540"/>
<path id="Vector_13" d="M11.75 27.5H23V30H25.5V27.5H36.75C36.9229 27.5 37.0939 27.4641 37.2522 27.3946C37.4105 27.3252 37.5527 27.2236 37.6698 27.0963C37.7869 26.9691 37.8763 26.8189 37.9323 26.6554C37.9884 26.4918 38.01 26.3184 37.9956 26.1461L36.7456 11.1461C36.7195 10.8337 36.577 10.5424 36.3463 10.3301C36.1155 10.1178 35.8135 10 35.5 10H25.5V7.5H23V10H13C12.6864 10 12.3844 10.1178 12.1536 10.3301C11.9229 10.5424 11.7804 10.8337 11.7543 11.1461L10.5043 26.1461C10.49 26.3184 10.5115 26.4918 10.5676 26.6554C10.6236 26.8189 10.713 26.9691 10.8301 27.0963C10.9472 27.2236 11.0894 27.3252 11.2477 27.3946C11.406 27.4641 11.577 27.5 11.75 27.5ZM14.1501 12.5H34.3498L35.3915 25H13.1084L14.1501 12.5Z" fill="#F8B540"/>
</g>
</g>
</svg>
