<svg width="107" height="80" viewBox="0 0 107 80" fill="none" xmlns="http://www.w3.org/2000/svg">
<path d="M8.57848 17.8066H25.0169C25.8777 17.8066 26.5756 17.1089 26.5756 16.2479C26.5756 15.3869 25.8777 14.6892 25.0169 14.6892H8.57848C7.71768 14.6892 7.01981 15.3869 7.01981 16.2479C7.01981 17.1089 7.71747 17.8066 8.57848 17.8066Z" fill="white"/>
<path d="M24.4534 25.3103H17.9598C17.099 25.3103 16.4011 26.008 16.4011 26.869C16.4011 27.73 17.099 28.4277 17.9598 28.4277H24.4534C25.3142 28.4277 26.0121 27.73 26.0121 26.869C26.0121 26.008 25.3142 25.3103 24.4534 25.3103Z" fill="white"/>
<path d="M2.05868 36.1191H17.9597C18.8205 36.1191 19.5183 35.4214 19.5183 34.5604C19.5183 33.6994 18.8205 33.0017 17.9597 33.0017H2.05868C1.19787 33.0017 0.5 33.6994 0.5 34.5604C0.5 35.4214 1.19787 36.1191 2.05868 36.1191Z" fill="white"/>
<path d="M26.5756 63.7518C26.5756 62.8908 25.8777 62.1931 25.0169 62.1931H8.57848C7.71768 62.1931 7.01981 62.8908 7.01981 63.7518C7.01981 64.6128 7.71768 65.3105 8.57848 65.3105H25.0169C25.8777 65.3105 26.5756 64.6128 26.5756 63.7518Z" fill="white"/>
<path d="M24.4534 51.572H17.9598C17.099 51.572 16.4011 52.2697 16.4011 53.1307C16.4011 53.9917 17.099 54.6894 17.9598 54.6894H24.4534C25.3142 54.6894 26.0121 53.9917 26.0121 53.1307C26.0121 52.2697 25.3142 51.572 24.4534 51.572Z" fill="white"/>
<path d="M19.5183 45.4393C19.5183 44.5783 18.8205 43.8806 17.9597 43.8806H2.05868C1.19787 43.8806 0.5 44.5783 0.5 45.4393C0.5 46.3003 1.19787 46.998 2.05868 46.998H17.9597C18.8205 46.998 19.5183 46.3003 19.5183 45.4393Z" fill="white"/>
<path d="M66.9054 21.2606C67.7665 21.2606 68.4641 20.5629 68.4641 19.7019V17.3227C68.4641 16.4617 67.7665 15.764 66.9054 15.764C66.0444 15.764 65.3468 16.4617 65.3468 17.3227V19.7019C65.3468 20.5629 66.0444 21.2606 66.9054 21.2606Z" fill="white"/>
<path d="M84.0428 22.8623C83.4339 22.2538 82.4472 22.2538 81.8385 22.8623L80.1561 24.5447C79.5474 25.1536 79.5474 26.1403 80.1561 26.749C80.7653 27.3578 81.7518 27.3576 82.3605 26.749L84.0428 25.0667C84.6513 24.458 84.6513 23.4712 84.0428 22.8623Z" fill="white"/>
<path d="M87.204 38.4415C86.343 38.4415 85.6453 39.1392 85.6453 40.0002C85.6453 40.8612 86.343 41.5589 87.204 41.5589H89.5829C90.4439 41.5589 91.1416 40.8612 91.1416 40.0002C91.1416 39.1392 90.4439 38.4415 89.5829 38.4415H87.204Z" fill="white"/>
<path d="M82.3605 53.2507C81.7516 52.6422 80.7648 52.6422 80.1561 53.2507C79.5474 53.8596 79.5474 54.8464 80.1561 55.4551L81.8385 57.1374C82.4476 57.7461 83.4341 57.7459 84.0428 57.1374C84.6516 56.5285 84.6516 55.5417 84.0428 54.933L82.3605 53.2507Z" fill="white"/>
<path d="M65.3468 60.2981V62.677C65.3468 63.538 66.0444 64.2357 66.9054 64.2357C67.7665 64.2357 68.4641 63.538 68.4641 62.677V60.2981C68.4641 59.437 67.7665 58.7394 66.9054 58.7394C66.0444 58.7394 65.3468 59.4373 65.3468 60.2981Z" fill="white"/>
<path d="M51.4505 53.2507L49.7681 54.933C49.1594 55.5419 49.1594 56.5287 49.7681 57.1374C50.377 57.7461 51.3638 57.7459 51.9723 57.1374L53.6546 55.4551C54.2633 54.8462 54.2633 53.8594 53.6546 53.2507C53.0461 52.6422 52.0592 52.6422 51.4505 53.2507Z" fill="white"/>
<path d="M44.2284 38.4415C43.3675 38.4415 42.6697 39.1392 42.6697 40.0002C42.6697 40.8612 43.3675 41.5589 44.2284 41.5589H46.6075C47.4683 41.5589 48.1662 40.8612 48.1662 40.0002C48.1662 39.1392 47.4683 38.4415 46.6075 38.4415H44.2284Z" fill="white"/>
<path d="M53.6546 24.5447L51.9723 22.8623C51.3636 22.2538 50.3766 22.2538 49.7681 22.8623C49.1594 23.4712 49.1594 24.458 49.7681 25.0667L51.4505 26.749C52.0594 27.3578 53.0461 27.3576 53.6546 26.749C54.2633 26.1403 54.2633 25.1536 53.6546 24.5447Z" fill="white"/>
<path d="M75.287 40.0001C75.287 39.1391 74.5893 38.4414 73.7283 38.4414H68.4641V26.869C68.4641 26.008 67.7665 25.3103 66.9054 25.3103C66.0444 25.3103 65.3468 26.008 65.3468 26.869V40.0001C65.3468 40.8611 66.0444 41.5588 66.9054 41.5588H73.7283C74.5891 41.5588 75.287 40.8611 75.287 40.0001Z" fill="white"/>
<path d="M96.4605 39.743C97.3198 39.6909 97.9741 38.9521 97.9219 38.0929C96.9304 21.7366 83.3063 8.92407 66.9053 8.92407C49.7698 8.92407 35.829 22.8649 35.829 40.0005C35.829 57.136 49.7698 71.0768 66.9053 71.0768C82.257 71.0768 95.3563 59.829 97.6351 44.6506C97.7629 43.7994 97.1764 43.0057 96.325 42.8779C95.4758 42.7505 94.6801 43.3363 94.5522 44.188C92.5052 57.8241 80.7307 67.9597 66.9053 67.9597C51.4887 67.9597 38.9464 55.4173 38.9464 40.0008C38.9464 24.5842 51.4887 12.0416 66.9053 12.0416C81.661 12.0416 93.9182 23.5677 94.8102 38.282C94.8621 39.1408 95.6003 39.7929 96.4605 39.743Z" fill="white"/>
<path d="M66.9055 0C61.4229 0 56.0513 1.13742 51.1072 3.26449H23.6061C22.7453 3.26449 22.0474 3.96216 22.0474 4.82317C22.0474 5.68418 22.7453 6.38184 23.6061 6.38184H45.2432C42.3177 8.26472 39.6245 10.5358 37.2499 13.1577C36.6721 13.7955 36.7208 14.7812 37.3588 15.3592C37.997 15.9372 38.9823 15.8883 39.5605 15.2503C46.5438 7.53963 56.5108 3.11735 66.9055 3.11735C87.2427 3.11735 103.788 19.6628 103.788 40C103.788 60.337 87.2429 76.8826 66.9055 76.8826C46.5683 76.8826 30.0228 60.3372 30.0228 40C30.0228 32.8783 32.0572 25.9661 35.9057 20.0103C36.3729 19.2873 36.1655 18.3226 35.4425 17.8554C34.7194 17.3884 33.7547 17.5954 33.2873 18.3186C29.1121 24.7794 26.9055 32.2767 26.9055 40C26.9055 54.0834 34.2221 66.4888 45.2532 73.6181H23.6063C22.7455 73.6181 22.0476 74.3158 22.0476 75.1768C22.0476 76.0378 22.7455 76.7355 23.6063 76.7355H51.0857C55.9405 78.8343 61.2893 80 66.9057 80C88.9616 80 106.906 62.0561 106.906 40C106.906 17.9439 88.9616 0 66.9055 0Z" fill="white"/>
</svg>
