<svg width="107" height="80" viewBox="0 0 107 80" fill="none" xmlns="http://www.w3.org/2000/svg">
<g id="Group">
<path id="Vector" d="M8.57845 17.8066H25.0169C25.8777 17.8066 26.5756 17.1089 26.5756 16.2479C26.5756 15.3869 25.8777 14.6892 25.0169 14.6892H8.57845C7.71765 14.6892 7.01978 15.3869 7.01978 16.2479C7.01978 17.1089 7.71744 17.8066 8.57845 17.8066Z" fill="#F8B540"/>
<path id="Vector_2" d="M24.4535 25.3103H17.9598C17.099 25.3103 16.4011 26.008 16.4011 26.869C16.4011 27.73 17.099 28.4277 17.9598 28.4277H24.4535C25.3143 28.4277 26.0121 27.73 26.0121 26.869C26.0121 26.008 25.3143 25.3103 24.4535 25.3103Z" fill="#F8B540"/>
<path id="Vector_3" d="M2.05868 36.1191H17.9597C18.8205 36.1191 19.5183 35.4214 19.5183 34.5604C19.5183 33.6994 18.8205 33.0017 17.9597 33.0017H2.05868C1.19787 33.0017 0.5 33.6994 0.5 34.5604C0.5 35.4214 1.19787 36.1191 2.05868 36.1191Z" fill="#F8B540"/>
<path id="Vector_4" d="M26.5756 63.7518C26.5756 62.8908 25.8777 62.1931 25.0169 62.1931H8.57845C7.71765 62.1931 7.01978 62.8908 7.01978 63.7518C7.01978 64.6128 7.71765 65.3105 8.57845 65.3105H25.0169C25.8777 65.3105 26.5756 64.6128 26.5756 63.7518Z" fill="#F8B540"/>
<path id="Vector_5" d="M24.4535 51.572H17.9598C17.099 51.572 16.4011 52.2697 16.4011 53.1307C16.4011 53.9917 17.099 54.6894 17.9598 54.6894H24.4535C25.3143 54.6894 26.0121 53.9917 26.0121 53.1307C26.0121 52.2697 25.3143 51.572 24.4535 51.572Z" fill="#F8B540"/>
<path id="Vector_6" d="M19.5183 45.4393C19.5183 44.5783 18.8205 43.8806 17.9597 43.8806H2.05868C1.19787 43.8806 0.5 44.5783 0.5 45.4393C0.5 46.3003 1.19787 46.998 2.05868 46.998H17.9597C18.8205 46.998 19.5183 46.3003 19.5183 45.4393Z" fill="#F8B540"/>
<path id="Vector_7" d="M66.9054 21.2607C67.7664 21.2607 68.464 20.563 68.464 19.702V17.3228C68.464 16.4618 67.7664 15.7642 66.9054 15.7642C66.0443 15.7642 65.3467 16.4618 65.3467 17.3228V19.702C65.3467 20.563 66.0443 21.2607 66.9054 21.2607Z" fill="#F8B540"/>
<path id="Vector_8" d="M84.043 22.8624C83.434 22.2539 82.4473 22.2539 81.8386 22.8624L80.1562 24.5447C79.5475 25.1536 79.5475 26.1404 80.1562 26.7491C80.7654 27.3578 81.7519 27.3576 82.3606 26.7491L84.043 25.0668C84.6515 24.4581 84.6515 23.4713 84.043 22.8624Z" fill="#F8B540"/>
<path id="Vector_9" d="M87.2039 38.4414C86.3429 38.4414 85.6453 39.1391 85.6453 40.0001C85.6453 40.8611 86.3429 41.5588 87.2039 41.5588H89.5829C90.4439 41.5588 91.1416 40.8611 91.1416 40.0001C91.1416 39.1391 90.4439 38.4414 89.5829 38.4414H87.2039Z" fill="#F8B540"/>
<path id="Vector_10" d="M82.3606 53.2508C81.7517 52.6423 80.765 52.6423 80.1562 53.2508C79.5475 53.8597 79.5475 54.8465 80.1562 55.4552L81.8386 57.1375C82.4477 57.7462 83.4342 57.746 84.043 57.1375C84.6517 56.5286 84.6517 55.5419 84.043 54.9331L82.3606 53.2508Z" fill="#F8B540"/>
<path id="Vector_11" d="M65.3467 60.2979V62.6769C65.3467 63.5379 66.0443 64.2356 66.9054 64.2356C67.7664 64.2356 68.464 63.5379 68.464 62.6769V60.2979C68.464 59.4369 67.7664 58.7393 66.9054 58.7393C66.0443 58.7393 65.3467 59.4371 65.3467 60.2979Z" fill="#F8B540"/>
<path id="Vector_12" d="M51.4504 53.2508L49.7681 54.9331C49.1593 55.5421 49.1593 56.5288 49.7681 57.1375C50.377 57.7462 51.3637 57.746 51.9722 57.1375L53.6546 55.4552C54.2633 54.8463 54.2633 53.8595 53.6546 53.2508C53.0461 52.6423 52.0591 52.6423 51.4504 53.2508Z" fill="#F8B540"/>
<path id="Vector_13" d="M44.2284 38.4414C43.3675 38.4414 42.6697 39.1391 42.6697 40.0001C42.6697 40.8611 43.3675 41.5588 44.2284 41.5588H46.6075C47.4683 41.5588 48.1662 40.8611 48.1662 40.0001C48.1662 39.1391 47.4683 38.4414 46.6075 38.4414H44.2284Z" fill="#F8B540"/>
<path id="Vector_14" d="M53.6546 24.5447L51.9722 22.8624C51.3635 22.2539 50.3766 22.2539 49.7681 22.8624C49.1593 23.4713 49.1593 24.4581 49.7681 25.0668L51.4504 26.7491C52.0593 27.3578 53.0461 27.3576 53.6546 26.7491C54.2633 26.1404 54.2633 25.1536 53.6546 24.5447Z" fill="#F8B540"/>
<path id="Vector_15" d="M75.2869 40.0001C75.2869 39.1391 74.5892 38.4414 73.7282 38.4414H68.464V26.869C68.464 26.008 67.7664 25.3103 66.9054 25.3103C66.0443 25.3103 65.3467 26.008 65.3467 26.869V40.0001C65.3467 40.8611 66.0443 41.5588 66.9054 41.5588H73.7282C74.589 41.5588 75.2869 40.8611 75.2869 40.0001Z" fill="#F8B540"/>
<path id="Vector_16" d="M96.4606 39.743C97.3199 39.6909 97.9742 38.9521 97.922 38.0929C96.9305 21.7366 83.3064 8.92407 66.9054 8.92407C49.7699 8.92407 35.8291 22.8649 35.8291 40.0005C35.8291 57.136 49.7699 71.0768 66.9054 71.0768C82.2571 71.0768 95.3564 59.829 97.6352 44.6506C97.763 43.7994 97.1765 43.0057 96.3251 42.8779C95.4759 42.7505 94.6801 43.3363 94.5523 44.188C92.5053 57.8241 80.7308 67.9597 66.9054 67.9597C51.4888 67.9597 38.9465 55.4173 38.9465 40.0008C38.9465 24.5842 51.4888 12.0416 66.9054 12.0416C81.661 12.0416 93.9183 23.5677 94.8102 38.282C94.8622 39.1408 95.6004 39.7929 96.4606 39.743Z" fill="#F8B540"/>
<path id="Vector_17" d="M66.9055 0C61.4229 0 56.0512 1.13742 51.1071 3.26449H23.606C22.7452 3.26449 22.0474 3.96216 22.0474 4.82317C22.0474 5.68418 22.7452 6.38184 23.606 6.38184H45.2432C42.3176 8.26472 39.6245 10.5358 37.2499 13.1577C36.6721 13.7955 36.7207 14.7812 37.3588 15.3592C37.997 15.9372 38.9823 15.8883 39.5604 15.2503C46.5437 7.53963 56.5107 3.11735 66.9055 3.11735C87.2427 3.11735 103.788 19.6628 103.788 40C103.788 60.337 87.2429 76.8826 66.9055 76.8826C46.5683 76.8826 30.0228 60.3372 30.0228 40C30.0228 32.8783 32.0572 25.9661 35.9057 20.0103C36.3728 19.2873 36.1654 18.3226 35.4424 17.8554C34.7194 17.3884 33.7547 17.5954 33.2873 18.3186C29.1121 24.7794 26.9054 32.2767 26.9054 40C26.9054 54.0834 34.2221 66.4888 45.2531 73.6181H23.6062C22.7454 73.6181 22.0476 74.3158 22.0476 75.1768C22.0476 76.0378 22.7454 76.7355 23.6062 76.7355H51.0857C55.9405 78.8343 61.2892 80 66.9057 80C88.9616 80 106.906 62.0561 106.906 40C106.906 17.9439 88.9616 0 66.9055 0Z" fill="#F8B540"/>
</g>
</svg>
