<svg width="89" height="88" viewBox="0 0 89 88" fill="none" xmlns="http://www.w3.org/2000/svg">
<path d="M55.5 44C55.5 37.9349 50.5651 33 44.5 33C38.4349 33 33.5 37.9349 33.5 44C33.5 50.0651 38.4349 55 44.5 55C50.5651 55 55.5 50.0651 55.5 44ZM44.5 52.25C39.9501 52.25 36.25 48.5499 36.25 44C36.25 39.4501 39.9501 35.75 44.5 35.75C49.0499 35.75 52.75 39.4501 52.75 44C52.75 48.5499 49.0499 52.25 44.5 52.25Z" fill="white"/>
<path d="M81.5947 42.7611C81.4504 38.3405 80.5401 34.045 78.875 29.9681V26.411C78.875 25.4911 79.3288 24.6276 80.0589 24.1574C83.6229 21.868 85.75 17.9767 85.75 13.75C85.75 10.23 84.243 6.86538 81.6168 4.51825C78.9919 2.1725 75.465 1.05738 71.9381 1.45613C66.7819 2.03913 62.5001 5.93313 61.33 10.9148C56.1408 8.27475 50.3671 6.875 44.5 6.875C40.2402 6.875 36.0877 7.58862 32.125 8.9925V1.375H23.875V23.375H21.125V6.875H12.875V23.375H10.125V12.375H1.875V26.125H11.962C8.95763 31.5824 7.375 37.7108 7.375 44C7.375 48.2529 8.11063 52.4081 9.5145 56.375C9.0415 57.1876 8.75 58.1185 8.75 59.125H6C3.72575 59.125 1.875 60.9757 1.875 63.25V70.125H4.625C6.14162 70.125 7.375 71.3584 7.375 72.875C7.375 74.3916 6.14162 75.625 4.625 75.625H1.875V82.5C1.875 84.7743 3.72575 86.625 6 86.625H22.5C24.7743 86.625 26.625 84.7743 26.625 82.5V75.625H23.875C22.3584 75.625 21.125 74.3916 21.125 72.875C21.125 71.3584 22.3584 70.125 23.875 70.125H26.625V63.25C26.625 60.9757 24.7743 59.125 22.5 59.125H19.75C19.75 56.0918 17.2832 53.625 14.25 53.625C13.3329 53.625 12.4804 53.8725 11.72 54.2713C10.818 51.392 10.3051 48.4151 10.1855 45.375H26.625V49.0985L29.1357 49.9854C29.221 50.2013 29.3104 50.4171 29.4052 50.633L28.2558 53.0365L35.4663 60.247L37.8698 59.0975C38.0842 59.1924 38.3001 59.2831 38.5174 59.367L39.4015 61.875H43.125V78.3379C38.5531 78.1605 34.1449 77.1059 30.0047 75.1781L28.8442 77.671C33.764 79.9631 39.0316 81.125 44.5 81.125C55.8561 81.125 66.3597 76.032 73.375 67.3269V77.3245L77.0298 84.634C77.643 85.8619 78.8764 86.625 80.25 86.625C81.6236 86.625 82.857 85.8619 83.4702 84.6354L87.125 77.3245V49.5C87.125 46.1698 84.7435 43.3881 81.5947 42.7611ZM7.375 23.375H4.625V15.125H7.375V23.375ZM63.8325 12.4781C64.3825 8.16475 67.9218 4.67775 72.2475 4.18825C72.6298 4.14563 73.0092 4.125 73.3874 4.125C75.7592 4.125 77.9977 4.97337 79.7839 6.56975C81.8271 8.39437 83 11.0124 83 13.75C83 17.0363 81.3445 20.0626 78.5725 21.8446C77.1191 22.7796 76.2323 24.365 76.1429 26.125H74.75V17.622C76.3464 17.0527 77.5 15.5402 77.5 13.75C77.5 11.4757 75.6493 9.625 73.375 9.625C71.1007 9.625 69.25 11.4757 69.25 13.75C69.25 15.5402 70.4036 17.0527 72 17.622V26.125H70.6044C70.5026 24.3499 69.6267 22.7714 68.2009 21.8597C65.026 19.8316 63.3526 16.2374 63.8325 12.4781ZM76.125 28.875V30.25C76.125 31.0076 75.5076 31.625 74.75 31.625H72C71.2424 31.625 70.625 31.0076 70.625 30.25V28.875H76.125ZM72 13.75C72 12.9924 72.6174 12.375 73.375 12.375C74.1326 12.375 74.75 12.9924 74.75 13.75C74.75 14.5076 74.1326 15.125 73.375 15.125C72.6174 15.125 72 14.5076 72 13.75ZM45.875 9.67037C51.1825 9.88212 56.369 11.3162 61.0041 13.8573C61.0371 18.0345 63.1299 21.8831 66.7186 24.1766C67.4323 24.6318 67.8736 25.5104 67.8736 26.4688V30.25C67.8736 32.5243 69.7244 34.375 71.9986 34.375H74.7486C75.6878 34.375 76.5444 34.0477 77.2388 33.517C78.1806 36.4595 78.7196 39.5079 78.8406 42.625H62.375V38.9015L59.8643 38.0146C59.779 37.7987 59.6896 37.5829 59.5947 37.367L60.7442 34.9635L53.5337 27.753L51.1302 28.9025C50.9157 28.8076 50.6999 28.7169 50.4826 28.633L49.5985 26.125H45.875V9.67037ZM26.625 4.125H29.375V23.375H26.625V4.125ZM15.625 9.625H18.375V23.375H15.625V9.625ZM11.5 61.875V59.125C11.5 57.6084 12.7334 56.375 14.25 56.375C15.7666 56.375 17 57.6084 17 59.125V61.875H22.5C23.2576 61.875 23.875 62.4924 23.875 63.25V67.375C20.8417 67.375 18.375 69.8418 18.375 72.875C18.375 75.9082 20.8417 78.375 23.875 78.375V82.5C23.875 83.2576 23.2576 83.875 22.5 83.875H6C5.24237 83.875 4.625 83.2576 4.625 82.5V78.375C7.65825 78.375 10.125 75.9082 10.125 72.875C10.125 69.8418 7.65825 67.375 4.625 67.375V63.25C4.625 62.4924 5.24237 61.875 6 61.875H11.5ZM26.625 38.9015V42.625H10.1731C10.4055 36.7716 12.1105 31.1108 15.1534 26.125H32.125V11.9309C35.6436 10.571 39.3327 9.8065 43.125 9.65938V26.125H39.4015L38.5146 28.6357C38.2987 28.721 38.0829 28.8104 37.867 28.9052L35.4635 27.7558L28.253 34.9663L29.4025 37.3698C29.3076 37.5842 29.2169 37.8001 29.133 38.0174L26.625 38.9015ZM41.3485 59.125L40.6734 57.211L40.0436 56.9951C39.517 56.815 38.9862 56.5936 38.4665 56.3379L37.8684 56.045L36.0341 56.9222L31.5764 52.4645L32.4536 50.6302L32.1607 50.0321C31.905 49.5124 31.685 48.9816 31.5035 48.455L31.2876 47.8253L29.375 47.1515V40.8471L31.289 40.172L31.5049 39.5422C31.685 39.0156 31.9064 38.4849 32.1621 37.9651L32.455 37.367L31.5777 35.5327L36.0355 31.075L37.8698 31.9523L38.4679 31.6594C38.9876 31.4036 39.5184 31.1836 40.045 31.0021L40.6748 30.7862L41.3485 28.875H47.6529L48.328 30.789L48.9578 31.0049C49.4844 31.185 50.0151 31.4064 50.5349 31.6621L51.133 31.955L52.9673 31.0777L57.425 35.5355L56.5478 37.3698L56.8406 37.9679C57.0964 38.4876 57.3164 39.0184 57.4979 39.545L57.7138 40.1748L59.625 40.8485V47.1529L57.711 47.828L57.4951 48.4578C57.315 48.9844 57.0936 49.5151 56.8379 50.0349L56.545 50.633L57.4222 52.4673L52.9645 56.925L51.1302 56.0478L50.5321 56.3406C50.0124 56.5964 49.4816 56.8164 48.955 56.9979L48.3253 57.2138L47.6515 59.125H41.3485ZM73.375 49.5V62.6409C67.2535 72.1091 57.0771 77.891 45.875 78.331V61.875H49.5985L50.4854 59.3643C50.7013 59.279 50.9171 59.1896 51.133 59.0947L53.5365 60.2442L60.747 53.0337L59.5975 50.6302C59.6924 50.4157 59.7831 50.1999 59.867 49.9826L62.375 49.0985V45.375H74.7858C73.9126 46.5272 73.375 47.9463 73.375 49.5ZM76.125 53.625H78.875V75.625H76.125V53.625ZM81.0104 83.4061C80.7203 83.985 79.7798 83.985 79.491 83.4061L76.9747 78.375H83.5253L81.0104 83.4061ZM84.375 75.625H81.625V53.625H84.375V75.625ZM84.375 50.875H76.125V49.5C76.125 47.2257 77.9757 45.375 80.25 45.375C82.5243 45.375 84.375 47.2257 84.375 49.5V50.875Z" fill="white"/>
<path d="M48.8106 75.3335C55.9867 74.3545 62.672 70.8853 67.633 65.5641L65.6214 63.6886C61.0907 68.5478 54.9885 71.7158 48.438 72.6096L48.8106 75.3335Z" fill="white"/>
<path d="M71.8928 59.8125L69.5126 58.4375C68.9929 59.3367 68.4154 60.2195 67.7966 61.0637L70.0145 62.6904C70.6924 61.765 71.3235 60.7984 71.8928 59.8125Z" fill="white"/>
</svg>
