<svg width="77" height="80" viewBox="0 0 77 80" fill="none" xmlns="http://www.w3.org/2000/svg">
<path d="M73.1196 41.6097C72.4876 41.4325 71.8265 41.7797 71.6413 42.3855C67.3107 56.5708 56.8922 68.4374 42.3057 75.7994L38.6891 77.6247C38.4576 77.7417 38.1806 77.7419 37.9488 77.6247L34.3322 75.7994C19.8273 68.4786 9.43195 56.6867 5.06134 42.5958C4.87357 41.9903 4.21098 41.6459 3.57963 41.8261C2.9491 42.0063 2.59031 42.6433 2.77809 43.2488C5.0166 50.4652 8.79084 57.1358 13.996 63.0753C19.2565 69.0778 25.7257 74.04 33.2237 77.8244L36.8405 79.6497C37.3034 79.8834 37.8113 80.0002 38.3189 80.0002C38.8268 80.0002 39.3346 79.8834 39.7976 79.6497L43.4141 77.8244C50.9509 74.0205 57.4464 69.0281 62.7204 62.9856C67.9398 57.0058 71.7103 50.2914 73.9275 43.0292C74.1126 42.4228 73.7509 41.7873 73.1196 41.6097Z" fill="white"/>
<path d="M73.3192 13.0258C66.9914 12.3847 62.016 8.12016 61.2197 2.65469C60.999 1.14125 59.6444 0 58.0689 0H18.569C16.9934 0 15.6389 1.14125 15.4183 2.65484C14.6218 8.12016 9.64637 12.3847 3.31876 13.0258C1.71176 13.1888 0.5 14.4922 0.5 16.058V28.2819C0.5 31.2816 0.77239 34.302 1.30968 37.2595C1.41073 37.8153 1.91353 38.2069 2.48174 38.2069C2.54959 38.2069 2.61859 38.2014 2.68791 38.1897C3.33601 38.0811 3.76965 37.4886 3.65656 36.8663C3.14286 34.0384 2.88235 31.15 2.88235 28.2819V16.058C2.88235 15.6723 3.18387 15.3398 3.5687 15.3009C10.9864 14.5494 16.8292 9.47953 17.7775 2.97188C17.8353 2.57547 18.1682 2.28766 18.5688 2.28766H58.0688C58.4696 2.28766 58.8023 2.57547 58.8601 2.97172C59.8084 9.47953 65.6514 14.5494 73.0691 15.3009C73.4539 15.3398 73.7554 15.6723 73.7554 16.058V28.2819C73.7554 31.0634 73.5106 33.8652 73.0273 36.6091C72.9176 37.2319 73.3545 37.8222 74.0033 37.9275C74.652 38.0342 75.2668 37.6133 75.3764 36.9903C75.8817 34.1209 76.1378 31.1908 76.1378 28.2819V16.058C76.138 14.4922 74.926 13.1886 73.3192 13.0258Z" fill="white"/>
<path d="M67.9543 17.3649C62.8521 15.4263 58.8022 11.8557 56.551 7.31086C55.9378 6.07258 54.6119 5.27258 53.1733 5.27258H23.4645C22.026 5.27258 20.7002 6.07274 20.0869 7.31086C17.8357 11.8559 13.786 15.4265 8.68349 17.3651C7.24978 17.9099 6.32343 19.2223 6.32343 20.7084V27.6468C6.32343 36.7432 9.08589 45.7293 14.3121 53.6334C19.5892 61.6148 27.2354 68.2849 36.424 72.9224L36.5743 72.9984C37.1207 73.2738 37.7197 73.4118 38.319 73.4116C38.9183 73.4116 39.5177 73.2738 40.064 72.998L40.2135 72.9226C49.4025 68.2848 57.049 61.6146 62.3259 53.6334C67.5519 45.7295 70.3144 36.7434 70.3144 27.6466V20.7082C70.3144 19.2221 69.388 17.9098 67.9543 17.3649ZM67.9317 27.6466C67.9317 36.3084 65.2978 44.8704 60.3144 52.4071C55.2602 60.0515 47.9262 66.4454 39.1047 70.8977L38.9552 70.9732C38.5569 71.1743 38.0811 71.1743 37.6829 70.9734L37.5332 70.8977L37.5327 70.8976C28.7116 66.4456 21.3776 60.0516 16.3231 52.407C11.3399 44.8701 8.70578 36.3082 8.70578 27.6466V20.7082C8.70578 20.1666 9.04114 19.6893 9.56005 19.492C15.2247 17.3398 19.7273 13.3626 22.2382 8.29336C22.4589 7.8479 22.9402 7.56008 23.4645 7.56008H53.1732C53.6974 7.56008 54.1788 7.8479 54.3994 8.29336C56.9103 13.3627 61.413 17.3398 67.0773 19.492C67.5963 19.6893 67.9317 20.1666 67.9317 20.7082V27.6466Z" fill="white"/>
<path d="M63.6169 23.1095C63.4826 22.3772 63.0592 21.7391 62.4251 21.3127L57.7301 18.1545C57.0959 17.7283 56.3269 17.5649 55.5643 17.6931C54.8016 17.822 54.1371 18.2286 53.693 18.8375L37.4972 41.0403C37.3752 41.2077 37.204 41.2438 37.113 41.2503C37.0214 41.2574 36.8472 41.2458 36.7004 41.0978L28.4979 32.8291C27.3954 31.7178 25.5568 31.6752 24.3999 32.7336L20.2494 36.5302C19.6887 37.043 19.3696 37.7347 19.3509 38.478C19.332 39.2213 19.6158 39.9272 20.1499 40.4653L36.0581 56.5019C36.6086 57.0574 37.3627 57.366 38.1538 57.366C38.2269 57.366 38.3002 57.3633 38.3738 57.358C39.244 57.2952 40.0303 56.8655 40.5308 56.1791L63.1364 25.1892C63.5804 24.5802 63.7511 23.8416 63.6169 23.1095ZM61.1849 23.8769L38.5796 54.8667C38.4574 55.0341 38.2864 55.0702 38.1953 55.0767C38.1042 55.0841 37.9296 55.0722 37.7828 54.9242L21.8744 38.8877C21.7461 38.7583 21.7302 38.6103 21.7321 38.5336C21.7339 38.4569 21.7574 38.3099 21.8921 38.1867L26.0427 34.39C26.1424 34.2989 26.2707 34.2536 26.3986 34.2536C26.5351 34.2536 26.6713 34.305 26.7726 34.4072L34.9749 42.6758C35.5768 43.2825 36.4212 43.5939 37.2912 43.5317C38.1613 43.4689 38.9475 43.0392 39.4482 42.3528L55.6438 20.15C55.8071 19.9261 56.1296 19.8714 56.3631 20.0283L61.0581 23.1864C61.2106 23.2889 61.2565 23.4308 61.2703 23.5063C61.2843 23.5819 61.2916 23.7305 61.1849 23.8769Z" fill="white"/>
</svg>
