<svg width="77" height="80" viewBox="0 0 77 80" fill="none" xmlns="http://www.w3.org/2000/svg">
<g id="Group 201">
<g id="Group">
<g id="Group_2">
<path id="Vector" d="M73.1194 41.6098C72.4874 41.4326 71.8263 41.7798 71.6411 42.3855C67.3105 56.5708 56.892 68.4374 42.3055 75.7994L38.6889 77.6248C38.4574 77.7418 38.1804 77.7419 37.9486 77.6248L34.332 75.7994C19.8272 68.4787 9.43176 56.6868 5.06116 42.5958C4.87338 41.9904 4.2108 41.646 3.57945 41.8262C2.94892 42.0063 2.59013 42.6433 2.7779 43.2488C5.01641 50.4652 8.79066 57.1359 13.9958 63.0754C19.2563 69.0779 25.7255 74.0401 33.2236 77.8245L36.8403 79.6498C37.3032 79.8835 37.8111 80.0002 38.3188 80.0002C38.8266 80.0002 39.3344 79.8835 39.7974 79.6498L43.4139 77.8245C50.9507 74.0205 57.4462 69.0282 62.7203 62.9857C67.9396 57.0058 71.7101 50.2915 73.9273 43.0293C74.1125 42.4229 73.7507 41.7874 73.1194 41.6098Z" fill="#F8B540"/>
</g>
</g>
<g id="Group_3">
<g id="Group_4">
<path id="Vector_2" d="M73.3192 13.0258C66.9914 12.3847 62.016 8.12016 61.2197 2.65469C60.999 1.14125 59.6444 0 58.0689 0H18.569C16.9934 0 15.6389 1.14125 15.4183 2.65484C14.6218 8.12016 9.64637 12.3847 3.31876 13.0258C1.71176 13.1888 0.5 14.4922 0.5 16.058V28.2819C0.5 31.2816 0.77239 34.302 1.30968 37.2595C1.41073 37.8153 1.91353 38.2069 2.48174 38.2069C2.54959 38.2069 2.61859 38.2014 2.68791 38.1897C3.33601 38.0811 3.76965 37.4886 3.65656 36.8663C3.14286 34.0384 2.88235 31.15 2.88235 28.2819V16.058C2.88235 15.6723 3.18387 15.3398 3.5687 15.3009C10.9864 14.5494 16.8292 9.47953 17.7775 2.97188C17.8353 2.57547 18.1682 2.28766 18.5688 2.28766H58.0688C58.4696 2.28766 58.8023 2.57547 58.8601 2.97172C59.8084 9.47953 65.6514 14.5494 73.0691 15.3009C73.4539 15.3398 73.7554 15.6723 73.7554 16.058V28.2819C73.7554 31.0634 73.5106 33.8652 73.0273 36.6091C72.9176 37.2319 73.3545 37.8222 74.0033 37.9275C74.652 38.0342 75.2668 37.6133 75.3764 36.9903C75.8817 34.1209 76.1378 31.1908 76.1378 28.2819V16.058C76.138 14.4922 74.926 13.1886 73.3192 13.0258Z" fill="#F8B540"/>
</g>
</g>
<g id="Group_5">
<g id="Group_6">
<path id="Vector_3" d="M67.9541 17.3648C62.8519 15.4262 58.8021 11.8556 56.5508 7.31074C55.9376 6.07246 54.6117 5.27246 53.1732 5.27246H23.4643C22.0258 5.27246 20.7 6.07262 20.0867 7.31074C17.8355 11.8557 13.7858 15.4264 8.6833 17.365C7.2496 17.9098 6.32324 19.2221 6.32324 20.7082V27.6467C6.32324 36.7431 9.0857 45.7292 14.3119 53.6332C19.589 61.6147 27.2353 68.2848 36.4238 72.9223L36.5741 72.9982C37.1205 73.2737 37.7195 73.4117 38.3188 73.4115C38.9181 73.4115 39.5175 73.2737 40.0638 72.9979L40.2133 72.9225C49.4023 68.2846 57.0488 61.6145 62.3257 53.6332C67.5517 45.7293 70.3142 36.7432 70.3142 27.6465V20.7081C70.3142 19.222 69.3878 17.9096 67.9541 17.3648ZM67.9315 27.6465C67.9315 36.3082 65.2976 44.8703 60.3142 52.407C55.26 60.0514 47.926 66.4453 39.1046 70.8976L38.955 70.9731C38.5567 71.1742 38.0809 71.1742 37.6827 70.9732L37.533 70.8976L37.5325 70.8975C28.7114 66.4454 21.3774 60.0515 16.3229 52.4068C11.3397 44.87 8.7056 36.3081 8.7056 27.6465V20.7081C8.7056 20.1665 9.04096 19.6892 9.55986 19.4918C15.2246 17.3396 19.7271 13.3625 22.238 8.29324C22.4587 7.84777 22.94 7.55996 23.4643 7.55996H53.173C53.6973 7.55996 54.1786 7.84777 54.3992 8.29324C56.9101 13.3626 61.4129 17.3396 67.0771 19.4918C67.5961 19.6892 67.9315 20.1665 67.9315 20.7081V27.6465Z" fill="#F8B540"/>
</g>
</g>
<g id="Group_7">
<g id="Group_8">
<path id="Vector_4" d="M63.6169 23.1094C63.4827 22.3771 63.0593 21.7389 62.4252 21.3125L57.7301 18.1544C57.096 17.7282 56.327 17.5647 55.5643 17.693C54.8017 17.8219 54.1371 18.2285 53.6931 18.8374L37.4973 41.0402C37.3752 41.2075 37.2041 41.2436 37.1131 41.2502C37.0215 41.2572 36.8472 41.2457 36.7005 41.0977L28.498 32.829C27.3954 31.7177 25.5569 31.675 24.4 32.7335L20.2495 36.53C19.6888 37.0429 19.3697 37.7346 19.351 38.4779C19.3321 39.2211 19.6159 39.9271 20.1499 40.4652L36.0582 56.5018C36.6087 57.0572 37.3627 57.3658 38.1539 57.3658C38.2269 57.3658 38.3003 57.3632 38.3738 57.3579C39.2441 57.2951 40.0303 56.8654 40.5308 56.179L63.1364 25.1891C63.5805 24.58 63.7512 23.8414 63.6169 23.1094ZM61.1849 23.8768L38.5797 54.8666C38.4575 55.034 38.2865 55.07 38.1953 55.0766C38.1042 55.084 37.9296 55.0721 37.7829 54.9241L21.8744 38.8875C21.7462 38.7582 21.7302 38.6102 21.7322 38.5335C21.734 38.4568 21.7574 38.3097 21.8921 38.1866L26.0428 34.3899C26.1425 34.2988 26.2707 34.2535 26.3986 34.2535C26.5351 34.2535 26.6713 34.3049 26.7727 34.4071L34.975 42.6757C35.5769 43.2824 36.4212 43.5938 37.2913 43.5316C38.1613 43.4688 38.9476 43.0391 39.4483 42.3527L55.6439 20.1499C55.8071 19.926 56.1296 19.8713 56.3631 20.0282L61.0582 23.1863C61.2107 23.2888 61.2565 23.4307 61.2704 23.5061C61.2844 23.5818 61.2917 23.7304 61.1849 23.8768Z" fill="#F8B540"/>
</g>
</g>
</g>
</svg>
