<svg width="89" height="88" viewBox="0 0 89 88" fill="none" xmlns="http://www.w3.org/2000/svg">
<g id="fi_2484067" clip-path="url(#clip0_2223_13207)">
<g id="Group">
<g id="Group_2">
<path id="Vector" d="M35.6484 46.5781C36.3603 46.5781 36.9375 46.0011 36.9375 45.2891V29.1328C36.9375 28.4207 36.3603 27.8438 35.6484 27.8438H15.7109C14.999 27.8438 14.4219 28.4207 14.4219 29.1328V45.2891C14.4219 46.0011 14.999 46.5781 15.7109 46.5781H35.6484ZM17 30.4219H34.3594V44H17V30.4219Z" fill="#F8B540"/>
<path id="Vector_2" d="M87.2109 49.1563H81.1094V21.454L83.6793 20.8737C85.7591 20.4043 87.0693 18.3301 86.5997 16.2501C86.1304 14.1711 84.0574 12.8604 81.9758 13.3298L77.5533 14.3285C76.8589 14.4853 76.423 15.1754 76.58 15.8699C76.7365 16.5643 77.4259 17.0005 78.1213 16.8433L82.5433 15.8447C83.2374 15.6879 83.9288 16.1252 84.0852 16.8178C84.2416 17.5112 83.8051 18.2026 83.1117 18.3592L79.54 19.1656C79.535 19.1668 79.5298 19.1679 79.5249 19.1691L49.2984 25.994C49.2893 25.9959 49.2802 25.998 49.2711 26.0002L45.8159 26.7804C45.7215 26.8017 45.6253 26.8125 45.5297 26.8125C44.934 26.8125 44.4063 26.3897 44.2747 25.8069C44.1181 25.1137 44.5548 24.4223 45.2482 24.2657L72.6884 18.0698C73.3827 17.913 73.8186 17.2229 73.6617 16.5284C73.5049 15.834 72.8156 15.3974 72.1203 15.555L44.6801 21.751C43.5203 22.0129 42.5999 22.774 42.0939 23.7564V21.4538L44.6638 20.8735C46.7437 20.4042 48.0539 18.33 47.5845 16.2503L47.5843 16.2499C47.1149 14.1709 45.0407 12.8604 42.9603 13.3296L5.66433 21.7511C3.58447 22.2209 2.27427 24.2952 2.744 26.3749C3.14498 28.1506 4.69512 29.3906 6.51373 29.3906C6.80008 29.3906 7.08745 29.3585 7.36778 29.2951L9.26562 28.8666V38.4603C9.26562 39.1724 9.84278 39.7494 10.5547 39.7494C11.2666 39.7494 11.8438 39.1724 11.8438 38.4603V28.2845L39.5156 22.0361V49.1563H11.8438V43.9076C11.8438 43.1955 11.2666 42.6185 10.5547 42.6185C9.84278 42.6185 9.26562 43.1955 9.26562 43.9076V49.1563H1.78906C1.07716 49.1563 0.5 49.7333 0.5 50.4453V73.4766C0.5 74.1887 1.07716 74.7656 1.78906 74.7656H72.0132C72.7253 74.7656 73.3023 74.1887 73.3023 73.4766C73.3023 72.7645 72.7253 72.1875 72.0132 72.1875H3.07812V69.6094H85.9219V72.1875H77.5265C76.8144 72.1875 76.2374 72.7645 76.2374 73.4766C76.2374 74.1887 76.8144 74.7656 77.5265 74.7656H87.2109C87.923 74.7656 88.5 74.1887 88.5 73.4766V50.4453C88.5 49.7333 87.923 49.1563 87.2109 49.1563ZM6.79991 26.7804C6.70555 26.8017 6.6093 26.8125 6.51373 26.8125C5.91819 26.8125 5.39036 26.3897 5.2587 25.8069C5.10213 25.1137 5.53886 24.4223 6.2322 24.2657L43.5275 15.8445C43.6227 15.8232 43.7176 15.8127 43.8115 15.8127C44.4008 15.8127 44.9345 16.2199 45.0696 16.818C45.2258 17.5112 44.7891 18.2024 44.0959 18.359L40.5254 19.1653C40.5197 19.1665 40.5139 19.1679 40.5082 19.1692L10.2819 25.9942C10.273 25.9961 10.2642 25.9982 10.2553 26.0002L6.79991 26.7804ZM78.5312 49.1563H50.8594V28.2845L78.5312 22.0361V49.1563ZM45.5294 29.3906C45.8157 29.3906 46.1031 29.3585 46.3836 29.2951L48.2812 28.8666V49.1563H42.0938V27.2993C42.7422 28.5662 44.0466 29.3906 45.5294 29.3906ZM3.07812 51.7344H39.5156V67.0313H36.9375V56.9766C36.9375 56.2645 36.3603 55.6875 35.6484 55.6875H18.4609C17.749 55.6875 17.1719 56.2645 17.1719 56.9766V67.0313H3.07812V51.7344ZM19.75 67.0313V58.2656H34.3594V67.0313H19.75ZM42.0938 51.7344H78.5312V67.0313H75.9531V56.9766C75.9531 56.2645 75.3761 55.6875 74.6641 55.6875H57.4766C56.7645 55.6875 56.1875 56.2645 56.1875 56.9766V67.0313H42.0938V51.7344ZM58.7656 67.0313V58.2656H73.375V67.0313H58.7656ZM81.1094 67.0313V51.7344H85.9219V67.0313H81.1094Z" fill="#F8B540"/>
<path id="Vector_3" d="M54.7266 46.5781H74.6641C75.3761 46.5781 75.9531 46.0011 75.9531 45.2891V29.1328C75.9531 28.4207 75.3761 27.8438 74.6641 27.8438H54.7266C54.0145 27.8438 53.4375 28.4207 53.4375 29.1328V45.2891C53.4375 46.001 54.0145 46.5781 54.7266 46.5781ZM56.0156 30.4219H73.375V44H56.0156V30.4219Z" fill="#F8B540"/>
</g>
</g>
</g>
<defs>
<clipPath id="clip0_2223_13207">
<rect width="88" height="88" fill="white" transform="translate(0.5)"/>
</clipPath>
</defs>
</svg>
