<svg width="65" height="64" viewBox="0 0 65 64" fill="none" xmlns="http://www.w3.org/2000/svg">
<path d="M32.0133 53.76C19.9813 53.76 10.2533 44.032 10.2533 32C10.2533 19.968 19.9813 10.24 32.0133 10.24C44.0453 10.24 53.7733 19.968 53.7733 32C53.7733 44.032 44.0453 53.76 32.0133 53.76ZM32.0133 12.8C21.3893 12.8 12.8133 21.376 12.8133 32C12.8133 42.624 21.3893 51.2 32.0133 51.2C42.6373 51.2 51.2133 42.624 51.2133 32C51.2133 21.376 42.6373 12.8 32.0133 12.8Z" fill="#F8B540"/>
<path d="M20.4933 30.72H43.5333V33.28H20.4933V30.72Z" fill="#F8B540"/>
</svg>
