<svg width="45" height="45" viewBox="0 0 45 45" fill="none" xmlns="http://www.w3.org/2000/svg">
<path d="M33.5303 17.1753C33.4941 17.5559 32.9034 18.9103 32.6188 19.5629L32.6023 19.6006C32.5637 19.689 32.4786 19.7302 32.3853 19.7051L28.9969 18.7971C28.9002 18.7712 28.8403 18.6676 28.8663 18.5711L28.9283 18.3396C29.165 17.4565 29.0238 16.5864 28.5199 15.8235C28.0161 15.0607 27.2713 14.5892 26.3662 14.4601C25.1199 14.2825 23.8192 14.1924 22.5 14.1924C21.1808 14.1924 19.8801 14.2825 18.6336 14.4601C17.7286 14.5892 16.9838 15.0607 16.48 15.8235C15.9762 16.5864 15.835 17.4564 16.0716 18.3396L16.1336 18.571C16.1596 18.6677 16.0998 18.7712 16.0031 18.7971L12.6147 19.705C12.5217 19.7298 12.4363 19.689 12.3977 19.6006L12.3814 19.5634C12.0967 18.9106 11.5059 17.5559 11.4697 17.1752C11.4778 16.2249 12.5647 15.1802 14.3805 14.3786C16.5319 13.429 19.4154 12.906 22.4999 12.906C25.5844 12.906 28.468 13.4291 30.6193 14.3786C32.4353 15.1802 33.5222 16.2249 33.5303 17.1753ZM32.807 27.9846L24.832 24.4495C24.4506 24.2804 24.2047 23.9025 24.2047 23.4852V21.6505H20.7953V23.4852C20.7953 23.9025 20.5494 24.2804 20.168 24.4495L12.1929 27.9847C12.1479 28.0047 12.0639 28.1825 12.0639 28.5215V31.8134C12.0639 31.9463 12.2206 32.0944 12.4455 32.0944H32.5543C32.7792 32.0944 32.936 31.9463 32.936 31.8134V28.5215C32.936 28.1825 32.852 28.0046 32.807 27.9846ZM45 22.5004C45 34.9069 34.9066 45.0002 22.5001 45.0002C10.0935 45.0002 0 34.9069 0 22.5004C0 10.0938 10.0935 0.000244141 22.5001 0.000244141C34.9066 0.000244141 45 10.0938 45 22.5004ZM35.0454 28.5215C35.0454 27.3446 34.5411 26.4461 33.6618 26.0562L26.3141 22.7991V21.1819C26.3141 20.2772 25.5582 19.5412 24.6292 19.5412H20.3708C19.4418 19.5412 18.6859 20.2772 18.6859 21.1819V22.7991L11.3381 26.0562C10.4588 26.446 9.95449 27.3445 9.95449 28.5214V31.8133C9.95449 33.1314 11.0719 34.2037 12.4455 34.2037H32.5543C33.9279 34.2037 35.0453 33.1313 35.0453 31.8133V28.5215H35.0454ZM35.6396 17.1859C35.6396 15.3178 34.1592 13.6355 31.4713 12.449C29.0575 11.3834 25.8714 10.7966 22.5 10.7966C19.1285 10.7966 15.9425 11.3834 13.5287 12.4489C10.8408 13.6354 9.36035 15.3177 9.36035 17.1859C9.36035 17.8622 9.79102 18.9002 10.448 20.4066L10.4643 20.4438C10.9216 21.4924 12.056 22.0383 13.1607 21.7425L16.5491 20.8345C17.7709 20.5071 18.4985 19.2468 18.1711 18.0249L18.1091 17.7935C18.0299 17.4979 18.0715 17.2413 18.2401 16.986C18.4088 16.7306 18.6284 16.5915 18.9313 16.5484C20.0794 16.3847 21.2801 16.3018 22.4999 16.3018C23.7198 16.3018 24.9205 16.3847 26.0684 16.5484C26.3714 16.5916 26.591 16.7307 26.7597 16.986C26.9284 17.2413 26.97 17.4979 26.8908 17.7935L26.8287 18.0251C26.5014 19.2469 27.229 20.5071 28.4508 20.8346L31.8393 21.7426C32.0409 21.7967 32.2436 21.8226 32.4428 21.8226C33.3356 21.8226 34.1617 21.3012 34.5357 20.4438L34.5521 20.4061C35.2091 18.9 35.6396 17.8622 35.6396 17.1859Z" fill="url(#paint0_linear_411_14650)"/>
<defs>
<linearGradient id="paint0_linear_411_14650" x1="22.5" y1="0.000244141" x2="22.5" y2="45.0002" gradientUnits="userSpaceOnUse">
<stop stop-color="#01F1FE"/>
<stop offset="0.0001" stop-color="#304193"/>
<stop offset="1" stop-color="#078DD6"/>
</linearGradient>
</defs>
</svg>
