<svg width="7" height="14" viewBox="0 0 7 14" fill="none" xmlns="http://www.w3.org/2000/svg">
<path d="M5.98042 1.79573L5.9804 1.79576L1.93135 6.99963L5.98018 12.2032C5.98022 12.2033 5.98026 12.2033 5.9803 12.2034C6.0193 12.2532 6.04931 12.3111 6.06952 12.3735C6.08975 12.436 6.1 12.5024 6.1 12.5691C6.1 12.6358 6.08975 12.7022 6.06952 12.7647C6.04934 12.827 6.01936 12.8849 5.98042 12.9347C5.94176 12.9847 5.89445 13.0262 5.84032 13.0552C5.78591 13.0843 5.72623 13.1 5.66499 13.1C5.60375 13.1 5.54407 13.0843 5.48967 13.0552C5.43552 13.0262 5.38818 12.9847 5.34951 12.9346C5.34945 12.9345 5.34938 12.9344 5.34932 12.9343L1.01982 7.3655C1.0198 7.36547 1.01977 7.36544 1.01975 7.36541C0.980728 7.31561 0.950693 7.25761 0.930481 7.19521C0.91025 7.13274 0.9 7.06633 0.9 6.99963C0.9 6.93294 0.91025 6.86652 0.930481 6.80406C0.950691 6.74167 0.980721 6.68368 1.01973 6.63388C1.01976 6.63384 1.01979 6.6338 1.01982 6.63376L5.34956 1.06462C5.42797 0.963767 5.54048 0.9 5.66499 0.9C5.72609 0.9 5.78565 0.915533 5.84 0.94449C5.89419 0.973361 5.94161 1.01469 5.98042 1.06462C6.01922 1.11452 6.04907 1.17253 6.06916 1.2349C6.08925 1.29729 6.09943 1.36359 6.09943 1.43017C6.09943 1.56376 6.05838 1.69546 5.98042 1.79573Z" fill="#9B9B9B" stroke="#727272" stroke-width="0.2"/>
</svg>
