<svg width="196" height="82" viewBox="0 0 196 82" fill="none" xmlns="http://www.w3.org/2000/svg">
<g opacity="0.8">
<path d="M98.268 81.1524L74.972 58.4164H39L98.268 0.483398L157.535 58.4154H121.563L98.268 81.1524ZM83.122 54.2024C83.6534 54.2113 84.1839 54.1559 84.702 54.0374C85.13 53.9224 85.492 53.7574 85.772 53.5434C86.4131 53.01 86.7866 52.2213 86.793 51.3874C86.793 50.8104 86.628 50.3174 86.299 49.9054C85.987 49.4934 85.542 49.1814 84.949 49.0164C85.394 48.7864 85.739 48.5064 85.969 48.1274C86.2 47.7814 86.299 47.3704 86.299 46.9584C86.301 46.5025 86.1692 46.0561 85.92 45.6744C85.6726 45.2695 85.3043 44.9526 84.867 44.7684C84.406 44.5714 83.813 44.4724 83.072 44.4724H79.402V54.1854L83.122 54.2024ZM80.685 48.5554V45.6254H82.66C83.158 45.6029 83.6567 45.6469 84.143 45.7564C84.417 45.8404 84.652 46.0214 84.801 46.2664C84.966 46.4974 85.031 46.7934 85.031 47.1234C85.031 47.4524 84.949 47.7324 84.784 47.9464C84.62 48.1934 84.373 48.3574 84.044 48.4404C83.797 48.5224 83.385 48.5554 82.809 48.5554H80.685ZM80.701 53.0494V49.6914H82.957C83.567 49.6914 84.06 49.7574 84.389 49.8564C84.705 49.9564 84.977 50.1594 85.163 50.4324C85.353 50.7084 85.45 51.0364 85.443 51.3704C85.443 51.6834 85.377 51.9634 85.246 52.1934C85.1318 52.4151 84.961 52.6028 84.751 52.7374C84.554 52.8684 84.307 52.9514 84.011 53.0004C83.846 53.0334 83.55 53.0334 83.138 53.0334L80.701 53.0494ZM88.867 54.2024L89.921 51.2384H94.037L95.157 54.1854H96.637L92.654 44.4724H91.238L87.485 54.1854L88.867 54.2024ZM90.299 50.2024L91.369 47.3534C91.584 46.7444 91.781 46.1184 91.913 45.4764C92.078 46.0204 92.308 46.6954 92.605 47.5184L93.625 50.2014L90.299 50.2024ZM104.622 54.2024V53.0494H98.366L98.959 52.3584L104.441 45.6254V44.4724H97.461V45.6254H102.911C102.581 45.9544 102.251 46.3324 101.89 46.7774L96.885 53.0004V54.1854L104.622 54.2024ZM106.203 54.1854H107.52V44.4724H106.22L106.203 54.1854ZM109.363 51.0744C109.38 51.7164 109.578 52.2924 109.907 52.8194C110.247 53.3354 110.735 53.7364 111.307 53.9714C112.625 54.4849 114.088 54.4849 115.406 53.9714C115.966 53.7244 116.393 53.3624 116.69 52.9014C116.986 52.4414 117.134 51.9634 117.134 51.4534C117.134 50.9264 117.003 50.4654 116.723 50.0704C116.459 49.6744 116.031 49.3454 115.471 49.0824C115.076 48.9014 114.352 48.7034 113.315 48.4724C112.261 48.2264 111.603 47.9954 111.355 47.7824C111.11 47.5591 110.972 47.2411 110.977 46.9094C110.987 46.5024 111.187 46.1234 111.52 45.8884C111.866 45.5924 112.442 45.4604 113.233 45.4604C113.973 45.4604 114.55 45.6084 114.945 45.9204C115.345 46.2784 115.583 46.7844 115.603 47.3204L116.855 47.2214C116.849 46.0895 116.149 45.0771 115.093 44.6704C114.487 44.4244 113.837 44.3014 113.183 44.3084C112.569 44.3017 111.96 44.4134 111.389 44.6374C110.846 44.8674 110.434 45.1974 110.154 45.6254C109.874 46.0534 109.743 46.4974 109.743 46.9914C109.743 47.4364 109.858 47.8474 110.088 48.2094C110.348 48.5984 110.706 48.9104 111.126 49.1154C111.726 49.3874 112.356 49.5914 113.002 49.7244C113.908 49.9384 114.484 50.0864 114.748 50.1844C115.159 50.3494 115.456 50.5314 115.62 50.7614C115.805 50.9894 115.904 51.2744 115.9 51.5684C115.892 51.8673 115.788 52.1556 115.604 52.3914C115.439 52.6384 115.159 52.8354 114.78 53.0004C114.356 53.1447 113.911 53.2171 113.463 53.2144C112.92 53.2144 112.41 53.1154 111.982 52.9184C111.52 52.7204 111.192 52.4904 110.994 52.1604C110.78 51.8484 110.648 51.4534 110.582 50.9594L109.363 51.0744ZM125.366 43.2544H130.964V53.1324H144.595L98.268 7.9244L52.072 53.1324H65.572V43.2544H71.285L98.268 16.8644L125.366 43.2544ZM121.563 43.2544L98.548 20.7824V28.6354L113.529 43.2544H121.563ZM97.988 29.5894L83.962 43.2554H97.988V29.5894ZM74.973 55.5694L97.988 78.0414V70.1884L83.007 55.5684L74.973 55.5694ZM98.548 69.2334L112.705 55.5684H98.548V69.2334Z" fill="#0D0D0D"/>
</g>
</svg>
