<svg width="26" height="26" viewBox="0 0 26 26" fill="none" xmlns="http://www.w3.org/2000/svg">
<g id="phone-call(1) 1" clip-path="url(#clip0_496_2154)">
<g id="Page-1">
<g id="003---Call">
<path id="Shape" d="M10.7663 15.234C8.28464 12.7523 7.7243 10.2707 7.59788 9.2764C7.56256 9.00148 7.65717 8.72578 7.85385 8.53047L9.86213 6.52309C10.1575 6.22785 10.21 5.76773 9.98854 5.41361L6.79099 0.448503C6.54601 0.0563728 6.04301 -0.0851508 5.62951 0.12171L0.496299 2.53926C0.161911 2.70392 -0.034771 3.0592 0.00319498 3.42999C0.272161 5.98516 1.38613 12.2664 7.55888 18.4396C13.7316 24.6128 20.012 25.7263 22.5685 25.9953C22.9393 26.0333 23.2946 25.8366 23.4592 25.5022L25.8768 20.369C26.0829 19.9564 25.9423 19.4547 25.5518 19.2093L20.5867 16.0126C20.2328 15.791 19.7727 15.843 19.4772 16.1382L17.4698 18.1464C17.2745 18.3431 16.9988 18.4377 16.7239 18.4024C15.7296 18.276 13.248 17.7156 10.7663 15.234Z" fill="white"/>
<path id="Shape_2" d="M20.6208 13.8967C20.1256 13.8967 19.7242 13.4953 19.7242 13.0002C19.72 9.28825 16.712 6.28021 13.0001 6.27601C12.5049 6.27601 12.1035 5.87461 12.1035 5.37946C12.1035 4.88431 12.5049 4.48291 13.0001 4.48291C17.7019 4.4881 21.5121 8.29836 21.5173 13.0002C21.5173 13.4953 21.1159 13.8967 20.6208 13.8967Z" fill="white"/>
<path id="Shape_3" d="M25.1035 13.8966C24.6084 13.8966 24.207 13.4952 24.207 13C24.2 6.81347 19.1866 1.80002 13.0001 1.7931C12.5049 1.7931 12.1035 1.3917 12.1035 0.896552C12.1035 0.4014 12.5049 0 13.0001 0C20.1765 0.00790574 25.9922 5.82358 26.0001 13C26.0001 13.2378 25.9056 13.4658 25.7375 13.634C25.5693 13.8021 25.3413 13.8966 25.1035 13.8966Z" fill="white"/>
</g>
</g>
</g>
<defs>
<clipPath id="clip0_496_2154">
<rect width="26" height="26" fill="white"/>
</clipPath>
</defs>
</svg>
