<svg width="23" height="21" viewBox="0 0 23 21" fill="none" xmlns="http://www.w3.org/2000/svg">
<path d="M9.93035 14.8607C6.66035 14.8607 4 12.2003 4 8.93035C4 5.66035 6.66035 3 9.93035 3C13.2003 3 15.8607 5.66035 15.8607 8.93035C15.8607 12.2003 13.2003 14.8607 9.93035 14.8607ZM9.93035 4.18607C7.31447 4.18607 5.18607 6.31447 5.18607 8.93035C5.18607 11.5462 7.31447 13.6746 9.93035 13.6746C12.5462 13.6746 14.6746 11.5462 14.6746 8.93035C14.6746 6.31447 12.5468 4.18607 9.93035 4.18607Z" fill="#2751A0"/>
<path d="M18.4077 17.9993C18.3298 17.9994 18.2527 17.9841 18.1807 17.9542C18.1088 17.9244 18.0434 17.8807 17.9884 17.8255L13.4256 13.2627C13.3706 13.2077 13.3269 13.1423 13.2971 13.0703C13.2673 12.9984 13.252 12.9213 13.252 12.8434C13.252 12.7656 13.2673 12.6885 13.2971 12.6166C13.3269 12.5446 13.3706 12.4792 13.4256 12.4242C13.4807 12.3691 13.546 12.3254 13.618 12.2956C13.6899 12.2658 13.767 12.2505 13.8449 12.2505C13.9228 12.2505 13.9999 12.2658 14.0718 12.2956C14.1438 12.3254 14.2091 12.3691 14.2642 12.4242L18.827 16.987C18.9102 17.0698 18.9669 17.1755 18.9899 17.2906C19.013 17.4057 19.0013 17.5251 18.9564 17.6336C18.9114 17.742 18.8353 17.8347 18.7376 17.8998C18.6399 17.9649 18.5251 17.9996 18.4077 17.9993Z" fill="#2751A0"/>
</svg>
