<svg width="24" height="20" viewBox="0 0 24 20" fill="none" xmlns="http://www.w3.org/2000/svg">
<g clip-path="url(#clip0_189_2109)">
<path d="M10.2759 16.6207C5.71255 16.6207 2 12.9081 2 8.34484C2 3.78152 5.71255 0.0689697 10.2759 0.0689697C14.8392 0.0689697 18.5517 3.78152 18.5517 8.34484C18.5517 12.9081 14.8392 16.6207 10.2759 16.6207ZM10.2759 1.72414C6.62539 1.72414 3.65517 4.69436 3.65517 8.34484C3.65517 11.9953 6.62539 14.9655 10.2759 14.9655C13.9264 14.9655 16.8965 11.9953 16.8965 8.34484C16.8965 4.69436 13.9272 1.72414 10.2759 1.72414Z" fill="white"/>
<path d="M22.105 21.0007C21.9964 21.0008 21.8887 20.9794 21.7883 20.9378C21.6879 20.8962 21.5967 20.8351 21.52 20.7582L15.1525 14.3907C15.0757 14.3139 15.0147 14.2227 14.9732 14.1223C14.9316 14.0219 14.9102 13.9143 14.9102 13.8056C14.9102 13.697 14.9316 13.5894 14.9732 13.489C15.0147 13.3886 15.0757 13.2974 15.1525 13.2205C15.2294 13.1437 15.3205 13.0827 15.421 13.0411C15.5214 12.9996 15.6289 12.9781 15.7376 12.9781C15.8463 12.9781 15.9539 12.9996 16.0543 13.0411C16.1547 13.0827 16.2459 13.1437 16.3227 13.2205L22.6902 19.588C22.8063 19.7035 22.8854 19.8511 22.9176 20.0117C22.9497 20.1723 22.9334 20.3389 22.8707 20.4903C22.808 20.6416 22.7018 20.771 22.5655 20.8618C22.4291 20.9527 22.2689 21.001 22.105 21.0007Z" fill="white"/>
</g>
<defs>
<clipPath id="clip0_189_2109">
<rect width="24" height="19.8621" fill="white" transform="translate(0 0.0689697)"/>
</clipPath>
</defs>
</svg>
