<svg width="45" height="45" viewBox="0 0 45 45" fill="none" xmlns="http://www.w3.org/2000/svg">
<g clip-path="url(#clip0_352_66)">
<path d="M18.4315 9.93497C18.2547 9.49274 17.7482 9.27559 17.2999 9.45031C14.7696 10.4356 12.6101 12.1266 11.0551 14.3406C9.46266 16.6076 8.62109 19.2688 8.62109 22.0367C8.62109 22.5121 9.01173 22.8973 9.49336 22.8973C9.97499 22.8973 10.3656 22.512 10.3656 22.0367C10.3656 17.1552 13.3389 12.8433 17.9403 11.0516C18.3885 10.877 18.6084 10.3772 18.4315 9.93497Z" fill="#2751A0"/>
<path d="M28.0781 21.1842C27.5964 21.1842 27.2058 21.5695 27.2058 22.0448C27.2058 24.7023 25.0145 26.8645 22.3209 26.8645C19.6273 26.8645 17.4359 24.7024 17.4359 22.0448C17.4359 19.3873 19.6273 17.2251 22.3209 17.2251C22.8026 17.2251 23.1932 16.8398 23.1932 16.3645C23.1932 15.8892 22.8025 15.5039 22.3209 15.5039C18.6654 15.5039 15.6914 18.4381 15.6914 22.0448C15.6914 25.6515 18.6654 28.5857 22.3209 28.5857C25.9763 28.5857 28.9504 25.6515 28.9504 22.0448C28.9504 21.5695 28.5598 21.1842 28.0781 21.1842Z" fill="#2751A0"/>
<path d="M31.3117 21.1519C30.83 21.1519 30.4395 21.5372 30.4395 22.0125V22.0449C30.4395 22.5203 30.8301 22.9055 31.3117 22.9055C31.7934 22.9055 32.184 22.5202 32.184 22.0449V22.0125C32.184 21.5372 31.7934 21.1519 31.3117 21.1519Z" fill="#2751A0"/>
<path d="M27.782 29.001C27.6198 28.84 27.3948 28.7488 27.1653 28.7488C26.9359 28.7489 26.7109 28.8401 26.5486 29.001C26.3863 29.1611 26.293 29.3823 26.293 29.6095C26.293 29.8358 26.3862 30.0579 26.5486 30.218C26.7109 30.3781 26.935 30.4693 27.1653 30.4693C27.3948 30.4693 27.6198 30.3781 27.782 30.218C27.9443 30.0579 28.0377 29.8358 28.0377 29.6095C28.0377 29.3822 27.9443 29.1611 27.782 29.001Z" fill="#2751A0"/>
<path d="M41.6978 31.2063C41.1967 31.2063 40.7246 31.33 40.3102 31.5474L37.7287 29.0004C37.5651 28.839 37.3432 28.7483 37.1119 28.7483H30.7512C30.2695 28.7483 29.8789 29.1336 29.8789 29.6089C29.8789 30.0843 30.2695 30.4695 30.7512 30.4695H36.7505L39.0768 32.7648C38.8569 33.1732 38.7318 33.6385 38.7318 34.1323C38.7318 35.7459 40.0623 37.0585 41.6977 37.0585C43.3331 37.0585 44.6635 35.7459 44.6635 34.1323C44.6636 32.5189 43.3331 31.2063 41.6978 31.2063ZM41.6978 35.3374C41.0243 35.3374 40.4766 34.7969 40.4766 34.1325C40.4766 33.468 41.0244 32.9276 41.6978 32.9276C42.3711 32.9276 42.919 33.4681 42.919 34.1325C42.919 34.7969 42.3711 35.3374 41.6978 35.3374Z" fill="#2751A0"/>
<path d="M41.6981 7.01187C40.0627 7.01187 38.7322 8.32453 38.7322 9.93809C38.7322 10.432 38.8573 10.8973 39.0772 11.3057L36.7509 13.601H27.2059C25.9932 12.9169 24.6314 12.4822 23.2037 12.3544V10.7987H32.4019C32.7196 10.7987 33.0122 10.6283 33.1656 10.3539L35.8165 5.6141C36.176 5.76713 36.5718 5.85234 36.9878 5.85234C38.6232 5.85234 39.9536 4.53968 39.9536 2.92613C39.9536 1.31266 38.6232 0 36.9878 0C35.3524 0 34.0219 1.31266 34.0219 2.92621C34.0219 3.49049 34.1851 4.0175 34.4666 4.46489L31.8869 9.07738H23.2037V0.86423C23.2037 0.388865 22.813 0.00361495 22.3314 0.00361495H18.4199C17.9382 0.00361495 17.5477 0.388951 17.5477 0.86423V3.5275C15.7454 3.97799 14.0294 4.67955 12.4302 5.61995L10.5289 3.74405C10.3652 3.58267 10.1433 3.49195 9.91184 3.49195C9.68049 3.49195 9.45856 3.58275 9.29499 3.74431L3.78144 9.18824C3.44096 9.52443 3.44104 10.0691 3.78161 10.4051L5.68082 12.279C4.72777 13.8569 4.01671 15.5499 3.56021 17.3281H0.874222C0.392507 17.3281 0.00195312 17.7134 0.00195312 18.1887V25.8848C0.00195312 26.3602 0.392594 26.7454 0.874222 26.7454H3.56038C4.0168 28.5236 4.72786 30.2166 5.68099 31.7944L3.78179 33.6683C3.44122 34.0043 3.44113 34.549 3.78161 34.8852L9.29517 40.3291C9.45873 40.4906 9.68066 40.5814 9.91201 40.5815C9.9121 40.5815 9.9121 40.5815 9.91219 40.5815C10.1435 40.5815 10.3654 40.4907 10.529 40.3294L12.4303 38.4535C14.0296 39.3939 15.7455 40.0955 17.5477 40.546V43.205C17.5477 43.6802 17.938 44.0654 18.4194 44.0657H22.3308H22.3313C22.5626 44.0657 22.7844 43.9772 22.948 43.8159C23.1116 43.6544 23.2037 43.4355 23.2037 43.2071V34.9539H31.8854L34.4676 39.6013C34.1855 40.049 34.022 40.5766 34.022 41.1415C34.022 42.7551 35.3525 44.0677 36.9879 44.0677C38.6233 44.0677 39.9537 42.7551 39.9537 41.1415C39.9537 39.528 38.6232 38.2153 36.9878 38.2153C36.5729 38.2153 36.1778 38.3001 35.8189 38.4526L33.1669 33.6795C33.0138 33.4039 32.7205 33.2325 32.402 33.2325H23.2035V30.9154C23.2035 30.4401 22.8129 30.0548 22.3312 30.0548C17.8501 30.0548 14.2045 26.458 14.2045 22.0367C14.2045 17.669 17.7626 14.1063 22.1691 14.0206C22.2187 14.0293 22.2696 14.0347 22.3218 14.0347C25.6979 14.0347 28.7568 16.1313 29.9336 19.2518C30.0642 19.5984 30.3971 19.8127 30.7511 19.8127C30.8521 19.8127 30.955 19.7952 31.0552 19.7584C31.5068 19.5927 31.7366 19.0972 31.5686 18.6517C31.0917 17.3869 30.3593 16.2617 29.4439 15.3222H37.1122C37.3435 15.3222 37.5654 15.2315 37.729 15.0701L40.3105 12.5231C40.7249 12.7405 41.197 12.8642 41.6981 12.8642C43.3335 12.8642 44.6639 11.5516 44.6639 9.938C44.6639 8.32453 43.3334 7.01187 41.6981 7.01187ZM36.9878 1.72132C37.6612 1.72132 38.209 2.26184 38.209 2.92621C38.209 3.59059 37.6611 4.13111 36.9878 4.13111C36.3144 4.13111 35.7666 3.59059 35.7666 2.92621C35.7666 2.26184 36.3143 1.72132 36.9878 1.72132ZM36.9878 39.9368C37.6612 39.9368 38.209 40.4773 38.209 41.1417C38.209 41.8061 37.6611 42.3466 36.9878 42.3466C36.3143 42.3466 35.7666 41.8061 35.7666 41.1417C35.7666 40.4773 36.3143 39.9368 36.9878 39.9368ZM21.459 12.3351C16.4232 12.7723 12.4599 16.9566 12.4599 22.0368C12.4599 27.117 16.423 31.3013 21.459 31.7385V42.3462L19.2921 42.3449V39.8637C19.2921 39.4581 19.005 39.1075 18.603 39.0223C16.5249 38.5818 14.5644 37.7802 12.7758 36.6398C12.4305 36.4197 11.9764 36.4672 11.6855 36.7541L9.91227 38.5037L5.63188 34.2773L7.40364 32.5293C7.69431 32.2424 7.74263 31.7943 7.5194 31.4536C6.36361 29.6889 5.55119 27.7546 5.10489 25.7042C5.01853 25.3076 4.66322 25.0244 4.25207 25.0244H1.74649V19.0496H4.25199C4.66322 19.0496 5.01844 18.7662 5.1048 18.3697C5.55119 16.3193 6.36353 14.3851 7.51931 12.6204C7.74255 12.2797 7.69422 11.8315 7.40355 11.5447L5.63179 9.79659L9.91219 5.5702L11.6854 7.31983C11.9763 7.60679 12.4304 7.65422 12.7757 7.43413C14.5642 6.29379 16.5247 5.49213 18.6029 5.05163C19.0049 4.96642 19.292 4.61585 19.292 4.21021V1.72493H21.4589V12.3351H21.459ZM41.6981 11.1429C41.0246 11.1429 40.4769 10.6024 40.4769 9.938C40.4769 9.27362 41.0247 8.7331 41.6981 8.7331C42.3714 8.7331 42.9193 9.27362 42.9193 9.938C42.9193 10.6024 42.3714 11.1429 41.6981 11.1429Z" fill="#2751A0"/>
<path d="M41.6966 19.1213C40.3647 19.1213 39.2353 19.9921 38.8619 21.1869H36.2883C35.8066 21.1869 35.416 21.5723 35.416 22.0475C35.416 22.5228 35.8067 22.9082 36.2883 22.9082H38.8618C39.2352 24.1029 40.3646 24.9738 41.6965 24.9738C43.332 24.9738 44.6624 23.6611 44.6624 22.0475C44.6625 20.434 43.332 19.1213 41.6966 19.1213ZM41.6966 23.2524C41.0232 23.2524 40.4754 22.7119 40.4754 22.0475C40.4754 21.3832 41.0233 20.8427 41.6966 20.8427C42.37 20.8427 42.9178 21.3832 42.9178 22.0475C42.9178 22.7119 42.3699 23.2524 41.6966 23.2524Z" fill="#2751A0"/>
</g>
<defs>
<clipPath id="clip0_352_66">
<rect width="44.6647" height="44.0679" fill="white"/>
</clipPath>
</defs>
</svg>
