<svg width="45" height="45" viewBox="0 0 45 45" fill="none" xmlns="http://www.w3.org/2000/svg">
<path d="M45 22.5C45 10.0723 34.9277 0 22.5 0C10.0723 0 0 10.0723 0 22.5C0 34.9277 10.0723 45 22.5 45C22.6318 45 22.7637 45 22.8955 44.9912V27.4834H18.0615V21.8496H22.8955V17.7012C22.8955 12.8936 25.8311 10.2744 30.1201 10.2744C32.1768 10.2744 33.9434 10.4238 34.4531 10.4941V15.5215H31.5C29.1709 15.5215 28.7139 16.6289 28.7139 18.2549V21.8408H34.2949L33.5654 27.4746H28.7139V44.1299C38.1182 41.4316 45 32.7744 45 22.5Z" fill="#0D0D0D"/>
</svg>
