<svg width="45" height="45" viewBox="0 0 45 45" fill="none" xmlns="http://www.w3.org/2000/svg">
<path d="M22.5 0C10.0755 0 0 10.0755 0 22.5C0 34.9245 10.0755 45 22.5 45C34.9245 45 45 34.9245 45 22.5C45 10.0755 34.9245 0 22.5 0ZM22.9769 35.6002C22.9765 35.6002 22.9772 35.6002 22.9769 35.6002H22.9714C20.7175 35.5991 18.5027 35.034 16.5358 33.9615L9.39709 35.8336L11.3077 28.8573C10.1291 26.8159 9.50901 24.4999 9.51004 22.1272C9.51313 14.7045 15.5542 8.66581 22.9769 8.66581C26.579 8.66718 29.9604 10.0693 32.5027 12.6137C35.0454 15.1584 36.4447 18.5408 36.4434 22.1378C36.4403 29.5608 30.3985 35.6002 22.9769 35.6002Z" fill="white"/>
<path d="M22.981 10.9395C16.807 10.9395 11.786 15.9585 11.7832 22.128C11.7825 24.2422 12.3744 26.3011 13.4947 28.0826L13.7607 28.5059L12.6298 32.635L16.8661 31.5241L17.275 31.7664C18.9933 32.7861 20.9633 33.3255 22.9717 33.3262H22.9762C29.1454 33.3262 34.1665 28.3068 34.1692 22.1369C34.1702 19.1469 33.0071 16.3358 30.8939 14.2209C28.7808 12.1061 25.9703 10.9405 22.981 10.9395ZM29.5646 26.9386C29.2841 27.7242 27.94 28.4414 27.2935 28.5382C26.7136 28.6247 25.9803 28.6607 25.1742 28.405C24.6853 28.2498 24.0587 28.0428 23.2557 27.6964C19.8805 26.2393 17.676 22.8418 17.5078 22.6172C17.3395 22.3927 16.1338 20.7932 16.1338 19.1373C16.1338 17.4818 17.0031 16.6678 17.3114 16.3313C17.62 15.9945 17.9846 15.9104 18.2088 15.9104C18.433 15.9104 18.6576 15.9125 18.8536 15.9221C19.0603 15.9324 19.3377 15.8435 19.6106 16.4996C19.8911 17.1732 20.564 18.8287 20.6481 18.9969C20.7323 19.1655 20.7882 19.3618 20.6763 19.5864C20.564 19.8109 20.1912 20.2953 19.8352 20.7369C19.6858 20.9219 19.4911 21.0867 19.6875 21.4235C19.8836 21.76 20.5592 22.8617 21.5593 23.7536C22.8447 24.8996 23.9289 25.2546 24.2654 25.4232C24.6015 25.5914 24.7979 25.5633 24.9943 25.3391C25.1903 25.1146 25.8354 24.3568 26.0596 24.0201C26.2838 23.6833 26.5083 23.7396 26.8166 23.8518C27.1253 23.9637 28.7794 24.7778 29.1159 24.946C29.4523 25.1146 29.6765 25.1987 29.7606 25.3391C29.8451 25.4795 29.8451 26.1528 29.5646 26.9386Z" fill="white"/>
</svg>
