<svg width="37" height="35" viewBox="0 0 37 35" fill="none" xmlns="http://www.w3.org/2000/svg">
<g id="Group 252">
<g id="Group 251">
<g id="Group">
<g id="Group_2">
<path id="Vector" d="M9.77863 7.01473L7.59872 5.00228C6.99747 4.44651 6.02005 4.44651 5.4188 5.00228C4.81678 5.55805 4.81678 6.45896 5.4188 7.01473L7.59872 9.02718C7.89934 9.30542 8.29401 9.44419 8.68868 9.44419C9.08334 9.44419 9.47801 9.30542 9.77863 9.02718C10.3807 8.47141 10.3807 7.5705 9.77863 7.01473Z" fill="white"/>
</g>
</g>
<g id="Group_3">
<g id="Group_4">
<path id="Vector_2" d="M4.625 15.6558H1.54167C0.690667 15.6558 0 16.2934 0 17.079C0 17.8646 0.690667 18.5022 1.54167 18.5022H4.625C5.476 18.5022 6.16667 17.8646 6.16667 17.079C6.16667 16.2934 5.476 15.6558 4.625 15.6558Z" fill="white"/>
</g>
</g>
<g id="Group_5">
<g id="Group_6">
<path id="Vector_3" d="M9.77863 25.1297C9.17738 24.5739 8.19997 24.5739 7.59872 25.1297L5.4188 27.1422C4.81678 27.6979 4.81678 28.5989 5.4188 29.1546C5.71943 29.4329 6.11409 29.5716 6.50876 29.5716C6.90343 29.5716 7.29809 29.4329 7.59872 29.1546L9.77863 27.1422C10.3807 26.5864 10.3807 25.6855 9.77863 25.1297Z" fill="white"/>
</g>
</g>
<g id="Group_7">
<g id="Group_8">
<path id="Vector_4" d="M18.4999 28.4648C17.6489 28.4648 16.9583 29.1025 16.9583 29.8881V32.7345C16.9583 33.5202 17.6489 34.1578 18.4999 34.1578C19.3509 34.1578 20.0416 33.5202 20.0416 32.7345V29.8881C20.0416 29.1025 19.3509 28.4648 18.4999 28.4648Z" fill="white"/>
</g>
</g>
<g id="Group_9">
<g id="Group_10">
<path id="Vector_5" d="M31.5811 27.1422L29.4012 25.1297C28.8 24.5739 27.8225 24.5739 27.2213 25.1297C26.6193 25.6855 26.6193 26.5864 27.2213 27.1422L29.4012 29.1546C29.7018 29.4329 30.0965 29.5716 30.4912 29.5716C30.8858 29.5716 31.2805 29.4329 31.5811 29.1546C32.1831 28.5989 32.1831 27.6979 31.5811 27.1422Z" fill="white"/>
</g>
</g>
<g id="Group_11">
<g id="Group_12">
<path id="Vector_6" d="M35.4583 15.6558H32.3749C31.5239 15.6558 30.8333 16.2934 30.8333 17.079C30.8333 17.8646 31.5239 18.5022 32.3749 18.5022H35.4583C36.3093 18.5022 36.9999 17.8646 36.9999 17.079C36.9999 16.2934 36.3093 15.6558 35.4583 15.6558Z" fill="white"/>
</g>
</g>
<g id="Group_13">
<g id="Group_14">
<path id="Vector_7" d="M31.5811 5.00228C30.9799 4.44651 30.0025 4.44651 29.4012 5.00228L27.2213 7.01473C26.6193 7.5705 26.6193 8.47141 27.2213 9.02718C27.5219 9.30542 27.9166 9.44419 28.3113 9.44419C28.7059 9.44419 29.1006 9.30542 29.4012 9.02718L31.5811 7.01473C32.1831 6.45896 32.1831 5.55805 31.5811 5.00228Z" fill="white"/>
</g>
</g>
<g id="Group_15">
<g id="Group_16">
<path id="Vector_8" d="M18.4999 0C17.6489 0 16.9583 0.637608 16.9583 1.42323V4.2697C16.9583 5.05532 17.6489 5.69293 18.4999 5.69293C19.3509 5.69293 20.0416 5.05532 20.0416 4.2697V1.42323C20.0416 0.637608 19.3509 0 18.4999 0Z" fill="white"/>
</g>
</g>
<g id="Group_17">
<g id="Group_18">
<path id="Vector_9" d="M18.5001 7.82764C12.9747 7.82764 8.47925 11.9778 8.47925 17.0786C8.47925 22.1795 12.9747 26.3297 18.5001 26.3297C24.0254 26.3297 28.5209 22.1795 28.5209 17.0786C28.5209 11.9778 24.0254 7.82764 18.5001 7.82764ZM18.5001 23.4832C14.6752 23.4832 11.5626 20.6097 11.5626 17.0786C11.5626 13.5476 14.6752 10.6741 18.5001 10.6741C22.325 10.6741 25.4376 13.5476 25.4376 17.0786C25.4376 20.6097 22.325 23.4832 18.5001 23.4832Z" fill="white"/>
</g>
</g>
</g>
</g>
</svg>
