<svg width="40" height="40" viewBox="0 0 40 40" fill="none" xmlns="http://www.w3.org/2000/svg">
<path d="M39.202 37.1424H38.2793V16.9489L38.7648 17.1754C38.8721 17.2255 38.9873 17.2502 39.1021 17.2502C39.2518 17.2502 39.4007 17.2082 39.5309 17.1253C39.7609 16.9788 39.9002 16.7249 39.9002 16.4522V13.2467C39.9002 12.9367 39.7207 12.6547 39.4397 12.5235L36.6917 11.2411V6.05759C36.6917 5.61689 36.3344 5.25959 35.8937 5.25959H31.1471C30.7064 5.25959 30.3491 5.61689 30.3491 6.05759V8.28153L15.4662 1.33659C15.2332 1.22787 14.9621 1.23804 14.7381 1.36393L0.407182 9.4132C0.155711 9.55455 0 9.82048 0 10.109V13.3144C0 13.5978 0.150324 13.86 0.394913 14.0032C0.639601 14.1464 0.941746 14.1491 1.18883 14.0103L1.62095 13.7676V37.1425H0.831222C0.390524 37.1425 0.033217 37.4998 0.033217 37.9405C0.033217 38.3812 0.390524 38.7385 0.831222 38.7385H2.41895H37.4813H39.202C39.6427 38.7385 40 38.3812 40 37.9405C40 37.4998 39.6427 37.1424 39.202 37.1424ZM31.9451 8.99824V6.8556H35.0956V10.4965L31.9437 9.02567C31.944 9.01649 31.9451 9.00752 31.9451 8.99824ZM1.59601 10.576L15.1625 2.95605L38.3042 13.755V15.1993L15.4662 4.54208C15.3591 4.49201 15.2439 4.46717 15.1289 4.46717C14.9938 4.46717 14.8591 4.50148 14.7381 4.56941L1.59601 11.951V10.576ZM3.21696 37.1424V12.8975C3.21696 12.8888 3.21596 12.8804 3.21566 12.8718L15.1625 6.16143L36.6833 16.204V37.1424H3.21696Z" fill="white"/>
<path d="M18.3541 23.5825H5.61923C5.17853 23.5825 4.82123 23.9398 4.82123 24.3805V34.7609C4.82123 35.2016 5.17853 35.5589 5.61923 35.5589H18.3541C18.7948 35.5589 19.1521 35.2016 19.1521 34.7609V24.3805C19.1521 23.9398 18.7948 23.5825 18.3541 23.5825ZM6.41724 25.1785H11.1886V33.9629H6.41724V25.1785ZM17.5561 33.9629H12.7847V25.1785H17.5561V33.9629Z" fill="white"/>
<path d="M34.3142 23.5825H21.5461C21.1054 23.5825 20.7481 23.9398 20.7481 24.3805V34.7609C20.7481 35.2016 21.1054 35.5589 21.5461 35.5589H34.3142C34.7549 35.5589 35.1122 35.2016 35.1122 34.7609V24.3805C35.1122 23.9398 34.7549 23.5825 34.3142 23.5825ZM22.3441 25.1785H27.1321V33.9629H22.3441V25.1785ZM33.5162 33.9629H28.7282V25.1785H33.5162V33.9629Z" fill="white"/>
<path d="M34.6516 17.1925L21.9414 11.2613C21.822 11.2056 21.6961 11.1819 21.5728 11.1869C21.1244 11.1718 20.7481 11.5349 20.7481 11.9845V21.2115C20.7481 21.6522 21.1054 22.0095 21.5461 22.0095H34.3142C34.7549 22.0095 35.1122 21.6522 35.1122 21.2115V17.9157C35.1122 17.6056 34.9326 17.3237 34.6516 17.1925ZM22.3441 13.2105L27.1321 15.4448V20.4134H22.3441V13.2105ZM33.5162 20.4135H28.7282V16.1896L33.5162 18.4239V20.4135Z" fill="white"/>
<path d="M19.1487 10.401C19.1477 10.3892 19.1463 10.3777 19.1449 10.366C19.1432 10.3526 19.1412 10.3393 19.1388 10.326C19.1363 10.3123 19.1335 10.2988 19.1304 10.2853C19.1278 10.2744 19.1251 10.2636 19.122 10.2529C19.1179 10.2381 19.1134 10.2236 19.1084 10.2092C19.1051 10.1995 19.1015 10.1899 19.0978 10.1804C19.0922 10.166 19.0865 10.1519 19.0801 10.138C19.0756 10.1282 19.0709 10.1185 19.066 10.1088C19.0595 10.0961 19.0529 10.0835 19.0458 10.0711C19.0397 10.0605 19.0333 10.0501 19.0267 10.0397C19.0199 10.029 19.0131 10.0186 19.0058 10.0083C18.9978 9.99692 18.9894 9.98584 18.9807 9.97487C18.9738 9.96609 18.9669 9.95751 18.9597 9.94904C18.95 9.93766 18.9399 9.92669 18.9295 9.91582C18.9221 9.90814 18.9147 9.90066 18.907 9.89328C18.8963 9.883 18.8853 9.87303 18.874 9.86325C18.8652 9.85577 18.8563 9.84849 18.8474 9.8413C18.8367 9.83293 18.8259 9.82485 18.8148 9.81697C18.8036 9.80899 18.7921 9.8014 18.7804 9.79402C18.7708 9.78794 18.7611 9.78195 18.7511 9.77617C18.7369 9.76799 18.7224 9.76041 18.7076 9.75313C18.7021 9.75043 18.6971 9.74724 18.6917 9.74465L15.9319 8.45687C15.6571 8.32869 15.3466 8.37038 15.119 8.53896C15.1047 8.54594 15.0904 8.55233 15.0763 8.56021L5.22851 14.0915C4.96257 14.2409 4.81554 14.5198 4.82153 14.8049C4.82153 14.8069 4.82123 14.8088 4.82123 14.8108V21.2115C4.82123 21.6522 5.17853 22.0095 5.61923 22.0095H18.3541C18.7948 22.0095 19.1521 21.6522 19.1521 21.2115V10.4678C19.1521 10.4616 19.1513 10.4555 19.1512 10.4492C19.1508 10.4331 19.1501 10.4171 19.1487 10.401ZM6.41724 15.2543L11.1886 12.5743V20.4134H6.41724V15.2543ZM12.7847 20.4134V11.6778L15.6324 10.0783L17.5562 10.9761V20.4133L12.7847 20.4134Z" fill="white"/>
</svg>
