<svg width="40" height="40" viewBox="0 0 40 40" fill="none" xmlns="http://www.w3.org/2000/svg">
<g id="icon">
<g id="Group">
<g id="Group_2">
<path id="Vector" d="M32.5 33.2812C32.0687 33.2812 31.7188 33.6312 31.7188 34.0625C31.7188 34.4937 32.0687 34.8438 32.5 34.8438C32.9312 34.8438 33.2812 34.4937 33.2812 34.0625C33.2812 33.6312 32.9312 33.2812 32.5 33.2812Z" fill="#F8B540"/>
</g>
</g>
<g id="Group_3">
<g id="Group_4">
<path id="Vector_2" d="M34.8438 3.70563V2.34375C34.8438 1.05141 33.7923 0 32.5 0H7.5C6.20766 0 5.15625 1.05141 5.15625 2.34375V3.70563C0.0603908 13.1169 0.000234375 12.8374 0 13.2804C0 13.2807 0 13.2809 0 13.2812V14.8438C0 16.1979 0.782969 17.4573 2.03125 18.1734V39.2188C2.03125 39.6502 2.38109 40 2.8125 40H37.1875C37.6189 40 37.9688 39.6502 37.9688 39.2188V18.1734C39.2045 17.4579 40 16.1837 40 14.8438V13.2812C40 13.2809 40 13.2807 40 13.2804C39.9998 12.8327 39.8899 13.0251 34.8438 3.70563ZM37.8975 12.5H33.0631L30.459 4.6875H33.6006L37.8975 12.5ZM27.0312 14.0625H31.7188V14.8438C31.7188 16.1361 30.6673 17.1875 29.375 17.1875C28.0827 17.1875 27.0312 16.1361 27.0312 14.8438V14.0625ZM26.9118 12.5L25.6098 4.6875H28.8119L31.416 12.5H26.9118ZM6.71875 2.34375C6.71875 1.91297 7.06922 1.5625 7.5 1.5625H32.5C32.9308 1.5625 33.2812 1.91297 33.2812 2.34375V3.125C32.5373 3.125 7.46844 3.125 6.71875 3.125V2.34375ZM25.4688 14.0625V14.8438C25.4688 16.1361 24.4173 17.1875 23.125 17.1875C21.8327 17.1875 20.7812 16.1361 20.7812 14.8438V14.0625H25.4688ZM20.7812 12.5V4.6875H24.0257L25.3278 12.5H20.7812ZM14.6723 12.5L15.9744 4.6875H19.2188V12.5H14.6723ZM19.2188 14.0625V14.8438C19.2188 16.1361 18.1673 17.1875 16.875 17.1875C15.5827 17.1875 14.5312 16.1361 14.5312 14.8438V14.0625H19.2188ZM8.58391 12.5L11.188 4.6875H14.3902L13.0881 12.5H8.58391ZM12.9688 14.0625V14.8438C12.9688 16.1361 11.9173 17.1875 10.625 17.1875C9.33266 17.1875 8.28125 16.1361 8.28125 14.8438V14.0625H12.9688ZM6.39937 4.6875H9.54102L6.93687 12.5H2.1025L6.39937 4.6875ZM1.5625 14.8438V14.0625H6.71875V14.8438C6.71875 16.0704 5.48992 17.1875 4.14062 17.1875C3.80047 17.1875 3.44797 17.1137 3.11984 16.9733C2.18836 16.5771 1.5625 15.7212 1.5625 14.8438ZM16.0938 38.4375H8.28125V31.7188H16.0938V38.4375ZM16.0938 30.1562H8.28125V23.4375H16.0938V30.1562ZM36.4062 38.4375H17.6562V22.6562C17.6562 22.2248 17.3064 21.875 16.875 21.875H7.5C7.06859 21.875 6.71875 22.2248 6.71875 22.6562V38.4375H3.59375V18.7118C3.77484 18.7364 3.95727 18.75 4.14062 18.75C5.16883 18.75 6.2082 18.3427 6.99203 17.6323C7.16539 17.4753 7.32148 17.3073 7.46156 17.1313C8.17203 18.1111 9.325 18.75 10.625 18.75C11.9015 18.75 13.0367 18.1345 13.75 17.1848C14.4633 18.1345 15.5985 18.75 16.875 18.75C18.1515 18.75 19.2867 18.1345 20 17.1848C20.7133 18.1345 21.8485 18.75 23.125 18.75C24.4015 18.75 25.5367 18.1345 26.25 17.1848C26.9633 18.1345 28.0985 18.75 29.375 18.75C30.675 18.75 31.828 18.1111 32.5384 17.1313C32.6785 17.3073 32.8346 17.4752 33.008 17.6323C33.7918 18.3427 34.8312 18.75 35.8594 18.75C36.0423 18.75 36.2248 18.7369 36.4062 18.7121V38.4375ZM38.4375 14.8438C38.4375 15.7459 37.7884 16.6116 36.8223 16.998C36.5064 17.1238 36.1825 17.1875 35.8594 17.1875C34.5101 17.1875 33.2812 16.0704 33.2812 14.8438V14.0625H38.4375V14.8438Z" fill="#F8B540"/>
</g>
</g>
<g id="Group_5">
<g id="Group_6">
<path id="Vector_3" d="M34.0625 30.1562H33.2812V22.6562C33.2812 22.2248 32.9314 21.875 32.5 21.875H23.125C22.6936 21.875 22.3438 22.2248 22.3438 22.6562V30.1562H21.5625C21.1311 30.1562 20.7812 30.5061 20.7812 30.9375C20.7812 31.3689 21.1311 31.7188 21.5625 31.7188H34.0625C34.4939 31.7188 34.8438 31.3689 34.8438 30.9375C34.8438 30.5061 34.4939 30.1562 34.0625 30.1562ZM31.7188 30.1562H23.9062V23.4375H31.7188V30.1562Z" fill="#F8B540"/>
</g>
</g>
<g id="Group_7">
<g id="Group_8">
<path id="Vector_4" d="M29.375 33.2812H23.125C22.6936 33.2812 22.3438 33.6311 22.3438 34.0625C22.3438 34.4939 22.6936 34.8438 23.125 34.8438H29.375C29.8064 34.8438 30.1562 34.4939 30.1562 34.0625C30.1562 33.6311 29.8064 33.2812 29.375 33.2812Z" fill="#F8B540"/>
</g>
</g>
</g>
</svg>
