<svg width="39" height="39" viewBox="0 0 39 39" fill="none" xmlns="http://www.w3.org/2000/svg">
<g id="icon">
<g id="Group">
<path id="Vector" d="M23.5625 22.5H18.875C18.5 22.5 18.25 22.25 18.25 21.875C18.25 21.5 18.5 21.25 18.875 21.25H23.5625C23.9375 21.25 24.1875 21.5 24.1875 21.875C24.1875 22.25 23.9375 22.5 23.5625 22.5Z" fill="#F8B540"/>
</g>
<g id="Group_2">
<path id="Vector_2" d="M15.125 22.5H0.75C0.375 22.5 0.125 22.25 0.125 21.875V19.375C0.125 19 0.375 18.75 0.75 18.75H21.375C21.75 18.75 22 19 22 19.375C22 19.75 21.75 20 21.375 20H1.375V21.25H15.125C15.5 21.25 15.75 21.5 15.75 21.875C15.75 22.25 15.5 22.5 15.125 22.5Z" fill="#F8B540"/>
</g>
<g id="Group_3">
<path id="Vector_3" d="M38.25 22.5H35.4375C35.0625 22.5 34.8125 22.25 34.8125 21.875C34.8125 21.5 35.0625 21.25 35.4375 21.25H37.625V20H35.875C35.5 20 35.25 19.75 35.25 19.375C35.25 19 35.5 18.75 35.875 18.75H38.25C38.625 18.75 38.875 19 38.875 19.375V21.875C38.875 22.25 38.625 22.5 38.25 22.5Z" fill="#F8B540"/>
</g>
<g id="Group_4">
<path id="Vector_4" d="M38.25 38.75C37.875 38.75 37.625 38.5 37.625 38.125V21.875C37.625 21.5 37.875 21.25 38.25 21.25C38.625 21.25 38.875 21.5 38.875 21.875V38.125C38.875 38.5 38.625 38.75 38.25 38.75Z" fill="#F8B540"/>
</g>
<g id="Group_5">
<path id="Vector_5" d="M0.75 38.75C0.375 38.75 0.125 38.5 0.125 38.125V21.875C0.125 21.5 0.375 21.25 0.75 21.25C1.125 21.25 1.375 21.5 1.375 21.875V38.125C1.375 38.5 1.125 38.75 0.75 38.75Z" fill="#F8B540"/>
</g>
<g id="Group_6">
<path id="Vector_6" d="M9.5 38.75C9.125 38.75 8.875 38.5 8.875 38.125V19.375C8.875 19 9.125 18.75 9.5 18.75C9.875 18.75 10.125 19 10.125 19.375V38.125C10.125 38.5 9.875 38.75 9.5 38.75Z" fill="#F8B540"/>
</g>
<g id="Group_7">
<path id="Vector_7" d="M8.25 20C7.875 20 7.625 19.75 7.625 19.375V12.5H3.875V19.375C3.875 19.75 3.625 20 3.25 20C2.875 20 2.625 19.75 2.625 19.375V11.875C2.625 11.5 2.875 11.25 3.25 11.25H8.25C8.625 11.25 8.875 11.5 8.875 11.875V19.375C8.875 19.75 8.625 20 8.25 20Z" fill="#F8B540"/>
</g>
<g id="Group_8">
<path id="Vector_8" d="M3.25 17.5H1.375C0.6875 17.5 0.125 16.9375 0.125 16.25V13.75C0.125 13.0625 0.6875 12.5 1.375 12.5H3.25C3.625 12.5 3.875 12.75 3.875 13.125C3.875 13.5 3.625 13.75 3.25 13.75H1.375V16.25H3.25C3.625 16.25 3.875 16.5 3.875 16.875C3.875 17.25 3.625 17.5 3.25 17.5Z" fill="#F8B540"/>
</g>
<g id="Group_9">
<path id="Vector_9" d="M22 16.25H12C10.9375 16.25 10.125 15.4375 10.125 14.375V1.875C10.125 0.8125 10.9375 0 12 0H32C33.0625 0 33.875 0.8125 33.875 1.875V10C33.875 10.375 33.625 10.625 33.25 10.625C32.875 10.625 32.625 10.375 32.625 10V1.875C32.625 1.5 32.375 1.25 32 1.25H12C11.625 1.25 11.375 1.5 11.375 1.875V14.375C11.375 14.75 11.625 15 12 15H22C22.375 15 22.625 15.25 22.625 15.625C22.625 16 22.375 16.25 22 16.25Z" fill="#F8B540"/>
</g>
<g id="Group_10">
<path id="Vector_10" d="M22.625 13.75H10.75C10.375 13.75 10.125 13.5 10.125 13.125C10.125 12.75 10.375 12.5 10.75 12.5H22.625C23 12.5 23.25 12.75 23.25 13.125C23.25 13.5 23 13.75 22.625 13.75Z" fill="#F8B540"/>
</g>
<g id="Group_11">
<path id="Vector_11" d="M13.25 6.875C13.0625 6.875 12.9375 6.8125 12.8125 6.6875C12.5625 6.4375 12.5625 6.0625 12.8125 5.8125L15.9375 2.6875C16.1875 2.4375 16.5625 2.4375 16.8125 2.6875C17.0625 2.9375 17.0625 3.3125 16.8125 3.5625L13.6875 6.6875C13.5625 6.8125 13.4375 6.875 13.25 6.875Z" fill="#F8B540"/>
</g>
<g id="Group_12">
<path id="Vector_12" d="M17.625 6.25C17.4375 6.25 17.3125 6.1875 17.1875 6.0625C16.9375 5.8125 16.9375 5.4375 17.1875 5.1875L18.4375 3.9375C18.6875 3.6875 19.0625 3.6875 19.3125 3.9375C19.5625 4.1875 19.5625 4.5625 19.3125 4.8125L18.0625 6.0625C17.9375 6.1875 17.8125 6.25 17.625 6.25Z" fill="#F8B540"/>
</g>
<g id="Group_13">
<path id="Vector_13" d="M13.25 10.625C13.0625 10.625 12.9375 10.5625 12.8125 10.4375C12.5625 10.1875 12.5625 9.8125 12.8125 9.5625L15.3125 7.0625C15.5625 6.8125 15.9375 6.8125 16.1875 7.0625C16.4375 7.3125 16.4375 7.6875 16.1875 7.9375L13.6875 10.4375C13.5625 10.5625 13.4375 10.625 13.25 10.625Z" fill="#F8B540"/>
</g>
<g id="Group_14">
<path id="Vector_14" d="M20.125 20C19.75 20 19.5 19.75 19.5 19.375V15.625C19.5 15.25 19.75 15 20.125 15C20.5 15 20.75 15.25 20.75 15.625V19.375C20.75 19.75 20.5 20 20.125 20Z" fill="#F8B540"/>
</g>
<g id="Group_15">
<path id="Vector_15" d="M17.625 38.75C16.5625 38.75 15.75 37.9375 15.75 36.875C15.75 35.8125 16.5625 35 17.625 35C18.6875 35 19.5 35.8125 19.5 36.875C19.5 37.9375 18.6875 38.75 17.625 38.75ZM17.625 36.25C17.25 36.25 17 36.5 17 36.875C17 37.25 17.25 37.5 17.625 37.5C18 37.5 18.25 37.25 18.25 36.875C18.25 36.5 18 36.25 17.625 36.25Z" fill="#F8B540"/>
</g>
<g id="Group_16">
<path id="Vector_16" d="M31.375 38.75C30.3125 38.75 29.5 37.9375 29.5 36.875C29.5 35.8125 30.3125 35 31.375 35C32.4375 35 33.25 35.8125 33.25 36.875C33.25 37.9375 32.4375 38.75 31.375 38.75ZM31.375 36.25C31 36.25 30.75 36.5 30.75 36.875C30.75 37.25 31 37.5 31.375 37.5C31.75 37.5 32 37.25 32 36.875C32 36.5 31.75 36.25 31.375 36.25Z" fill="#F8B540"/>
</g>
<g id="Group_17">
<path id="Vector_17" d="M31.375 36.25C31 36.25 30.75 36 30.75 35.625C30.75 34.9375 30.1875 34.375 29.5 34.375H19.5C18.8125 34.375 18.25 34.9375 18.25 35.625C18.25 36 18 36.25 17.625 36.25C17.25 36.25 17 36 17 35.625C17 34.25 18.125 33.125 19.5 33.125H29.5C30.875 33.125 32 34.25 32 35.625C32 36 31.75 36.25 31.375 36.25Z" fill="#F8B540"/>
</g>
<g id="Group_18">
<path id="Vector_18" d="M32.625 30.625H17C15.9375 30.625 15.125 29.8125 15.125 28.75C15.125 27.6875 15.9375 26.875 17 26.875H22.125L24.375 13.4375C24.5 12.5 25.3125 11.875 26.25 11.875H35.5625C36.125 11.875 36.625 12.125 37 12.5625C37.375 13 37.5 13.5625 37.4375 14.0625L35.3125 27C35.1875 27.375 35.125 27.75 35.125 28.125C35.125 29.5 34 30.625 32.625 30.625ZM17 28.125C16.625 28.125 16.375 28.375 16.375 28.75C16.375 29.125 16.625 29.375 17 29.375H32.625C33.3125 29.375 33.875 28.8125 33.875 28.125C33.875 27.6875 33.9375 27.25 34 26.75L36.125 13.8125C36.125 13.625 36.125 13.4375 36 13.3125C35.875 13.1875 35.6875 13.0625 35.5 13.0625H26.1875C25.875 13.0625 25.625 13.3125 25.5625 13.5625L23.25 27.625C23.1875 27.9375 22.9375 28.125 22.625 28.125H17Z" fill="#F8B540"/>
</g>
<g id="Group_19">
<path id="Vector_19" d="M15.7501 29.25C15.7501 29.25 15.6876 29.25 15.6251 29.25C15.3126 29.1875 15.0626 28.875 15.1251 28.5625V28.4375L15.8751 23.75C16.1251 22.3125 17.3751 21.25 18.8126 21.25H19.5001C19.8751 21.25 20.1251 21.5 20.1251 21.875C20.1251 22.25 19.8751 22.5 19.5001 22.5H18.8751C18.0001 22.5 17.3126 23.125 17.1876 23.9375L16.3751 28.6875C16.3126 29 16.0626 29.25 15.7501 29.25Z" fill="#F8B540"/>
</g>
<g id="Group_20">
<path id="Vector_20" d="M23.25 34.375C22.875 34.375 22.625 34.125 22.625 33.75V30C22.625 29.625 22.875 29.375 23.25 29.375C23.625 29.375 23.875 29.625 23.875 30V33.75C23.875 34.125 23.625 34.375 23.25 34.375Z" fill="#F8B540"/>
</g>
<g id="Group_21">
<path id="Vector_21" d="M25.75 34.375C25.375 34.375 25.125 34.125 25.125 33.75V30C25.125 29.625 25.375 29.375 25.75 29.375C26.125 29.375 26.375 29.625 26.375 30V33.75C26.375 34.125 26.125 34.375 25.75 34.375Z" fill="#F8B540"/>
</g>
</g>
</svg>
