<svg width="41" height="40" viewBox="0 0 41 40" fill="none" xmlns="http://www.w3.org/2000/svg">
<path d="M24.5625 23.125H19.875C19.5 23.125 19.25 22.875 19.25 22.5C19.25 22.125 19.5 21.875 19.875 21.875H24.5625C24.9375 21.875 25.1875 22.125 25.1875 22.5C25.1875 22.875 24.9375 23.125 24.5625 23.125Z" fill="white"/>
<path d="M16.125 23.125H1.75C1.375 23.125 1.125 22.875 1.125 22.5V20C1.125 19.625 1.375 19.375 1.75 19.375H22.375C22.75 19.375 23 19.625 23 20C23 20.375 22.75 20.625 22.375 20.625H2.375V21.875H16.125C16.5 21.875 16.75 22.125 16.75 22.5C16.75 22.875 16.5 23.125 16.125 23.125Z" fill="white"/>
<path d="M39.25 23.125H36.4375C36.0625 23.125 35.8125 22.875 35.8125 22.5C35.8125 22.125 36.0625 21.875 36.4375 21.875H38.625V20.625H36.875C36.5 20.625 36.25 20.375 36.25 20C36.25 19.625 36.5 19.375 36.875 19.375H39.25C39.625 19.375 39.875 19.625 39.875 20V22.5C39.875 22.875 39.625 23.125 39.25 23.125Z" fill="white"/>
<path d="M39.25 39.375C38.875 39.375 38.625 39.125 38.625 38.75V22.5C38.625 22.125 38.875 21.875 39.25 21.875C39.625 21.875 39.875 22.125 39.875 22.5V38.75C39.875 39.125 39.625 39.375 39.25 39.375Z" fill="white"/>
<path d="M1.75 39.375C1.375 39.375 1.125 39.125 1.125 38.75V22.5C1.125 22.125 1.375 21.875 1.75 21.875C2.125 21.875 2.375 22.125 2.375 22.5V38.75C2.375 39.125 2.125 39.375 1.75 39.375Z" fill="white"/>
<path d="M10.5 39.375C10.125 39.375 9.875 39.125 9.875 38.75V20C9.875 19.625 10.125 19.375 10.5 19.375C10.875 19.375 11.125 19.625 11.125 20V38.75C11.125 39.125 10.875 39.375 10.5 39.375Z" fill="white"/>
<path d="M9.25 20.625C8.875 20.625 8.625 20.375 8.625 20V13.125H4.875V20C4.875 20.375 4.625 20.625 4.25 20.625C3.875 20.625 3.625 20.375 3.625 20V12.5C3.625 12.125 3.875 11.875 4.25 11.875H9.25C9.625 11.875 9.875 12.125 9.875 12.5V20C9.875 20.375 9.625 20.625 9.25 20.625Z" fill="white"/>
<path d="M4.25 18.125H2.375C1.6875 18.125 1.125 17.5625 1.125 16.875V14.375C1.125 13.6875 1.6875 13.125 2.375 13.125H4.25C4.625 13.125 4.875 13.375 4.875 13.75C4.875 14.125 4.625 14.375 4.25 14.375H2.375V16.875H4.25C4.625 16.875 4.875 17.125 4.875 17.5C4.875 17.875 4.625 18.125 4.25 18.125Z" fill="white"/>
<path d="M23 16.875H13C11.9375 16.875 11.125 16.0625 11.125 15V2.5C11.125 1.4375 11.9375 0.625 13 0.625H33C34.0625 0.625 34.875 1.4375 34.875 2.5V10.625C34.875 11 34.625 11.25 34.25 11.25C33.875 11.25 33.625 11 33.625 10.625V2.5C33.625 2.125 33.375 1.875 33 1.875H13C12.625 1.875 12.375 2.125 12.375 2.5V15C12.375 15.375 12.625 15.625 13 15.625H23C23.375 15.625 23.625 15.875 23.625 16.25C23.625 16.625 23.375 16.875 23 16.875Z" fill="white"/>
<path d="M23.625 14.375H11.75C11.375 14.375 11.125 14.125 11.125 13.75C11.125 13.375 11.375 13.125 11.75 13.125H23.625C24 13.125 24.25 13.375 24.25 13.75C24.25 14.125 24 14.375 23.625 14.375Z" fill="white"/>
<path d="M14.25 7.5C14.0625 7.5 13.9375 7.4375 13.8125 7.3125C13.5625 7.0625 13.5625 6.6875 13.8125 6.4375L16.9375 3.3125C17.1875 3.0625 17.5625 3.0625 17.8125 3.3125C18.0625 3.5625 18.0625 3.9375 17.8125 4.1875L14.6875 7.3125C14.5625 7.4375 14.4375 7.5 14.25 7.5Z" fill="white"/>
<path d="M18.625 6.875C18.4375 6.875 18.3125 6.8125 18.1875 6.6875C17.9375 6.4375 17.9375 6.0625 18.1875 5.8125L19.4375 4.5625C19.6875 4.3125 20.0625 4.3125 20.3125 4.5625C20.5625 4.8125 20.5625 5.1875 20.3125 5.4375L19.0625 6.6875C18.9375 6.8125 18.8125 6.875 18.625 6.875Z" fill="white"/>
<path d="M14.25 11.25C14.0625 11.25 13.9375 11.1875 13.8125 11.0625C13.5625 10.8125 13.5625 10.4375 13.8125 10.1875L16.3125 7.6875C16.5625 7.4375 16.9375 7.4375 17.1875 7.6875C17.4375 7.9375 17.4375 8.3125 17.1875 8.5625L14.6875 11.0625C14.5625 11.1875 14.4375 11.25 14.25 11.25Z" fill="white"/>
<path d="M21.125 20.625C20.75 20.625 20.5 20.375 20.5 20V16.25C20.5 15.875 20.75 15.625 21.125 15.625C21.5 15.625 21.75 15.875 21.75 16.25V20C21.75 20.375 21.5 20.625 21.125 20.625Z" fill="white"/>
<path d="M18.625 39.375C17.5625 39.375 16.75 38.5625 16.75 37.5C16.75 36.4375 17.5625 35.625 18.625 35.625C19.6875 35.625 20.5 36.4375 20.5 37.5C20.5 38.5625 19.6875 39.375 18.625 39.375ZM18.625 36.875C18.25 36.875 18 37.125 18 37.5C18 37.875 18.25 38.125 18.625 38.125C19 38.125 19.25 37.875 19.25 37.5C19.25 37.125 19 36.875 18.625 36.875Z" fill="white"/>
<path d="M32.375 39.375C31.3125 39.375 30.5 38.5625 30.5 37.5C30.5 36.4375 31.3125 35.625 32.375 35.625C33.4375 35.625 34.25 36.4375 34.25 37.5C34.25 38.5625 33.4375 39.375 32.375 39.375ZM32.375 36.875C32 36.875 31.75 37.125 31.75 37.5C31.75 37.875 32 38.125 32.375 38.125C32.75 38.125 33 37.875 33 37.5C33 37.125 32.75 36.875 32.375 36.875Z" fill="white"/>
<path d="M32.375 36.875C32 36.875 31.75 36.625 31.75 36.25C31.75 35.5625 31.1875 35 30.5 35H20.5C19.8125 35 19.25 35.5625 19.25 36.25C19.25 36.625 19 36.875 18.625 36.875C18.25 36.875 18 36.625 18 36.25C18 34.875 19.125 33.75 20.5 33.75H30.5C31.875 33.75 33 34.875 33 36.25C33 36.625 32.75 36.875 32.375 36.875Z" fill="white"/>
<path d="M33.625 31.25H18C16.9375 31.25 16.125 30.4375 16.125 29.375C16.125 28.3125 16.9375 27.5 18 27.5H23.125L25.375 14.0625C25.5 13.125 26.3125 12.5 27.25 12.5H36.5625C37.125 12.5 37.625 12.75 38 13.1875C38.375 13.625 38.5 14.1875 38.4375 14.6875L36.3125 27.625C36.1875 28 36.125 28.375 36.125 28.75C36.125 30.125 35 31.25 33.625 31.25ZM18 28.75C17.625 28.75 17.375 29 17.375 29.375C17.375 29.75 17.625 30 18 30H33.625C34.3125 30 34.875 29.4375 34.875 28.75C34.875 28.3125 34.9375 27.875 35 27.375L37.125 14.4375C37.125 14.25 37.125 14.0625 37 13.9375C36.875 13.8125 36.6875 13.6875 36.5 13.6875H27.1875C26.875 13.6875 26.625 13.9375 26.5625 14.1875L24.25 28.25C24.1875 28.5625 23.9375 28.75 23.625 28.75H18Z" fill="white"/>
<path d="M16.75 29.875C16.75 29.875 16.6875 29.875 16.625 29.875C16.3125 29.8125 16.0625 29.5 16.125 29.1875V29.0625L16.875 24.375C17.125 22.9375 18.375 21.875 19.8125 21.875H20.5C20.875 21.875 21.125 22.125 21.125 22.5C21.125 22.875 20.875 23.125 20.5 23.125H19.875C19 23.125 18.3125 23.75 18.1875 24.5625L17.375 29.3125C17.3125 29.625 17.0625 29.875 16.75 29.875Z" fill="white"/>
<path d="M24.25 35C23.875 35 23.625 34.75 23.625 34.375V30.625C23.625 30.25 23.875 30 24.25 30C24.625 30 24.875 30.25 24.875 30.625V34.375C24.875 34.75 24.625 35 24.25 35Z" fill="white"/>
<path d="M26.75 35C26.375 35 26.125 34.75 26.125 34.375V30.625C26.125 30.25 26.375 30 26.75 30C27.125 30 27.375 30.25 27.375 30.625V34.375C27.375 34.75 27.125 35 26.75 35Z" fill="white"/>
</svg>
