<svg width="40" height="40" viewBox="0 0 40 40" fill="none" xmlns="http://www.w3.org/2000/svg">
<g clip-path="url(#clip0_2126_9269)">
<path d="M39.3334 38.6666H36.6255C36.6539 38.4475 36.6667 38.2238 36.6667 37.9999C36.6667 36.1182 35.5838 34.5165 34.0001 33.7748V11.3333C34.0001 10.9333 33.7334 10.6666 33.3334 10.6666H23.3334V0.666641C23.3334 0.266641 23.0668 1.71632e-08 22.6668 1.71632e-08H4.6668C4.26664 -7.81078e-05 4 0.266563 4 0.666563V38.6666H0.666641C0.266641 38.6666 0 38.9332 0 39.3332C0 39.7332 0.266641 39.9999 0.666641 39.9999H4.66664H6.66664H22.6666H35.8H39.3334C39.7334 39.9999 40 39.7333 40 39.3333C40 38.9333 39.7334 38.6666 39.3334 38.6666ZM32.6666 33.3803C32.4491 33.3499 32.2267 33.3332 32 33.3332C31.4967 33.3332 31.003 33.4189 30.5366 33.5791C30.4205 33.4243 30.2332 33.3332 30 33.3332C29.6 33.3332 29.3334 33.5998 29.3334 33.9998V34.2041C29.0807 34.3862 28.8458 34.5938 28.6326 34.8247C28.5989 34.8603 28.5658 34.8964 28.5334 34.9331C27.9809 34.2426 27.2694 33.743 26.4648 33.4998C26.3493 33.3938 26.19 33.3331 26 33.3331C25.9257 33.3331 25.856 33.3424 25.7917 33.36C25.6412 33.3424 25.4883 33.3331 25.3334 33.3331C24.9155 33.3331 24.4451 33.3873 24.0639 33.5421C24.0167 33.558 23.9698 33.5745 23.9234 33.592C23.4627 33.2175 22.9239 32.9479 22.3561 32.7995C22.3501 32.7979 22.3439 32.7967 22.338 32.7951C22.2884 32.7823 22.2388 32.7702 22.1888 32.7594C22.1484 32.7505 22.1074 32.7427 22.0666 32.7351C22.0488 32.7318 22.0311 32.7283 22.0133 32.7252C21.9704 32.7178 21.9273 32.7113 21.884 32.7052C21.8646 32.7025 21.8452 32.7001 21.8258 32.6977C21.786 32.6927 21.7461 32.6881 21.7059 32.6845C21.6766 32.6817 21.6473 32.6797 21.6179 32.6776C21.5865 32.6754 21.5552 32.6728 21.5235 32.6713C21.4602 32.6683 21.3968 32.6664 21.3334 32.6664C21.2843 32.6664 21.2356 32.6674 21.1872 32.6692C21.1555 32.6703 21.1238 32.6723 21.0922 32.6741C21.0795 32.6748 21.0667 32.6754 21.0541 32.6762C20.4467 32.7166 19.85 32.888 19.3333 33.1916V11.9999H22.6666H32.6666V33.3803ZM5.33336 1.33328H22V10.6666H18.6666C18.2666 10.6666 18 10.9333 18 11.3333V32.0666C17.6593 31.7259 17.2666 31.4377 16.839 31.2122C16.8013 31.192 16.7631 31.1725 16.7248 31.1534C16.7098 31.146 16.6948 31.1383 16.6797 31.131C16.2039 30.9002 15.6862 30.7488 15.1452 30.6922C15.1376 30.6914 15.1299 30.6908 15.1223 30.69C15.0595 30.6838 14.9963 30.6788 14.9329 30.6752C14.9161 30.6741 14.8993 30.6731 14.8824 30.6723C14.8108 30.6689 14.7389 30.6666 14.6666 30.6666C13.6745 30.6666 12.7552 30.993 12 31.5414V31.3334C12 30.9334 11.7334 30.6667 11.3334 30.6667C10.9334 30.6667 10.6667 30.9334 10.6667 31.3334V32.6667C10.6667 32.7667 10.6834 32.8584 10.7146 32.9396C10.3873 33.4791 10.1617 34.0872 10.0667 34.7334C9.29922 34.8212 8.59742 35.0973 8.00008 35.5102V35.3334C8.00008 34.9334 7.73344 34.6668 7.33344 34.6668C6.93344 34.6668 6.6668 34.9334 6.6668 35.3334V36.6668C6.6668 36.7446 6.67719 36.8172 6.69641 36.8839C6.36586 37.4185 6.14094 38.0234 6.04828 38.6667H5.33352V1.33328H5.33336ZM10.3633 36.0137C10.3765 36.0126 10.3898 36.0118 10.4031 36.0108C10.4383 36.008 10.4734 36.0054 10.5089 36.0037C10.5612 36.0014 10.6137 35.9998 10.6667 35.9998C11.0667 35.9998 11.3334 35.7332 11.3334 35.3332C11.3334 33.4666 12.8 31.9998 14.6667 31.9998C16.3334 31.9998 17.7334 33.1998 17.9334 34.8665C17.9784 35.0468 18.0855 35.1954 18.2319 35.2941C18.2411 35.3006 18.2505 35.3067 18.2602 35.3127C18.2705 35.3191 18.2807 35.3255 18.2914 35.3312C18.316 35.3448 18.3416 35.3573 18.3684 35.368C18.3694 35.3684 18.3703 35.3687 18.3713 35.3692C18.4019 35.3814 18.4338 35.3916 18.4666 35.3998C18.4667 35.3998 18.4667 35.3998 18.4668 35.3999C18.5065 35.4131 18.5516 35.4182 18.5992 35.4167C18.8184 35.4199 19.0222 35.3001 19.1334 35.1334C19.1334 35.1334 19.1334 35.1334 19.1335 35.1333L19.2002 35.0666C19.7335 34.4 20.4668 34 21.3335 34C21.7837 34 22.2336 34.1261 22.6374 34.3619C21.8422 35.1096 21.3912 36.0844 21.3388 37.1273C21.3353 37.1955 21.3335 37.2643 21.3335 37.3334C21.3335 37.797 21.4106 38.2412 21.5632 38.6667H7.4C7.71203 37.2313 8.90031 36.1466 10.3633 36.0137ZM23.137 38.6666C22.8823 38.2358 22.7334 37.7265 22.7334 37.2666C22.7334 36.5294 23.024 35.8652 23.5235 35.3798C23.619 35.2912 23.7208 35.2095 23.8283 35.1355C23.9324 35.1363 24.0372 35.1146 24.1334 35.0666C25.6 34.2666 27.3334 34.9999 27.8667 36.4666C27.9334 36.6666 28.1334 36.8666 28.4667 36.8666C28.53 36.8666 28.6 36.8464 28.6703 36.8106C28.8376 36.7832 28.9698 36.6604 29.0667 36.4666C29.3251 35.9176 29.7251 35.4793 30.212 35.172C30.317 35.1427 30.4073 35.0909 30.4791 35.0205C30.937 34.7903 31.456 34.6666 32.0001 34.6666C33.8667 34.6666 35.3334 36.1332 35.3334 37.9999C35.3334 38.1999 35.3334 38.4666 35.2668 38.6666H23.137Z" fill="white"/>
<path d="M22 17.3333C21.6 17.3333 21.3334 17.5999 21.3334 17.9999V19.3333C21.3334 19.7333 21.6 19.9999 22 19.9999C22.4 19.9999 22.6666 19.7333 22.6666 19.3333V17.9999C22.6666 17.5999 22.4 17.3333 22 17.3333Z" fill="white"/>
<path d="M22 29.3333C21.6 29.3333 21.3334 29.5999 21.3334 29.9999V31.3333C21.3334 31.7333 21.6 31.9999 22 31.9999C22.4 31.9999 22.6666 31.7333 22.6666 31.3333V29.9999C22.6666 29.5999 22.4 29.3333 22 29.3333Z" fill="white"/>
<path d="M22 21.3333C21.6 21.3333 21.3334 21.5999 21.3334 21.9999V23.3333C21.3334 23.7333 21.6 23.9999 22 23.9999C22.4 23.9999 22.6666 23.7333 22.6666 23.3333V21.9999C22.6666 21.5999 22.4 21.3333 22 21.3333Z" fill="white"/>
<path d="M22 25.3333C21.6 25.3333 21.3334 25.5999 21.3334 25.9999V27.3333C21.3334 27.7333 21.6 27.9999 22 27.9999C22.4 27.9999 22.6666 27.7333 22.6666 27.3333V25.9999C22.6666 25.5999 22.4 25.3333 22 25.3333Z" fill="white"/>
<path d="M22 13.3333C21.6 13.3333 21.3334 13.5999 21.3334 13.9999V15.3333C21.3334 15.7333 21.6 15.9999 22 15.9999C22.4 15.9999 22.6666 15.7333 22.6666 15.3333V13.9999C22.6666 13.5999 22.4 13.3333 22 13.3333Z" fill="white"/>
<path d="M26 19.9999C26.4 19.9999 26.6666 19.7333 26.6666 19.3333V17.9999C26.6666 17.5999 26.4 17.3333 26 17.3333C25.6 17.3333 25.3334 17.5999 25.3334 17.9999V19.3333C25.3334 19.7333 25.6 19.9999 26 19.9999Z" fill="white"/>
<path d="M26 15.9999C26.4 15.9999 26.6666 15.7333 26.6666 15.3333V13.9999C26.6666 13.5999 26.4 13.3333 26 13.3333C25.6 13.3333 25.3334 13.5999 25.3334 13.9999V15.3333C25.3334 15.7333 25.6 15.9999 26 15.9999Z" fill="white"/>
<path d="M26 23.9999C26.4 23.9999 26.6666 23.7333 26.6666 23.3333V21.9999C26.6666 21.5999 26.4 21.3333 26 21.3333C25.6 21.3333 25.3334 21.5999 25.3334 21.9999V23.3333C25.3334 23.7333 25.6 23.9999 26 23.9999Z" fill="white"/>
<path d="M26 27.9999C26.4 27.9999 26.6666 27.7333 26.6666 27.3333V25.9999C26.6666 25.5999 26.4 25.3333 26 25.3333C25.6 25.3333 25.3334 25.5999 25.3334 25.9999V27.3333C25.3334 27.7333 25.6 27.9999 26 27.9999Z" fill="white"/>
<path d="M26 31.9999C26.4 31.9999 26.6666 31.7333 26.6666 31.3333V29.9999C26.6666 29.5999 26.4 29.3333 26 29.3333C25.6 29.3333 25.3334 29.5999 25.3334 29.9999V31.3333C25.3334 31.7333 25.6 31.9999 26 31.9999Z" fill="white"/>
<path d="M30 23.9999C30.4 23.9999 30.6666 23.7333 30.6666 23.3333V21.9999C30.6666 21.5999 30.4 21.3333 30 21.3333C29.6 21.3333 29.3334 21.5999 29.3334 21.9999V23.3333C29.3334 23.7333 29.6 23.9999 30 23.9999Z" fill="white"/>
<path d="M30 19.9999C30.4 19.9999 30.6666 19.7333 30.6666 19.3333V17.9999C30.6666 17.5999 30.4 17.3333 30 17.3333C29.6 17.3333 29.3334 17.5999 29.3334 17.9999V19.3333C29.3334 19.7333 29.6 19.9999 30 19.9999Z" fill="white"/>
<path d="M30 31.9999C30.4 31.9999 30.6666 31.7333 30.6666 31.3333V29.9999C30.6666 29.5999 30.4 29.3333 30 29.3333C29.6 29.3333 29.3334 29.5999 29.3334 29.9999V31.3333C29.3334 31.7333 29.6 31.9999 30 31.9999Z" fill="white"/>
<path d="M30 27.9999C30.4 27.9999 30.6666 27.7333 30.6666 27.3333V25.9999C30.6666 25.5999 30.4 25.3333 30 25.3333C29.6 25.3333 29.3334 25.5999 29.3334 25.9999V27.3333C29.3334 27.7333 29.6 27.9999 30 27.9999Z" fill="white"/>
<path d="M30 15.9999C30.4 15.9999 30.6666 15.7333 30.6666 15.3333V13.9999C30.6666 13.5999 30.4 13.3333 30 13.3333C29.6 13.3333 29.3334 13.5999 29.3334 13.9999V15.3333C29.3334 15.7333 29.6 15.9999 30 15.9999Z" fill="white"/>
<path d="M7.33336 25.3334C7.73336 25.3334 8 25.0667 8 24.6667V23.3334C8 22.9334 7.73336 22.6667 7.33336 22.6667C6.93336 22.6667 6.66672 22.9334 6.66672 23.3334V24.6667C6.66664 25.0667 6.93336 25.3334 7.33336 25.3334Z" fill="white"/>
<path d="M7.33336 29.3334C7.73336 29.3334 8 29.0667 8 28.6667V27.3334C8 26.9334 7.73336 26.6667 7.33336 26.6667C6.93336 26.6667 6.66672 26.9334 6.66672 27.3334V28.6667C6.66664 29.0667 6.93336 29.3334 7.33336 29.3334Z" fill="white"/>
<path d="M7.33336 33.3334C7.73336 33.3334 8 33.0667 8 32.6667V31.3334C8 30.9334 7.73336 30.6667 7.33336 30.6667C6.93336 30.6667 6.66672 30.9334 6.66672 31.3334V32.6667C6.66664 33.0667 6.93336 33.3334 7.33336 33.3334Z" fill="white"/>
<path d="M7.33336 5.33339C7.73336 5.33339 8 5.06675 8 4.66675V3.33339C8 2.93339 7.73336 2.66675 7.33336 2.66675C6.93336 2.66675 6.66672 2.93339 6.66672 3.33339V4.66675C6.66664 5.06667 6.93336 5.33339 7.33336 5.33339Z" fill="white"/>
<path d="M7.33336 9.33339C7.73336 9.33339 8 9.06675 8 8.66675V7.33339C8 6.93339 7.73336 6.66675 7.33336 6.66675C6.93336 6.66675 6.66672 6.93339 6.66672 7.33339V8.66675C6.66664 9.06667 6.93336 9.33339 7.33336 9.33339Z" fill="white"/>
<path d="M7.33336 13.3334C7.73336 13.3334 8 13.0667 8 12.6667V11.3334C8 10.9334 7.73336 10.6667 7.33336 10.6667C6.93336 10.6667 6.66672 10.9334 6.66672 11.3334V12.6667C6.66664 13.0667 6.93336 13.3334 7.33336 13.3334Z" fill="white"/>
<path d="M7.33336 17.3334C7.73336 17.3334 8 17.0667 8 16.6667V15.3334C8 14.9334 7.73336 14.6667 7.33336 14.6667C6.93336 14.6667 6.66672 14.9334 6.66672 15.3334V16.6667C6.66664 17.0667 6.93336 17.3334 7.33336 17.3334Z" fill="white"/>
<path d="M7.33336 21.3334C7.73336 21.3334 8 21.0667 8 20.6667V19.3334C8 18.9334 7.73336 18.6667 7.33336 18.6667C6.93336 18.6667 6.66672 18.9334 6.66672 19.3334V20.6667C6.66664 21.0667 6.93336 21.3334 7.33336 21.3334Z" fill="white"/>
<path d="M11.3334 9.33339C11.7334 9.33339 12 9.06675 12 8.66675V7.33339C12 6.93339 11.7334 6.66675 11.3334 6.66675C10.9334 6.66675 10.6667 6.93339 10.6667 7.33339V8.66675C10.6666 9.06667 10.9334 9.33339 11.3334 9.33339Z" fill="white"/>
<path d="M11.3334 5.33339C11.7334 5.33339 12 5.06675 12 4.66675V3.33339C12 2.93339 11.7334 2.66675 11.3334 2.66675C10.9334 2.66675 10.6667 2.93339 10.6667 3.33339V4.66675C10.6666 5.06667 10.9334 5.33339 11.3334 5.33339Z" fill="white"/>
<path d="M11.3334 17.3334C11.7334 17.3334 12 17.0667 12 16.6667V15.3334C12 14.9334 11.7334 14.6667 11.3334 14.6667C10.9334 14.6667 10.6667 14.9334 10.6667 15.3334V16.6667C10.6666 17.0667 10.9334 17.3334 11.3334 17.3334Z" fill="white"/>
<path d="M11.3334 13.3334C11.7334 13.3334 12 13.0667 12 12.6667V11.3334C12 10.9334 11.7334 10.6667 11.3334 10.6667C10.9334 10.6667 10.6667 10.9334 10.6667 11.3334V12.6667C10.6666 13.0667 10.9334 13.3334 11.3334 13.3334Z" fill="white"/>
<path d="M11.3334 21.3334C11.7334 21.3334 12 21.0667 12 20.6667V19.3334C12 18.9334 11.7334 18.6667 11.3334 18.6667C10.9334 18.6667 10.6667 18.9334 10.6667 19.3334V20.6667C10.6666 21.0667 10.9334 21.3334 11.3334 21.3334Z" fill="white"/>
<path d="M11.3334 25.3334C11.7334 25.3334 12 25.0667 12 24.6667V23.3334C12 22.9334 11.7334 22.6667 11.3334 22.6667C10.9334 22.6667 10.6667 22.9334 10.6667 23.3334V24.6667C10.6666 25.0667 10.9334 25.3334 11.3334 25.3334Z" fill="white"/>
<path d="M11.3334 29.3334C11.7334 29.3334 12 29.0667 12 28.6667V27.3334C12 26.9334 11.7334 26.6667 11.3334 26.6667C10.9334 26.6667 10.6667 26.9334 10.6667 27.3334V28.6667C10.6666 29.0667 10.9334 29.3334 11.3334 29.3334Z" fill="white"/>
<path d="M15.3334 13.3334C15.7334 13.3334 16 13.0667 16 12.6667V11.3334C16 10.9334 15.7334 10.6667 15.3334 10.6667C14.9334 10.6667 14.6667 10.9334 14.6667 11.3334V12.6667C14.6666 13.0667 14.9334 13.3334 15.3334 13.3334Z" fill="white"/>
<path d="M15.3334 9.33339C15.7334 9.33339 16 9.06675 16 8.66675V7.33339C16 6.93339 15.7334 6.66675 15.3334 6.66675C14.9334 6.66675 14.6667 6.93339 14.6667 7.33339V8.66675C14.6666 9.06667 14.9334 9.33339 15.3334 9.33339Z" fill="white"/>
<path d="M15.3334 5.33339C15.7334 5.33339 16 5.06675 16 4.66675V3.33339C16 2.93339 15.7334 2.66675 15.3334 2.66675C14.9334 2.66675 14.6667 2.93339 14.6667 3.33339V4.66675C14.6666 5.06667 14.9334 5.33339 15.3334 5.33339Z" fill="white"/>
<path d="M15.3334 29.3334C15.7334 29.3334 16 29.0667 16 28.6667V27.3334C16 26.9334 15.7334 26.6667 15.3334 26.6667C14.9334 26.6667 14.6667 26.9334 14.6667 27.3334V28.6667C14.6666 29.0667 14.9334 29.3334 15.3334 29.3334Z" fill="white"/>
<path d="M15.3334 25.3334C15.7334 25.3334 16 25.0667 16 24.6667V23.3334C16 22.9334 15.7334 22.6667 15.3334 22.6667C14.9334 22.6667 14.6667 22.9334 14.6667 23.3334V24.6667C14.6666 25.0667 14.9334 25.3334 15.3334 25.3334Z" fill="white"/>
<path d="M15.3334 21.3334C15.7334 21.3334 16 21.0667 16 20.6667V19.3334C16 18.9334 15.7334 18.6667 15.3334 18.6667C14.9334 18.6667 14.6667 18.9334 14.6667 19.3334V20.6667C14.6666 21.0667 14.9334 21.3334 15.3334 21.3334Z" fill="white"/>
<path d="M15.3334 17.3334C15.7334 17.3334 16 17.0667 16 16.6667V15.3334C16 14.9334 15.7334 14.6667 15.3334 14.6667C14.9334 14.6667 14.6667 14.9334 14.6667 15.3334V16.6667C14.6666 17.0667 14.9334 17.3334 15.3334 17.3334Z" fill="white"/>
<path d="M19.3334 9.33339C19.7334 9.33339 20 9.06675 20 8.66675V7.33339C20 6.93339 19.7334 6.66675 19.3334 6.66675C18.9334 6.66675 18.6667 6.93339 18.6667 7.33339V8.66675C18.6666 9.06667 18.9334 9.33339 19.3334 9.33339Z" fill="white"/>
<path d="M19.3334 5.33339C19.7334 5.33339 20 5.06675 20 4.66675V3.33339C20 2.93339 19.7334 2.66675 19.3334 2.66675C18.9334 2.66675 18.6667 2.93339 18.6667 3.33339V4.66675C18.6666 5.06667 18.9334 5.33339 19.3334 5.33339Z" fill="white"/>
</g>
<defs>
<clipPath id="clip0_2126_9269">
<rect width="40" height="40" fill="white"/>
</clipPath>
</defs>
</svg>
