<svg width="40" height="40" viewBox="0 0 40 40" fill="none" xmlns="http://www.w3.org/2000/svg">
<g id="icon">
<path id="Vector" d="M39.3334 38.6666H36.6255C36.6539 38.4476 36.6667 38.2239 36.6667 38C36.6667 36.1183 35.5838 34.5165 34.0001 33.7748V11.3333C34.0001 10.9333 33.7334 10.6667 33.3334 10.6667H23.3334V0.666702C23.3334 0.266702 23.0668 6.10523e-05 22.6668 6.10523e-05H4.6668C4.26664 -1.70727e-05 4 0.266624 4 0.666624V38.6666H0.666641C0.266641 38.6666 0 38.9333 0 39.3333C0 39.7333 0.266641 40 0.666641 40H4.66664H6.66664H22.6666H35.8H39.3334C39.7334 40 40 39.7333 40 39.3333C40 38.9333 39.7334 38.6666 39.3334 38.6666ZM32.6666 33.3804C32.4491 33.35 32.2267 33.3333 32 33.3333C31.4967 33.3333 31.003 33.419 30.5366 33.5792C30.4205 33.4244 30.2332 33.3333 30 33.3333C29.6 33.3333 29.3334 33.5999 29.3334 33.9999V34.2042C29.0807 34.3862 28.8458 34.5939 28.6326 34.8247C28.5989 34.8604 28.5658 34.8965 28.5334 34.9332C27.9809 34.2426 27.2694 33.7431 26.4648 33.4999C26.3493 33.3939 26.19 33.3332 26 33.3332C25.9257 33.3332 25.856 33.3425 25.7917 33.3601C25.6412 33.3425 25.4883 33.3332 25.3334 33.3332C24.9155 33.3332 24.4451 33.3874 24.0639 33.5422C24.0167 33.5581 23.9698 33.5745 23.9234 33.5921C23.4627 33.2176 22.9239 32.948 22.3561 32.7996C22.3501 32.798 22.3439 32.7968 22.338 32.7951C22.2884 32.7824 22.2388 32.7703 22.1888 32.7594C22.1484 32.7505 22.1074 32.7428 22.0666 32.7351C22.0488 32.7319 22.0311 32.7283 22.0133 32.7253C21.9704 32.7179 21.9273 32.7113 21.884 32.7053C21.8646 32.7026 21.8452 32.7001 21.8258 32.6977C21.786 32.6928 21.7461 32.6882 21.7059 32.6845C21.6766 32.6818 21.6473 32.6797 21.6179 32.6776C21.5865 32.6754 21.5552 32.6729 21.5235 32.6714C21.4602 32.6683 21.3968 32.6665 21.3334 32.6665C21.2843 32.6665 21.2356 32.6675 21.1872 32.6693C21.1555 32.6704 21.1238 32.6723 21.0922 32.6741C21.0795 32.6749 21.0667 32.6754 21.0541 32.6763C20.4467 32.7166 19.85 32.888 19.3333 33.1916V12H22.6666H32.6666V33.3804ZM5.33336 1.33334H22V10.6667H18.6666C18.2666 10.6667 18 10.9333 18 11.3333V32.0667C17.6593 31.726 17.2666 31.4378 16.839 31.2122C16.8013 31.1921 16.7631 31.1726 16.7248 31.1535C16.7098 31.1461 16.6948 31.1383 16.6797 31.1311C16.2039 30.9003 15.6862 30.7489 15.1452 30.6922C15.1376 30.6915 15.1299 30.6908 15.1223 30.6901C15.0595 30.6838 14.9963 30.6789 14.9329 30.6752C14.9161 30.6742 14.8993 30.6732 14.8824 30.6723C14.8108 30.669 14.7389 30.6667 14.6666 30.6667C13.6745 30.6667 12.7552 30.993 12 31.5415V31.3334C12 30.9334 11.7334 30.6668 11.3334 30.6668C10.9334 30.6668 10.6667 30.9334 10.6667 31.3334V32.6668C10.6667 32.7668 10.6834 32.8584 10.7146 32.9397C10.3873 33.4791 10.1617 34.0872 10.0667 34.7335C9.29922 34.8212 8.59742 35.0974 8.00008 35.5103V35.3335C8.00008 34.9335 7.73344 34.6669 7.33344 34.6669C6.93344 34.6669 6.6668 34.9335 6.6668 35.3335V36.6669C6.6668 36.7447 6.67719 36.8172 6.69641 36.884C6.36586 37.4186 6.14094 38.0235 6.04828 38.6668H5.33352V1.33334H5.33336ZM10.3633 36.0138C10.3765 36.0126 10.3898 36.0119 10.4031 36.0108C10.4383 36.0081 10.4734 36.0055 10.5089 36.0038C10.5612 36.0015 10.6137 35.9999 10.6667 35.9999C11.0667 35.9999 11.3334 35.7333 11.3334 35.3333C11.3334 33.4666 12.8 31.9999 14.6667 31.9999C16.3334 31.9999 17.7334 33.1999 17.9334 34.8665C17.9784 35.0469 18.0855 35.1954 18.2319 35.2942C18.2411 35.3007 18.2505 35.3068 18.2602 35.3128C18.2705 35.3191 18.2807 35.3255 18.2914 35.3313C18.316 35.3449 18.3416 35.3573 18.3684 35.368C18.3694 35.3684 18.3703 35.3688 18.3713 35.3693C18.4019 35.3815 18.4338 35.3917 18.4666 35.3999C18.4667 35.3999 18.4667 35.3999 18.4668 35.4C18.5065 35.4132 18.5516 35.4183 18.5992 35.4168C18.8184 35.42 19.0222 35.3001 19.1334 35.1335C19.1334 35.1334 19.1334 35.1334 19.1335 35.1333L19.2002 35.0667C19.7335 34.4001 20.4668 34.0001 21.3335 34.0001C21.7837 34.0001 22.2336 34.1262 22.6374 34.3619C21.8422 35.1097 21.3912 36.0844 21.3388 37.1274C21.3353 37.1956 21.3335 37.2644 21.3335 37.3334C21.3335 37.797 21.4106 38.2413 21.5632 38.6668H7.4C7.71203 37.2314 8.90031 36.1467 10.3633 36.0138ZM23.137 38.6666C22.8823 38.2358 22.7334 37.7265 22.7334 37.2666C22.7334 36.5294 23.024 35.8653 23.5235 35.3798C23.619 35.2913 23.7208 35.2096 23.8283 35.1356C23.9324 35.1364 24.0372 35.1147 24.1334 35.0666C25.6 34.2666 27.3334 35 27.8667 36.4666C27.9334 36.6666 28.1334 36.8666 28.4667 36.8666C28.53 36.8666 28.6 36.8465 28.6703 36.8107C28.8376 36.7833 28.9698 36.6605 29.0667 36.4666C29.3251 35.9176 29.7251 35.4794 30.212 35.1721C30.317 35.1428 30.4073 35.0909 30.4791 35.0205C30.937 34.7904 31.456 34.6666 32.0001 34.6666C33.8667 34.6666 35.3334 36.1333 35.3334 38C35.3334 38.2 35.3334 38.4666 35.2668 38.6666H23.137Z" fill="#F8B540"/>
<path id="Vector_2" d="M21.9999 17.3334C21.5999 17.3334 21.3333 17.6 21.3333 18V19.3334C21.3333 19.7334 21.5999 20 21.9999 20C22.3999 20 22.6665 19.7334 22.6665 19.3334V18C22.6665 17.6 22.3999 17.3334 21.9999 17.3334Z" fill="#F8B540"/>
<path id="Vector_3" d="M21.9999 29.3334C21.5999 29.3334 21.3333 29.6 21.3333 30V31.3334C21.3333 31.7334 21.5999 32 21.9999 32C22.3999 32 22.6665 31.7334 22.6665 31.3334V30C22.6665 29.6 22.3999 29.3334 21.9999 29.3334Z" fill="#F8B540"/>
<path id="Vector_4" d="M21.9999 21.3334C21.5999 21.3334 21.3333 21.6 21.3333 22V23.3334C21.3333 23.7334 21.5999 24 21.9999 24C22.3999 24 22.6665 23.7334 22.6665 23.3334V22C22.6665 21.6 22.3999 21.3334 21.9999 21.3334Z" fill="#F8B540"/>
<path id="Vector_5" d="M21.9999 25.3334C21.5999 25.3334 21.3333 25.6 21.3333 26V27.3334C21.3333 27.7334 21.5999 28 21.9999 28C22.3999 28 22.6665 27.7334 22.6665 27.3334V26C22.6665 25.6 22.3999 25.3334 21.9999 25.3334Z" fill="#F8B540"/>
<path id="Vector_6" d="M21.9999 13.3334C21.5999 13.3334 21.3333 13.6 21.3333 14V15.3334C21.3333 15.7334 21.5999 16 21.9999 16C22.3999 16 22.6665 15.7334 22.6665 15.3334V14C22.6665 13.6 22.3999 13.3334 21.9999 13.3334Z" fill="#F8B540"/>
<path id="Vector_7" d="M25.9999 20C26.3999 20 26.6665 19.7334 26.6665 19.3334V18C26.6665 17.6 26.3999 17.3334 25.9999 17.3334C25.5999 17.3334 25.3333 17.6 25.3333 18V19.3334C25.3333 19.7334 25.5999 20 25.9999 20Z" fill="#F8B540"/>
<path id="Vector_8" d="M25.9999 16C26.3999 16 26.6665 15.7334 26.6665 15.3334V14C26.6665 13.6 26.3999 13.3334 25.9999 13.3334C25.5999 13.3334 25.3333 13.6 25.3333 14V15.3334C25.3333 15.7334 25.5999 16 25.9999 16Z" fill="#F8B540"/>
<path id="Vector_9" d="M25.9999 24C26.3999 24 26.6665 23.7334 26.6665 23.3334V22C26.6665 21.6 26.3999 21.3334 25.9999 21.3334C25.5999 21.3334 25.3333 21.6 25.3333 22V23.3334C25.3333 23.7334 25.5999 24 25.9999 24Z" fill="#F8B540"/>
<path id="Vector_10" d="M25.9999 28C26.3999 28 26.6665 27.7334 26.6665 27.3334V26C26.6665 25.6 26.3999 25.3334 25.9999 25.3334C25.5999 25.3334 25.3333 25.6 25.3333 26V27.3334C25.3333 27.7334 25.5999 28 25.9999 28Z" fill="#F8B540"/>
<path id="Vector_11" d="M25.9999 32C26.3999 32 26.6665 31.7334 26.6665 31.3334V30C26.6665 29.6 26.3999 29.3334 25.9999 29.3334C25.5999 29.3334 25.3333 29.6 25.3333 30V31.3334C25.3333 31.7334 25.5999 32 25.9999 32Z" fill="#F8B540"/>
<path id="Vector_12" d="M29.9999 24C30.3999 24 30.6665 23.7334 30.6665 23.3334V22C30.6665 21.6 30.3999 21.3334 29.9999 21.3334C29.5999 21.3334 29.3333 21.6 29.3333 22V23.3334C29.3333 23.7334 29.5999 24 29.9999 24Z" fill="#F8B540"/>
<path id="Vector_13" d="M29.9999 20C30.3999 20 30.6665 19.7334 30.6665 19.3334V18C30.6665 17.6 30.3999 17.3334 29.9999 17.3334C29.5999 17.3334 29.3333 17.6 29.3333 18V19.3334C29.3333 19.7334 29.5999 20 29.9999 20Z" fill="#F8B540"/>
<path id="Vector_14" d="M29.9999 32C30.3999 32 30.6665 31.7334 30.6665 31.3334V30C30.6665 29.6 30.3999 29.3334 29.9999 29.3334C29.5999 29.3334 29.3333 29.6 29.3333 30V31.3334C29.3333 31.7334 29.5999 32 29.9999 32Z" fill="#F8B540"/>
<path id="Vector_15" d="M29.9999 28C30.3999 28 30.6665 27.7334 30.6665 27.3334V26C30.6665 25.6 30.3999 25.3334 29.9999 25.3334C29.5999 25.3334 29.3333 25.6 29.3333 26V27.3334C29.3333 27.7334 29.5999 28 29.9999 28Z" fill="#F8B540"/>
<path id="Vector_16" d="M29.9999 16C30.3999 16 30.6665 15.7334 30.6665 15.3334V14C30.6665 13.6 30.3999 13.3334 29.9999 13.3334C29.5999 13.3334 29.3333 13.6 29.3333 14V15.3334C29.3333 15.7334 29.5999 16 29.9999 16Z" fill="#F8B540"/>
<path id="Vector_17" d="M7.33339 25.3334C7.73339 25.3334 8.00003 25.0667 8.00003 24.6667V23.3334C8.00003 22.9334 7.73339 22.6667 7.33339 22.6667C6.93339 22.6667 6.66675 22.9334 6.66675 23.3334V24.6667C6.66667 25.0667 6.93339 25.3334 7.33339 25.3334Z" fill="#F8B540"/>
<path id="Vector_18" d="M7.33339 29.3334C7.73339 29.3334 8.00003 29.0667 8.00003 28.6667V27.3334C8.00003 26.9334 7.73339 26.6667 7.33339 26.6667C6.93339 26.6667 6.66675 26.9334 6.66675 27.3334V28.6667C6.66667 29.0667 6.93339 29.3334 7.33339 29.3334Z" fill="#F8B540"/>
<path id="Vector_19" d="M7.33339 33.3334C7.73339 33.3334 8.00003 33.0667 8.00003 32.6667V31.3334C8.00003 30.9334 7.73339 30.6667 7.33339 30.6667C6.93339 30.6667 6.66675 30.9334 6.66675 31.3334V32.6667C6.66667 33.0667 6.93339 33.3334 7.33339 33.3334Z" fill="#F8B540"/>
<path id="Vector_20" d="M7.33339 5.33339C7.73339 5.33339 8.00003 5.06675 8.00003 4.66675V3.33339C8.00003 2.93339 7.73339 2.66675 7.33339 2.66675C6.93339 2.66675 6.66675 2.93339 6.66675 3.33339V4.66675C6.66667 5.06667 6.93339 5.33339 7.33339 5.33339Z" fill="#F8B540"/>
<path id="Vector_21" d="M7.33339 9.33339C7.73339 9.33339 8.00003 9.06675 8.00003 8.66675V7.33339C8.00003 6.93339 7.73339 6.66675 7.33339 6.66675C6.93339 6.66675 6.66675 6.93339 6.66675 7.33339V8.66675C6.66667 9.06667 6.93339 9.33339 7.33339 9.33339Z" fill="#F8B540"/>
<path id="Vector_22" d="M7.33339 13.3334C7.73339 13.3334 8.00003 13.0667 8.00003 12.6667V11.3334C8.00003 10.9334 7.73339 10.6667 7.33339 10.6667C6.93339 10.6667 6.66675 10.9334 6.66675 11.3334V12.6667C6.66667 13.0667 6.93339 13.3334 7.33339 13.3334Z" fill="#F8B540"/>
<path id="Vector_23" d="M7.33339 17.3334C7.73339 17.3334 8.00003 17.0667 8.00003 16.6667V15.3334C8.00003 14.9334 7.73339 14.6667 7.33339 14.6667C6.93339 14.6667 6.66675 14.9334 6.66675 15.3334V16.6667C6.66667 17.0667 6.93339 17.3334 7.33339 17.3334Z" fill="#F8B540"/>
<path id="Vector_24" d="M7.33339 21.3334C7.73339 21.3334 8.00003 21.0667 8.00003 20.6667V19.3334C8.00003 18.9334 7.73339 18.6667 7.33339 18.6667C6.93339 18.6667 6.66675 18.9334 6.66675 19.3334V20.6667C6.66667 21.0667 6.93339 21.3334 7.33339 21.3334Z" fill="#F8B540"/>
<path id="Vector_25" d="M11.3334 9.33339C11.7334 9.33339 12 9.06675 12 8.66675V7.33339C12 6.93339 11.7334 6.66675 11.3334 6.66675C10.9334 6.66675 10.6667 6.93339 10.6667 7.33339V8.66675C10.6667 9.06667 10.9334 9.33339 11.3334 9.33339Z" fill="#F8B540"/>
<path id="Vector_26" d="M11.3334 5.33339C11.7334 5.33339 12 5.06675 12 4.66675V3.33339C12 2.93339 11.7334 2.66675 11.3334 2.66675C10.9334 2.66675 10.6667 2.93339 10.6667 3.33339V4.66675C10.6667 5.06667 10.9334 5.33339 11.3334 5.33339Z" fill="#F8B540"/>
<path id="Vector_27" d="M11.3334 17.3334C11.7334 17.3334 12 17.0667 12 16.6667V15.3334C12 14.9334 11.7334 14.6667 11.3334 14.6667C10.9334 14.6667 10.6667 14.9334 10.6667 15.3334V16.6667C10.6667 17.0667 10.9334 17.3334 11.3334 17.3334Z" fill="#F8B540"/>
<path id="Vector_28" d="M11.3334 13.3334C11.7334 13.3334 12 13.0667 12 12.6667V11.3334C12 10.9334 11.7334 10.6667 11.3334 10.6667C10.9334 10.6667 10.6667 10.9334 10.6667 11.3334V12.6667C10.6667 13.0667 10.9334 13.3334 11.3334 13.3334Z" fill="#F8B540"/>
<path id="Vector_29" d="M11.3334 21.3334C11.7334 21.3334 12 21.0667 12 20.6667V19.3334C12 18.9334 11.7334 18.6667 11.3334 18.6667C10.9334 18.6667 10.6667 18.9334 10.6667 19.3334V20.6667C10.6667 21.0667 10.9334 21.3334 11.3334 21.3334Z" fill="#F8B540"/>
<path id="Vector_30" d="M11.3334 25.3334C11.7334 25.3334 12 25.0667 12 24.6667V23.3334C12 22.9334 11.7334 22.6667 11.3334 22.6667C10.9334 22.6667 10.6667 22.9334 10.6667 23.3334V24.6667C10.6667 25.0667 10.9334 25.3334 11.3334 25.3334Z" fill="#F8B540"/>
<path id="Vector_31" d="M11.3334 29.3334C11.7334 29.3334 12 29.0667 12 28.6667V27.3334C12 26.9334 11.7334 26.6667 11.3334 26.6667C10.9334 26.6667 10.6667 26.9334 10.6667 27.3334V28.6667C10.6667 29.0667 10.9334 29.3334 11.3334 29.3334Z" fill="#F8B540"/>
<path id="Vector_32" d="M15.3334 13.3334C15.7334 13.3334 16 13.0667 16 12.6667V11.3334C16 10.9334 15.7334 10.6667 15.3334 10.6667C14.9334 10.6667 14.6667 10.9334 14.6667 11.3334V12.6667C14.6667 13.0667 14.9334 13.3334 15.3334 13.3334Z" fill="#F8B540"/>
<path id="Vector_33" d="M15.3334 9.33339C15.7334 9.33339 16 9.06675 16 8.66675V7.33339C16 6.93339 15.7334 6.66675 15.3334 6.66675C14.9334 6.66675 14.6667 6.93339 14.6667 7.33339V8.66675C14.6667 9.06667 14.9334 9.33339 15.3334 9.33339Z" fill="#F8B540"/>
<path id="Vector_34" d="M15.3334 5.33339C15.7334 5.33339 16 5.06675 16 4.66675V3.33339C16 2.93339 15.7334 2.66675 15.3334 2.66675C14.9334 2.66675 14.6667 2.93339 14.6667 3.33339V4.66675C14.6667 5.06667 14.9334 5.33339 15.3334 5.33339Z" fill="#F8B540"/>
<path id="Vector_35" d="M15.3334 29.3334C15.7334 29.3334 16 29.0667 16 28.6667V27.3334C16 26.9334 15.7334 26.6667 15.3334 26.6667C14.9334 26.6667 14.6667 26.9334 14.6667 27.3334V28.6667C14.6667 29.0667 14.9334 29.3334 15.3334 29.3334Z" fill="#F8B540"/>
<path id="Vector_36" d="M15.3334 25.3334C15.7334 25.3334 16 25.0667 16 24.6667V23.3334C16 22.9334 15.7334 22.6667 15.3334 22.6667C14.9334 22.6667 14.6667 22.9334 14.6667 23.3334V24.6667C14.6667 25.0667 14.9334 25.3334 15.3334 25.3334Z" fill="#F8B540"/>
<path id="Vector_37" d="M15.3334 21.3334C15.7334 21.3334 16 21.0667 16 20.6667V19.3334C16 18.9334 15.7334 18.6667 15.3334 18.6667C14.9334 18.6667 14.6667 18.9334 14.6667 19.3334V20.6667C14.6667 21.0667 14.9334 21.3334 15.3334 21.3334Z" fill="#F8B540"/>
<path id="Vector_38" d="M15.3334 17.3334C15.7334 17.3334 16 17.0667 16 16.6667V15.3334C16 14.9334 15.7334 14.6667 15.3334 14.6667C14.9334 14.6667 14.6667 14.9334 14.6667 15.3334V16.6667C14.6667 17.0667 14.9334 17.3334 15.3334 17.3334Z" fill="#F8B540"/>
<path id="Vector_39" d="M19.3334 9.33339C19.7334 9.33339 20 9.06675 20 8.66675V7.33339C20 6.93339 19.7334 6.66675 19.3334 6.66675C18.9334 6.66675 18.6667 6.93339 18.6667 7.33339V8.66675C18.6667 9.06667 18.9334 9.33339 19.3334 9.33339Z" fill="#F8B540"/>
<path id="Vector_40" d="M19.3334 5.33339C19.7334 5.33339 20 5.06675 20 4.66675V3.33339C20 2.93339 19.7334 2.66675 19.3334 2.66675C18.9334 2.66675 18.6667 2.93339 18.6667 3.33339V4.66675C18.6667 5.06667 18.9334 5.33339 19.3334 5.33339Z" fill="#F8B540"/>
</g>
</svg>
