<svg xmlns="http://www.w3.org/2000/svg" width="40" height="38" viewBox="0 0 40 38" fill="none">
<path d="M39.202 35.8807H38.2793V15.6871L38.7648 15.9137C38.8721 15.9638 38.9873 15.9885 39.1021 15.9885C39.2518 15.9885 39.4007 15.9465 39.5309 15.8636C39.7609 15.7171 39.9002 15.4632 39.9002 15.1905V11.985C39.9002 11.675 39.7207 11.393 39.4397 11.2618L36.6917 9.97941V4.79587C36.6917 4.35518 36.3344 3.99787 35.8937 3.99787H31.1471C30.7064 3.99787 30.3491 4.35518 30.3491 4.79587V7.01981L15.4662 0.0748761C15.2332 -0.0338521 14.9621 -0.0236775 14.7381 0.102208L0.407182 8.15148C0.155711 8.29283 0 8.55877 0 8.84724V12.0527C0 12.3361 0.150324 12.5983 0.394913 12.7415C0.639601 12.8847 0.941746 12.8873 1.18883 12.7486L1.62095 12.5059V35.8808H0.831222C0.390524 35.8808 0.033217 36.2381 0.033217 36.6788C0.033217 37.1195 0.390524 37.4768 0.831222 37.4768H2.41895H37.4813H39.202C39.6427 37.4768 40 37.1195 40 36.6788C40 36.2381 39.6427 35.8807 39.202 35.8807ZM31.9451 7.73652V5.59388H35.0956V9.23478L31.9437 7.76395C31.944 7.75478 31.9451 7.7458 31.9451 7.73652ZM1.59601 9.31428L15.1625 1.69433L38.3042 12.4933V13.9376L15.4662 3.28036C15.3591 3.23029 15.2439 3.20545 15.1289 3.20545C14.9938 3.20545 14.8591 3.23976 14.7381 3.30769L1.59601 10.6892V9.31428ZM3.21696 35.8807V11.6358C3.21696 11.6271 3.21596 11.6187 3.21566 11.61L15.1625 4.89971L36.6833 14.9423V35.8807H3.21696Z" fill="#F8B540"/>
<path d="M18.3542 22.3207H5.61929C5.1786 22.3207 4.82129 22.678 4.82129 23.1187V33.4991C4.82129 33.9398 5.1786 34.2971 5.61929 34.2971H18.3542C18.7949 34.2971 19.1522 33.9398 19.1522 33.4991V23.1187C19.1522 22.678 18.7949 22.3207 18.3542 22.3207ZM6.4173 23.9167H11.1887V32.7011H6.4173V23.9167ZM17.5562 32.7011H12.7848V23.9167H17.5562V32.7011Z" fill="#F8B540"/>
<path d="M34.3141 22.3207H21.5461C21.1054 22.3207 20.748 22.678 20.748 23.1187V33.4991C20.748 33.9398 21.1054 34.2971 21.5461 34.2971H34.3141C34.7548 34.2971 35.1121 33.9398 35.1121 33.4991V23.1187C35.1121 22.678 34.7548 22.3207 34.3141 22.3207ZM22.3441 23.9167H27.1321V32.7011H22.3441V23.9167ZM33.5161 32.7011H28.7281V23.9167H33.5161V32.7011Z" fill="#F8B540"/>
<path d="M34.6516 15.9307L21.9414 9.99956C21.822 9.9438 21.6961 9.92016 21.5728 9.92515C21.1243 9.90999 20.748 10.2731 20.748 10.7228V19.9497C20.748 20.3904 21.1054 20.7477 21.5461 20.7477H34.3141C34.7548 20.7477 35.1121 20.3904 35.1121 19.9497V16.6539C35.1121 16.3438 34.9326 16.0619 34.6516 15.9307ZM22.3441 11.9487L27.1321 14.183V19.1516H22.3441V11.9487ZM33.5161 19.1517H28.7281V14.9278L33.5161 17.1622V19.1517Z" fill="#F8B540"/>
<path d="M19.1488 9.13929C19.1478 9.12752 19.1464 9.11595 19.145 9.10427C19.1433 9.09091 19.1413 9.07754 19.1389 9.06427C19.1364 9.05061 19.1336 9.03704 19.1304 9.02358C19.1278 9.0127 19.1251 9.00193 19.122 8.99116C19.1179 8.9764 19.1135 8.96193 19.1085 8.94747C19.1052 8.93779 19.1016 8.92821 19.0979 8.91864C19.0923 8.90427 19.0865 8.89021 19.0801 8.87625C19.0757 8.86647 19.071 8.85679 19.0661 8.84712C19.0596 8.83435 19.053 8.82178 19.0458 8.80941C19.0397 8.79874 19.0334 8.78837 19.0268 8.77799C19.02 8.76732 19.0131 8.75684 19.0058 8.74657C18.9978 8.7352 18.9895 8.72413 18.9808 8.71315C18.9739 8.70437 18.9669 8.6958 18.9597 8.68732C18.9501 8.67595 18.94 8.66497 18.9295 8.6541C18.9221 8.64642 18.9148 8.63894 18.9071 8.63156C18.8964 8.62128 18.8853 8.61131 18.8741 8.60153C18.8653 8.59405 18.8564 8.58677 18.8474 8.57959C18.8368 8.57121 18.826 8.56313 18.8149 8.55525C18.8036 8.54727 18.7922 8.53969 18.7805 8.5323C18.7708 8.52622 18.7611 8.52023 18.7512 8.51445C18.737 8.50627 18.7224 8.49869 18.7077 8.49141C18.7022 8.48871 18.6972 8.48552 18.6917 8.48293L15.9319 7.19515C15.6572 7.06697 15.3467 7.10866 15.119 7.27724C15.1048 7.28422 15.0904 7.29061 15.0764 7.29849L5.22857 12.8298C4.96264 12.9792 4.8156 13.2581 4.82159 13.5432C4.82159 13.5452 4.82129 13.5471 4.82129 13.5491V19.9498C4.82129 20.3905 5.1786 20.7478 5.61929 20.7478H18.3542C18.7949 20.7478 19.1522 20.3905 19.1522 19.9498V9.20612C19.1522 9.19984 19.1514 9.19375 19.1513 9.18747C19.1509 9.17141 19.1502 9.15535 19.1488 9.13929ZM6.4173 13.9926L11.1887 11.3126V19.1517H6.4173V13.9926ZM12.7848 19.1517V10.4161L15.6325 8.81659L17.5563 9.71435V19.1516L12.7848 19.1517Z" fill="#F8B540"/>
</svg>