<svg width="101" height="101" viewBox="0 0 101 101" fill="none" xmlns="http://www.w3.org/2000/svg">
<path d="M60.5405 52.6552L45.4284 61.4237C44.1459 62.1671 42.5 61.267 42.5 59.7684V42.2313C42.5 40.7351 44.1435 39.8326 45.4284 40.5783L60.5405 49.3468C60.8322 49.5134 61.0747 49.7541 61.2434 50.0446C61.4121 50.3352 61.5009 50.6651 61.5009 51.001C61.5009 51.337 61.4121 51.6669 61.2434 51.9574C61.0747 52.2479 60.8322 52.4887 60.5405 52.6552Z" fill="white"/>
<circle cx="50.5" cy="50.5" r="28.5" stroke="white" stroke-width="2"/>
<path d="M83.6509 55.0072C83.8029 54.2572 84.0663 53.5915 84.4412 53.0104C84.8161 52.4293 85.2703 51.95 85.8039 51.5724C86.3467 51.1967 86.9413 50.9411 87.5878 50.8054C88.2434 50.6716 88.928 50.677 89.6415 50.8216C90.355 50.9662 90.9831 51.2268 91.5257 51.6034C92.0776 51.9819 92.5257 52.4489 92.8703 53.0044C93.224 53.5617 93.4604 54.181 93.5794 54.8622C93.6985 55.5434 93.683 56.2545 93.5328 56.9955C93.3808 57.7455 93.1183 58.4066 92.7453 58.9786C92.3704 59.5597 91.9116 60.0381 91.3688 60.4138C90.8352 60.7913 90.2406 61.047 89.585 61.1808C88.9385 61.3164 88.2585 61.3119 87.545 61.1673C86.8315 61.0228 86.1988 60.7612 85.647 60.3828C85.0952 60.0043 84.647 59.5373 84.3025 58.9818C83.9579 58.4263 83.7261 57.808 83.607 57.1268C83.4861 56.4547 83.5007 55.7482 83.6509 55.0072ZM85.2178 55.3105C85.1196 55.7953 85.1111 56.2602 85.1923 56.7052C85.2736 57.1502 85.4345 57.5542 85.6752 57.9173C85.9251 58.2822 86.2346 58.5877 86.6037 58.8339C86.9801 59.0911 87.4153 59.2698 87.9092 59.3699C88.4032 59.47 88.869 59.4739 89.3067 59.3817C89.7517 59.3004 90.1558 59.1395 90.5188 58.8988C90.891 58.6599 91.2011 58.3514 91.4492 57.9731C91.6972 57.5948 91.8704 57.1633 91.9686 56.6785C92.0669 56.1937 92.0754 55.7288 91.9941 55.2838C91.911 54.8479 91.7455 54.443 91.4975 54.0689C91.2568 53.7059 90.9483 53.3958 90.5719 53.1386C90.2027 52.8923 89.7712 52.7192 89.2772 52.6191C88.7924 52.5209 88.3275 52.5123 87.8825 52.5936C87.4357 52.684 87.0261 52.8486 86.654 53.0874C86.2909 53.3281 85.9854 53.6376 85.7373 54.0159C85.4892 54.3941 85.3161 54.8257 85.2178 55.3105Z" fill="white"/>
<path d="M79.5003 67.0076C79.8348 66.4903 80.2122 66.0786 80.6325 65.7724C81.0528 65.4662 81.5199 65.2681 82.0338 65.178C82.5505 65.1009 83.1103 65.1461 83.7133 65.3137C84.3162 65.4813 84.9626 65.7881 85.6523 66.2341C86.1539 66.5585 86.5845 66.898 86.9441 67.2528C87.3038 67.6077 87.5924 67.9777 87.8101 68.363C88.0356 68.7533 88.1941 69.1614 88.2855 69.5873C88.3718 70.021 88.3872 70.47 88.3315 70.9342C88.2759 71.3984 88.1507 71.8842 87.9559 72.3918L86.6937 75.7103L85.2401 75.0705L86.4098 72.0756C86.4747 71.9064 86.5443 71.6957 86.6184 71.4436C86.6953 71.2043 86.7459 70.937 86.7703 70.6415C86.7974 70.3589 86.7659 70.0552 86.6759 69.7303C86.5887 69.4182 86.4185 69.097 86.1654 68.7666C85.915 68.4491 85.5468 68.1332 85.0609 67.819C84.912 67.7227 84.7958 67.6531 84.7124 67.6103C84.6317 67.5804 84.5457 67.5414 84.4544 67.4935C84.3659 67.4585 84.2433 67.3903 84.0866 67.289L85.0199 67.1089C85.3183 67.5241 85.5198 67.9601 85.6246 68.4169C85.7321 68.8866 85.7413 69.3537 85.652 69.8184C85.5655 70.2959 85.3803 70.7542 85.0965 71.1931C84.7164 71.7809 84.2579 72.2235 83.721 72.521C83.1841 72.8185 82.6126 72.9546 82.0064 72.9295C81.4003 72.9043 80.819 72.7118 80.2625 72.352C79.6825 71.9769 79.2604 71.5039 78.9961 70.9329C78.7318 70.3619 78.6376 69.7341 78.7134 69.0496C78.7921 68.378 79.0544 67.6973 79.5003 67.0076ZM80.6117 67.893C80.3836 68.2456 80.2579 68.6034 80.2345 68.9661C80.2139 69.3418 80.2887 69.6903 80.4589 70.0115C80.624 70.3406 80.8711 70.6115 81.2003 70.8244C81.5295 71.0372 81.8662 71.1438 82.2106 71.1442C82.5576 71.1574 82.8943 71.0751 83.2206 70.897C83.5419 70.7268 83.8216 70.4576 84.0598 70.0892C84.2878 69.7365 84.4225 69.3735 84.4639 69.0001C84.5002 68.6346 84.4436 68.2923 84.2942 67.9734C84.1475 67.6674 83.9135 67.4105 83.5922 67.2027C83.263 66.9899 82.9106 66.8731 82.5349 66.8525C82.1592 66.8319 81.8043 66.908 81.4702 67.081C81.131 67.2618 80.8448 67.5324 80.6117 67.893Z" fill="white"/>
<path d="M72.9721 75.1579C73.4109 74.7952 73.8877 74.4857 74.4025 74.2296C74.9161 73.9866 75.4259 73.8195 75.9317 73.7282L76.3837 75.0439C75.9724 75.1176 75.5548 75.257 75.1309 75.4621C74.7071 75.6672 74.319 75.9154 73.9665 76.2068C73.6644 76.4566 73.4292 76.6995 73.261 76.9355C73.0987 77.1786 73.0106 77.4089 72.9966 77.6264C72.9754 77.8497 73.0303 78.0406 73.1611 78.1988C73.3514 78.429 73.5949 78.5184 73.8914 78.4669C74.1867 78.4286 74.5178 78.2578 74.8847 77.9545L75.996 77.0357L76.7454 77.942L75.7419 78.7716C75.5118 78.962 75.3384 79.1477 75.2217 79.3289C75.0979 79.516 75.0345 79.6956 75.0314 79.8677C75.0284 80.0398 75.0834 80.1942 75.1964 80.3308C75.3094 80.4675 75.4614 80.5416 75.6526 80.5531C75.8425 80.5777 76.0554 80.5349 76.2912 80.4247C76.533 80.3217 76.7906 80.1571 77.0639 79.9311C77.3516 79.6932 77.6204 79.4105 77.8703 79.0828C78.1129 78.7611 78.336 78.4011 78.5395 78.0027L79.7055 78.7099C79.4754 79.1786 79.2234 79.5989 78.9495 79.9707C78.6744 80.3556 78.3671 80.6944 78.0278 80.9871C77.5206 81.4428 77.0084 81.7754 76.4913 81.985C75.9743 82.1945 75.496 82.2751 75.0564 82.2268C74.6168 82.1785 74.2602 81.9889 73.9866 81.658C73.7606 81.3847 73.6418 81.0651 73.6301 80.6994C73.6171 80.3468 73.7075 79.9875 73.9013 79.6214C74.0879 79.2612 74.3683 78.9265 74.7423 78.6172L74.94 78.9442C74.2998 79.4735 73.6893 79.7604 73.1083 79.8047C72.5333 79.8563 72.0644 79.6627 71.7016 79.2239C71.4102 78.8714 71.2702 78.4604 71.2816 77.9908C71.2989 77.5284 71.4537 77.0492 71.746 76.5532C72.0311 76.0631 72.4398 75.598 72.9721 75.1579Z" fill="white"/>
<path d="M64.7445 80.7681C65.4537 80.4805 66.1465 80.3759 66.8228 80.4542C67.5026 80.5411 68.1113 80.7878 68.6487 81.1943C69.1862 81.6008 69.5934 82.1458 69.8705 82.8291C70.151 83.521 70.2382 84.1957 70.1321 84.8531C70.0295 85.5191 69.7628 86.1157 69.332 86.6428C68.9012 87.17 68.3311 87.5774 67.6219 87.8649C66.904 88.156 66.2069 88.2624 65.5306 88.1841C64.8456 88.1093 64.2405 87.8713 63.7152 87.4699C63.1812 87.072 62.7722 86.5228 62.4882 85.8222C62.2111 85.1389 62.1239 84.4642 62.2265 83.7982C62.3205 83.1357 62.5854 82.5348 63.0214 81.9954C63.4522 81.4683 64.0266 81.0592 64.7445 80.7681ZM65.3073 82.1563C64.9095 82.3176 64.5899 82.5479 64.3487 82.8471C64.1074 83.1464 63.9669 83.4954 63.9272 83.8942C63.8788 84.2966 63.9441 84.7183 64.1229 85.1594C64.3053 85.6092 64.5521 85.9572 64.8635 86.2036C65.1698 86.4622 65.5137 86.6148 65.8952 86.6615C66.2767 86.7083 66.6621 86.6528 67.0513 86.4949C67.4492 86.3336 67.7687 86.1033 68.01 85.8041C68.2426 85.5084 68.3831 85.1594 68.4314 84.757C68.4833 84.3634 68.4181 83.9416 68.2357 83.4919C68.0569 83.0507 67.81 82.7027 67.4951 82.4476C67.1802 82.1926 66.8363 82.04 66.4634 81.9897C66.0819 81.943 65.6966 81.9985 65.3073 82.1563Z" fill="white"/>
<path d="M52.924 83.9126C53.53 83.8845 54.0912 83.9987 54.6076 84.255C55.1147 84.5118 55.5304 84.913 55.8547 85.4586C56.1701 86.0139 56.3479 86.7251 56.388 87.5922C56.4287 88.4686 56.3221 89.193 56.0683 89.7653C55.8052 90.3381 55.4328 90.7711 54.9512 91.0644C54.4701 91.367 53.9125 91.533 53.2785 91.5624C52.5419 91.5965 51.8866 91.4681 51.3125 91.177C50.7291 90.8863 50.2611 90.4642 49.9084 89.9106C49.5464 89.3575 49.3475 88.694 49.3116 87.9201C49.2758 87.1463 49.4123 86.4626 49.7211 85.869C50.0211 85.2851 50.4481 84.8215 51.0021 84.4782C51.5468 84.1353 52.1875 83.9467 52.924 83.9126ZM56.9424 81.1056L57.4142 91.2866L55.7499 91.3638L55.6683 89.6017L55.6322 87.6132L55.4003 85.6338L55.1942 81.1866L56.9424 81.1056ZM53.1891 85.3999C52.7696 85.4194 52.401 85.5299 52.0833 85.7315C51.7563 85.9335 51.5031 86.2162 51.3237 86.5795C51.1444 86.9429 51.0657 87.3623 51.0877 87.8378C51.1102 88.3226 51.2273 88.733 51.4391 89.0689C51.6513 89.4141 51.9295 89.6721 52.2738 89.8431C52.6088 90.0144 52.986 90.0903 53.4056 90.0709C53.8251 90.0515 54.1984 89.9407 54.5254 89.7387C54.8524 89.5367 55.1056 89.254 55.285 88.8906C55.4648 88.5366 55.5434 88.1172 55.521 87.6324C55.4989 87.1569 55.3818 86.7465 55.1696 86.4013C54.9574 86.0561 54.6792 85.798 54.3349 85.6271C53.9906 85.4562 53.6087 85.3805 53.1891 85.3999Z" fill="white"/>
<path d="M40.7956 83.2288L37.6793 90.0244L36.0886 89.2949L37.355 86.5334L33.9318 84.9636L32.6654 87.7251L31.0747 86.9956L34.191 80.2001L35.7817 80.9295L34.5503 83.6146L37.9736 85.1845L39.2049 82.4994L40.7956 83.2288Z" fill="white"/>
<path d="M27.035 75.0304L26.0014 76.134L25.8528 76.436L24.044 78.3672C23.6931 78.7418 23.5343 79.1366 23.5677 79.5515C23.5947 79.9732 23.8364 80.3978 24.2928 80.8253C24.5993 81.1124 24.9471 81.3487 25.3362 81.534C25.7184 81.713 26.0915 81.8131 26.4553 81.8342L26.0851 83.233C25.5816 83.1834 25.0779 83.0249 24.5739 82.7575C24.0567 82.4904 23.5801 82.1528 23.1442 81.7444C22.354 81.0043 21.923 80.2425 21.8511 79.4591C21.7661 78.6761 22.0936 77.8895 22.8337 77.0993L25.8293 73.9011L27.035 75.0304ZM28.8186 76.5668C29.2273 76.9496 29.5212 77.3527 29.7001 77.776C29.8726 78.2062 29.9292 78.6237 29.8698 79.0284C29.7972 79.4336 29.6142 79.7928 29.3207 80.1062C29.0336 80.4127 28.7037 80.6216 28.3309 80.7328C27.9514 80.8377 27.5277 80.8053 27.0599 80.6357C26.5922 80.4662 26.0824 80.123 25.5306 79.6062L23.9468 78.1227L24.7412 77.2746L26.233 78.6719C26.669 79.0803 27.0289 79.2831 27.3127 79.2804C27.5902 79.2846 27.8246 79.1844 28.016 78.9801C28.233 78.7485 28.3133 78.4784 28.257 78.1699C28.2007 77.8614 28.009 77.554 27.682 77.2478C27.3687 76.9543 27.0224 76.7642 26.6432 76.6776C26.2572 76.5845 25.8789 76.6266 25.5083 76.8038L26.0115 75.8365C26.434 75.6312 26.8883 75.5899 27.3743 75.7127C27.8535 75.8291 28.335 76.1138 28.8186 76.5668Z" fill="white"/>
<path d="M20.2358 67.1277L13.2363 69.754L12.6215 68.1156L15.4659 67.0483L14.1428 63.5223L11.2985 64.5896L10.6837 62.9512L17.6832 60.3248L18.298 61.9632L15.5322 63.001L16.8553 66.527L19.621 65.4892L20.2358 67.1277Z" fill="white"/>
<path d="M16.2241 51.693L14.7132 51.7513L14.3952 51.8617L11.7512 51.9638C11.2383 51.9836 10.8478 52.1528 10.5799 52.4713C10.3027 52.7903 10.1761 53.2622 10.2003 53.887C10.2165 54.3067 10.2978 54.7192 10.4442 55.1245C10.5902 55.5205 10.7852 55.8539 11.0292 56.1247L9.78263 56.8594C9.45937 56.4702 9.21251 56.0034 9.04204 55.4589C8.86189 54.9054 8.76028 54.3303 8.73724 53.7334C8.69546 52.6515 8.92437 51.8067 9.42396 51.199C9.91387 50.5823 10.6997 50.2531 11.7816 50.2113L16.1603 50.0422L16.2241 51.693ZM16.4128 54.0394C16.4344 54.599 16.36 55.0923 16.1897 55.5192C16.01 55.9464 15.7568 56.2831 15.4301 56.5292C15.0937 56.7664 14.7109 56.8932 14.2819 56.9098C13.8622 56.926 13.4807 56.8427 13.1374 56.6598C12.7938 56.4676 12.5152 56.1467 12.3017 55.6973C12.0882 55.2479 11.9668 54.6454 11.9377 53.89L11.8539 51.7216L13.0151 51.6768L13.0939 53.7193C13.117 54.3162 13.2304 54.7134 13.4342 54.911C13.6286 55.109 13.8657 55.2026 14.1455 55.1918C14.4626 55.1795 14.7096 55.0439 14.8864 54.7849C15.0632 54.5259 15.143 54.1725 15.1257 53.7249C15.1091 53.2959 14.9964 52.9173 14.7876 52.5891C14.5784 52.2516 14.2798 52.0156 13.8916 51.8811L14.9295 51.5468C15.3743 51.6978 15.7264 51.9877 15.9858 52.4167C16.2449 52.8364 16.3872 53.3773 16.4128 54.0394Z" fill="white"/>
<path d="M15.8536 40.6775L16.1159 41.178L10.1042 38.948L10.7128 37.3072L16.7245 39.5373L16.1847 39.785L17.4701 36.3197L17.7227 36.8464L11.711 34.6164L12.3196 32.9757L19.3289 35.5757L15.497 45.9059L8.48766 43.3058L9.09629 41.6651L15.108 43.8951L14.573 44.1297L15.8536 40.6775Z" fill="white"/>
<path d="M24.4613 32.0762C24.2144 32.3437 23.9229 32.57 23.5869 32.7552C23.2508 32.9403 22.9216 33.0493 22.5993 33.082L22.1277 31.694C22.3645 31.6713 22.5932 31.6093 22.8137 31.508C23.0343 31.4068 23.2237 31.2704 23.3819 31.0989C23.5972 30.8658 23.713 30.6233 23.7293 30.3717C23.7457 30.1201 23.6737 29.8059 23.5133 29.4292L23.0876 28.4456L23.0282 28.2003L20.0909 21.6402L21.2304 20.4057L24.7921 28.4567C25.0453 29.008 25.1938 29.5007 25.2376 29.9349C25.2877 30.3622 25.2405 30.7505 25.0959 31.0997C24.9577 31.4421 24.7462 31.7676 24.4613 32.0762ZM23.6336 29.2164L15.6562 26.4443L16.8907 25.1069L23.4943 27.4683L23.6336 29.2164Z" fill="white"/>
<path d="M36.8377 18.9978C36.2713 19.2152 35.7026 19.2835 35.1318 19.2027C34.5696 19.1185 34.0488 18.8685 33.5693 18.4527C33.0952 18.0249 32.7026 17.4058 32.3916 16.5954C32.0772 15.7763 31.9504 15.0552 32.0112 14.4321C32.0806 13.8056 32.2978 13.2774 32.6626 12.8474C33.0241 12.4088 33.5011 12.0757 34.0936 11.8483C34.782 11.5841 35.4445 11.4998 36.081 11.5954C36.7262 11.6877 37.3033 11.941 37.8123 12.3555C38.33 12.7666 38.7276 13.3338 39.0052 14.0571C39.2828 14.7803 39.3684 15.4722 39.2621 16.1329C39.1611 16.7814 38.9017 17.3559 38.4839 17.8561C38.0748 18.353 37.526 18.7336 36.8377 18.9978ZM33.9069 22.9268L30.2549 13.4116L31.8103 12.8146L32.4424 14.4615L33.1024 16.3376L33.9455 18.1434L35.5407 22.2998L33.9069 22.9268ZM36.1179 17.6695C36.51 17.519 36.8251 17.2981 37.0632 17.0068C37.31 16.7121 37.4614 16.3641 37.5173 15.9628C37.5732 15.5614 37.5158 15.1385 37.3453 14.6941C37.1714 14.241 36.931 13.8884 36.6243 13.6362C36.3143 13.3753 35.9689 13.218 35.5884 13.1641C35.2165 13.1069 34.8345 13.1535 34.4424 13.304C34.0503 13.4545 33.7308 13.6771 33.484 13.9717C33.2372 14.2664 33.0859 14.6144 33.03 15.0158C32.9707 15.4084 33.0281 15.8313 33.202 16.2844C33.3725 16.7288 33.6128 17.0814 33.9229 17.3423C34.233 17.6032 34.5783 17.7606 34.9589 17.8144C35.3394 17.8683 35.7258 17.82 36.1179 17.6695Z" fill="white"/>
<path d="M48.2167 16.2658L48.1468 14.7554L48.0339 14.4383L47.9115 11.7951C47.8877 11.2824 47.7155 10.8932 47.3949 10.6278C47.0738 10.353 46.6009 10.2301 45.9763 10.2591C45.5567 10.2785 45.1449 10.363 44.7407 10.5125C44.3458 10.6616 44.014 10.8592 43.7451 11.1053L43.0008 9.86438C43.3875 9.53814 43.8524 9.28768 44.3955 9.11302C44.9476 8.9286 45.522 8.82256 46.1187 8.79491C47.2002 8.74479 48.0467 8.96717 48.6583 9.46206C49.2787 9.94719 49.614 10.7305 49.6641 11.812L49.867 16.1893L48.2167 16.2658ZM45.8718 16.4726C45.3124 16.4985 44.8186 16.4279 44.3904 16.2609C43.9618 16.0846 43.6232 15.834 43.3745 15.5091C43.1348 15.1745 43.005 14.7928 42.9851 14.3639C42.9657 13.9444 43.046 13.5623 43.2263 13.2175C43.4158 12.8724 43.7345 12.5913 44.1823 12.3744C44.63 12.1574 45.2315 12.0314 45.9867 11.9964L48.1544 11.896L48.2082 13.0568L46.1664 13.1514C45.5697 13.179 45.1733 13.2955 44.9773 13.5008C44.7808 13.6968 44.689 13.9346 44.702 14.2143C44.7167 14.5313 44.8542 14.7772 45.1146 14.952C45.375 15.1268 45.7289 15.2038 46.1764 15.1831C46.6053 15.1632 46.983 15.0476 47.3096 14.8363C47.6455 14.6245 47.8792 14.324 48.0106 13.9348L48.3529 14.9701C48.2054 15.4161 47.9182 15.7704 47.4912 16.0331C47.0736 16.2954 46.5338 16.4419 45.8718 16.4726Z" fill="white"/>
<path d="M57.6819 17.1453C57.0899 16.9751 56.5864 16.7334 56.1715 16.4199C55.7566 16.1065 55.4315 15.7169 55.1963 15.2512C54.9727 14.7791 54.8537 14.2302 54.8392 13.6045C54.8248 12.9789 54.9309 12.2713 55.1578 11.4819C55.3227 10.9078 55.5229 10.3973 55.7581 9.95017C55.9934 9.5031 56.2639 9.11953 56.5695 8.79948C56.8776 8.47046 57.2223 8.20047 57.6034 7.9895C57.9934 7.78112 58.4186 7.63624 58.879 7.55488C59.3394 7.47352 59.8407 7.45248 60.3829 7.49175L63.9248 7.73744L63.734 9.31406L60.5286 9.06311C60.3479 9.05001 60.1261 9.04455 59.8633 9.04672C59.612 9.0425 59.3415 9.07158 59.0516 9.13397C58.7733 9.18996 58.4918 9.30813 58.2069 9.48847C57.9335 9.66241 57.6755 9.91843 57.4327 10.2565C57.2014 10.5882 57.0059 11.0322 56.846 11.5883C56.7971 11.7588 56.7642 11.8901 56.7474 11.9824C56.7421 12.0683 56.7298 12.1619 56.7104 12.2631C56.7026 12.358 56.6729 12.4951 56.6213 12.6745L56.1784 11.8335C56.4892 11.4275 56.848 11.1082 57.2548 10.8755C57.6731 10.6364 58.1175 10.4922 58.5881 10.4429C59.0703 10.3872 59.5625 10.4315 60.0648 10.5759C60.7376 10.7692 61.2942 11.0796 61.7346 11.5072C62.1749 11.9348 62.471 12.4423 62.6227 13.0296C62.7743 13.617 62.7587 14.2292 62.5757 14.8661C62.3849 15.5299 62.0546 16.0711 61.5848 16.4896C61.1149 16.9081 60.5415 17.1803 59.8644 17.3062C59.1988 17.4257 58.4713 17.3721 57.6819 17.1453ZM58.207 15.8249C58.6107 15.9409 58.9895 15.9575 59.3434 15.8747C59.7089 15.7855 60.0207 15.6129 60.2788 15.3569C60.5459 15.1034 60.7335 14.7883 60.8418 14.4116C60.95 14.0348 60.9544 13.6816 60.8549 13.352C60.7669 13.016 60.5905 12.7176 60.3255 12.457C60.0694 12.1989 59.7306 12.0093 59.309 11.8882C58.9054 11.7722 58.5189 11.7485 58.1495 11.8172C57.7892 11.8884 57.4781 12.0418 57.2162 12.2773C56.9658 12.5064 56.7878 12.8049 56.6821 13.1727C56.5739 13.5494 56.5644 13.9206 56.6535 14.2861C56.7427 14.6516 56.9185 14.9692 57.181 15.2388C57.4523 15.511 57.7943 15.7064 58.207 15.8249Z" fill="white"/>
<path d="M67.9427 21.287C67.3189 20.8437 66.8581 20.3158 66.5605 19.7035C66.2683 19.0835 66.1491 18.4377 66.2029 17.766C66.2566 17.0943 66.4971 16.4579 66.9243 15.8569C67.3569 15.2483 67.8788 14.812 68.4901 14.548C69.1069 14.2765 69.7533 14.1806 70.4294 14.2604C71.1056 14.3402 71.7555 14.6018 72.3793 15.0452C73.0107 15.494 73.4753 16.0245 73.7729 16.6369C74.0781 17.2546 74.2027 17.8928 74.1468 18.5515C74.0984 19.2157 73.8552 19.8558 73.4172 20.472C72.99 21.073 72.4681 21.5093 71.8514 21.7809C71.2422 22.0579 70.5931 22.1576 69.904 22.08C69.2278 22.0002 68.5741 21.7359 67.9427 21.287ZM68.8105 20.0661C69.1605 20.3148 69.5264 20.4604 69.9085 20.5029C70.2905 20.5454 70.6603 20.4762 71.0179 20.2953C71.3831 20.1198 71.7036 19.838 71.9794 19.45C72.2606 19.0545 72.4213 18.6591 72.4617 18.2641C72.515 17.8669 72.4588 17.4949 72.2931 17.1481C72.1273 16.8013 71.8733 16.5062 71.531 16.2629C71.181 16.0141 70.8151 15.8685 70.4331 15.826C70.0586 15.7889 69.6888 15.8581 69.3236 16.0336C68.9638 16.2015 68.6433 16.4833 68.3621 16.8789C68.0863 17.2669 67.9256 17.6622 67.8799 18.0648C67.8341 18.4674 67.8903 18.8395 68.0484 19.1809C68.2142 19.5277 68.4682 19.8227 68.8105 20.0661Z" fill="white"/>
<path d="M75.6917 27.6737L80.8072 23.8078L80.7169 24.385L78.8853 21.9612L80.0692 21.0665L84.2896 26.6512L83.1057 27.5459L81.2825 25.1333L81.8623 25.204L76.7468 29.0699L75.6917 27.6737Z" fill="white"/>
<path d="M77.8547 35.3934C77.7268 35.0526 77.6558 34.6905 77.6415 34.3071C77.6272 33.9236 77.6779 33.5806 77.7937 33.278L79.2455 33.4809C79.1592 33.7027 79.1118 33.9348 79.1031 34.1773C79.0944 34.4198 79.131 34.6503 79.213 34.8688C79.3245 35.1659 79.4889 35.3783 79.7063 35.5061C79.9237 35.6339 80.2367 35.7108 80.6453 35.737L81.7153 35.799L81.9611 35.8563L89.1414 36.1826L89.7316 37.7555L80.9389 37.3165C80.3326 37.2948 79.8257 37.2058 79.4183 37.0497C79.014 36.9023 78.6885 36.6855 78.4415 36.3994C78.1979 36.122 78.0023 35.7866 77.8547 35.3934ZM80.7813 35.9401L86.8445 30.0614L87.4839 31.7654L82.4053 36.6018L80.7813 35.9401Z" fill="white"/>
</svg>
