<svg width="61" height="61" viewBox="0 0 61 61" fill="none" xmlns="http://www.w3.org/2000/svg">
<path d="M18.565 55.2058V53.1646C18.565 52.1463 17.7366 51.3179 16.7183 51.3179H10.7295C9.7112 51.3179 8.88281 52.1463 8.88281 53.1646V55.2058C8.88281 56.2241 9.7112 57.0525 10.7295 57.0525H16.7183C17.7366 57.0525 18.565 56.2241 18.565 55.2058ZM10.6699 55.2058V53.1646C10.6699 53.1317 10.6966 53.105 10.7295 53.105H16.7183C16.7512 53.105 16.7779 53.1317 16.7779 53.1646V55.2058C16.7779 55.2387 16.7512 55.2654 16.7183 55.2654H10.7295C10.6966 55.2654 10.6699 55.2387 10.6699 55.2058Z" fill="#F1EE00"/>
<path d="M43.3301 41.449C41.749 41.449 40.4629 42.7352 40.4629 44.3163C40.4629 45.8974 41.7491 47.1836 43.3301 47.1836C44.9111 47.1836 46.1975 45.8973 46.1975 44.3163C46.1975 42.7353 44.9111 41.449 43.3301 41.449ZM43.3301 45.3965C42.7345 45.3965 42.25 44.9119 42.25 44.3163C42.25 43.7206 42.7345 43.2361 43.3301 43.2361C43.9258 43.2361 44.4104 43.7206 44.4104 44.3163C44.4103 44.9119 43.9257 45.3965 43.3301 45.3965Z" fill="#2751A0"/>
<path d="M53.1986 33.5539H52.1185V28.5262V20.6311C52.1185 19.0501 50.8322 17.7639 49.2512 17.7639H48.171V5.828C48.171 4.79112 47.3274 3.94761 46.2905 3.94761H28.5266C28.4952 3.94761 28.4644 3.95082 28.4333 3.95237V2.7998C28.4333 1.25598 27.1773 0 25.6335 0H9.70823C8.1644 0 6.90842 1.25598 6.90842 2.7998V6.01458C6.90842 6.50806 7.3085 6.90813 7.80198 6.90813C8.29546 6.90813 8.69553 6.50806 8.69553 6.01458V2.7998C8.69553 2.24139 9.14982 1.78711 9.70823 1.78711H10.8559V25.659H8.69553V9.58879C8.69553 9.09531 8.29546 8.69524 7.80198 8.69524C7.3085 8.69524 6.90842 9.09531 6.90842 9.58879V17.8467C5.93338 18.0272 5.0397 18.5018 4.33201 19.2293C3.4512 20.1346 2.96928 21.3177 2.96237 22.576C2.96201 22.5856 2.96094 22.5951 2.96094 22.6049V56.1588C2.96094 58.8283 5.13263 61 7.8021 61H11.9362C12.4296 61 12.8297 60.5999 12.8297 60.1064C12.8297 59.613 12.4296 59.2129 11.9362 59.2129H7.8021C6.11816 59.2129 4.74805 57.8429 4.74805 56.1588V26.3202C5.56499 26.9892 6.60033 27.4051 7.72192 27.4419C7.74836 27.4443 49.251 27.4459 49.251 27.4459C49.8466 27.4459 50.3311 27.9305 50.3311 28.5261V37.5013H39.3821C37.8011 37.5013 36.5147 38.7875 36.5147 40.3687V48.2639C36.5147 49.845 37.801 51.1311 39.3821 51.1311H50.3311V58.1326C50.3311 58.7282 49.8466 59.2129 49.251 59.2129H15.5104C15.0169 59.2129 14.6168 59.613 14.6168 60.1064C14.6168 60.5999 15.0169 61 15.5104 61H49.2511C50.8322 61 52.1184 59.7138 52.1184 58.1326V51.1311H53.1985C55.8678 51.1311 58.0395 48.9594 58.0395 46.2901V38.395C58.0396 35.7256 55.868 33.5539 53.1986 33.5539ZM4.74924 22.6914C4.72636 21.8584 5.03315 21.0714 5.61289 20.4755C5.97829 20.1 6.42209 19.831 6.90842 19.6831V25.5041C5.6889 25.1086 4.7851 23.9977 4.74924 22.6914ZM28.5265 5.7346H46.2904C46.3418 5.7346 46.3838 5.77653 46.3838 5.82788V25.6588H44.2233V11.3237C44.2233 10.6694 43.7776 10.1131 43.1396 9.97112C42.6831 9.86937 42.2473 9.43344 42.1475 8.9788C42.0095 8.35069 41.4406 7.89485 40.7948 7.89485H34.0222C33.3679 7.89485 32.8117 8.34056 32.6696 8.97856C32.5679 9.4351 32.1319 9.8708 31.6773 9.97076C31.0493 10.1087 30.5933 10.6776 30.5933 11.3235V25.6588H28.4332V5.828C28.4332 5.77653 28.475 5.7346 28.5265 5.7346ZM42.4362 25.659H32.3807V11.6259C33.2691 11.3172 34.0145 10.5718 34.3243 9.6822H40.4925C40.8012 10.5706 41.5464 11.316 42.4362 11.6259V25.659ZM26.6461 2.7998V5.828V25.659H16.5906V1.78711H25.6334C26.1918 1.78711 26.6461 2.24139 26.6461 2.7998ZM12.6431 25.659V1.78711H14.8035V25.659H12.6431ZM49.2511 25.659H48.1709V19.551H49.2511C49.8467 19.551 50.3312 20.0355 50.3312 20.6311V25.8708C49.9977 25.7346 49.6331 25.659 49.2511 25.659ZM56.2525 46.2901C56.2525 47.974 54.8825 49.344 53.1986 49.344H39.3822C38.7866 49.344 38.302 48.8595 38.302 48.2639V40.3688C38.302 39.7732 38.7865 39.2885 39.3822 39.2885H52.2116C52.7051 39.2885 53.1052 38.8885 53.1052 38.395C53.1052 37.9015 52.7051 37.5014 52.2116 37.5014H52.1184V35.341H53.1985C54.8824 35.341 56.2524 36.711 56.2524 38.395V46.2901H56.2525Z" fill="#2751A0"/>
<path d="M37.4084 17.7639C35.8273 17.7639 34.541 19.0502 34.541 20.6312C34.541 22.2121 35.8273 23.4985 37.4084 23.4985C38.9895 23.4985 40.2756 22.2123 40.2756 20.6312C40.2757 19.0502 38.9895 17.7639 37.4084 17.7639ZM37.4084 21.7114C36.8127 21.7114 36.3281 21.2269 36.3281 20.6312C36.3281 20.0356 36.8127 19.551 37.4084 19.551C38.004 19.551 38.4885 20.0356 38.4885 20.6312C38.4886 21.2269 38.004 21.7114 37.4084 21.7114Z" fill="#F1EE00"/>
<path d="M37.4092 15.6034C37.9027 15.6034 38.3027 15.2034 38.3027 14.7099V12.7361C38.3027 12.2426 37.9027 11.8425 37.4092 11.8425C36.9157 11.8425 36.5156 12.2426 36.5156 12.7361V14.7099C36.5156 15.2034 36.9157 15.6034 37.4092 15.6034Z" fill="#F1EE00"/>
<path d="M20.5986 11.6559H22.6399C23.6582 11.6559 24.4865 10.8275 24.4865 9.80923V5.79419C24.4865 4.77589 23.6582 3.94751 22.6399 3.94751H20.5986C19.5803 3.94751 18.752 4.77589 18.752 5.79419V9.80923C18.752 10.8274 19.5803 11.6559 20.5986 11.6559ZM20.5391 5.79407C20.5391 5.76119 20.5657 5.7345 20.5986 5.7345H22.6399C22.6728 5.7345 22.6994 5.76119 22.6994 5.79407V9.80911C22.6994 9.84199 22.6728 9.86868 22.6399 9.86868H20.5986C20.5657 9.86868 20.5391 9.84199 20.5391 9.80911V5.79407Z" fill="#F1EE00"/>
</svg>
