<svg width="14" height="14" viewBox="0 0 14 14" fill="none" xmlns="http://www.w3.org/2000/svg">
<path d="M11.3282 4.99868L11.3282 4.9987L7.0003 8.23147L2.6727 4.99892C2.67264 4.99887 2.67259 4.99883 2.67253 4.99879C2.62936 4.96634 2.57942 4.94159 2.52608 4.925C2.47263 4.90838 2.41593 4.9 2.35909 4.9C2.30224 4.9 2.24554 4.90838 2.19209 4.925C2.13881 4.94157 2.08893 4.96628 2.04579 4.99868C2.00242 5.03084 1.96591 5.07062 1.94014 5.11679C1.91419 5.16328 1.9 5.21479 1.9 5.26801C1.9 5.32123 1.91419 5.37273 1.94014 5.41922C1.96595 5.46545 2.00253 5.50528 2.04598 5.53747C2.04602 5.5375 2.04606 5.53753 2.04611 5.53757L6.6867 9.00108C6.68676 9.00114 6.68683 9.00119 6.6869 9.00124C6.73006 9.03368 6.77998 9.05842 6.83331 9.075C6.88676 9.09162 6.94346 9.1 7.0003 9.1C7.05715 9.1 7.11385 9.09162 7.1673 9.075C7.22063 9.05842 7.27055 9.03368 7.31371 9.00124C7.31378 9.00119 7.31385 9.00114 7.31391 9.00108L11.9548 5.53733C12.0421 5.47217 12.1 5.3765 12.1 5.26801C12.1 5.21492 12.0859 5.16353 12.0601 5.11709C12.0345 5.07086 11.9981 5.03098 11.9548 4.99868C11.9116 4.96639 11.8616 4.94177 11.8082 4.92528C11.7549 4.90878 11.6983 4.90045 11.6415 4.90045C11.5279 4.90045 11.415 4.93392 11.3282 4.99868Z" fill="white" stroke="white" stroke-width="0.2"/>
</svg>
