<svg width="18" height="18" viewBox="0 0 18 18" fill="none" xmlns="http://www.w3.org/2000/svg">
<path d="M5.70875 3.14926C6.65866 2.37103 7.85853 1.96362 9.08591 2.00255C10.3133 2.04149 11.4849 2.52414 12.3836 3.36102C13.2823 4.19789 13.847 5.33223 13.9731 6.55373C14.0993 7.77524 13.7782 9.00104 13.0695 10.0039L12.7989 10.3808C12.0478 11.4357 11.2716 12.5258 10.5841 13.641C10.3026 14.0943 10.0381 14.5552 9.78025 15.0234L9.22742 16.0255C9.19856 16.078 9.15629 16.1219 9.10494 16.1527C9.05358 16.1835 8.99497 16.2001 8.9351 16.2008H8.93442C8.87528 16.2008 8.81717 16.1853 8.76587 16.1559C8.71458 16.1264 8.67191 16.0841 8.6421 16.033L8.52707 15.8361C8.14881 15.1439 7.72792 14.4259 7.2414 13.643C6.39895 12.3039 5.52064 11.0399 4.77089 9.9775C4.04087 8.92964 3.73202 7.64537 3.9058 6.38016C4.07958 5.11494 4.72324 3.9615 5.70875 3.14926V3.14926ZM5.32643 9.58977C6.07956 10.6569 6.96464 11.9304 7.81657 13.285C8.23069 13.9529 8.59812 14.5741 8.93036 15.1682L9.1902 14.6945C9.45342 14.2155 9.72477 13.7472 10.0117 13.283C10.71 12.1496 11.4936 11.05 12.2508 9.98562L12.5214 9.60872C12.9464 9.01264 13.2154 8.31972 13.3041 7.59306C13.3928 6.86641 13.2983 6.12911 13.0292 5.44832C12.7601 4.76753 12.325 4.16488 11.7634 3.69525C11.2019 3.22562 10.5317 2.90394 9.81409 2.75951C9.52436 2.70207 9.22978 2.67261 8.93442 2.67154C8.12998 2.6707 7.34071 2.8905 6.6525 3.30702C5.96429 3.72355 5.40349 4.32083 5.03111 5.0339C4.65874 5.74697 4.48906 6.54851 4.54054 7.3513C4.59201 8.15409 4.86266 8.92739 5.32305 9.58707L5.32643 9.58977Z" fill="white"/>
<path d="M8.93538 4.70154C9.40379 4.70154 9.86168 4.84044 10.2512 5.10067C10.6406 5.36091 10.9442 5.73079 11.1234 6.16355C11.3027 6.5963 11.3496 7.0725 11.2582 7.53191C11.1668 7.99132 10.9413 8.41332 10.61 8.74453C10.2788 9.07575 9.85683 9.30131 9.39742 9.39269C8.93801 9.48408 8.46181 9.43718 8.02906 9.25792C7.5963 9.07867 7.22642 8.77511 6.96618 8.38564C6.70595 7.99617 6.56705 7.53828 6.56705 7.06987C6.56705 6.44175 6.81657 5.83935 7.26071 5.39521C7.70486 4.95106 8.30726 4.70154 8.93538 4.70154V4.70154ZM8.93538 8.76154C9.26996 8.76154 9.59702 8.66232 9.87522 8.47644C10.1534 8.29056 10.3702 8.02635 10.4983 7.71724C10.6263 7.40813 10.6598 7.06799 10.5945 6.73984C10.5293 6.41169 10.3681 6.11027 10.1316 5.87368C9.89498 5.6371 9.59356 5.47598 9.26541 5.41071C8.93725 5.34544 8.59712 5.37894 8.28801 5.50697C7.97889 5.63501 7.71469 5.85184 7.52881 6.13003C7.34293 6.40822 7.24371 6.73529 7.24371 7.06987C7.24371 7.29202 7.28747 7.512 7.37248 7.71724C7.4575 7.92248 7.5821 8.10897 7.73919 8.26606C7.89628 8.42314 8.08276 8.54775 8.28801 8.63277C8.49325 8.71778 8.71323 8.76154 8.93538 8.76154V8.76154Z" fill="white"/>
</svg>
