<svg width="10" height="10" viewBox="0 0 10 10" fill="none" xmlns="http://www.w3.org/2000/svg">
<path fill-rule="evenodd" clip-rule="evenodd" d="M9.28141 1.53202C9.33486 1.47864 9.37727 1.41525 9.40622 1.34548C9.43517 1.27571 9.4501 1.20092 9.45014 1.12538C9.45019 1.04984 9.43536 0.975027 9.40649 0.905219C9.37763 0.835411 9.3353 0.771971 9.28191 0.718523C9.22853 0.665075 9.16514 0.622665 9.09537 0.593714C9.0256 0.564763 8.95081 0.549838 8.87527 0.549792C8.79973 0.549746 8.72492 0.564578 8.65511 0.593444C8.5853 0.622309 8.52186 0.664641 8.46841 0.718023L4.99941 4.18702L1.53141 0.718023C1.42347 0.61008 1.27707 0.549438 1.12441 0.549438C0.971758 0.549438 0.825356 0.61008 0.717413 0.718023C0.60947 0.825966 0.548828 0.972369 0.548828 1.12502C0.548828 1.27768 0.60947 1.42408 0.717413 1.53202L4.18641 5.00002L0.717413 8.46802C0.663965 8.52147 0.621568 8.58492 0.592642 8.65476C0.563716 8.72459 0.548828 8.79944 0.548828 8.87502C0.548828 8.95061 0.563716 9.02546 0.592642 9.09529C0.621568 9.16512 0.663965 9.22857 0.717413 9.28202C0.825356 9.38997 0.971758 9.45061 1.12441 9.45061C1.2 9.45061 1.27485 9.43572 1.34468 9.40679C1.41451 9.37787 1.47797 9.33547 1.53141 9.28202L4.99941 5.81302L8.46841 9.28202C8.57636 9.38983 8.72271 9.45035 8.87527 9.45025C9.02783 9.45016 9.1741 9.38947 9.28191 9.28152C9.38972 9.17358 9.45024 9.02723 9.45014 8.87467C9.45005 8.72211 9.38936 8.57583 9.28141 8.46802L5.81241 5.00002L9.28141 1.53202Z" fill="white"/>
</svg>
