<svg width="23" height="16" fill="none" xmlns="http://www.w3.org/2000/svg"><path d="M13.843 15.473a1.342 1.342 0 01-.408-1.027c.012-.402.16-.744.443-1.027l4.003-4.002H2.085a1.37 1.37 0 01-1.01-.408A1.37 1.37 0 01.668 8c0-.401.135-.738.407-1.01a1.374 1.374 0 011.01-.407H17.88l-4.038-4.037a1.38 1.38 0 01-.425-1.01c0-.39.142-.726.425-1.009a1.38 1.38 0 011.01-.425c.39 0 .725.142 1.009.425l6.481 6.481c.142.142.242.295.302.46.058.166.088.343.088.532s-.03.366-.088.531a1.25 1.25 0 01-.302.46l-6.517 6.517c-.26.26-.584.39-.973.39a1.38 1.38 0 01-1.01-.425z" fill="#2751A0"/></svg>