<svg width="47" height="47" fill="none" xmlns="http://www.w3.org/2000/svg"><g clip-path="url(#clip0_352_56)"><path d="M46.782 14.193c0-.79-.315-1.486-.91-2.013l-7.113-6.308c-.884-.784-2-1.586-3.568-1.586h-.002c-1.569 0-2.684.803-3.569 1.589l-7.107 6.312a2.626 2.626 0 00-.909 2.014l.004 8.102h-4.72c.853-1.75 1.448-4.516.78-6.586-.47-1.457-1.506-2.418-2.995-2.778a.74.74 0 00-.557.086.722.722 0 00-.33.452l-.226.98c-.878 3.815-.991 4.305-3.417 5.87-1.713 1.104-1.835 1.247-2.9 2.781l-.364.521c-.431.616-.983.894-1.786.9l-.062.001v-.173c0-.898-.74-1.629-1.651-1.629H1.65c-.91 0-1.651.73-1.651 1.63V40.25c0 .898.74 1.63 1.651 1.63h3.73c.91 0 1.651-.732 1.651-1.63v-.74c.33.114.66.235.999.36 1.66.612 3.543 1.306 6.338 1.306h9.706a2.95 2.95 0 001.164-.239c.351.156.732.239 1.121.239h.001l17.688-.007c1.513 0 2.744-1.215 2.743-2.709l-.01-24.268zM5.569 40.251a.19.19 0 01-.19.187H1.652a.19.19 0 01-.189-.187V24.357a.19.19 0 01.19-.186H5.38a.19.19 0 01.19.186v15.894zm8.8-.517c-2.532 0-4.207-.618-5.828-1.215-.489-.18-.99-.365-1.51-.53V25.973h.071c1.277-.011 2.28-.524 2.98-1.523l.367-.526c.982-1.415.982-1.415 2.495-2.39 2.92-1.883 3.135-2.82 4.042-6.758l.04-.178c.603.316 1.015.83 1.249 1.556.69 2.138-.398 5.428-1.25 6.398a.714.714 0 00-.111.772.732.732 0 00.665.422h8.358a1.47 1.47 0 011.477 1.457 1.47 1.47 0 01-1.477 1.458h-5.762a.726.726 0 00-.732.721c0 .398.328.721.732.721h6.97a1.47 1.47 0 011.477 1.458 1.47 1.47 0 01-1.477 1.457h-6.97a.726.726 0 00-.732.722c0 .398.328.721.732.721h6.21a1.47 1.47 0 011.478 1.458 1.47 1.47 0 01-1.477 1.457h-6.211a.726.726 0 00-.732.721c0 .399.328.722.732.722h3.899a1.47 1.47 0 011.477 1.457 1.47 1.47 0 01-1.477 1.458h-9.706zm29.678-.006l-17.434.006a2.852 2.852 0 00-.004-2.924c1.517-.113 2.716-1.367 2.716-2.891 0-.708-.258-1.357-.686-1.861a2.895 2.895 0 001.445-2.497 2.904 2.904 0 00-1.766-2.66 2.859 2.859 0 00.559-1.698c0-1.599-1.32-2.9-2.94-2.9h-.867l-.003-8.102c0-.38.138-.688.424-.941L32.6 6.947c.974-.865 1.725-1.218 2.591-1.218h.001c.866 0 1.617.352 2.591 1.216l7.112 6.308a1.2 1.2 0 01.426.94l.01 24.269c0 .698-.576 1.266-1.283 1.266zm-4.465-9.762c.107.87-.13 1.665-.684 2.298-.652.743-1.736 1.242-2.969 1.382v.918a.726.726 0 01-.731.721.726.726 0 01-.731-.721v-.928c-1.826-.248-3.246-1.387-3.657-3.014a.72.72 0 01.532-.874.732.732 0 01.887.525c.378 1.499 1.907 1.999 3.101 1.97 1.026-.025 1.992-.387 2.462-.923.286-.326.396-.712.339-1.18-.137-1.11-1.075-1.746-3.041-2.064-3.13-.508-3.858-2.073-3.918-3.298-.084-1.696 1.12-3.118 2.995-3.538.098-.022.198-.04.3-.057v-.938c0-.398.327-.721.731-.721.404 0 .731.323.731.721v.932c1.339.196 2.66.96 3.319 2.511a.718.718 0 01-.391.945.734.734 0 01-.957-.386c-.634-1.49-2.17-1.877-3.41-1.6-.937.21-1.917.862-1.858 2.061.019.376.075 1.52 2.695 1.944.97.157 3.926.636 4.255 3.314zm-4.39-16.007c1.435 0 2.604-1.153 2.604-2.57 0-1.416-1.168-2.568-2.604-2.568-1.436 0-2.604 1.152-2.604 2.569 0 1.416 1.168 2.569 2.604 2.569zm0-3.695c.63 0 1.141.505 1.141 1.126 0 .62-.512 1.126-1.141 1.126-.63 0-1.142-.505-1.142-1.126 0-.621.513-1.126 1.142-1.126z" fill="#2751A0"/></g><defs><clipPath id="clip0_352_56"><path fill="#fff" d="M0 0h46.791v46.166H0z"/></clipPath></defs></svg>