<svg width="39" height="39" fill="none" xmlns="http://www.w3.org/2000/svg"><path d="M14.228 11.578h5.545a.546.546 0 00.549-.549.546.546 0 00-.549-.548h-5.545a.546.546 0 00-.548.548c0 .305.243.549.548.549zm10.542 3.291H14.228a.546.546 0 00-.548.548c0 .305.243.549.548.549H24.77a.546.546 0 00.549-.549.546.546 0 00-.549-.548zm0 4.357H14.228a.546.546 0 00-.548.548c0 .305.243.549.548.549H24.77a.546.546 0 00.549-.549.546.546 0 00-.549-.548zm0 4.356H14.228a.546.546 0 00-.548.549c0 .305.243.548.548.548H24.77a.546.546 0 00.549-.548.546.546 0 00-.549-.549z" fill="#fff"/><path d="M29.432 11.578a.483.483 0 00-.152-.366c-.153-.152-5.607-5.636-5.79-5.789a.562.562 0 00-.365-.152h-11.09a2.458 2.458 0 00-2.469 2.468v25.472c0 .487.58.7.914.366l4.053-4.053h12.431a2.458 2.458 0 002.468-2.468V11.578zm-1.828-.548H24.77c-.61 0-1.127-.488-1.127-1.128V7.07l3.96 3.96zm-.64 17.428H14.32a.505.505 0 00-.366.152l-3.29 3.321V7.74c0-.762.64-1.402 1.4-1.402h10.543v3.596c0 1.219.975 2.194 2.194 2.194h3.595v14.96c-.03.73-.67 1.37-1.432 1.37z" fill="#fff"/></svg>