<svg width="18" height="18" fill="none" xmlns="http://www.w3.org/2000/svg"><path fill-rule="evenodd" clip-rule="evenodd" d="M16.707 15.074c-.106.106-.234.241-.37.384-.34.36-.763.807-1.028.989-1.396.954-3.265.497-4.586-.053-1.744-.727-3.642-2.066-5.346-3.77-1.706-1.705-3.044-3.604-3.77-5.346-.55-1.322-1.008-3.19-.054-4.587.181-.266.63-.689.989-1.029.144-.135.278-.263.384-.369a1.007 1.007 0 011.42 0l2.57 2.569a1.007 1.007 0 010 1.42l-.7.698a1.53 1.53 0 00-.27 1.808 10.265 10.265 0 004.266 4.266 1.528 1.528 0 001.807-.27l.698-.7a1.007 1.007 0 011.42 0l2.57 2.57a1.006 1.006 0 010 1.42z" fill="#2751A0"/></svg>