<svg viewBox="0 0 24 24" fill="none" xmlns="http://www.w3.org/2000/svg"><path d="M18 5H6c-.471 0-.707 0-.854.146C5 5.293 5 5.53 5 6v1.965c0 .262 0 .393.06.503.058.11.167.184.385.329l3.024 2.015c.872.582 1.308.873 1.544 1.315.237.442.237.966.237 2.014V19l3.5-1.75v-3.11c0-1.047 0-1.571.237-2.013.236-.443.672-.733 1.544-1.315l3.024-2.015c.218-.145.327-.218.386-.329.059-.11.059-.241.059-.503V6c0-.471 0-.707-.146-.854C18.707 5 18.47 5 18 5z" stroke="#464455" stroke-linecap="round" stroke-linejoin="round"/></svg>