<svg width="10" height="12" viewBox="0 0 24 24" fill="none" xmlns="http://www.w3.org/2000/svg"><path d="M4.92 12.257c-.634 0-1.269.263-1.72.777a2.255 2.255 0 00-.566 1.657c.04.612.314 1.166.772 1.572l4.108 3.605c.417.366.954.572 1.509.572.063 0 .125 0 .188-.006a2.289 2.289 0 001.583-.834L20.857 7.28c.8-.977.652-2.423-.326-3.223a2.285 2.285 0 00-3.217.326l-8.566 10.48-2.325-2.04a2.281 2.281 0 00-1.503-.566z" fill="url(#paint0_linear)"/><path d="M9.023 20.028a1.87 1.87 0 01-1.24-.468l-4.109-3.606a1.88 1.88 0 01-.171-2.651 1.88 1.88 0 012.651-.172l2.646 2.32L17.628 4.64a1.884 1.884 0 012.646-.269c.806.657.92 1.84.269 2.646l-10.069 12.32c-.32.394-.794.64-1.297.686-.051 0-.103.005-.154.005z" fill="#2751A0"/><path opacity=".75" d="M9.023 20.028a1.87 1.87 0 01-1.24-.468l-4.109-3.606a1.88 1.88 0 01-.171-2.651 1.88 1.88 0 012.651-.172l2.646 2.32L17.628 4.64a1.884 1.884 0 012.646-.269c.806.657.92 1.84.269 2.646l-10.069 12.32c-.32.394-.794.64-1.297.686-.051 0-.103.005-.154.005z" fill="#2751A0"/><path opacity=".5" d="M9.023 20.028a1.87 1.87 0 01-1.24-.468l-4.109-3.606a1.88 1.88 0 01-.171-2.651 1.88 1.88 0 012.651-.172l2.646 2.32L17.628 4.64a1.884 1.884 0 012.646-.269c.806.657.92 1.84.269 2.646l-10.069 12.32c-.32.394-.794.64-1.297.686-.051 0-.103.005-.154.005z" fill="#2751A0"/><defs><radialGradient id="paint2_radial" cx="0" cy="0" r="1" gradientUnits="userSpaceOnUse" gradientTransform="matrix(-3.6807 7.50364 -3.84544 -1.88628 15.452 8.958)"><stop stop-color="#FBE07A" stop-opacity=".75"/><stop offset=".08" stop-color="#FBE387" stop-opacity=".69"/><stop offset=".517" stop-color="#FDF2C7" stop-opacity=".362"/><stop offset=".836" stop-color="#FFFBF0" stop-opacity=".123"/><stop offset="1" stop-color="#fff" stop-opacity="0"/></radialGradient><radialGradient id="paint3_radial" cx="0" cy="0" r="1" gradientUnits="userSpaceOnUse" gradientTransform="matrix(-8.906 4.0933 -1.7327 -3.76994 11.644 17.024)"><stop stop-color="#440063" stop-opacity=".25"/><stop offset="1" stop-color="#420061" stop-opacity="0"/></radialGradient><linearGradient id="paint0_linear" x1="15.825" y1="-13.967" x2="9.825" y2="23.917" gradientUnits="userSpaceOnUse"><stop stop-color="#0C0"/><stop offset=".188" stop-color="#06C102"/><stop offset=".518" stop-color="#17A306"/><stop offset=".951" stop-color="#33740C"/><stop offset="1" stop-color="#366E0D"/></linearGradient><linearGradient id="paint1_linear" x1="15.25" y1=".625" x2="7.434" y2="23.622" gradientUnits="userSpaceOnUse"><stop offset=".254" stop-color="#90D856"/><stop offset=".736" stop-color="#0C0"/><stop offset=".772" stop-color="#0BCD07"/><stop offset=".834" stop-color="#29CF18"/><stop offset=".917" stop-color="#59D335"/><stop offset="1" stop-color="#90D856"/></linearGradient></defs></svg>