<svg width="52" height="47" fill="none" xmlns="http://www.w3.org/2000/svg"><path d="M26.548 15.148a.842.842 0 00.564-.211.688.688 0 00.234-.51.688.688 0 00-.234-.51.843.843 0 00-.564-.211h-4.786a.843.843 0 00-.564.21.689.689 0 00-.233.51v8.657a.69.69 0 00.233.51c.15.136.353.212.564.212h4.786a.842.842 0 00.564-.212.688.688 0 00.234-.51.688.688 0 00-.234-.51.843.843 0 00-.564-.211H22.56v-2.886h3.988a.842.842 0 00.564-.21.688.688 0 00.234-.511.688.688 0 00-.234-.51.843.843 0 00-.564-.211H22.56v-2.886h3.988zm-8.774-.721v5.6L14.5 14.106a.766.766 0 00-.376-.332.875.875 0 00-.521-.049.811.811 0 00-.443.255.679.679 0 00-.172.448v8.656c0 .192.084.375.234.51a.84.84 0 00.564.212.842.842 0 00.564-.212.688.688 0 00.233-.51v-5.6l3.275 5.923c.066.12.168.22.294.29a.861.861 0 00.603.09.81.81 0 00.442-.255.678.678 0 00.172-.448v-8.656a.688.688 0 00-.234-.51.842.842 0 00-.564-.211.843.843 0 00-.564.211.688.688 0 00-.233.51zm13.846 9.378a.85.85 0 00.506-.165.712.712 0 00.276-.418l1.097-5.05 1.097 5.05a.712.712 0 00.276.418.85.85 0 00.507.165.85.85 0 00.507-.165.712.712 0 00.276-.418l1.88-8.657a.666.666 0 00-.122-.54.806.806 0 00-.508-.306.867.867 0 00-.599.11.722.722 0 00-.337.46l-1.098 5.049-1.096-5.05a.712.712 0 00-.276-.417.851.851 0 00-.507-.164.851.851 0 00-.506.164.712.712 0 00-.276.418l-1.098 5.049-1.097-5.05a.722.722 0 00-.338-.46.867.867 0 00-.598-.109.806.806 0 00-.509.305.666.666 0 00-.12.542l1.88 8.656a.712.712 0 00.275.418.851.851 0 00.507.165z" fill="#2751A0"/><path d="M46.26 5.05H27.118a.842.842 0 00-.564.21.688.688 0 00-.234.51c0 .192.084.376.234.511.15.135.352.211.564.211H46.26c.211 0 .414.076.564.212.15.135.233.318.233.51v22.361H3.987V7.214c0-.192.085-.375.234-.51a.842.842 0 01.564-.212h19.142a.842.842 0 00.564-.211.688.688 0 00.234-.51.688.688 0 00-.234-.51.842.842 0 00-.564-.211H4.785c-.634 0-1.243.228-1.692.633-.448.406-.7.957-.7 1.53v25.97c0 .573.252 1.124.7 1.53a2.527 2.527 0 001.692.633h15.879v1.443H16.44c-.634 0-1.243.228-1.692.634-.449.406-.7.956-.7 1.53v1.443c0 .191.084.374.233.51.15.135.352.211.564.211h9.081a.843.843 0 00.564-.211.688.688 0 00.234-.51.688.688 0 00-.234-.51.842.842 0 00-.564-.212h-8.283v-.721a.69.69 0 01.233-.51.842.842 0 01.564-.211h18.163a.85.85 0 01.564.21.69.69 0 01.233.511v.721h-8.283a.842.842 0 00-.564.212.688.688 0 00-.234.51c0 .191.084.374.234.51.15.135.352.211.564.211h9.08a.843.843 0 00.565-.211.688.688 0 00.233-.51v-1.443c0-.574-.252-1.124-.7-1.53a2.527 2.527 0 00-1.692-.634H30.38v-1.443h15.88c.634 0 1.243-.228 1.692-.634.448-.405.7-.956.7-1.53V7.214c0-.574-.252-1.125-.7-1.53a2.527 2.527 0 00-1.692-.634zM28.786 36.789H22.26v-1.443h6.527v1.443zm18.271-3.607a.688.688 0 01-.233.51.843.843 0 01-.564.212H4.785a.843.843 0 01-.564-.212.688.688 0 01-.233-.51v-2.164h43.07v2.164z" fill="#2751A0"/></svg>