<svg width="47" height="49" fill="none" xmlns="http://www.w3.org/2000/svg"><path d="M7.798 37.204a.798.798 0 01-.37-.08.981.981 0 01-.438-.368 1.028 1.028 0 01-.166-.557v-7.11A6.769 6.769 0 012.64 26.73a7.17 7.17 0 01-1.665-4.609V12.066c0-1.867.719-3.657 1.998-4.977a6.72 6.72 0 014.825-2.061h25.346a6.72 6.72 0 014.825 2.061 7.153 7.153 0 011.999 4.977v10.055a7.153 7.153 0 01-2 4.977 6.72 6.72 0 01-4.824 2.062H15.997L8.49 36.913a.972.972 0 01-.693.291zm0-30.165A4.8 4.8 0 004.352 8.51a5.109 5.109 0 00-1.428 3.555V22.12c0 1.334.514 2.613 1.428 3.555a4.8 4.8 0 003.446 1.473.96.96 0 01.69.294c.183.19.285.445.285.711v5.621l6.132-6.334a.975.975 0 01.692-.292h17.547a4.8 4.8 0 003.446-1.473 5.109 5.109 0 001.428-3.555V12.066a5.109 5.109 0 00-1.428-3.555 4.8 4.8 0 00-3.446-1.472H7.798z" fill="#2751A0"/><path d="M38.993 43.237a.948.948 0 01-.692-.291l-7.506-7.753H17.547a.96.96 0 01-.69-.294 1.022 1.022 0 01-.285-.711c0-.267.103-.523.286-.712a.96.96 0 01.69-.294h13.647a.95.95 0 01.692.292l6.131 6.334v-5.62c0-.267.103-.523.286-.712a.96.96 0 01.69-.294 4.8 4.8 0 003.446-1.473 5.11 5.11 0 001.427-3.555V18.1c0-.266.103-.522.286-.71a.96.96 0 01.69-.295.96.96 0 01.688.294c.183.189.286.445.286.711v10.055a7.17 7.17 0 01-1.665 4.61 6.77 6.77 0 01-4.184 2.359v7.109c0 .198-.059.392-.166.557a.982.982 0 01-.438.368.797.797 0 01-.37.08zM9.749 21.116a3.816 3.816 0 01-2.166-.678 3.998 3.998 0 01-1.437-1.805 4.14 4.14 0 01-.221-2.324c.15-.78.521-1.497 1.067-2.06a3.864 3.864 0 011.996-1.1 3.789 3.789 0 012.253.229 3.93 3.93 0 011.75 1.481 4.12 4.12 0 01.657 2.235c0 1.067-.41 2.09-1.142 2.844a3.84 3.84 0 01-2.757 1.178zm0-6.033c-.386 0-.763.118-1.083.339a2 2 0 00-.718.902 2.07 2.07 0 00-.111 1.162c.075.39.26.749.533 1.03s.62.473.999.55c.378.078.77.038 1.126-.114.356-.152.66-.41.875-.74a2.056 2.056 0 00-.242-2.54 1.92 1.92 0 00-1.38-.59zm10.723 6.033a3.816 3.816 0 01-2.167-.678 3.998 3.998 0 01-1.436-1.805 4.14 4.14 0 01-.222-2.324c.15-.78.522-1.497 1.067-2.06a3.865 3.865 0 011.997-1.1 3.79 3.79 0 012.253.229c.712.304 1.321.82 1.75 1.481a4.12 4.12 0 01.657 2.235c0 1.067-.411 2.09-1.142 2.844a3.84 3.84 0 01-2.757 1.178zm0-6.033a1.91 1.91 0 00-1.084.339 2 2 0 00-.718.902 2.07 2.07 0 00-.11 1.162c.075.39.26.749.533 1.03s.62.473.998.55c.378.078.77.038 1.127-.114.356-.152.66-.41.875-.74a2.063 2.063 0 00-.242-2.54 1.92 1.92 0 00-1.38-.59zm10.722 6.033a3.815 3.815 0 01-2.166-.678 3.999 3.999 0 01-1.436-1.805 4.14 4.14 0 01-.222-2.324c.15-.78.522-1.497 1.067-2.06a3.864 3.864 0 011.996-1.1 3.789 3.789 0 012.253.229 3.93 3.93 0 011.75 1.481c.429.662.657 1.44.657 2.235 0 1.067-.41 2.09-1.142 2.844a3.84 3.84 0 01-2.757 1.178zm0-6.033a1.91 1.91 0 00-1.083.339c-.32.22-.57.535-.718.902a2.07 2.07 0 00-.111 1.162c.075.39.26.749.534 1.03.272.281.62.473.998.55.378.078.77.038 1.126-.114a1.96 1.96 0 00.875-.74 2.056 2.056 0 00-.242-2.54 1.92 1.92 0 00-1.379-.59z" fill="#2751A0"/></svg>