<svg width="45" height="45" fill="none" xmlns="http://www.w3.org/2000/svg"><path fill-rule="evenodd" clip-rule="evenodd" d="M22.5 0C34.926 0 45 10.074 45 22.5S34.926 45 22.5 45 0 34.926 0 22.5 10.074 0 22.5 0zM11.733 30.534h21.535c.12 0 .238-.019.352-.055l-8.028-7.43-2.377 1.833a1.171 1.171 0 01-1.43 0l-2.377-1.832-8.029 7.43c.115.035.234.054.354.054zm5.793-8.936l-6.965-5.37v11.816l6.965-6.446zm4.974.877l10.386-8.008H12.114L22.5 22.475zm11.94 5.57V16.226l-6.967 5.371 6.966 6.446zm-22.707 4.832h21.535a3.519 3.519 0 003.514-3.515V15.638a3.518 3.518 0 00-3.514-3.515H11.733a3.519 3.519 0 00-3.515 3.515v13.724a3.519 3.519 0 003.515 3.515z" fill="url(#paint0_linear_411_14680)"/><defs><linearGradient id="paint0_linear_411_14680" x1="22.5" y1="45" x2="22.5" y2="0" gradientUnits="userSpaceOnUse"><stop stop-color="#098AD4"/><stop offset="1" stop-color="#2F4496"/></linearGradient></defs></svg>