<svg width="60" height="61" fill="none" xmlns="http://www.w3.org/2000/svg"><path d="M31.992 40.156h15.995c.6 0 1-.407 1-1.017v-9.147c0-.61-.4-1.016-1-1.016H31.992c-.6 0-1 .406-1 1.016v9.147c0 .61.4 1.017 1 1.017zm1-9.148h13.995v7.115H32.992v-7.115z" fill="#F1EE00"/><path d="M5 26.943h7.997c.6 0 1-.407 1-1.016 0-.61-.4-1.017-1-1.017H5c-.6 0-1 .407-1 1.017 0 .61.4 1.016 1 1.016zm11.996 0h7.997c.6 0 1-.407 1-1.016 0-.61-.4-1.017-1-1.017h-7.997c-.6 0-1 .407-1 1.017 0 .61.4 1.016 1 1.016zM5 31.008h12.996c.6 0 1-.406 1-1.016s-.4-1.016-1-1.016H5c-.6 0-1 .406-1 1.016s.4 1.016 1 1.016zm19.99-2.032h-2.998c-.6 0-1 .406-1 1.016s.4 1.016 1 1.016h2.999c.6 0 1-.406 1-1.016s-.4-1.016-1-1.016z" fill="#2751A0"/><path d="M59.081 16.373c-.7-.915-1.599-1.423-2.699-1.525l-2.399-.295V9.665c0-2.236-1.8-4.065-3.999-4.065H4c-2.201 0-4 1.829-4 4.065v32.523a4.072 4.072 0 002.865 3.897c-.05 2.056 1.48 3.84 3.533 4.03l46.186 5.286h.4c1.999 0 3.798-1.525 3.998-3.456l3-32.625c.1-1.016-.2-2.134-.9-2.947zM2 12.714h49.985v6.098H1.999v-6.098zm2-5.082h45.985c1.1 0 2 .915 2 2.033v1.016H1.999V9.665c0-1.118.9-2.033 2-2.033zM2 42.188V20.845h49.985v21.343c0 1.118-.9 2.033-2 2.033H4c-1.1 0-2-.915-2-2.033zm55.983-23.274l-3 32.624a2.026 2.026 0 01-2.199 1.83L6.698 48.083c-1-.102-1.7-.915-1.8-1.83h45.086c2.2 0 3.999-1.829 3.999-4.065V16.474l2.3.204c.5 0 .999.305 1.299.711.3.407.5 1.017.4 1.525z" fill="#2751A0"/></svg>