<svg width="41" height="37" fill="none" xmlns="http://www.w3.org/2000/svg"><path d="M26.906 24.188H14.094a.64.64 0 110-1.282h12.812a.64.64 0 110 1.282zm12.172 0h-4.484a.64.64 0 110-1.282h4.484a.64.64 0 110 1.282zM10.25 29.313a3.204 3.204 0 110-6.408 3.204 3.204 0 010 6.407zm0-5.125a1.922 1.922 0 100 3.843 1.922 1.922 0 000-3.843z" fill="#2751A0"/><path d="M39.078 26.75h-3.844a.64.64 0 01-.64-.64 3.844 3.844 0 00-7.688 0 .64.64 0 01-.64.64H14.734a.64.64 0 01-.64-.64 3.844 3.844 0 00-7.688 0 .64.64 0 01-1.281 0 5.125 5.125 0 0110.21-.641h10.33a5.125 5.125 0 0110.17 0h2.602v-6.01l-3.489-1.742a.64.64 0 01-.309-.335l-3.523-8.804a.637.637 0 00-.593-.406h-6.82v11.531a.64.64 0 01-.64.64H5.765a.64.64 0 110-1.28h16.656V7.53a.64.64 0 01.64-.64h7.461a1.914 1.914 0 011.785 1.208l3.43 8.577 3.627 1.813a.641.641 0 01.354.573v7.047a.64.64 0 01-.64.641z" fill="#2751A0"/><path d="M30.75 29.313a3.204 3.204 0 110-6.408 3.204 3.204 0 010 6.407zm0-5.125a1.921 1.921 0 100 3.842 1.921 1.921 0 000-3.843zm1.281-6.407h-6.406a.64.64 0 01-.64-.64v-7.047a.64.64 0 01.64-.64h3.844a.64.64 0 01.602.42l2.562 7.048a.64.64 0 01-.602.86zM26.266 16.5h4.85l-2.096-5.766h-2.754V16.5zm-3.203-8.328a.64.64 0 01-.641-.64V4.968H8.328a.64.64 0 010-1.282h14.735a.64.64 0 01.64.641V7.53a.64.64 0 01-.64.64zM5.766 4.969H3.844a.64.64 0 110-1.282h1.922a.64.64 0 110 1.282z" fill="#2751A0"/><path d="M11.531 9.453H2.562a.64.64 0 110-1.281h8.97a.64.64 0 110 1.281zm-3.924 5.766H1.922a.64.64 0 110-1.281h5.685a.64.64 0 010 1.28zm-4.404 5.125H1.922a.64.64 0 110-1.282h1.281a.64.64 0 010 1.282z" fill="#F1EE00"/></svg>