<svg width="366" height="495" fill="none" xmlns="http://www.w3.org/2000/svg"><g opacity=".14" clip-path="url(#clip0_245_1677)"><path d="M296.705 132.499h-54.766l-19.211-19.188H114.916V65.768h-201v-1.719H116.35v47.543h106.951l19.211 19.189h54.193c.287-1.146 1.434-2.291 2.867-2.291 1.721 0 2.868 1.432 2.868 3.15 0 1.719-1.434 3.151-2.868 3.151-1.147 0-2.294-1.146-2.867-2.292z" fill="url(#paint0_linear_245_1677)"/><path d="M350.326 299.762h-57.92l-19.211-19.189h-73.117v14.606H95.994l-14.337-15.465H37.213v16.897H-35.33c-.287 1.146-1.434 2.292-2.867 2.292-1.72 0-3.155-1.432-3.155-2.864 0-1.719 1.434-3.151 3.154-3.151 1.434 0 2.581.859 2.868 2.291h70.823v-16.897h46.738l14.336 15.465h101.791v-14.606h75.41l19.212 19.189h57.059c.287-1.432 1.434-2.291 2.868-2.291 1.72 0 3.154 1.432 3.154 2.864 0 1.718-1.434 3.15-3.154 3.15-1.147 0-2.294-.859-2.581-2.291z" fill="url(#paint1_linear_245_1677)"/><path d="M340.002 306.348h-47.884l-19.212-19.189h-65.375v16.898H91.978L75.06 287.159H44.953v16.898H-61.998c-.287 1.145-1.434 2.291-2.867 2.291-1.72 0-3.154-1.432-3.154-3.151 0-1.718 1.433-3.15 3.154-3.15 1.433 0 2.58.859 2.867 2.291H43.233V285.44h32.114l16.917 16.898h113.26V285.44h67.669l19.211 19.189h47.025c.286-1.432 1.433-2.291 2.867-2.291 1.72 0 2.867 1.432 2.867 2.864 0 1.719-1.434 3.151-2.867 3.151-.86 0-2.007-.86-2.294-2.005z" fill="url(#paint2_linear_245_1677)"/><path d="M283.229 139.089h-44.444L219.574 119.9H107.748V72.357H-85.797V70.64h195.265v47.542h110.966l19.211 19.189h44.157c.287-1.145 1.434-2.291 2.868-2.291 1.72 0 3.154 1.432 3.154 2.864 0 1.719-1.434 3.151-3.154 3.151-1.721 0-2.868-.86-3.441-2.005z" fill="url(#paint3_linear_245_1677)"/><path d="M231.044 148.536h-55.052l-19.212-19.189H81.656v16.898H-56.836v-1.719H80.223v-16.898h77.418l19.211 19.189h54.192c.287-1.145 1.434-2.291 2.868-2.291 1.72 0 3.154 1.432 3.154 3.151 0 1.718-1.434 3.15-3.154 3.15-1.434 0-2.581-1.146-2.868-2.291z" fill="url(#paint4_linear_245_1677)"/><path d="M217.566 155.127h-44.731l-19.211-19.189H88.249v16.897H-59.992v-1.718H86.815v-16.898h67.669l19.211 19.189h44.157c.287-1.145 1.434-2.291 2.868-2.291 1.72 0 2.867 1.432 2.867 2.864 0 1.718-1.434 3.15-2.867 3.15-1.721 0-2.868-.859-3.154-2.004z" fill="url(#paint5_linear_245_1677)"/><path d="M214.987 162.286h-44.73l-19.211-19.189h-55.34v16.898H-62.857v-1.719H93.986v-16.898h57.633l19.211 19.189h44.157c.287-1.145 1.434-2.291 2.867-2.291 1.721 0 2.868 1.432 2.868 2.864 0 1.719-1.434 3.151-2.868 3.151-1.433.286-2.58-.573-2.867-2.005z" fill="url(#paint6_linear_245_1677)"/><path d="M81.943 79.518c0 1.432-.86 2.577-2.294 2.864v15.752H51.836L32.91 79.23h-75.124v16.9h-138.492v-1.72h137.058V77.513H33.77l19.212 19.189h25.232v-14.32c-1.147-.287-2.294-1.432-2.294-2.864 0-1.719 1.434-3.15 2.868-3.15 1.72 0 3.154 1.431 3.154 3.15z" fill="url(#paint7_linear_245_1677)"/><path d="M30.043 84.1l19.211 19.189H87.39v-9.165c-1.147-.286-2.294-1.432-2.294-2.864 0-1.719 1.434-3.15 3.154-3.15s3.154 1.431 3.154 3.15c0 1.432-.86 2.578-2.294 2.864v10.597H48.68l-19.21-19.19h-65.375v16.899h-148.241v-1.719h146.807V83.814h67.382v.286z" fill="url(#paint8_linear_245_1677)"/><path d="M27.463 91.258l19.211 19.189h50.178c.287-1.145 1.434-2.291 2.868-2.291 1.72 0 3.154 1.432 3.154 3.15 0 1.719-1.434 3.151-3.154 3.151-1.434 0-2.581-.859-2.868-2.291H46.1l-19.21-19.19h-55.34v16.898h-158.564v-1.718h156.843V91.258h57.634z" fill="url(#paint9_linear_245_1677)"/><path d="M13.413 100.994c.287-1.145 1.434-2.29 2.867-2.29 1.72 0 3.154 1.431 3.154 3.15 0 1.718-1.433 2.864-3.154 2.864-1.433 0-2.58-.86-2.867-2.292h-33.548v16.898h-138.492v-1.718h137.059v-16.898h34.981v.286z" fill="url(#paint10_linear_245_1677)"/><path d="M23.448 107.3c.287-1.146 1.434-2.292 2.868-2.292 1.72 0 3.154 1.432 3.154 3.151 0 1.718-1.434 3.15-3.154 3.15-1.434 0-2.58-.859-2.867-2.291h-36.99v16.898h-148.24v-1.719h146.807V107.3h38.422z" fill="url(#paint11_linear_245_1677)"/><path d="M30.617 114.744c.287-1.145 1.434-2.291 2.867-2.291 1.72 0 2.868 1.432 2.868 3.151 0 1.718-1.434 3.15-2.868 3.15-1.433 0-2.58-.859-2.867-2.291H-6.085v16.898h-158.563v-1.719H-7.805v-16.898h38.422z" fill="url(#paint12_linear_245_1677)"/><path d="M72.194 122.477v18.33H24.883v-9.451h26.953c.287-1.146 1.433-2.292 2.867-2.292 1.72 0 2.867 1.432 2.867 2.864 0 1.719-1.433 3.151-2.867 3.151s-2.58-.859-2.867-2.291H26.603v6.587H70.76v-15.18H14.274v16.898h-135.338v-1.718H12.553v-16.898h59.64z" fill="url(#paint13_linear_245_1677)"/><path d="M152.479 28.538v14.607H48.394L34.058 27.679h-44.444v16.898h-72.543c-.287 1.145-1.434 2.291-2.868 2.291-1.72 0-2.867-1.432-2.867-3.15 0-1.719 1.434-2.864 2.867-2.864 1.434 0 2.58.859 2.868 2.29h71.11V26.248h46.45l14.337 15.466h101.79V27.106h75.411l19.211 19.19h60.214v1.431h-60.787l-19.211-19.189h-73.117z" fill="url(#paint14_linear_245_1677)"/><path d="M159.935 35.126v16.898H44.382L27.465 35.126H-2.642v16.898h-106.952c-.287 1.145-1.434 2.291-2.867 2.291-1.721 0-3.154-1.432-3.154-3.15 0-1.719 1.433-2.864 3.154-2.864 1.433 0 2.58.859 2.867 2.29H-4.363V33.695h32.401l16.917 16.898h113.547V33.408h67.669l19.211 19.189h49.892v1.718h-50.465l-19.212-19.189h-65.662z" fill="url(#paint15_linear_245_1677)"/><path d="M283.802 60.613h-44.73L219.86 41.424h-55.339v16.898H-86.084v-1.719h248.885V39.706h57.633l19.211 19.188h44.157c.287-1.145 1.434-2.29 2.867-2.29 1.721 0 3.154 1.431 3.154 3.15 0 1.718-1.433 3.15-3.154 3.15-1.433 0-2.58-1.146-2.867-2.291z" fill="url(#paint16_linear_245_1677)"/><path d="M140.148 23.38H61.009L42.085 4.19h-75.124v16.898h-138.492V19.37h137.058V2.76h77.418L61.87 21.948h78.565c.286-1.146 1.433-2.291 2.867-2.291 1.72 0 2.867 1.431 2.867 3.15 0 1.718-1.433 2.864-2.867 2.864s-2.581-.86-3.154-2.291z" fill="url(#paint17_linear_245_1677)"/><path d="M125.526 26.246c1.72 0 3.154 1.432 3.154 2.864 0 1.719-1.434 3.15-3.154 3.15-1.434 0-2.581-.858-2.868-2.29H57.857L38.646 10.78H-26.73v16.898h-148.24V25.96h146.808V9.062H39.22l19.211 19.19h64.228c.287-1.146 1.434-2.006 2.868-2.006z" fill="url(#paint18_linear_245_1677)"/><path d="M36.639 16.509l19.21 19.189h51.326c.287-1.146 1.434-2.291 2.867-2.291 1.721 0 3.154 1.432 3.154 3.15s-1.433 3.15-3.154 3.15c-1.433 0-2.58-.859-2.867-2.29H55.276L36.066 17.94h-55.34v16.898h-158.564v-1.432h156.843V16.509H36.64z" fill="url(#paint19_linear_245_1677)"/><path d="M278.355 236.465h-55.053l-18.924-19.188h-75.411v16.897H-9.525v-1.718h137.058v-16.898h77.418l19.211 19.189h54.193c.287-1.146 1.434-2.291 2.867-2.291 1.721 0 3.154 1.432 3.154 3.15 0 1.719-1.433 2.864-3.154 2.864-1.433.287-2.58-.573-2.867-2.005z" fill="url(#paint20_linear_245_1677)"/><path d="M264.878 243.054h-44.73l-19.211-19.189h-65.376v16.898h-148.24v-1.719h146.807v-16.611h67.382l19.211 19.189h44.157c.287-1.146 1.434-2.291 2.867-2.291 1.721 0 2.868 1.432 2.868 3.15 0 1.719-1.434 3.151-2.868 3.151-1.433-.287-2.58-1.146-2.867-2.578z" fill="url(#paint21_linear_245_1677)"/><path d="M262.298 250.5h-44.731l-19.211-19.189h-55.339v16.897H-15.547v-1.718h156.843v-16.898h57.634l19.211 19.189h44.157c.286-1.145 1.433-2.291 2.867-2.291 1.72 0 3.154 1.432 3.154 3.15 0 1.719-1.434 3.151-3.154 3.151-1.434-.287-2.581-1.146-2.867-2.291z" fill="url(#paint22_linear_245_1677)"/><path d="M125.527 184.624v-28.926c-1.147-.287-2.294-1.432-2.294-2.864 0-1.719 1.434-2.864 2.868-2.864 1.72 0 3.154 1.432 3.154 2.864s-.86 2.577-2.294 2.864v30.645H99.148l-19.211-19.189H4.813v16.898H-133.68v-1.719H3.379v-16.898h77.418l19.211 19.189h25.519z" fill="url(#paint23_linear_245_1677)"/><path d="M11.407 173.742v16.897h-148.241v-1.718H9.973v-16.898h67.67l19.21 19.189h38.136v-23.771c-1.147-.287-2.294-1.432-2.294-2.864 0-1.719 1.434-3.151 2.868-3.151 1.72 0 3.154 1.432 3.154 3.151 0 1.432-.86 2.577-2.294 2.864v25.49h-40.43l-19.21-19.189H11.406z" fill="url(#paint24_linear_245_1677)"/><path d="M163.949 200.094H93.413l-19.211-19.189h-55.34v16.897H-139.7v-1.718H17.142v-16.611h57.633l19.212 19.189h69.962c.287-1.146 1.434-2.292 2.868-2.292 1.72 0 3.154 1.432 3.154 3.151 0 1.718-1.434 3.15-3.154 3.15-1.147-.286-2.294-1.145-2.868-2.577z" fill="url(#paint25_linear_245_1677)"/><path d="M72.193 229.015v-9.451h26.953c.287-1.146 1.434-2.291 2.868-2.291 1.72 0 3.154 1.432 3.154 3.15 0 1.719-1.434 3.151-3.154 3.151-1.434 0-2.581-.86-2.868-2.292H73.914v6.301h44.157v-15.179H61.298v16.898H-73.754v-1.719H59.864v-16.897h59.64v18.329h-47.31z" fill="url(#paint26_linear_245_1677)"/><path d="M344.305 384.534h-54.767l-19.211-19.189H162.516v-47.543h-201v-1.718h202.433v47.543h106.952l19.211 19.189h54.193c.286-1.146 1.433-2.291 2.867-2.291 1.72 0 2.867 1.432 2.867 3.15s-1.433 3.15-2.867 3.15-2.581-.859-2.867-2.291z" fill="url(#paint27_linear_245_1677)"/><path d="M330.828 391.124h-44.73l-19.211-19.189H155.061v-47.543H-38.484v-1.718H156.78v47.543h110.966l19.211 19.189h44.157c.287-1.146 1.434-2.292 2.867-2.292 1.721 0 3.154 1.432 3.154 2.864 0 1.719-1.433 2.864-3.154 2.864-1.72.573-2.867-.572-3.154-1.718z" fill="url(#paint28_linear_245_1677)"/><path d="M129.54 331.552c0 1.432-.86 2.578-2.294 2.864v15.752H99.433l-19.211-19.189H5.098v16.898h-138.493v-1.718H3.664v-16.898h77.418l19.211 19.189h25.519v-14.32c-1.147-.287-2.293-1.432-2.293-2.864 0-1.719 1.433-2.864 3.154-2.864 1.433.286 2.867 1.432 2.867 3.15z" fill="url(#paint29_linear_245_1677)"/><path d="M77.642 336.133l19.212 19.189h38.135v-9.165c-1.147-.287-2.294-1.432-2.294-2.864 0-1.719 1.434-3.151 2.868-3.151 1.72 0 3.154 1.432 3.154 3.151 0 1.432-.86 2.577-2.294 2.864v10.597H96.28l-19.21-19.189H11.407v16.897h-148.241v-1.718H9.973v-16.898h67.67v.287z" fill="url(#paint30_linear_245_1677)"/><path d="M75.06 343.579l19.212 19.189h50.178c.287-1.145 1.434-2.291 2.867-2.291 1.721 0 2.868 1.432 2.868 3.151 0 1.718-1.434 2.864-2.868 2.864-1.433 0-2.58-.86-2.867-2.292H93.411l-19.21-19.189H19.147v16.898h-158.564v-1.718H17.427v-16.898h57.634v.286z" fill="url(#paint31_linear_245_1677)"/><path d="M61.013 353.029c.286-1.146 1.433-2.291 2.867-2.291 1.72 0 3.154 1.432 3.154 2.864 0 1.718-1.434 2.864-3.154 2.864-1.434 0-2.58-.859-2.867-2.291H27.465v16.897h-138.492v-1.718H25.744v-16.898h35.269v.573z" fill="url(#paint32_linear_245_1677)"/><path d="M71.048 359.618c.287-1.145 1.434-2.291 2.867-2.291 1.72 0 3.154 1.432 3.154 2.864 0 1.719-1.433 2.864-3.154 2.864-1.433 0-2.58-.859-2.867-2.291H34.06v16.898h-148.241v-1.719h146.52v-16.897h38.71v.572z" fill="url(#paint33_linear_245_1677)"/><path d="M78.217 366.779c.286-1.146 1.433-2.291 2.867-2.291 1.72 0 2.867 1.432 2.867 3.15 0 1.719-1.433 2.864-2.867 2.864s-2.58-.859-2.867-2.291H41.515v16.898H-117.05v-1.719H39.794v-16.897h38.423v.286z" fill="url(#paint34_linear_245_1677)"/><path d="M119.791 374.512v18.329h-47.31v-9.451h26.952c.287-1.145 1.434-2.291 2.867-2.291 1.721 0 2.868 1.432 2.868 3.15 0 1.719-1.434 2.864-2.868 2.864-1.433 0-2.58-.859-2.867-2.291H74.2v6.301h44.157v-15.179H61.584v16.897H-73.754v-1.432H59.864v-16.897h59.927z" fill="url(#paint35_linear_245_1677)"/><path d="M331.115 312.648h-44.731l-19.211-19.189h-55.052v16.897H-38.484v-1.718H210.4V291.74h57.634l19.211 19.189h44.157c.286-1.145 1.433-2.291 2.867-2.291 1.72 0 3.154 1.432 3.154 3.15 0 1.719-1.434 3.151-3.154 3.151s-2.867-.859-3.154-2.291z" fill="url(#paint36_linear_245_1677)"/><path d="M187.747 275.415h-79.138l-19.211-19.189H14.274v16.897H-124.22v-1.718H12.84v-16.898h77.418l19.211 19.189h78.565c.287-1.145 1.434-2.291 2.867-2.291 1.721 0 2.868 1.432 2.868 3.15 0 1.719-1.434 3.151-2.868 3.151-1.72 0-2.867-.859-3.154-2.291z" fill="url(#paint37_linear_245_1677)"/><path d="M173.125 278.281c1.72 0 3.154 1.432 3.154 3.151 0 1.718-1.434 2.864-3.154 2.864-1.434 0-2.581-.859-2.867-2.291h-64.802l-19.211-19.189H20.583v16.897h-148.241v-1.718H19.149v-16.898h67.67l19.21 19.189h64.229c.286-1.145 1.433-2.005 2.867-2.005z" fill="url(#paint38_linear_245_1677)"/><path d="M84.236 268.542l19.211 19.188h51.326c.286-1.145 1.433-2.291 2.867-2.291 1.72 0 3.154 1.432 3.154 2.864 0 1.719-1.434 3.151-3.154 3.151-1.434 0-2.581-.86-2.867-2.292h-52.186l-19.21-19.188H28.322v16.897H-130.24v-1.432H26.603v-16.897h57.633z" fill="url(#paint39_linear_245_1677)"/><path d="M212.406 526.588h-55.053l-19.211-19.189H30.33v-47.542h-201v-1.719H32.05v47.543h106.952l19.211 19.189h54.193c.287-1.146 1.434-2.291 2.867-2.291 1.721 0 3.154 1.432 3.154 3.15 0 1.719-1.433 2.864-3.154 2.864-1.433 0-2.58-.859-2.867-2.005z" fill="url(#paint40_linear_245_1677)"/><path d="M198.93 532.892h-44.731l-19.211-19.189H23.162V466.16h-193.545v-1.718H24.596v47.543h110.966l19.211 19.189h44.157c.286-1.146 1.433-2.292 2.867-2.292 1.72 0 3.154 1.432 3.154 2.864 0 1.719-1.434 2.864-3.154 2.864-1.434.573-2.581-.286-2.867-1.718z" fill="url(#paint41_linear_245_1677)"/><path d="M-54.256 477.903l19.211 19.189H3.091v-9.165c-1.147-.286-2.294-1.432-2.294-2.864 0-1.718 1.434-3.15 2.867-3.15 1.72 0 3.154 1.432 3.154 3.15 0 1.432-.86 2.578-2.294 2.864v10.597h-40.429l-19.211-19.189h-65.375v16.898h-148.241v-1.719h146.807v-16.897h67.67v.286z" fill="url(#paint42_linear_245_1677)"/><path d="M-57.123 485.348l19.211 19.189h50.178c.287-1.146 1.434-2.291 2.868-2.291 1.72 0 3.154 1.432 3.154 3.15 0 1.719-1.434 2.864-3.154 2.864-1.434 0-2.58-.859-2.868-2.291h-51.038l-19.211-19.189h-55.34v16.898H-271.6v-1.719h156.844v-16.897h57.633v.286z" fill="url(#paint43_linear_245_1677)"/><path d="M68.178 422.628v14.606H-35.906l-14.337-15.465h-44.444v16.897h-72.543c-.287 1.146-1.434 2.292-2.868 2.292-1.72 0-2.867-1.432-2.867-2.864 0-1.719 1.434-3.151 2.867-3.151 1.434 0 2.581.859 2.868 2.291h71.11V420.05h46.737l14.337 15.466h101.79V420.91h75.411l19.211 19.188h60.214v1.719h-61.361l-19.211-19.189h-72.83z" fill="url(#paint44_linear_245_1677)"/><path d="M75.635 428.929v16.898H-39.918l-16.918-16.898h-29.82v16.898h-106.952c-.286 1.146-1.433 2.291-2.867 2.291-1.72 0-3.154-1.432-3.154-3.15 0-1.719 1.434-3.151 3.154-3.151 1.434 0 2.581.86 2.867 2.292h105.232v-16.898h31.827l16.917 16.898h113.26v-16.898h67.669l19.211 19.189H210.4v1.718h-50.179l-19.211-19.189H75.635z" fill="url(#paint45_linear_245_1677)"/><path d="M199.216 454.702h-44.73l-19.211-19.189h-55.34v16.898H-170.67v-1.718H78.215v-16.898h57.633l19.211 19.189h44.157c.287-1.146 1.434-2.291 2.867-2.291 1.721 0 3.154 1.432 3.154 2.864 0 1.718-1.433 3.15-3.154 3.15-1.433 0-2.58-.859-2.867-2.005z" fill="url(#paint46_linear_245_1677)"/><path d="M55.849 417.473H-23.29l-19.21-19.189h-75.125v16.898h-138.492v-1.719h137.058v-16.898h246.878v-16.611h77.418l19.211 19.189h54.192c.287-1.146 1.434-2.291 2.868-2.291 1.72 0 3.154 1.432 3.154 2.864 0 1.718-1.434 3.15-3.154 3.15-1.434 0-2.581-.859-2.868-2.291h-55.052l-19.212-19.189h-75.124v16.898H-40.207l4.874 4.869H133.84v-16.898h67.669l19.211 19.189h44.157c.287-1.146 1.434-2.291 2.868-2.291 1.72 0 3.154 1.432 3.154 2.864 0 1.718-1.434 3.15-3.154 3.15-1.434 0-2.581-.859-2.868-2.291h-44.443l-19.212-19.189h-65.661v16.898H-33.612l5.735 5.728h169.459v-16.898h57.633l19.211 19.189h44.157c.287-1.146 1.434-2.291 2.868-2.291 1.72 0 3.154 1.432 3.154 3.15 0 1.719-1.434 2.864-3.154 2.864-1.434 0-2.581-.859-2.868-2.291h-45.017l-19.211-19.189h-55.053v16.898h-169.46l3.729 3.723h78.564c.287-1.146 1.434-2.291 2.868-2.291 1.72 0 2.867 1.432 2.867 3.15 0 1.719-1.434 2.864-2.867 2.864-1.72.287-2.868-.573-3.154-1.718z" fill="url(#paint47_linear_245_1677)"/><path d="M40.94 420.049c1.72 0 3.154 1.432 3.154 3.151 0 1.718-1.434 3.15-3.154 3.15-1.434 0-2.58-.859-2.867-2.291H-26.73l-19.21-19.189h-65.375v16.898h-148.242v-1.719h146.808v-16.898h67.669l19.211 19.189h63.942c.573-1.432 1.72-2.291 2.867-2.291z" fill="url(#paint48_linear_245_1677)"/><path d="M-47.947 410.313l19.21 19.189H22.59c.287-1.146 1.434-2.291 2.867-2.291 1.72 0 2.868 1.432 2.868 2.864 0 1.718-1.434 3.15-2.868 3.15-1.433 0-2.58-.859-2.867-2.291h-51.9l-19.21-19.189h-55.34v16.898h-158.564v-1.719h157.13v-16.898h57.347v.287z" fill="url(#paint49_linear_245_1677)"/></g><defs><linearGradient id="paint0_linear_245_1677" x1="-156.954" y1="87.311" x2="542.843" y2="110.554" gradientUnits="userSpaceOnUse"><stop stop-color="#fff"/><stop offset=".326" stop-color="#B8B7B7"/><stop offset=".656" stop-color="#706E6E"/><stop offset=".778" stop-color="#575454"/><stop offset="1"/></linearGradient><linearGradient id="paint1_linear_245_1677" x1="-163.342" y1="279.7" x2="536.457" y2="302.943" gradientUnits="userSpaceOnUse"><stop stop-color="#fff"/><stop offset=".326" stop-color="#B8B7B7"/><stop offset=".656" stop-color="#706E6E"/><stop offset=".778" stop-color="#575454"/><stop offset="1"/></linearGradient><linearGradient id="paint2_linear_245_1677" x1="436.254" y1="297.397" x2="-235.906" y2="295.183" gradientUnits="userSpaceOnUse"><stop stop-color="#fff"/><stop offset=".326" stop-color="#B8B7B7"/><stop offset=".656" stop-color="#706E6E"/><stop offset=".778" stop-color="#575454"/><stop offset="1"/></linearGradient><linearGradient id="paint3_linear_245_1677" x1="-157.181" y1="94.171" x2="542.613" y2="117.414" gradientUnits="userSpaceOnUse"><stop stop-color="#fff"/><stop offset=".326" stop-color="#B8B7B7"/><stop offset=".656" stop-color="#706E6E"/><stop offset=".778" stop-color="#575454"/><stop offset="1"/></linearGradient><linearGradient id="paint4_linear_245_1677" x1="436.776" y1="140.033" x2="-235.389" y2="137.819" gradientUnits="userSpaceOnUse"><stop stop-color="#fff"/><stop offset=".326" stop-color="#B8B7B7"/><stop offset=".656" stop-color="#706E6E"/><stop offset=".778" stop-color="#575454"/><stop offset="1"/></linearGradient><linearGradient id="paint5_linear_245_1677" x1="269.095" y1="144.686" x2="-320.152" y2="150.22" gradientUnits="userSpaceOnUse"><stop stop-color="#fff"/><stop offset=".326" stop-color="#B8B7B7"/><stop offset=".656" stop-color="#706E6E"/><stop offset=".778" stop-color="#575454"/><stop offset="1"/></linearGradient><linearGradient id="paint6_linear_245_1677" x1="269.166" y1="151.989" x2="-320.081" y2="157.523" gradientUnits="userSpaceOnUse"><stop stop-color="#fff"/><stop offset=".326" stop-color="#B8B7B7"/><stop offset=".656" stop-color="#706E6E"/><stop offset=".778" stop-color="#575454"/><stop offset="1"/></linearGradient><linearGradient id="paint7_linear_245_1677" x1="-156.801" y1="82.717" x2="543.002" y2="105.96" gradientUnits="userSpaceOnUse"><stop stop-color="#fff"/><stop offset=".326" stop-color="#B8B7B7"/><stop offset=".656" stop-color="#706E6E"/><stop offset=".778" stop-color="#575454"/><stop offset="1"/></linearGradient><linearGradient id="paint8_linear_245_1677" x1="268.605" y1="92.147" x2="-320.645" y2="97.682" gradientUnits="userSpaceOnUse"><stop stop-color="#fff"/><stop offset=".326" stop-color="#B8B7B7"/><stop offset=".656" stop-color="#706E6E"/><stop offset=".778" stop-color="#575454"/><stop offset="1"/></linearGradient><linearGradient id="paint9_linear_245_1677" x1="268.683" y1="100.619" x2="-320.566" y2="106.153" gradientUnits="userSpaceOnUse"><stop stop-color="#fff"/><stop offset=".326" stop-color="#B8B7B7"/><stop offset=".656" stop-color="#706E6E"/><stop offset=".778" stop-color="#575454"/><stop offset="1"/></linearGradient><linearGradient id="paint10_linear_245_1677" x1="268.74" y1="106.479" x2="-320.51" y2="112.014" gradientUnits="userSpaceOnUse"><stop stop-color="#fff"/><stop offset=".326" stop-color="#B8B7B7"/><stop offset=".656" stop-color="#706E6E"/><stop offset=".778" stop-color="#575454"/><stop offset="1"/></linearGradient><linearGradient id="paint11_linear_245_1677" x1="268.804" y1="113.084" x2="-320.452" y2="118.618" gradientUnits="userSpaceOnUse"><stop stop-color="#fff"/><stop offset=".326" stop-color="#B8B7B7"/><stop offset=".656" stop-color="#706E6E"/><stop offset=".778" stop-color="#575454"/><stop offset="1"/></linearGradient><linearGradient id="paint12_linear_245_1677" x1="-158.031" y1="119.758" x2="541.763" y2="143" gradientUnits="userSpaceOnUse"><stop stop-color="#fff"/><stop offset=".326" stop-color="#B8B7B7"/><stop offset=".656" stop-color="#706E6E"/><stop offset=".778" stop-color="#575454"/><stop offset="1"/></linearGradient><linearGradient id="paint13_linear_245_1677" x1="268.956" y1="129.543" x2="-320.294" y2="135.078" gradientUnits="userSpaceOnUse"><stop stop-color="#fff"/><stop offset=".326" stop-color="#B8B7B7"/><stop offset=".656" stop-color="#706E6E"/><stop offset=".778" stop-color="#575454"/><stop offset="1"/></linearGradient><linearGradient id="paint14_linear_245_1677" x1="-155.031" y1="29.417" x2="544.768" y2="52.66" gradientUnits="userSpaceOnUse"><stop stop-color="#fff"/><stop offset=".326" stop-color="#B8B7B7"/><stop offset=".656" stop-color="#706E6E"/><stop offset=".778" stop-color="#575454"/><stop offset="1"/></linearGradient><linearGradient id="paint15_linear_245_1677" x1="-155.273" y1="36.753" x2="544.526" y2="59.996" gradientUnits="userSpaceOnUse"><stop stop-color="#fff"/><stop offset=".326" stop-color="#B8B7B7"/><stop offset=".656" stop-color="#706E6E"/><stop offset=".778" stop-color="#575454"/><stop offset="1"/></linearGradient><linearGradient id="paint16_linear_245_1677" x1="268.217" y1="50.917" x2="-321.032" y2="56.451" gradientUnits="userSpaceOnUse"><stop stop-color="#fff"/><stop offset=".326" stop-color="#B8B7B7"/><stop offset=".656" stop-color="#706E6E"/><stop offset=".778" stop-color="#575454"/><stop offset="1"/></linearGradient><linearGradient id="paint17_linear_245_1677" x1="267.85" y1="12.13" x2="-321.395" y2="17.664" gradientUnits="userSpaceOnUse"><stop stop-color="#fff"/><stop offset=".326" stop-color="#B8B7B7"/><stop offset=".656" stop-color="#706E6E"/><stop offset=".778" stop-color="#575454"/><stop offset="1"/></linearGradient><linearGradient id="paint18_linear_245_1677" x1="437.164" y1="21.827" x2="-235" y2="19.613" gradientUnits="userSpaceOnUse"><stop stop-color="#fff"/><stop offset=".326" stop-color="#B8B7B7"/><stop offset=".656" stop-color="#706E6E"/><stop offset=".778" stop-color="#575454"/><stop offset="1"/></linearGradient><linearGradient id="paint19_linear_245_1677" x1="437.139" y1="29.138" x2="-235.024" y2="26.924" gradientUnits="userSpaceOnUse"><stop stop-color="#fff"/><stop offset=".326" stop-color="#B8B7B7"/><stop offset=".656" stop-color="#706E6E"/><stop offset=".778" stop-color="#575454"/><stop offset="1"/></linearGradient><linearGradient id="paint20_linear_245_1677" x1="436.487" y1="227.926" x2="-235.68" y2="225.713" gradientUnits="userSpaceOnUse"><stop stop-color="#fff"/><stop offset=".326" stop-color="#B8B7B7"/><stop offset=".656" stop-color="#706E6E"/><stop offset=".778" stop-color="#575454"/><stop offset="1"/></linearGradient><linearGradient id="paint21_linear_245_1677" x1="-161.46" y1="223.078" x2="538.332" y2="246.321" gradientUnits="userSpaceOnUse"><stop stop-color="#fff"/><stop offset=".326" stop-color="#B8B7B7"/><stop offset=".656" stop-color="#706E6E"/><stop offset=".778" stop-color="#575454"/><stop offset="1"/></linearGradient><linearGradient id="paint22_linear_245_1677" x1="436.441" y1="241.771" x2="-235.724" y2="239.557" gradientUnits="userSpaceOnUse"><stop stop-color="#fff"/><stop offset=".326" stop-color="#B8B7B7"/><stop offset=".656" stop-color="#706E6E"/><stop offset=".778" stop-color="#575454"/><stop offset="1"/></linearGradient><linearGradient id="paint23_linear_245_1677" x1="269.307" y1="166.716" x2="-319.943" y2="172.251" gradientUnits="userSpaceOnUse"><stop stop-color="#fff"/><stop offset=".326" stop-color="#B8B7B7"/><stop offset=".656" stop-color="#706E6E"/><stop offset=".778" stop-color="#575454"/><stop offset="1"/></linearGradient><linearGradient id="paint24_linear_245_1677" x1="436.649" y1="178.237" x2="-235.516" y2="176.023" gradientUnits="userSpaceOnUse"><stop stop-color="#fff"/><stop offset=".326" stop-color="#B8B7B7"/><stop offset=".656" stop-color="#706E6E"/><stop offset=".778" stop-color="#575454"/><stop offset="1"/></linearGradient><linearGradient id="paint25_linear_245_1677" x1="-160.176" y1="184.362" x2="539.625" y2="207.605" gradientUnits="userSpaceOnUse"><stop stop-color="#fff"/><stop offset=".326" stop-color="#B8B7B7"/><stop offset=".656" stop-color="#706E6E"/><stop offset=".778" stop-color="#575454"/><stop offset="1"/></linearGradient><linearGradient id="paint26_linear_245_1677" x1="-161.148" y1="213.614" x2="538.65" y2="236.856" gradientUnits="userSpaceOnUse"><stop stop-color="#fff"/><stop offset=".326" stop-color="#B8B7B7"/><stop offset=".656" stop-color="#706E6E"/><stop offset=".778" stop-color="#575454"/><stop offset="1"/></linearGradient><linearGradient id="paint27_linear_245_1677" x1="271.03" y1="350.446" x2="-318.216" y2="355.98" gradientUnits="userSpaceOnUse"><stop stop-color="#fff"/><stop offset=".326" stop-color="#B8B7B7"/><stop offset=".656" stop-color="#706E6E"/><stop offset=".778" stop-color="#575454"/><stop offset="1"/></linearGradient><linearGradient id="paint28_linear_245_1677" x1="436.056" y1="358.69" x2="-236.11" y2="356.476" gradientUnits="userSpaceOnUse"><stop stop-color="#fff"/><stop offset=".326" stop-color="#B8B7B7"/><stop offset=".656" stop-color="#706E6E"/><stop offset=".778" stop-color="#575454"/><stop offset="1"/></linearGradient><linearGradient id="paint29_linear_245_1677" x1="-165.114" y1="333.001" x2="534.685" y2="356.243" gradientUnits="userSpaceOnUse"><stop stop-color="#fff"/><stop offset=".326" stop-color="#B8B7B7"/><stop offset=".656" stop-color="#706E6E"/><stop offset=".778" stop-color="#575454"/><stop offset="1"/></linearGradient><linearGradient id="paint30_linear_245_1677" x1="277.669" y1="346.772" x2="-683.037" y2="345.666" gradientUnits="userSpaceOnUse"><stop stop-color="#fff"/><stop offset=".326" stop-color="#B8B7B7"/><stop offset=".656" stop-color="#706E6E"/><stop offset=".778" stop-color="#575454"/><stop offset="1"/></linearGradient><linearGradient id="paint31_linear_245_1677" x1="-165.62" y1="348.257" x2="534.177" y2="371.5" gradientUnits="userSpaceOnUse"><stop stop-color="#fff"/><stop offset=".326" stop-color="#B8B7B7"/><stop offset=".656" stop-color="#706E6E"/><stop offset=".778" stop-color="#575454"/><stop offset="1"/></linearGradient><linearGradient id="paint32_linear_245_1677" x1="271.116" y1="359.036" x2="-318.136" y2="364.57" gradientUnits="userSpaceOnUse"><stop stop-color="#fff"/><stop offset=".326" stop-color="#B8B7B7"/><stop offset=".656" stop-color="#706E6E"/><stop offset=".778" stop-color="#575454"/><stop offset="1"/></linearGradient><linearGradient id="paint33_linear_245_1677" x1="436.025" y1="369.174" x2="-236.143" y2="366.96" gradientUnits="userSpaceOnUse"><stop stop-color="#fff"/><stop offset=".326" stop-color="#B8B7B7"/><stop offset=".656" stop-color="#706E6E"/><stop offset=".778" stop-color="#575454"/><stop offset="1"/></linearGradient><linearGradient id="paint34_linear_245_1677" x1="435.995" y1="376.447" x2="-236.165" y2="374.234" gradientUnits="userSpaceOnUse"><stop stop-color="#fff"/><stop offset=".326" stop-color="#B8B7B7"/><stop offset=".656" stop-color="#706E6E"/><stop offset=".778" stop-color="#575454"/><stop offset="1"/></linearGradient><linearGradient id="paint35_linear_245_1677" x1="271.325" y1="382.1" x2="-317.917" y2="387.634" gradientUnits="userSpaceOnUse"><stop stop-color="#fff"/><stop offset=".326" stop-color="#B8B7B7"/><stop offset=".656" stop-color="#706E6E"/><stop offset=".778" stop-color="#575454"/><stop offset="1"/></linearGradient><linearGradient id="paint36_linear_245_1677" x1="-163.75" y1="291.966" x2="536.048" y2="315.209" gradientUnits="userSpaceOnUse"><stop stop-color="#fff"/><stop offset=".326" stop-color="#B8B7B7"/><stop offset=".656" stop-color="#706E6E"/><stop offset=".778" stop-color="#575454"/><stop offset="1"/></linearGradient><linearGradient id="paint37_linear_245_1677" x1="-162.663" y1="259.181" x2="537.139" y2="282.424" gradientUnits="userSpaceOnUse"><stop stop-color="#fff"/><stop offset=".326" stop-color="#B8B7B7"/><stop offset=".656" stop-color="#706E6E"/><stop offset=".778" stop-color="#575454"/><stop offset="1"/></linearGradient><linearGradient id="paint38_linear_245_1677" x1="436.333" y1="273.799" x2="-235.828" y2="271.586" gradientUnits="userSpaceOnUse"><stop stop-color="#fff"/><stop offset=".326" stop-color="#B8B7B7"/><stop offset=".656" stop-color="#706E6E"/><stop offset=".778" stop-color="#575454"/><stop offset="1"/></linearGradient><linearGradient id="paint39_linear_245_1677" x1="-163.127" y1="273.169" x2="536.673" y2="296.412" gradientUnits="userSpaceOnUse"><stop stop-color="#fff"/><stop offset=".326" stop-color="#B8B7B7"/><stop offset=".656" stop-color="#706E6E"/><stop offset=".778" stop-color="#575454"/><stop offset="1"/></linearGradient><linearGradient id="paint40_linear_245_1677" x1="277.499" y1="493.566" x2="-683.211" y2="492.46" gradientUnits="userSpaceOnUse"><stop stop-color="#fff"/><stop offset=".326" stop-color="#B8B7B7"/><stop offset=".656" stop-color="#706E6E"/><stop offset=".778" stop-color="#575454"/><stop offset="1"/></linearGradient><linearGradient id="paint41_linear_245_1677" x1="201.241" y1="500.202" x2="-470.924" y2="497.987" gradientUnits="userSpaceOnUse"><stop stop-color="#fff"/><stop offset=".326" stop-color="#B8B7B7"/><stop offset=".656" stop-color="#706E6E"/><stop offset=".778" stop-color="#575454"/><stop offset="1"/></linearGradient><linearGradient id="paint42_linear_245_1677" x1="272.295" y1="485.304" x2="-316.952" y2="490.838" gradientUnits="userSpaceOnUse"><stop stop-color="#fff"/><stop offset=".326" stop-color="#B8B7B7"/><stop offset=".656" stop-color="#706E6E"/><stop offset=".778" stop-color="#575454"/><stop offset="1"/></linearGradient><linearGradient id="paint43_linear_245_1677" x1="-170.472" y1="494.321" x2="529.325" y2="517.564" gradientUnits="userSpaceOnUse"><stop stop-color="#fff"/><stop offset=".326" stop-color="#B8B7B7"/><stop offset=".656" stop-color="#706E6E"/><stop offset=".778" stop-color="#575454"/><stop offset="1"/></linearGradient><linearGradient id="paint44_linear_245_1677" x1="271.765" y1="428.878" x2="-317.481" y2="434.412" gradientUnits="userSpaceOnUse"><stop stop-color="#fff"/><stop offset=".326" stop-color="#B8B7B7"/><stop offset=".656" stop-color="#706E6E"/><stop offset=".778" stop-color="#575454"/><stop offset="1"/></linearGradient><linearGradient id="paint45_linear_245_1677" x1="-168.437" y1="433.101" x2="531.366" y2="456.344" gradientUnits="userSpaceOnUse"><stop stop-color="#fff"/><stop offset=".326" stop-color="#B8B7B7"/><stop offset=".656" stop-color="#706E6E"/><stop offset=".778" stop-color="#575454"/><stop offset="1"/></linearGradient><linearGradient id="paint46_linear_245_1677" x1="435.765" y1="446.183" x2="-236.398" y2="443.969" gradientUnits="userSpaceOnUse"><stop stop-color="#fff"/><stop offset=".326" stop-color="#B8B7B7"/><stop offset=".656" stop-color="#706E6E"/><stop offset=".778" stop-color="#575454"/><stop offset="1"/></linearGradient><linearGradient id="paint47_linear_245_1677" x1="271.475" y1="398.076" x2="-317.771" y2="403.611" gradientUnits="userSpaceOnUse"><stop stop-color="#fff"/><stop offset=".326" stop-color="#B8B7B7"/><stop offset=".656" stop-color="#706E6E"/><stop offset=".778" stop-color="#575454"/><stop offset="1"/></linearGradient><linearGradient id="paint48_linear_245_1677" x1="277.588" y1="414.964" x2="-683.118" y2="413.858" gradientUnits="userSpaceOnUse"><stop stop-color="#fff"/><stop offset=".326" stop-color="#B8B7B7"/><stop offset=".656" stop-color="#706E6E"/><stop offset=".778" stop-color="#575454"/><stop offset="1"/></linearGradient><linearGradient id="paint49_linear_245_1677" x1="271.673" y1="419.009" x2="-317.578" y2="424.543" gradientUnits="userSpaceOnUse"><stop stop-color="#fff"/><stop offset=".326" stop-color="#B8B7B7"/><stop offset=".656" stop-color="#706E6E"/><stop offset=".778" stop-color="#575454"/><stop offset="1"/></linearGradient><clipPath id="clip0_245_1677"><path fill="#fff" transform="matrix(0 1 1 0 -18 0)" d="M0 0h495v384H0z"/></clipPath></defs></svg>