<svg width="334" height="209" fill="none" xmlns="http://www.w3.org/2000/svg"><g opacity=".14" clip-path="url(#clip0_200_9169)"><path d="M264.705 132.499h-54.766l-19.211-19.188H82.916V65.768h-201v-1.719H84.35v47.543H191.3l19.211 19.189h54.193c.287-1.146 1.434-2.291 2.867-2.291 1.721 0 2.868 1.432 2.868 3.15 0 1.719-1.434 3.151-2.868 3.151-1.147 0-2.294-1.146-2.867-2.292z" fill="url(#paint0_linear_200_9169)"/><path d="M251.229 139.089h-44.444L187.574 119.9H75.748V72.357h-193.545V70.64H77.469v47.542h110.965l19.211 19.189h44.157c.287-1.145 1.434-2.291 2.868-2.291 1.72 0 3.154 1.432 3.154 2.864 0 1.719-1.434 3.151-3.154 3.151-1.721 0-2.868-.86-3.441-2.005z" fill="url(#paint1_linear_200_9169)"/><path d="M199.044 148.536h-55.052l-19.212-19.189H49.656v16.897H-88.836v-1.718H48.223v-16.898h77.418l19.211 19.189h54.192c.287-1.145 1.434-2.291 2.868-2.291 1.72 0 3.154 1.432 3.154 3.15 0 1.719-1.434 3.151-3.154 3.151-1.434 0-2.581-1.146-2.868-2.291z" fill="url(#paint2_linear_200_9169)"/><path d="M185.566 155.127h-44.731l-19.211-19.189H56.249v16.897H-91.992v-1.718H54.815v-16.898h67.669l19.211 19.189h44.157c.287-1.145 1.434-2.291 2.868-2.291 1.72 0 2.867 1.432 2.867 2.864 0 1.718-1.434 3.15-2.867 3.15-1.721 0-2.868-.859-3.154-2.004z" fill="url(#paint3_linear_200_9169)"/><path d="M182.987 162.286h-44.73l-19.211-19.189h-55.34v16.898H-94.857v-1.719H61.986v-16.898h57.633l19.211 19.189h44.157c.287-1.145 1.434-2.291 2.867-2.291 1.721 0 2.868 1.432 2.868 2.864 0 1.719-1.434 3.151-2.868 3.151-1.433.286-2.58-.573-2.867-2.005z" fill="url(#paint4_linear_200_9169)"/><path d="M49.943 79.517c0 1.432-.86 2.578-2.294 2.864v15.752H19.836L.91 79.231h-75.124v16.898h-138.492V94.41h137.058V77.513H1.771L20.983 96.7h25.232V82.38c-1.147-.286-2.294-1.432-2.294-2.864 0-1.718 1.434-3.15 2.868-3.15 1.72 0 3.154 1.432 3.154 3.15z" fill="url(#paint5_linear_200_9169)"/><path d="M-1.957 84.1l19.211 19.189H55.39v-9.165c-1.147-.286-2.294-1.432-2.294-2.864 0-1.719 1.434-3.15 3.154-3.15s3.154 1.431 3.154 3.15c0 1.432-.86 2.578-2.294 2.864v10.597H16.68l-19.21-19.19h-65.375v16.899h-148.241v-1.719h146.807V83.814h67.382v.286z" fill="url(#paint6_linear_200_9169)"/><path d="M-4.537 91.258l19.211 19.189h50.178c.287-1.146 1.434-2.291 2.868-2.291 1.72 0 3.154 1.432 3.154 3.15 0 1.719-1.434 3.151-3.154 3.151-1.434 0-2.581-.86-2.868-2.292H14.1L-5.11 92.976h-55.34v16.898h-158.564v-1.718h156.843V91.258h57.634z" fill="url(#paint7_linear_200_9169)"/><path d="M-1.383 114.744c.287-1.145 1.434-2.291 2.867-2.291 1.72 0 2.868 1.432 2.868 3.151 0 1.718-1.434 3.15-2.868 3.15-1.433 0-2.58-.859-2.867-2.291h-36.702v16.898h-158.563v-1.719h156.843v-16.898h38.422z" fill="url(#paint8_linear_200_9169)"/><path d="M40.194 122.477v18.33H-7.117v-9.451h26.953c.287-1.146 1.433-2.291 2.867-2.291 1.72 0 2.867 1.432 2.867 2.864 0 1.718-1.433 3.15-2.867 3.15s-2.58-.859-2.867-2.291H-5.397v6.587H38.76v-15.179h-56.486v16.897h-135.338v-1.718h133.617v-16.898h59.64z" fill="url(#paint9_linear_200_9169)"/><path d="M120.479 28.538v14.607H16.395L2.058 27.679h-44.444v16.898h-72.543c-.287 1.145-1.434 2.291-2.868 2.291-1.72 0-2.867-1.432-2.867-3.15 0-1.719 1.434-2.864 2.867-2.864 1.434 0 2.581.859 2.868 2.29h71.11V26.248H2.63l14.337 15.466h101.79V27.106h75.411l19.211 19.19h60.214v1.431h-60.787l-19.211-19.189h-73.117z" fill="url(#paint10_linear_200_9169)"/><path d="M127.935 35.126v16.898H12.382L-4.535 35.126h-30.107v16.898h-106.952c-.287 1.145-1.434 2.291-2.867 2.291-1.721 0-3.154-1.432-3.154-3.15 0-1.719 1.433-2.864 3.154-2.864 1.433 0 2.58.859 2.867 2.29h105.231V33.695h32.401l16.917 16.898h113.547V33.408h67.669l19.211 19.189h49.892v1.718h-50.465l-19.212-19.189h-65.662z" fill="url(#paint11_linear_200_9169)"/><path d="M251.802 60.613h-44.73L187.86 41.424h-55.339v16.898h-250.605v-1.719h248.885V39.706h57.633l19.211 19.188h44.157c.287-1.145 1.434-2.29 2.867-2.29 1.721 0 3.154 1.431 3.154 3.15 0 1.718-1.433 3.15-3.154 3.15-1.433 0-2.58-1.146-2.867-2.291z" fill="url(#paint12_linear_200_9169)"/><path d="M108.148 23.38H29.01L10.085 4.19h-75.124v16.898h-138.492V19.37h137.058V2.76h77.418L29.87 21.948h78.565c.286-1.146 1.433-2.291 2.867-2.291 1.72 0 2.867 1.431 2.867 3.15 0 1.718-1.433 2.864-2.867 2.864s-2.581-.86-3.154-2.291z" fill="url(#paint13_linear_200_9169)"/><path d="M93.526 26.246c1.72 0 3.154 1.432 3.154 2.864 0 1.719-1.434 3.15-3.154 3.15-1.434 0-2.58-.858-2.867-2.29H25.856L6.646 10.78H-58.73v16.898h-148.24V25.96h146.808V9.062H7.219l19.211 19.19h64.228c.287-1.146 1.434-2.006 2.868-2.006z" fill="url(#paint14_linear_200_9169)"/><path d="M4.639 16.509l19.21 19.189h51.326c.287-1.146 1.434-2.291 2.867-2.291 1.72 0 3.154 1.432 3.154 3.15s-1.433 3.15-3.154 3.15c-1.433 0-2.58-.859-2.867-2.29H23.276L4.066 17.94h-55.34v16.898h-158.564v-1.432h156.843V16.509H4.64z" fill="url(#paint15_linear_200_9169)"/><path d="M93.527 184.624v-28.926c-1.147-.287-2.294-1.432-2.294-2.864 0-1.719 1.434-2.864 2.868-2.864 1.72 0 3.154 1.432 3.154 2.864s-.86 2.577-2.294 2.864v30.645H67.148l-19.211-19.189h-75.124v16.898H-165.68v-1.719h137.059v-16.898h77.418l19.211 19.189h25.52z" fill="url(#paint16_linear_200_9169)"/><path d="M-20.593 173.742v16.898h-148.241v-1.719h146.808v-16.898h67.668l19.212 19.189h38.135v-23.771c-1.147-.286-2.294-1.432-2.294-2.864 0-1.718 1.434-3.15 2.868-3.15 1.72 0 3.154 1.432 3.154 3.15 0 1.432-.86 2.578-2.294 2.864v25.49h-40.43l-19.21-19.189h-65.376z" fill="url(#paint17_linear_200_9169)"/><path d="M131.949 200.093H61.413l-19.211-19.189h-55.34v16.898H-171.7v-1.718h156.843v-16.612h57.633l19.212 19.189h69.962c.287-1.145 1.434-2.291 2.868-2.291 1.72 0 3.154 1.432 3.154 3.151 0 1.718-1.434 3.15-3.154 3.15-1.147-.286-2.294-1.146-2.868-2.578z" fill="url(#paint18_linear_200_9169)"/></g><defs><linearGradient id="paint0_linear_200_9169" x1="-188.954" y1="87.311" x2="510.843" y2="110.554" gradientUnits="userSpaceOnUse"><stop stop-color="#fff"/><stop offset=".326" stop-color="#B8B7B7"/><stop offset=".656" stop-color="#706E6E"/><stop offset=".778" stop-color="#575454"/><stop offset="1"/></linearGradient><linearGradient id="paint1_linear_200_9169" x1="-189.181" y1="94.171" x2="510.613" y2="117.414" gradientUnits="userSpaceOnUse"><stop stop-color="#fff"/><stop offset=".326" stop-color="#B8B7B7"/><stop offset=".656" stop-color="#706E6E"/><stop offset=".778" stop-color="#575454"/><stop offset="1"/></linearGradient><linearGradient id="paint2_linear_200_9169" x1="404.776" y1="140.033" x2="-267.389" y2="137.819" gradientUnits="userSpaceOnUse"><stop stop-color="#fff"/><stop offset=".326" stop-color="#B8B7B7"/><stop offset=".656" stop-color="#706E6E"/><stop offset=".778" stop-color="#575454"/><stop offset="1"/></linearGradient><linearGradient id="paint3_linear_200_9169" x1="237.095" y1="144.686" x2="-352.152" y2="150.22" gradientUnits="userSpaceOnUse"><stop stop-color="#fff"/><stop offset=".326" stop-color="#B8B7B7"/><stop offset=".656" stop-color="#706E6E"/><stop offset=".778" stop-color="#575454"/><stop offset="1"/></linearGradient><linearGradient id="paint4_linear_200_9169" x1="237.166" y1="151.989" x2="-352.081" y2="157.523" gradientUnits="userSpaceOnUse"><stop stop-color="#fff"/><stop offset=".326" stop-color="#B8B7B7"/><stop offset=".656" stop-color="#706E6E"/><stop offset=".778" stop-color="#575454"/><stop offset="1"/></linearGradient><linearGradient id="paint5_linear_200_9169" x1="-188.801" y1="82.716" x2="511.002" y2="105.959" gradientUnits="userSpaceOnUse"><stop stop-color="#fff"/><stop offset=".326" stop-color="#B8B7B7"/><stop offset=".656" stop-color="#706E6E"/><stop offset=".778" stop-color="#575454"/><stop offset="1"/></linearGradient><linearGradient id="paint6_linear_200_9169" x1="236.605" y1="92.147" x2="-352.645" y2="97.682" gradientUnits="userSpaceOnUse"><stop stop-color="#fff"/><stop offset=".326" stop-color="#B8B7B7"/><stop offset=".656" stop-color="#706E6E"/><stop offset=".778" stop-color="#575454"/><stop offset="1"/></linearGradient><linearGradient id="paint7_linear_200_9169" x1="236.683" y1="100.619" x2="-352.566" y2="106.153" gradientUnits="userSpaceOnUse"><stop stop-color="#fff"/><stop offset=".326" stop-color="#B8B7B7"/><stop offset=".656" stop-color="#706E6E"/><stop offset=".778" stop-color="#575454"/><stop offset="1"/></linearGradient><linearGradient id="paint8_linear_200_9169" x1="-190.031" y1="119.758" x2="509.763" y2="143" gradientUnits="userSpaceOnUse"><stop stop-color="#fff"/><stop offset=".326" stop-color="#B8B7B7"/><stop offset=".656" stop-color="#706E6E"/><stop offset=".778" stop-color="#575454"/><stop offset="1"/></linearGradient><linearGradient id="paint9_linear_200_9169" x1="236.956" y1="129.544" x2="-352.294" y2="135.078" gradientUnits="userSpaceOnUse"><stop stop-color="#fff"/><stop offset=".326" stop-color="#B8B7B7"/><stop offset=".656" stop-color="#706E6E"/><stop offset=".778" stop-color="#575454"/><stop offset="1"/></linearGradient><linearGradient id="paint10_linear_200_9169" x1="-187.031" y1="29.417" x2="512.768" y2="52.66" gradientUnits="userSpaceOnUse"><stop stop-color="#fff"/><stop offset=".326" stop-color="#B8B7B7"/><stop offset=".656" stop-color="#706E6E"/><stop offset=".778" stop-color="#575454"/><stop offset="1"/></linearGradient><linearGradient id="paint11_linear_200_9169" x1="-187.273" y1="36.753" x2="512.526" y2="59.996" gradientUnits="userSpaceOnUse"><stop stop-color="#fff"/><stop offset=".326" stop-color="#B8B7B7"/><stop offset=".656" stop-color="#706E6E"/><stop offset=".778" stop-color="#575454"/><stop offset="1"/></linearGradient><linearGradient id="paint12_linear_200_9169" x1="236.217" y1="50.917" x2="-353.032" y2="56.451" gradientUnits="userSpaceOnUse"><stop stop-color="#fff"/><stop offset=".326" stop-color="#B8B7B7"/><stop offset=".656" stop-color="#706E6E"/><stop offset=".778" stop-color="#575454"/><stop offset="1"/></linearGradient><linearGradient id="paint13_linear_200_9169" x1="235.85" y1="12.13" x2="-353.395" y2="17.664" gradientUnits="userSpaceOnUse"><stop stop-color="#fff"/><stop offset=".326" stop-color="#B8B7B7"/><stop offset=".656" stop-color="#706E6E"/><stop offset=".778" stop-color="#575454"/><stop offset="1"/></linearGradient><linearGradient id="paint14_linear_200_9169" x1="405.164" y1="21.827" x2="-267" y2="19.613" gradientUnits="userSpaceOnUse"><stop stop-color="#fff"/><stop offset=".326" stop-color="#B8B7B7"/><stop offset=".656" stop-color="#706E6E"/><stop offset=".778" stop-color="#575454"/><stop offset="1"/></linearGradient><linearGradient id="paint15_linear_200_9169" x1="405.139" y1="29.138" x2="-267.024" y2="26.924" gradientUnits="userSpaceOnUse"><stop stop-color="#fff"/><stop offset=".326" stop-color="#B8B7B7"/><stop offset=".656" stop-color="#706E6E"/><stop offset=".778" stop-color="#575454"/><stop offset="1"/></linearGradient><linearGradient id="paint16_linear_200_9169" x1="237.307" y1="166.716" x2="-351.943" y2="172.251" gradientUnits="userSpaceOnUse"><stop stop-color="#fff"/><stop offset=".326" stop-color="#B8B7B7"/><stop offset=".656" stop-color="#706E6E"/><stop offset=".778" stop-color="#575454"/><stop offset="1"/></linearGradient><linearGradient id="paint17_linear_200_9169" x1="404.649" y1="178.237" x2="-267.516" y2="176.023" gradientUnits="userSpaceOnUse"><stop stop-color="#fff"/><stop offset=".326" stop-color="#B8B7B7"/><stop offset=".656" stop-color="#706E6E"/><stop offset=".778" stop-color="#575454"/><stop offset="1"/></linearGradient><linearGradient id="paint18_linear_200_9169" x1="-192.176" y1="184.362" x2="507.625" y2="207.605" gradientUnits="userSpaceOnUse"><stop stop-color="#fff"/><stop offset=".326" stop-color="#B8B7B7"/><stop offset=".656" stop-color="#706E6E"/><stop offset=".778" stop-color="#575454"/><stop offset="1"/></linearGradient><clipPath id="clip0_200_9169"><path fill="#fff" transform="matrix(0 1 1 0 -50 0)" d="M0 0h209v384H0z"/></clipPath></defs></svg>