<svg width="24" height="24" fill="none" xmlns="http://www.w3.org/2000/svg"><path d="M21.167 3.95H2.833A1.885 1.885 0 00.95 5.833v12.834c0 1.038.845 1.883 1.883 1.883h18.334a1.885 1.885 0 001.883-1.883V5.833a1.885 1.885 0 00-1.883-1.883zM2.833 4.967h18.334c.027 0 .055.005.084.012l.005.001a2418.359 2418.359 0 01-8.624 7.865c-.14.126-.361.272-.632.272-.27 0-.491-.146-.632-.273-1.816-1.636-6.96-6.341-8.624-7.864a.53.53 0 01.09-.013zm-.866 13.7V5.833c0-.055.011-.107.026-.162 1.264 1.156 4.823 4.412 7.168 6.545-2.338 2.012-5.898 5.383-7.17 6.596a.54.54 0 01-.024-.145zm.866.866a.383.383 0 01-.107-.017c1.316-1.253 4.9-4.646 7.193-6.611l.768.695c.386.348.84.533 1.313.533s.927-.185 1.312-.533l.769-.695c2.294 1.965 5.877 5.357 7.193 6.611a.382.382 0 01-.108.017H2.834zm19.2-.866c0 .05-.01.096-.024.145-1.273-1.213-4.832-4.585-7.17-6.596 2.345-2.133 5.904-5.388 7.168-6.545a.594.594 0 01.026.162v12.834z" fill="#2751A0" stroke="#2751A0" stroke-width=".1"/></svg>