<svg width="64" height="64" fill="none" xmlns="http://www.w3.org/2000/svg"><path d="M64 0H0v64h64V0z" fill="#FDC858"/><path d="M8 22.58L29.728 3.076c1.634-1.44 3.946-1.44 5.541.043L56 22.538v27.316C56 52.124 54.326 54 52.213 54H11.787C9.714 54 8 52.167 8 49.854V22.581z" fill="#2B2A28"/><path d="M41 35H23V23h2.52l1.08 4 .76-4h7.16l1.68 6.222L37.96 23H41v12zm-18 2v3.571l2.8.893c2.48.67 4 2.054 4 4.911v12.098c0 1.429 1.4 3.527 2.36 3.527 1.2 0 2.28-2.054 2.32-3.482l.08-12.098c0-2.366.88-4.152 3.44-5.179l3-.67V37H23zm9.2 22.321c-.68 0-1.2-1.116-1.2-2.455 0-1.34.52-2.455 1.2-2.455.68 0 1.2 1.116 1.2 2.455 0 1.34-.56 2.455-1.2 2.455z" fill="#fff"/></svg>