<svg width="14" height="19" fill="none" xmlns="http://www.w3.org/2000/svg"><path d="M7.418 17.864a.555.555 0 01-.48.287h-.002 0s0 0 0 0a.554.554 0 01-.48-.275s0 0 0 0l-.138-.236h0l-.002-.003a54.044 54.044 0 00-1.535-2.618c-1.006-1.6-2.056-3.11-2.953-4.382h0a6.236 6.236 0 011.15-8.377l.096.116-.095-.116a6.226 6.226 0 019.03 8.409h-.001l-.324.452-.122-.087.122.087h0c-.9 1.263-1.826 2.564-2.646 3.894h0c-.335.54-.65 1.09-.959 1.65h0l-.661 1.199zm0 0l-.132-.073.132.073h0zM2.723 9.98l.003.003.012.017c.902 1.278 1.964 2.805 2.986 4.43v.002c.443.713.841 1.382 1.205 2.024l.181-.33h0a37.66 37.66 0 01.987-1.697c.829-1.344 1.757-2.648 2.652-3.907l.035-.049h0l.324-.45v-.001a5.102 5.102 0 00-3.149-7.966A5.116 5.116 0 002.722 9.98z" fill="#2751A0" stroke="#2751A0" stroke-width=".3"/><path d="M6.936 4.084a2.985 2.985 0 110 5.971 2.985 2.985 0 010-5.97zm0 4.861a1.875 1.875 0 100-3.75 1.875 1.875 0 000 3.75z" fill="#2751A0" stroke="#2751A0" stroke-width=".3"/></svg>