<svg width="138" height="16" fill="none" xmlns="http://www.w3.org/2000/svg"><path fill-rule="evenodd" clip-rule="evenodd" d="M33.703 2.6l-5.062 10.973h.838l1.37-3.051h6.41l1.38 3.047h.888L34.464 2.596l-.76.004zM31.2 9.782l2.877-6.297 2.855 6.297H31.2zm23.237-4.018a2.9 2.9 0 00-.82-2.05c-.651-.65-1.718-1.061-3.053-1.061h-4.548V13.52h.806V9.017h3.549l3.454 4.503h1.024l-3.58-4.644c1.827-.248 3.168-1.289 3.168-3.105v-.007zm-7.622 2.517v-4.87h3.704c1.968 0 3.116.916 3.116 2.375 0 1.6-1.349 2.516-3.17 2.516l-3.65-.02zm23.3-5.632h-1.098l-6.911 7.133V2.649h-.807v10.87h.806v-2.764l2.697-2.743 4.461 5.497h1.056L65.39 7.44l4.725-4.79zm20.857.761h3.782v10.124h.806V3.41h3.778v-.76h-8.366v.76zm14.847 10.124h.807V2.649h-.807v10.885zm15.534-1.416l-7.485-9.469h-.761v10.87h.775V3.86l7.64 9.66h.606V2.65h-.775v9.468zm12.372-4.248v.708h3.521v3.034a5.388 5.388 0 01-3.345 1.207c-2.817 0-4.5-2.035-4.5-4.768 0-2.58 1.785-4.75 4.334-4.75a4.696 4.696 0 013.373 1.267l.511-.588a5.471 5.471 0 00-3.838-1.39c-3.133 0-5.189 2.612-5.189 5.461 0 3.002 1.964 5.462 5.281 5.462a6.292 6.292 0 004.126-1.586V7.863l-4.274.007zM76.773 3.428h7.746v-.782h-7.746v.782zm5.376 4.294h-5.376v.775h5.376v-.775zm-5.376 5.798h7.746v-.775h-7.746v.775zM17.872 0l-3.55 6.314L10.793 0H6.51v9.381a28.113 28.113 0 004.281 3.237V7.966l3.34 5.793h.384l3.357-5.793v7.545h4.26V0h-4.26zM3.906 7.11V0H0a25.486 25.486 0 003.906 7.11zM0 9.049v6.463h3.906V12.09A30.099 30.099 0 010 9.049z" fill="#fff"/></svg>