<svg width="21" height="20" fill="none" xmlns="http://www.w3.org/2000/svg"><path d="M15.086 0H5.914A5.42 5.42 0 00.5 5.414v9.172A5.42 5.42 0 005.914 20h9.172a5.42 5.42 0 005.414-5.414V5.414A5.42 5.42 0 0015.086 0zm4.242 14.586a4.246 4.246 0 01-4.242 4.242H5.914a4.246 4.246 0 01-4.242-4.242V5.414a4.246 4.246 0 014.242-4.242h9.172a4.246 4.246 0 014.242 4.242v9.172z" fill="#F8B540"/><path d="M10.5 4.531A5.475 5.475 0 005.03 10a5.475 5.475 0 005.469 5.469A5.475 5.475 0 0015.968 10 5.475 5.475 0 0010.5 4.531zm0 9.765A4.301 4.301 0 016.204 10 4.301 4.301 0 0110.5 5.704 4.301 4.301 0 0114.796 10a4.301 4.301 0 01-4.296 4.296zM16.1 2.59c-.892 0-1.617.724-1.617 1.615s.725 1.616 1.616 1.616c.891 0 1.616-.725 1.616-1.616 0-.891-.725-1.616-1.616-1.616zm0 2.059a.444.444 0 110-.888.444.444 0 010 .888z" fill="#F8B540"/></svg>