<svg width="73" height="72" fill="none" xmlns="http://www.w3.org/2000/svg"><rect x=".833" width="72" height="72" rx="36" fill="#373125"/><g fill="#F8B540"><path d="M20.833 35.033c.082-.595.14-1.194.25-1.784.829-4.452 3.133-7.958 6.879-10.497 2.775-1.883 5.875-2.774 9.226-2.679 4.653.134 8.548 1.962 11.647 5.424 2.145 2.397 3.404 5.218 3.856 8.398.053.378.095.758.142 1.138v1.996c-.017.08-.046.16-.051.241-.211 2.738-1.058 5.266-2.594 7.542-2.549 3.776-6.075 6.102-10.568 6.94-.59.11-1.19.167-1.787.248h-2c-.08-.017-.159-.045-.24-.052-3.186-.253-6.056-1.343-8.568-3.314-3.233-2.537-5.228-5.833-5.952-9.882-.102-.57-.161-1.148-.24-1.723v-1.996zm1.065 1.002c.002 8.213 6.697 14.9 14.921 14.903 8.236.003 14.948-6.693 14.948-14.915.001-8.21-6.694-14.892-14.925-14.898-8.241-.005-14.945 6.683-14.944 14.91z"/><path d="M37.14 22.193c6.525.111 12.163 4.906 13.326 11.331 1.354 7.483-3.46 14.559-10.942 16.087-7.379 1.507-14.767-3.38-16.262-10.748-.574-2.832-.31-5.577.809-8.242.109-.26.252-.458.561-.452.4.007.594.371.455.792-.268.807-.579 1.605-.767 2.43-1.247 5.453 1.545 11.375 6.527 13.936 2.282 1.173 4.692 1.651 7.246 1.422 5.594-.5 10.299-4.811 11.317-10.37 1.04-5.681-1.747-11.283-6.947-13.811-3.395-1.651-6.886-1.747-10.411-.385-.126.049-.249.108-.376.152-.302.104-.598-.02-.702-.287-.108-.277-.002-.583.308-.687.964-.323 1.922-.688 2.912-.9.96-.203 1.958-.236 2.938-.343l.009.075z"/><path d="M41.03 36.565l-4.196-5.023-4.173 4.996c.14.012.225.025.31.025.375.003.75-.004 1.125.003.71.013 1.125.424 1.131 1.13.008.915.003 1.83.003 2.745v.36h3.208c0-.31-.003-.618 0-.927.005-.404.196-.641.515-.65.329-.01.544.243.55.654.005.302.01.604-.001.905-.024.67-.463 1.1-1.139 1.104-1.01.006-2.02.004-3.03 0-.728-.003-1.166-.437-1.17-1.167-.006-.904-.002-1.81-.002-2.713v-.377c-.506 0-.982.01-1.457-.002-.71-.018-1.192-.514-1.113-1.171.024-.204.12-.429.25-.588a592.01 592.01 0 014.157-4.985c.454-.538 1.215-.54 1.669-.002a499.565 499.565 0 014.178 5.008c.556.677.146 1.636-.727 1.722-.444.043-.895.019-1.342.017-.156 0-.264.011-.33.196-.094.27-.328.378-.604.313-.278-.067-.406-.269-.401-.556.008-.523.417-.969.962-1.004.415-.027.833-.011 1.25-.015h.375l.001.002zm7.53-.225c-.074 2.344-.774 4.484-2.128 6.405-.09.13-.232.296-.363.309a.838.838 0 01-.555-.163c-.183-.147-.176-.392-.05-.6.157-.256.338-.498.494-.756a10.555 10.555 0 001.54-5.258c.003-.093.002-.188.012-.28.03-.29.232-.483.508-.49a.518.518 0 01.54.46c.018.122.003.248.003.373zM37.392 47.745c-.177 0-.354.007-.53-.002-.342-.017-.562-.237-.556-.545.006-.296.216-.48.548-.517.833-.094 1.667-.195 2.498-.304.357-.046.61.085.678.38.073.316-.09.585-.454.655-.723.136-1.45.243-2.176.362l-.008-.03zm6.957-2.923c-.118.174-.18.345-.302.43-.528.368-1.066.725-1.615 1.06-.278.17-.58.065-.726-.197-.14-.25-.07-.535.188-.706.51-.341 1.013-.695 1.543-1.001.15-.088.409-.091.574-.024.139.055.214.268.338.439v-.001zM28.282 26.34c-.116.186-.184.337-.289.453-.303.34-.623.664-.934.998-.27.288-.572.335-.817.12-.236-.207-.238-.536.021-.823.34-.376.675-.761 1.057-1.093.132-.114.415-.143.59-.09.148.046.24.27.372.435z"/></g></svg>