<svg width="73" height="72" fill="none" xmlns="http://www.w3.org/2000/svg"><rect x=".5" width="72" height="72" rx="36" fill="#373125"/><g fill="#F8B540"><path d="M49.69 52c-.774-.142-1.34-.604-1.879-1.147-2.544-2.565-5.105-5.114-7.658-7.67-.08-.08-.143-.18-.215-.27-3.328 2.082-6.839 2.651-10.565 1.535-2.833-.85-5.097-2.535-6.735-4.992-3.51-5.264-2.527-11.859 1.698-15.93 4.56-4.394 11.558-4.74 16.551-.705 4.6 3.716 6.327 10.705 2.498 16.656.083.048.212.09.297.176 2.558 2.551 5.107 5.112 7.671 7.657.544.538 1.008 1.104 1.149 1.878v.624c-.166.389-.285.807-.505 1.16-.38.607-1.006.873-1.682 1.027h-.625V52zM33.02 21.256c-6.169-.023-11.252 5.051-11.262 11.241-.01 6.18 5.044 11.235 11.25 11.254 6.156.018 11.235-5.051 11.244-11.224.01-6.188-5.033-11.248-11.232-11.271zm10.624 23.652l.065.07a8824.34 8824.34 0 005.3 5.296c.074.074.15.146.232.21.505.391 1.2.344 1.648-.11.509-.516.482-1.267-.082-1.834-1.321-1.328-2.648-2.65-3.973-3.976l-1.41-1.413c-.596.587-1.18 1.163-1.78 1.757zm.814-2.608l-1.727-1.734-1.67 1.66 1.74 1.726 1.657-1.651V42.3z"/><path d="M43.002 32.505c-.002 5.494-4.508 9.998-10 9.996-5.493-.002-9.998-4.508-9.995-10 .002-5.493 4.508-9.997 9.999-9.995 5.494.002 9.998 4.508 9.996 9.999zm-1.25.01c.014-4.8-3.921-8.746-8.735-8.76-4.8-.013-8.745 3.923-8.759 8.737-.013 4.8 3.922 8.745 8.736 8.758 4.8.014 8.745-3.922 8.759-8.736z"/><path d="M33.277 25c2.906.09 5.634 2.008 6.682 4.71.157.407.047.755-.287.9-.349.152-.683-.005-.864-.429-.746-1.751-2.01-2.967-3.81-3.58-.562-.191-1.176-.234-1.768-.34-.122-.022-.25-.01-.37-.04a.616.616 0 01-.476-.585.619.619 0 01.49-.605c.131-.028.268-.022.403-.032zm7.222 7.507a.641.641 0 01-.623.617.64.64 0 01-.617-.623.641.641 0 01.623-.617.641.641 0 01.617.623z"/></g></svg>