<svg width="73" height="72" fill="none" xmlns="http://www.w3.org/2000/svg"><rect x=".167" width="72" height="72" rx="36" fill="#373125"/><g fill="#F8B540"><path d="M52.165 39.624c-.103.623-.183 1.252-.314 1.87a12.16 12.16 0 01-1.654 4.015c-.233.367-.584.474-.9.282-.32-.197-.387-.571-.148-.953.889-1.423 1.467-2.96 1.657-4.63.415-3.645-.61-6.834-3.169-9.458-5.512-5.65-15.05-3.983-18.363 3.183-3.097 6.694.84 14.488 8.07 15.934 2.913.583 5.658.086 8.203-1.467.497-.304.84-.287 1.065.06.227.349.085.699-.41 1.007-6.57 4.1-15.344 1.263-18.27-5.918-.111-.274-.246-.345-.522-.343-1.258.015-2.516.007-3.773.006-.115 0-.23.002-.343-.011-.332-.039-.559-.281-.567-.598-.008-.326.226-.586.57-.629.102-.012.207-.01.311-.01h3.74l-.385-2.402H25.9c-.551 0-1.102.006-1.653-.003-.379-.006-.644-.271-.645-.62-.001-.347.264-.619.642-.623.79-.01 1.58-.003 2.37-.003h.33l.306-2.396h-.337c-1.933 0-3.867 0-5.8-.002-.145 0-.294-.006-.433-.04a.603.603 0 01-.446-.635.606.606 0 01.534-.562c.113-.014.229-.011.343-.011 2.079 0 4.158-.004 6.237.005.224 0 .317-.074.4-.28.293-.707.615-1.402.934-2.122-.082-.005-.18-.015-.278-.015l-3.18-.001c-.453-.001-.742-.246-.742-.621 0-.372.294-.627.74-.627 1.352-.003 2.703-.006 4.054.003a.594.594 0 00.524-.24c1.78-2.166 4.023-3.607 6.747-4.282.079-.02.156-.05.244-.08v-1.569c-.758-.244-1.294-.718-1.517-1.49a2.108 2.108 0 011.986-2.701c1.528-.036 3.057-.027 4.584-.003 1.07.018 1.877.764 2.056 1.827.159.95-.407 1.912-1.359 2.277-.17.065-.24.14-.233.33.015.435.005.872.005 1.281.74.257 1.475.452 2.16.76 4.328 1.95 6.848 5.291 7.582 9.988.04.256.074.511.112.768v1.75h-.002zM39.54 23.637c.706 0 1.412.002 2.117-.003.144 0 .294-.008.429-.05a.86.86 0 00.582-.925c-.068-.466-.421-.767-.945-.77a526.12 526.12 0 00-4.297 0c-.597.001-.988.365-.982.891.007.516.387.852.979.856.706.004 1.411 0 2.117 0zm1.517 1.27H38.07v1.247h2.987v-1.247z"/><path d="M39.587 29.043a9.682 9.682 0 019.65 9.751c-.034 5.336-4.398 9.667-9.709 9.637-5.342-.03-9.661-4.396-9.634-9.743.026-5.341 4.379-9.672 9.693-9.645zm-.027 1.25c-4.656.006-8.42 3.782-8.419 8.445.002 4.653 3.79 8.447 8.43 8.443 4.644-.005 8.424-3.801 8.42-8.455-.007-4.665-3.78-8.44-8.431-8.434v.001zM21.475 42.59c0 .34-.272.611-.615.615a.615.615 0 01-.628-.632.623.623 0 011.243.018v-.001zm25.944 4.601a.608.608 0 01.634-.59c.338.01.613.294.606.627a.623.623 0 01-.658.605.608.608 0 01-.582-.643v.001z"/><path d="M37.62 38.682c.02-.121.01-.293.078-.425.17-.328.02-.522-.211-.734-.345-.316-.67-.655-.995-.991-.29-.3-.304-.654-.051-.917.254-.264.638-.252.94.043.386.379.769.762 1.145 1.15.12.124.218.171.399.1.42-.163.859-.162 1.28-.001.178.068.277.028.4-.096.907-.918 1.821-1.828 2.732-2.742.066-.066.13-.136.202-.196.265-.218.617-.208.849.02.23.228.252.592.03.849-.17.196-.362.374-.545.558-.778.78-1.553 1.566-2.34 2.338-.159.156-.205.275-.132.504.249.789.059 1.492-.56 2.039-.608.536-1.319.65-2.062.316-.754-.34-1.117-.96-1.159-1.816v.001zm1.943-.632a.679.679 0 00-.684.693.696.696 0 00.673.682.696.696 0 00.7-.686.68.68 0 00-.689-.69zm.628-5.713c0 .103.006.208 0 .311-.023.344-.265.588-.591.602a.617.617 0 01-.646-.58 3.95 3.95 0 010-.651.613.613 0 01.64-.585c.341.009.58.257.599.624.005.093 0 .187 0 .28h-.002zm5.756 7.039c-.134-.008-.271 0-.401-.025a.604.604 0 01-.502-.648.596.596 0 01.576-.579 6.41 6.41 0 01.62-.002c.353.016.613.277.618.61a.632.632 0 01-.57.629c-.111.014-.226.002-.34.002v.012h-.001zM38.94 45.13c0-.103-.006-.207.001-.31.022-.341.266-.59.59-.605a.614.614 0 01.643.549c.025.225.022.456.004.682a.625.625 0 01-.637.593c-.33-.011-.582-.274-.6-.63-.005-.093 0-.186 0-.279h-.002zm-5.732-7.03c.114.004.23.002.343.016a.593.593 0 01.537.587c.01.315-.179.58-.494.622a3.413 3.413 0 01-.776.01.606.606 0 01-.545-.618c.005-.325.247-.577.593-.606.113-.01.228-.002.342-.002v-.01z"/></g></svg>