<svg width="120" height="177" fill="none" xmlns="http://www.w3.org/2000/svg"><g clip-path="url(#clip0_2289_10889)"><path d="M120 0H0v120h120V0z" fill="#0D0D0D"/></g><path d="M0 128h120l-60 49-60-49zm0-10h120v10H0z" fill="#0D0D0D"/><path d="M37 28.583l23.5-13.9v8.741L37 36.321v-7.738zm47 .092L60.5 14.684v8.798L84 36.464v-7.789zm-.716 13.665L63.079 30.446v8.799l20.205 11.262V42.34zM37 42.34l20.204-11.894v8.799L37 50.507V42.34zm9.887 10.316l10.46 4.384v9.086l-10.46-6.019v-7.45z" fill="#fff"/><path d="M46.887 52.656l10.46 4.384v9.086l-10.46-6.019v-7.45z" fill="#fff"/><path d="M50.166 61.914l-.198-23.444 7.271-.286v27.814l-7.073-4.084zm23.118-8.828l-10.46 4.384v9.085l10.46-6.018v-7.451z" fill="#fff"/><path d="M70.136 62.109l.198-23.444-7.271-.286v27.814l7.073-4.084zM37.208 78.54h4.044v1.512h-4.044V78.54zm.144 3.456h4.572v1.56H35.42v-8.4h6.348v1.56h-4.416v5.28zm7.859 1.56V76.74h-2.688v-1.584h7.32v1.584h-2.688v6.816H45.21zm4.152 0l3.744-8.4h1.92l3.756 8.4h-2.04L53.67 76.14h.768l-3.084 7.416h-1.992zm1.872-1.8l.516-1.476h4.32l.528 1.476h-5.364zm8.42 1.8v-8.4h1.943v6.816h4.212v1.584h-6.156zm11.18.144c-.663 0-1.28-.108-1.847-.324a4.439 4.439 0 01-1.464-.912 4.282 4.282 0 01-.96-1.38 4.379 4.379 0 01-.336-1.728c0-.624.112-1.2.336-1.728.232-.528.556-.988.972-1.38A4.439 4.439 0 0169 75.336a5.026 5.026 0 011.824-.324c.664 0 1.272.108 1.824.324.56.216 1.044.52 1.452.912a4.194 4.194 0 011.32 3.108c0 .624-.116 1.204-.348 1.74a4.195 4.195 0 01-.972 1.38 4.405 4.405 0 01-1.452.9 4.93 4.93 0 01-1.812.324zm-.011-1.656c.376 0 .72-.064 1.032-.192a2.448 2.448 0 001.392-1.404c.136-.328.204-.692.204-1.092 0-.4-.068-.764-.204-1.092a2.448 2.448 0 00-.552-.852 2.351 2.351 0 00-.828-.552 2.786 2.786 0 00-1.044-.192c-.376 0-.724.064-1.044.192a2.504 2.504 0 00-.828.552c-.24.24-.428.524-.564.852a2.98 2.98 0 00-.192 1.092c0 .392.064.756.192 1.092.136.328.32.612.552.852.24.24.52.424.84.552.32.128.668.192 1.044.192zm6.057 1.512v-8.4h1.608l4.956 6.048h-.78v-6.048h1.92v8.4h-1.596l-4.968-6.048h.78v6.048h-1.92zM14.233 98.7a5.163 5.163 0 01-1.812-.312 4.282 4.282 0 01-2.4-2.292 4.41 4.41 0 01-.336-1.74c0-.632.112-1.212.336-1.74.232-.528.552-.988.96-1.38.416-.392.9-.692 1.452-.9a4.93 4.93 0 011.812-.324c.728 0 1.384.128 1.968.384A3.783 3.783 0 0117.7 91.5l-1.248 1.152a2.847 2.847 0 00-.96-.732 2.64 2.64 0 00-1.152-.252c-.392 0-.752.064-1.08.192a2.448 2.448 0 00-.852.552c-.24.24-.428.524-.564.852a2.98 2.98 0 00-.192 1.092c0 .4.064.764.192 1.092.136.328.324.612.564.852.24.24.524.424.852.552.328.128.688.192 1.08.192.416 0 .8-.08 1.152-.24a2.93 2.93 0 00.96-.756L17.7 97.2c-.4.488-.896.86-1.488 1.116-.584.256-1.244.384-1.98.384zm8.685 0c-.664 0-1.28-.108-1.848-.324a4.439 4.439 0 01-1.464-.912 4.282 4.282 0 01-.96-1.38 4.379 4.379 0 01-.336-1.728c0-.624.112-1.2.336-1.728.232-.528.556-.988.972-1.38a4.439 4.439 0 011.464-.912 5.026 5.026 0 011.824-.324c.664 0 1.272.108 1.824.324.56.216 1.044.52 1.452.912a4.194 4.194 0 011.32 3.108c0 .624-.116 1.204-.348 1.74a4.195 4.195 0 01-.972 1.38 4.405 4.405 0 01-1.452.9 4.93 4.93 0 01-1.812.324zm-.012-1.656c.376 0 .72-.064 1.032-.192a2.448 2.448 0 001.392-1.404c.136-.328.204-.692.204-1.092 0-.4-.068-.764-.204-1.092a2.448 2.448 0 00-.552-.852 2.351 2.351 0 00-.828-.552 2.786 2.786 0 00-1.044-.192c-.376 0-.724.064-1.044.192a2.504 2.504 0 00-.828.552c-.24.24-.428.524-.564.852a2.98 2.98 0 00-.192 1.092c0 .392.064.756.192 1.092.136.328.32.612.552.852.24.24.52.424.84.552.32.128.668.192 1.044.192zm6.057 1.512v-8.4h1.608l4.956 6.048h-.78v-6.048h1.92v8.4H35.07l-4.968-6.048h.78v6.048h-1.92zm12.451.144a6.999 6.999 0 01-1.932-.264c-.616-.184-1.112-.42-1.488-.708l.66-1.464c.36.256.784.468 1.272.636.496.16.996.24 1.5.24.384 0 .692-.036.924-.108.24-.08.416-.188.528-.324a.715.715 0 00.168-.468c0-.224-.088-.4-.264-.528a2.011 2.011 0 00-.696-.324 10.5 10.5 0 00-.96-.24c-.344-.08-.692-.176-1.044-.288a4.455 4.455 0 01-.948-.432 2.18 2.18 0 01-.708-.696c-.176-.288-.264-.656-.264-1.104 0-.48.128-.916.384-1.308.264-.4.656-.716 1.176-.948.528-.24 1.188-.36 1.98-.36.528 0 1.048.064 1.56.192.512.12.964.304 1.356.552l-.6 1.476a4.91 4.91 0 00-1.176-.492 4.182 4.182 0 00-1.152-.168c-.376 0-.684.044-.924.132-.24.088-.412.204-.516.348a.768.768 0 00-.156.48c0 .216.088.392.264.528.176.128.408.232.696.312.288.08.604.16.948.24.352.08.7.172 1.044.276.352.104.672.244.96.42.288.176.52.408.696.696.184.288.276.652.276 1.092 0 .472-.132.904-.396 1.296s-.66.708-1.188.948c-.52.24-1.18.36-1.98.36zm6.515-.144V91.74h-2.688v-1.584h7.32v1.584h-2.688v6.816H47.93zm5.678 0v-8.4h3.636c.752 0 1.4.124 1.944.372.544.24.964.588 1.26 1.044.296.456.444 1 .444 1.632 0 .624-.148 1.164-.444 1.62-.296.448-.716.792-1.26 1.032s-1.192.36-1.944.36h-2.556l.864-.852v3.192h-1.944zm5.34 0l-2.1-3.048h2.076l2.124 3.048h-2.1zm-3.396-2.976l-.864-.912h2.448c.6 0 1.048-.128 1.344-.384.296-.264.444-.624.444-1.08 0-.464-.148-.824-.444-1.08-.296-.256-.744-.384-1.344-.384h-2.448l.864-.924v4.764zm10.612 3.12c-1.191 0-2.123-.332-2.795-.996-.672-.664-1.009-1.612-1.009-2.844v-4.704h1.944v4.632c0 .8.165 1.376.493 1.728.328.352.787.528 1.38.528.591 0 1.052-.176 1.38-.528.328-.352.492-.928.492-1.728v-4.632h1.92v4.704c0 1.232-.337 2.18-1.008 2.844-.672.664-1.604.996-2.796.996zm9.746 0a5.163 5.163 0 01-1.812-.312 4.282 4.282 0 01-2.4-2.292 4.41 4.41 0 01-.336-1.74c0-.632.112-1.212.336-1.74.232-.528.552-.988.96-1.38.416-.392.9-.692 1.452-.9a4.93 4.93 0 011.812-.324c.728 0 1.384.128 1.968.384a3.783 3.783 0 011.488 1.104l-1.248 1.152a2.847 2.847 0 00-.96-.732 2.64 2.64 0 00-1.152-.252c-.392 0-.752.064-1.08.192a2.448 2.448 0 00-.852.552c-.24.24-.428.524-.564.852a2.98 2.98 0 00-.192 1.092c0 .4.064.764.192 1.092.136.328.324.612.564.852.24.24.524.424.852.552.328.128.688.192 1.08.192.416 0 .8-.08 1.152-.24a2.93 2.93 0 00.96-.756l1.248 1.152c-.4.488-.896.86-1.488 1.116-.584.256-1.244.384-1.98.384zm6.438-.144V91.74H79.66v-1.584h7.32v1.584h-2.688v6.816h-1.944zm5.678 0v-8.4h1.944v8.4h-1.944zm8.018.144c-.664 0-1.28-.108-1.848-.324a4.439 4.439 0 01-1.464-.912 4.282 4.282 0 01-.96-1.38 4.379 4.379 0 01-.336-1.728c0-.624.112-1.2.336-1.728.232-.528.556-.988.972-1.38a4.439 4.439 0 011.464-.912 5.026 5.026 0 011.824-.324c.664 0 1.272.108 1.824.324.56.216 1.044.52 1.452.912a4.194 4.194 0 011.32 3.108c0 .624-.116 1.204-.348 1.74a4.195 4.195 0 01-.972 1.38 4.405 4.405 0 01-1.452.9 4.93 4.93 0 01-1.812.324zm-.012-1.656c.376 0 .72-.064 1.032-.192a2.448 2.448 0 001.392-1.404c.136-.328.204-.692.204-1.092 0-.4-.068-.764-.204-1.092a2.448 2.448 0 00-.552-.852 2.351 2.351 0 00-.828-.552 2.786 2.786 0 00-1.044-.192c-.376 0-.724.064-1.044.192a2.504 2.504 0 00-.828.552c-.24.24-.428.524-.564.852a2.98 2.98 0 00-.192 1.092c0 .392.064.756.192 1.092.136.328.32.612.552.852.24.24.52.424.84.552.32.128.668.192 1.044.192zm6.057 1.512v-8.4h1.608l4.956 6.048h-.78v-6.048h1.92v8.4h-1.596l-4.968-6.048h.78v6.048h-1.92zm-59.334 17.06c-.44 0-.844-.1-1.21-.3-.36-.207-.65-.51-.87-.91-.214-.4-.32-.9-.32-1.5s.103-1.1.31-1.5c.213-.4.5-.7.86-.9.366-.2.776-.3 1.23-.3.52 0 .98.113 1.38.34.4.226.716.543.95.95.233.4.35.87.35 1.41 0 .54-.117 1.013-.35 1.42-.234.406-.55.723-.95.95-.4.226-.86.34-1.38.34zm-2.81 1.88v-7.24h.92v1.43l-.06 1.23.1 1.23v3.35h-.96zm2.73-2.72c.34 0 .643-.077.91-.23.273-.154.486-.37.64-.65.16-.287.24-.617.24-.99 0-.38-.08-.707-.24-.98a1.622 1.622 0 00-.64-.65 1.786 1.786 0 00-.91-.23 1.82 1.82 0 00-.91.23 1.71 1.71 0 00-.64.65c-.154.273-.23.6-.23.98 0 .373.076.703.23.99.16.28.373.496.64.65.273.153.576.23.91.23zm6.514.84c-.566 0-1.066-.117-1.5-.35a2.576 2.576 0 01-1-.96 2.766 2.766 0 01-.35-1.4c0-.527.114-.994.34-1.4.234-.407.55-.724.95-.95.407-.234.864-.35 1.37-.35.514 0 .967.113 1.36.34.394.226.7.546.92.96.227.406.34.883.34 1.43 0 .04-.003.086-.01.14 0 .053-.003.103-.01.15h-4.51v-.69h4.01l-.39.24a1.78 1.78 0 00-.21-.91 1.553 1.553 0 00-.61-.62 1.679 1.679 0 00-.89-.23c-.333 0-.63.076-.89.23-.26.146-.463.356-.61.63-.146.266-.22.573-.22.92v.16c0 .353.08.67.24.95.167.273.397.486.69.64.294.153.63.23 1.01.23.314 0 .597-.054.85-.16a1.87 1.87 0 00.68-.48l.53.62c-.24.28-.54.493-.9.64a3.09 3.09 0 01-1.19.22zm3.92-.06v-5.3h.99l2.28 3.92h-.4l2.34-3.92h.9v5.3h-.87v-4.22l.16.09-2.14 3.53h-.42l-2.15-3.6.19-.04v4.24h-.88zm10.248.06a2.841 2.841 0 01-1.42-.35 2.615 2.615 0 01-.98-.96c-.24-.414-.36-.88-.36-1.4 0-.527.12-.994.36-1.4.24-.407.567-.724.98-.95.414-.234.887-.35 1.42-.35.527 0 .997.116 1.41.35.42.226.747.543.98.95.24.4.36.866.36 1.4 0 .526-.12.993-.36 1.4a2.52 2.52 0 01-.98.96 2.82 2.82 0 01-1.41.35zm0-.84c.34 0 .644-.077.91-.23.274-.154.487-.37.64-.65a2.07 2.07 0 00.23-.99c0-.38-.076-.707-.23-.98a1.622 1.622 0 00-.64-.65 1.786 1.786 0 00-.91-.23 1.71 1.71 0 00-1.55.88c-.16.273-.24.6-.24.98 0 .373.08.703.24.99.16.28.374.496.64.65.267.153.57.23.91.23zm4.137.78v-5.3h.96v2.25h3.02v-2.25h.96v5.3h-.96v-2.22h-3.02v2.22h-.96zm7.856 0v-4.71l.24.25h-2.18v-.84h4.84v.84h-2.17l.23-.25v4.71h-.96zm-53.726 12v-5.3h4.91v5.3h-.96v-4.7l.23.24h-3.45l.23-.24v4.7h-.96zm9.038.06a2.842 2.842 0 01-1.42-.35 2.615 2.615 0 01-.98-.96c-.24-.414-.36-.88-.36-1.4 0-.527.12-.994.36-1.4.24-.407.567-.724.98-.95.413-.234.887-.35 1.42-.35.527 0 .997.116 1.41.35.42.226.747.543.98.95.24.4.36.866.36 1.4 0 .526-.12.993-.36 1.4a2.52 2.52 0 01-.98.96 2.82 2.82 0 01-1.41.35zm0-.84c.34 0 .643-.077.91-.23.273-.154.487-.37.64-.65.153-.287.23-.617.23-.99 0-.38-.077-.707-.23-.98a1.62 1.62 0 00-.64-.65 1.786 1.786 0 00-.91-.23 1.711 1.711 0 00-1.55.88c-.16.273-.24.6-.24.98 0 .373.08.703.24.99.16.28.373.496.64.65.267.153.57.23.91.23zm3.217.77l.06-.81c.047.006.09.013.13.02a.76.76 0 00.11.01c.214 0 .38-.074.5-.22.127-.147.22-.34.28-.58a5.58 5.58 0 00.13-.83c.027-.307.047-.614.06-.92l.09-1.96h4.07v5.3h-.96v-4.74l.23.28h-2.72l.22-.29-.07 1.47c-.02.466-.056.903-.11 1.31a4.965 4.965 0 01-.25 1.07c-.107.306-.257.546-.45.72-.187.173-.43.26-.73.26-.087 0-.18-.01-.28-.03a4.164 4.164 0 01-.31-.06zm7.286.01v-5.3h.96v2.25h3.02v-2.25h.96v5.3h-.96v-2.22h-3.02v2.22h-.96zm9.077.06a2.842 2.842 0 01-1.42-.35 2.615 2.615 0 01-.98-.96c-.24-.414-.36-.88-.36-1.4 0-.527.12-.994.36-1.4.24-.407.567-.724.98-.95.413-.234.887-.35 1.42-.35.527 0 .997.116 1.41.35.42.226.747.543.98.95.24.4.36.866.36 1.4 0 .526-.12.993-.36 1.4a2.52 2.52 0 01-.98.96 2.82 2.82 0 01-1.41.35zm0-.84c.34 0 .643-.077.91-.23.273-.154.487-.37.64-.65a2.07 2.07 0 00.23-.99c0-.38-.077-.707-.23-.98a1.621 1.621 0 00-.64-.65 1.786 1.786 0 00-.91-.23 1.71 1.71 0 00-1.55.88c-.16.273-.24.6-.24.98 0 .373.08.703.24.99.16.28.373.496.64.65.267.153.57.23.91.23zm4.136.78v-5.3h3.9v.84h-3.17l.23-.22v4.68h-.96zm6.919.06a2.842 2.842 0 01-1.42-.35 2.615 2.615 0 01-.98-.96c-.24-.414-.36-.88-.36-1.4 0-.527.12-.994.36-1.4a2.52 2.52 0 01.98-.95c.413-.234.886-.35 1.42-.35.526 0 .996.116 1.41.35.42.226.746.543.98.95.24.4.36.866.36 1.4 0 .526-.12.993-.36 1.4-.234.406-.56.726-.98.96-.414.233-.884.35-1.41.35zm0-.84c.34 0 .643-.077.91-.23.273-.154.486-.37.64-.65a2.07 2.07 0 00.23-.99c0-.38-.077-.707-.23-.98a1.621 1.621 0 00-.64-.65 1.786 1.786 0 00-.91-.23 1.71 1.71 0 00-1.55.88c-.16.273-.24.6-.24.98 0 .373.08.703.24.99.16.28.373.496.64.65.266.153.57.23.91.23zm6.822.78v-5.3h.96v4.46h2.9v-4.46h.96v5.3h-4.82zm4.75 1.23v-1.28l.24.05h-1.13v-.84h1.8v2.07h-.91zm2.154-1.23v-5.3h.96v3.86l3.25-3.86h.87v5.3h-.96v-3.86l-3.24 3.86h-.88zm10.783 0l-2.05-2.58.79-.48 2.39 3.06h-1.13zm-3.84 0v-5.3h.96v5.3h-.96zm.67-2.24v-.82h1.75v.82h-1.75zm1.99-.3l-.89-.12 2.03-2.64h1.03l-2.17 2.76zm2.437 2.53l.06-.81c.046.006.09.013.13.02.04.006.076.01.11.01.213 0 .38-.074.5-.22.126-.147.22-.34.28-.58a5.58 5.58 0 00.13-.83c.026-.307.046-.614.06-.92l.09-1.96h4.07v5.3h-.96v-4.74l.23.28h-2.72l.22-.29-.07 1.47c-.02.466-.057.903-.11 1.31a4.965 4.965 0 01-.25 1.07c-.107.306-.257.546-.45.72-.187.173-.43.26-.73.26-.087 0-.18-.01-.28-.03a4.164 4.164 0 01-.31-.06zm10.536.01v-1.12l-.05-.21v-1.91c0-.407-.12-.72-.36-.94-.233-.227-.587-.34-1.06-.34-.313 0-.62.053-.92.16-.3.1-.553.236-.76.41l-.4-.72c.273-.22.6-.387.98-.5.387-.12.79-.18 1.21-.18.727 0 1.287.176 1.68.53.393.353.59.893.59 1.62v3.2h-.91zm-1.74.06c-.393 0-.74-.067-1.04-.2a1.613 1.613 0 01-.68-.55c-.16-.24-.24-.51-.24-.81 0-.287.067-.547.2-.78.14-.234.363-.42.67-.56.313-.14.733-.21 1.26-.21h1.68v.69h-1.64c-.48 0-.803.08-.97.24a.774.774 0 00-.25.58c0 .26.103.47.31.63.207.153.493.23.86.23.36 0 .673-.08.94-.24.273-.16.47-.394.59-.7l.19.66a1.52 1.52 0 01-.67.75c-.32.18-.723.27-1.21.27z" fill="#fff"/><defs><clipPath id="clip0_2289_10889"><path fill="#fff" d="M0 0h120v120H0z"/></clipPath></defs></svg>