<svg width="135" height="15" fill="none" xmlns="http://www.w3.org/2000/svg"><g clip-path="url(#clip0_312_415)"><mask id="a" style="mask-type:luminance" maskUnits="userSpaceOnUse" x="0" y="0" width="135" height="15"><path d="M0 0h135v15H0V0z" fill="#fff"/></mask><g mask="url(#a)"><path fill-rule="evenodd" clip-rule="evenodd" d="M33.333 2.35l-4.936 10.854h.817l1.335-3.019h6.25l1.346 3.015h.865L34.074 2.346l-.74.004h-.001zm-2.441 7.104l2.805-6.229 2.783 6.229h-5.588zM53.547 5.48a2.907 2.907 0 00-.202-1.095 2.858 2.858 0 00-.598-.933c-.635-.644-1.675-1.05-2.976-1.05h-4.434v10.75h.785V8.698h3.46l3.368 4.454h.999l-3.491-4.594c1.782-.245 3.09-1.274 3.09-3.07V5.48h-.001zm-7.431 2.49V3.151h3.61c1.92 0 3.038.907 3.038 2.35 0 1.582-1.315 2.489-3.09 2.489l-3.559-.021zm22.716-5.572H67.76l-6.738 7.056V2.399h-.786v10.753h.786v-2.735l2.63-2.713L68 13.14h1.03l-4.806-6.005 4.607-4.738zm20.334.753h3.686v10.014h.786V3.152h3.683v-.753h-8.155v.752zm14.474 10.014h.786V2.4h-.786v10.766zm15.144-1.4l-7.297-9.366h-.741v10.753h.755V3.596l7.448 9.556h.591V2.399h-.756v9.366zm12.062-4.202v.7h3.433v3a5.205 5.205 0 01-3.261 1.195c-2.746 0-4.386-2.013-4.386-4.716 0-2.553 1.74-4.7 4.225-4.7a4.531 4.531 0 013.288 1.254l.498-.58a5.292 5.292 0 00-3.742-1.377c-3.054 0-5.059 2.584-5.059 5.403 0 2.968 1.915 5.402 5.149 5.402a6.083 6.083 0 004.022-1.568v-4.02l-4.167.007zM75.323 3.17h7.55v-.774h-7.55v.774zm5.241 4.247h-5.241v.767h5.241v-.767zm-5.241 5.736h7.55v-.767h-7.55v.767zM17.506 0l-3.494 6.107L10.534 0H6.32v9.072a27.637 27.637 0 004.215 3.13V7.704l3.289 5.603h.378l3.305-5.603V15h4.195V0h-4.195zM4.215 6.916V0H0a24.189 24.189 0 004.215 6.916zM0 8.704v6.303h4.215V11.67A32.285 32.285 0 010 8.704zm6.32 4.104V15h4.214v-.472a32.223 32.223 0 01-4.215-1.72z" fill="#6B6B6A"/></g></g><defs><clipPath id="clip0_312_415"><path fill="#fff" d="M0 0h135v15H0z"/></clipPath></defs></svg>