<svg width="47" height="47" fill="none" xmlns="http://www.w3.org/2000/svg"><path d="M37.625 28.559a87.776 87.776 0 00-9.679-3.704c2.907-2.598 4.474-7.437 4.868-11.056a3.056 3.056 0 00.816-2.258 10.03 10.03 0 00-2.997-7.14 10.306 10.306 0 00-7.238-2.958A10.307 10.307 0 0016.157 4.4a10.031 10.031 0 00-2.998 7.14 3.124 3.124 0 00.814 2.241c.392 3.62 1.96 8.47 4.87 11.073a87.771 87.771 0 00-9.678 3.704c-4.048 2.085-4.048 11.107-4.048 15.443a.712.712 0 00.214.51.73.73 0 00.517.212h35.094a.739.739 0 00.517-.212.721.721 0 00.214-.51c0-4.336 0-13.358-4.048-15.443zm-17.886 7.263c0-.56.132-1.113.386-1.614a3.615 3.615 0 011.077-1.273v2.887a.712.712 0 00.214.51.733.733 0 00.517.21h2.924a.74.74 0 00.517-.21.72.72 0 00.215-.51v-2.887c.498.37.893.858 1.146 1.42a3.563 3.563 0 01-.32 3.498 3.641 3.641 0 01-1.384 1.194 3.696 3.696 0 01-3.557-.157 3.628 3.628 0 01-1.272-1.312 3.57 3.57 0 01-.463-1.756zm8.774 0a4.988 4.988 0 00-.939-2.916 5.096 5.096 0 00-2.476-1.841.72.72 0 00-.673.08.704.704 0 00-.299.6V35.1h-1.462v-3.354a.704.704 0 00-.303-.594.727.727 0 00-.668-.088 5.106 5.106 0 00-2.397 1.736A4.988 4.988 0 0019 38.405a5.085 5.085 0 002.2 1.972v2.904h-8.04V28.406a115.26 115.26 0 013.498-1.282 10.463 10.463 0 006.738 2.451c2.47 0 4.86-.869 6.738-2.451 1.106.387 2.335.831 3.498 1.282V43.28h-8.043v-2.904a5.098 5.098 0 002.13-1.86 5.006 5.006 0 00.795-2.695zM14.815 12.42a1.013 1.013 0 01-.149-.92 1.017 1.017 0 01.673-.655 40.268 40.268 0 0116.111.017c.813.23.786 1.02.542 1.552l-.604.897c-.291.45-.738.782-1.258.933a2.277 2.277 0 01-1.57-.11 12.051 12.051 0 00-10.256-.005c-.483.223-1.03.27-1.544.132a2.246 2.246 0 01-1.263-.886l-.682-.955zm8.58-9.535a8.857 8.857 0 015.418 1.858 8.653 8.653 0 013.1 4.762 40.05 40.05 0 00-17.031-.018 8.654 8.654 0 013.102-4.75 8.857 8.857 0 015.411-1.852zm-7.69 12.517a3.668 3.668 0 003.21.037 10.492 10.492 0 019.047.011 3.718 3.718 0 003.117-.022c-.89 4.371-3.41 9.82-7.684 9.82-4.283 0-6.804-5.47-7.69-9.846zm7.69 11.288a6.38 6.38 0 003.112-.806c.128.045 1.011.348 1.966.67a8.942 8.942 0 01-5.078 1.579 8.942 8.942 0 01-5.078-1.579c.955-.322 1.935-.656 1.966-.67a6.38 6.38 0 003.112.806zM9.842 29.838a26.735 26.735 0 011.855-.845V43.28H6.58c.013-3.823.208-11.87 3.262-13.443zm12.822 13.443v-2.468c.484.076.978.076 1.462 0v2.468h-1.462zm12.429 0V28.993a26.74 26.74 0 011.855.845c3.054 1.573 3.25 9.62 3.262 13.443h-5.117z" fill="#2751A0"/></svg>