<svg width="24" height="13" fill="none" xmlns="http://www.w3.org/2000/svg"><path d="M22.563 7.001H1.438a.831.831 0 01-.575-.228.762.762 0 01-.238-.55c0-.206.086-.404.238-.55a.831.831 0 01.575-.228h21.125a.83.83 0 01.574.228.761.761 0 01.238.55.761.761 0 01-.238.55.831.831 0 01-.575.228zm.812 4.668a.762.762 0 00-.238-.55.83.83 0 00-.575-.228H1.438a.831.831 0 00-.574.228.762.762 0 00-.238.55c0 .206.086.404.238.55a.832.832 0 00.575.228h21.125a.831.831 0 00.574-.228.762.762 0 00.238-.55zm0-10.891a.761.761 0 00-.238-.55.831.831 0 00-.575-.228H1.438a.831.831 0 00-.574.228.762.762 0 00-.238.55c0 .206.086.404.238.55a.831.831 0 00.575.228h21.125a.831.831 0 00.574-.228.761.761 0 00.238-.55z" fill="#fff"/></svg>