<svg width="89" height="88" fill="none" xmlns="http://www.w3.org/2000/svg"><g clip-path="url(#clip0_2223_13245)" fill="#fff"><path d="M88.497 36.334c-.035-.804-.483-2.295-3.09-3.243L15.918 7.823a6.883 6.883 0 00-8.812 4.109L5.223 17.1.991 28.73a6.883 6.883 0 004.11 8.812l20.253 7.363a8.199 8.199 0 001.654 6.423L22.694 63.18a1.391 1.391 0 01-1.304.912H8.75v-4.125a4.13 4.13 0 00-4.125-4.125h-2.75c-.76 0-1.375.616-1.375 1.375v22c0 .76.616 1.375 1.375 1.375h2.75a4.13 4.13 0 004.125-4.125v-4.125h12.64a9.665 9.665 0 009.056-6.341l4.224-11.604a8.19 8.19 0 005.917-3.955l23.668 8.604a6.844 6.844 0 002.345.415 6.9 6.9 0 005.866-3.279l2.716.988a2.738 2.738 0 002.102-.092 2.73 2.73 0 001.42-1.55l3.764-10.34a2.752 2.752 0 00-1.174-3.298l4.408-2.055c2.514-1.173 2.83-2.697 2.795-3.5zM6 76.467c0 .758-.617 1.375-1.375 1.375H3.25v-19.25h1.375c.758 0 1.375.617 1.375 1.375v16.5zM27.862 65.06a6.907 6.907 0 01-6.472 4.532H8.75v-2.75h12.64a4.15 4.15 0 003.888-2.721l3.947-10.845a8.395 8.395 0 002.558 1.012L27.862 65.06zm5.828-13.34c-.032 0-.064 0-.095.002a5.55 5.55 0 01-1.976-.337 5.527 5.527 0 01-1.977-1.24 1.34 1.34 0 00-.166-.168 5.461 5.461 0 01-1.469-4.109l9.927 3.61a5.454 5.454 0 01-4.244 2.242zm46.194-7.473l-3.76 10.34-2.587-.942 3.568-9.801.73-.34 2.05.743zm4.656-6.905l-7.35 3.428h-.002l-1.76.822h-.002l-2.064.963c-2.422 1.13-6.59 1.311-9.103.397L24.486 28.5a1.375 1.375 0 00-.94 2.584L63.32 45.536c1.384.504 3.09.75 4.83.75 1.903 0 3.847-.295 5.455-.866l-3.122 8.577a4.13 4.13 0 01-5.287 2.465L6.04 34.956a4.13 4.13 0 01-2.466-5.287l2.353-6.464a6.84 6.84 0 003.405 2.707l1.292.47a1.375 1.375 0 10.94-2.584l-1.292-.47a4.13 4.13 0 01-2.466-5.287l.471-1.293 1.41-3.876a4.13 4.13 0 015.288-2.465l69.492 25.268c.882.321 1.209.656 1.275.78-.055.128-.351.49-1.203.887z"/><path d="M19.318 26.62l-2.585-.941a1.375 1.375 0 10-.94 2.584l2.584.94a1.372 1.372 0 001.763-.821 1.375 1.375 0 00-.822-1.762z"/></g><defs><clipPath id="clip0_2223_13245"><path fill="#fff" transform="translate(.5)" d="M0 0h88v88H0z"/></clipPath></defs></svg>