<svg width="89" height="95" fill="none" xmlns="http://www.w3.org/2000/svg"><path d="M20.349 35.69h39.36m-39.36 11.752h39.36m-39.36 11.752h39.36" stroke="#F8B540" stroke-width="3" stroke-miterlimit="10" stroke-linecap="round" stroke-linejoin="round"/><mask id="a" style="mask-type:luminance" maskUnits="userSpaceOnUse" x="0" y="0" width="89" height="95"><path d="M87.253 93.384V1.5H2v91.884h85.253z" fill="#fff" stroke="#fff" stroke-width="3"/></mask><g mask="url(#a)" stroke="#F8B540" stroke-width="3" stroke-miterlimit="10" stroke-linecap="round" stroke-linejoin="round"><path d="M72.702 20.159H59.553c-2.38 0-4.308-2.074-4.308-4.633V1.39l17.457 18.769zm-5.718 15.28h12.328c1.428 0 2.585 1.244 2.585 2.78v17.098M73.59 93l4.212-7.842c.21-.39.147-.883-.151-1.198L73.44 79.5a.874.874 0 00-1.29 0l-4.212 4.46c-.298.315-.36.808-.15 1.198L71.997 93a.888.888 0 001.593 0zm-.795.494v-7.459"/><path d="M32.899 93.494h35.149c1.334 0 2.526-.652 3.317-1.675M7.355 29.426v59.435c0 2.558 1.93 4.633 4.31 4.633h15.6M55.245 1.39h-43.58c-2.38 0-4.31 2.074-4.31 4.633v17.346m69.599 45.628v5.647c0 2.525-1.903 4.572-4.252 4.572-2.349 0-4.253-2.047-4.253-4.572V29.566c0-.512.386-.927.862-.927h6.782c.476 0 .861.415.861.927V62.94"/><path d="M69.867 28.64v-5.434c0-1.683 1.27-3.047 2.835-3.047s2.834 1.364 2.834 3.047v5.433"/></g></svg>