<svg width="81" height="80" fill="none" xmlns="http://www.w3.org/2000/svg"><mask id="a" style="mask-type:luminance" maskUnits="userSpaceOnUse" x="0" y="0" width="81" height="80"><path d="M.5 0h80v80H.5V0z" fill="#fff"/></mask><g mask="url(#a)" stroke="#fff" stroke-width="3" stroke-miterlimit="10" stroke-linecap="round" stroke-linejoin="round"><path d="M65.503 54.416A37.891 37.891 0 0067.66 41.79V17.981c0-2.532-1.887-4.654-4.398-4.983-4.536-.594-8.578-1.944-12.036-3.566m-4.753-2.59a47.096 47.096 0 01-6.211-4.617 3.99 3.99 0 00-5.28 0c-3.918 3.457-12.007 9.332-23.003 10.773-2.51.33-4.397 2.451-4.397 4.983V41.79c0 17.593 12.099 32.912 29.236 36.891l.008.002a3.52 3.52 0 001.599-.002 37.6 37.6 0 0012.078-5.15"/><path d="M73.418 66.117c0 6.99-5.667 12.656-12.657 12.656s-12.656-5.666-12.656-12.656S53.77 53.46 60.76 53.46s12.657 5.667 12.657 12.657z"/><path d="M66.992 61.324a2.422 2.422 0 00-3.425 0l-4.374 4.374-1.24-1.24a2.42 2.42 0 10-3.421 3.425l3.09 3.083c.871.87 2.284.87 3.155-.001l6.215-6.216a2.422 2.422 0 000-3.425zM37.621 26.54c-13.129.184-22.336 10.064-24.62 12.777a1.054 1.054 0 000 1.366c2.284 2.713 11.491 12.593 24.62 12.778 13.13-.184 22.337-10.065 24.62-12.778a1.054 1.054 0 000-1.366c-2.283-2.713-11.49-12.593-24.62-12.778z"/><path d="M51.082 40c0 7.434-6.026 13.46-13.46 13.46-7.435 0-13.461-6.026-13.461-13.46 0-7.434 6.026-13.46 13.46-13.46 7.434 0 13.461 6.026 13.461 13.46zm-4.535-.675a8.95 8.95 0 01-15.561 6.683m-2.246-4.894a8.95 8.95 0 0110.055-9.988"/><path d="M48.802 34.55a5.59 5.59 0 11-11.18 0 5.59 5.59 0 0111.18 0z"/></g></svg>