<svg width="89" height="88" fill="none" xmlns="http://www.w3.org/2000/svg"><g fill="#F8B540" clip-path="url(#clip0_2223_13081)"><path d="M62.033 45.694c-8.742 0-15.854 7.112-15.854 15.854 0 8.742 7.112 15.854 15.854 15.854 8.742 0 15.854-7.112 15.854-15.854 0-8.742-7.112-15.854-15.854-15.854zm0 28.27c-6.846 0-12.417-5.57-12.417-12.416 0-6.847 5.57-12.417 12.417-12.417 6.847 0 12.417 5.57 12.417 12.417 0 6.846-5.57 12.416-12.417 12.416z"/><path d="M88.496 57.13c0-.845-.615-1.565-1.45-1.697l-3.13-.496a22.722 22.722 0 00-1.739-4.194l1.86-2.565a1.719 1.719 0 00-.175-2.225l-6.236-6.231a1.718 1.718 0 00-2.225-.175l-2.56 1.859a22.702 22.702 0 00-4.201-1.742l-.497-3.12a1.719 1.719 0 00-1.697-1.448l-4.138.001V15.264a5.002 5.002 0 00-4.997-4.996H45.396V4.735A4.74 4.74 0 0040.66 0H22.147a4.74 4.74 0 00-4.734 4.735v5.533H5.497A5.002 5.002 0 00.5 15.264v36.801a5.002 5.002 0 004.997 4.997h30.102c-.001.03-.004.058-.004.088l.004 8.816a1.72 1.72 0 001.45 1.697l3.1.49a22.727 22.727 0 001.752 4.222l-1.844 2.542a1.719 1.719 0 00.176 2.225l6.236 6.232a1.719 1.719 0 002.225.175l2.547-1.85a22.682 22.682 0 004.215 1.741l.495 3.112A1.719 1.719 0 0057.65 88l8.816-.004c.845 0 1.565-.615 1.697-1.45l.494-3.12a22.724 22.724 0 004.2-1.745l2.56 1.857a1.718 1.718 0 002.226-.176l6.231-6.236a1.719 1.719 0 00.175-2.225l-1.863-2.564a22.717 22.717 0 001.735-4.195l3.131-.498a1.719 1.719 0 001.449-1.698l-.004-8.816zM20.85 4.735c0-.716.582-1.298 1.297-1.298h18.514c.715 0 1.297.582 1.297 1.298v5.533H20.85V4.735zm-15.353 8.97h51.814c.21 0 .41.042.592.117l-3.947 13.872a3.39 3.39 0 01-3.247 2.453H36.445v-.431a2.79 2.79 0 00-2.787-2.787H29.15a2.79 2.79 0 00-2.787 2.787v.43H12.1a3.39 3.39 0 01-3.248-2.452L4.905 13.823c.183-.076.382-.118.592-.118zm0 39.92c-.86 0-1.56-.7-1.56-1.56V22.984l1.608 5.65a6.841 6.841 0 006.554 4.95h14.264v.582c0 2.78 2.262 5.04 5.041 5.04 2.78 0 5.04-2.26 5.04-5.04v-.582H50.71a6.842 6.842 0 006.554-4.95l1.608-5.65v12.115H57.63c-.846 0-1.565.616-1.697 1.45l-.493 3.111a22.709 22.709 0 00-4.214 1.746l-2.548-1.849a1.719 1.719 0 00-2.225.177l-6.232 6.236a1.719 1.719 0 00-.174 2.225l1.846 2.541a22.674 22.674 0 00-1.3 2.889H5.497zm76.788 11.297a1.719 1.719 0 00-1.398 1.286 19.281 19.281 0 01-2.215 5.354 1.718 1.718 0 00.08 1.898l1.653 2.274-4.158 4.16-2.27-1.647a1.719 1.719 0 00-1.9-.078 19.28 19.28 0 01-5.358 2.226 1.719 1.719 0 00-1.285 1.4l-.438 2.764-5.88.003-.44-2.758a1.719 1.719 0 00-1.287-1.4 19.28 19.28 0 01-5.373-2.22 1.716 1.716 0 00-1.898.082l-2.257 1.64-4.16-4.158 1.634-2.253a1.72 1.72 0 00.079-1.9 19.28 19.28 0 01-2.232-5.377 1.719 1.719 0 00-1.4-1.286l-2.746-.435-.003-5.88 2.747-.438a1.718 1.718 0 001.399-1.287 19.28 19.28 0 012.227-5.378 1.719 1.719 0 00-.08-1.9l-1.636-2.252 4.157-4.16 2.258 1.637c.56.406 1.307.437 1.898.08a19.277 19.277 0 015.371-2.225 1.719 1.719 0 001.287-1.4l.437-2.758 5.881-.002.44 2.765a1.719 1.719 0 001.286 1.398 19.28 19.28 0 015.36 2.222c.592.359 1.34.327 1.9-.08l2.27-1.648 4.16 4.157-1.65 2.275a1.719 1.719 0 00-.08 1.898 19.28 19.28 0 012.218 5.353 1.72 1.72 0 001.4 1.285l2.776.44.003 5.88-2.777.443z"/><path d="M62.033 51.84c-.949 0-1.719.769-1.719 1.718v6.27H57.3a1.719 1.719 0 000 3.438h4.734c.95 0 1.719-.77 1.719-1.718v-7.99c0-.95-.77-1.719-1.719-1.719z"/></g><defs><clipPath id="clip0_2223_13081"><path fill="#fff" transform="translate(.5)" d="M0 0h88v88H0z"/></clipPath></defs></svg>