<svg width="91" height="92" fill="none" xmlns="http://www.w3.org/2000/svg"><path d="M17.325 76.897h70.404a1.77 1.77 0 001.771-1.77V22.74a1.77 1.77 0 00-1.77-1.77H75.016m-58.922 0H3.27a1.77 1.77 0 00-1.77 1.77v52.387c0 .977.793 1.77 1.77 1.77h7.802m31.945.507v7.349m4.965-.234V77.17m14.003 7.867H66.5a3.582 3.582 0 013.581 3.582 1.38 1.38 0 01-1.38 1.38H22.298a1.38 1.38 0 01-1.38-1.38 3.582 3.582 0 013.581-3.582h31.396" stroke="#fff" stroke-width="3" stroke-miterlimit="10" stroke-linecap="round" stroke-linejoin="round"/><path d="M57.621 13.518h16.876v40.346M16.094 36.785V13.518h16.178M16.094 54.206V43.118M57.333 7.843H32.498L38.343 2h13.02l5.97 5.843zM30.855 18.198v4.85h9.131v-4.85h-9.131zm18.99 0v4.85h9.131v-4.85h-9.131zM38.284 7.843v10.378m-5.786-.001V7.844m24.846-.001v10.378m-5.786-.001V7.844M57.6 63.55h10.61m-3.099-9.345H16.094l-1.942 9.344h37.195M36.97 42.726l4.082-10.714a.337.337 0 01.63 0l4.045 10.714m-7.458-2.723h6.18m7.333-8.073v10.932h3.833" stroke="#fff" stroke-width="3" stroke-miterlimit="10" stroke-linecap="round" stroke-linejoin="round"/><path d="M65.626 31.93h-4.608v10.932h4.608m-.515-5.465h-4.067m-30.031-4.5s-1.962-1.649-4.277-.952c-2.125.64-2.41 3.122-.884 4.09.724.46 1.482.712 3.181 1.29 3.83 1.304 2.293 5.38-.95 5.38-1.623 0-2.986-.711-3.81-1.62m55.415 16.419l-2.834 2.838 2.461 2.465a1.056 1.056 0 010 1.493L77.7 65.92a1.053 1.053 0 01-1.49 0l-2.462-2.465-2.834 2.839c-.555.556-1.5.33-1.747-.416l-4.56-13.848a.667.667 0 01.84-.842l13.827 4.568c.746.246.97 1.193.415 1.749zM38.476 13.518h12.859" stroke="#fff" stroke-width="3" stroke-miterlimit="10" stroke-linecap="round" stroke-linejoin="round"/></svg>