<svg width="89" height="88" fill="none" xmlns="http://www.w3.org/2000/svg"><g fill="#F8B540" clip-path="url(#clip0_2223_13128)"><path d="M16.722 70.975a1.3 1.3 0 00-1.21 1.384l.316 4.683a1.3 1.3 0 001.295 1.212h.089a1.3 1.3 0 001.209-1.384l-.315-4.679a1.303 1.303 0 00-1.383-1.216h-.001z"/><path d="M81.895 86.436L77.32 64.432c-.1-6.119-5.085-11.029-11.205-11.036h-.223v-3.47a1.296 1.296 0 00-1.113-1.28V3.527a3.504 3.504 0 00-1.035-2.493 3.526 3.526 0 00-6.022 2.493v45.117a1.295 1.295 0 00-1.113 1.281v3.47h-.23a11.15 11.15 0 00-6.882 2.376l.42-6.202a3.517 3.517 0 00-1.082-6.867H10.589a3.517 3.517 0 00-1.07 6.867l2.227 33.058A5.767 5.767 0 0017.485 88h63.144a1.299 1.299 0 001.272-1.564h-.005zM61.25 2.6a.934.934 0 01.928.928v45.099h-1.856V3.528c0-.512.415-.928.928-.928zm-2.043 48.626h4.085v2.17h-4.084v-2.17zm-2.829 4.769h9.737a8.627 8.627 0 018.515 7.313H47.862a8.627 8.627 0 018.515-7.313zm.371 9.912l-.859 19.494h-4.776l2.431-19.494h3.204zm2.6 0h3.787l.858 19.494h-5.501l.855-19.494zm6.386 0h3.205l2.43 19.494H66.6l-.865-19.494zM10.592 45.3h38.244a.928.928 0 110 1.856H10.592a.928.928 0 010-1.856zm36.388 4.456a14.726 14.726 0 01-14.233 11.131h-6.193a14.63 14.63 0 01-14.223-11.132H46.98zM14.334 82.453l-1.756-26.09a17.464 17.464 0 001.767 2.072 17.174 17.174 0 0012.205 5.05h6.194a17.323 17.323 0 0014.12-7.37l-.197 2.904a11.131 11.131 0 00-1.493 5.402l-4.364 20.98H17.48a3.162 3.162 0 01-3.145-2.947zM47.52 65.907h3.405l-2.43 19.494h-5.03l4.055-19.494zm26.476 19.494l-2.432-19.494h3.406l4.056 19.494h-5.03z"/></g><defs><clipPath id="clip0_2223_13128"><path fill="#fff" transform="translate(.5)" d="M0 0h88v88H0z"/></clipPath></defs></svg>