<svg width="81" height="80" fill="none" xmlns="http://www.w3.org/2000/svg"><path d="M11.75 51.25a3.75 3.75 0 100 7.5 3.75 3.75 0 000-7.5zm0 5a1.25 1.25 0 110-2.5 1.25 1.25 0 010 2.5zm47.5-5a3.75 3.75 0 100 7.5 3.75 3.75 0 000-7.5zm0 5a1.25 1.25 0 110-2.5 1.25 1.25 0 010 2.5z" fill="#fff"/><path d="M68 55a8.75 8.75 0 00-8.9-8.749c-4.742.08-8.6 4.06-8.6 8.872v4.2c-3.424-.932-8.418-1.823-15-1.823-6.582 0-11.576.89-15 1.823V55a8.75 8.75 0 00-9.09-8.743 8.781 8.781 0 00-8.403 8.403 8.755 8.755 0 007.493 9.002v5.088a5.006 5.006 0 005 5v3.75a1.25 1.25 0 001.25 1.25h3.75a1.25 1.25 0 001.118-.691l2.155-4.309h23.454l2.155 4.309a1.25 1.25 0 001.118.691h3.75a1.25 1.25 0 001.25-1.25v-3.75a5.006 5.006 0 005-5v-5.09A8.763 8.763 0 0068 55zM19.727 76.25H18v-2.5h2.977l-1.25 2.5zm33.273 0h-1.727l-1.25-2.5H53v2.5zm6.25-15A1.25 1.25 0 0058 62.5v6.25a2.503 2.503 0 01-2.5 2.5h-40a2.503 2.503 0 01-2.5-2.5V62.5a1.25 1.25 0 00-1.25-1.25 6.251 6.251 0 01-6.245-6.495 6.27 6.27 0 016-6A6.25 6.25 0 0118 55v5.094c-1.97.687-3.006 1.256-3.113 1.316l1.223 2.18c.065-.035 6.608-3.59 19.39-3.59s19.325 3.555 19.387 3.59l1.226-2.18c-.107-.06-1.142-.63-3.113-1.316v-4.97c0-3.458 2.756-6.317 6.143-6.373a6.25 6.25 0 11.107 12.499zM13 37.5a2.503 2.503 0 012.5-2.5h40a2.503 2.503 0 012.5 2.5v6.25h2.5V37.5a5.006 5.006 0 00-5-5h-40a5.006 5.006 0 00-5 5v6.25H13V37.5z" fill="#fff"/><path d="M28 40h2.5v2.5H28V40zm6.25 6.25h2.5v2.5h-2.5v-2.5zm-12.5 0h2.5v2.5h-2.5v-2.5zM28 52.5h2.5V55H28v-2.5zM40.5 40H43v2.5h-2.5V40zm6.25 6.25h2.5v2.5h-2.5v-2.5zM40.5 52.5H43V55h-2.5v-2.5zM73 1.25H38a5.006 5.006 0 00-5 5V7.5h2.5V6.25a2.503 2.503 0 012.5-2.5h16.25V30h2.5V3.75H73a2.503 2.503 0 012.5 2.5v62.5a2.503 2.503 0 01-2.5 2.5H61.75v2.5h2.978l2.154 4.31a1.25 1.25 0 001.118.69h3.75A1.25 1.25 0 0073 77.5v-3.75a5.006 5.006 0 005-5V6.25a5.006 5.006 0 00-5-5zm-2.5 75h-1.728l-1.25-2.5H70.5v2.5z" fill="#fff"/><path d="M11.75 27.5H23V30h2.5v-2.5h11.25a1.25 1.25 0 001.246-1.354l-1.25-15A1.25 1.25 0 0035.5 10h-10V7.5H23V10H13a1.25 1.25 0 00-1.246 1.146l-1.25 15A1.25 1.25 0 0011.75 27.5zm2.4-15h20.2L35.392 25H13.108l1.042-12.5z" fill="#fff"/></svg>