<svg width="107" height="80" fill="none" xmlns="http://www.w3.org/2000/svg"><g fill="#F8B540"><path d="M8.578 17.807h16.439a1.559 1.559 0 100-3.118H8.578a1.559 1.559 0 100 3.118zm15.875 7.503H17.96a1.559 1.559 0 100 3.118h6.493a1.559 1.559 0 100-3.118zM2.059 36.12h15.9a1.559 1.559 0 100-3.118H2.06a1.559 1.559 0 100 3.117zm24.517 27.632a1.56 1.56 0 00-1.56-1.559H8.579a1.559 1.559 0 100 3.118h16.439a1.56 1.56 0 001.559-1.56zm-2.123-12.18H17.96a1.559 1.559 0 100 3.117h6.493a1.559 1.559 0 100-3.117zm-4.935-6.132c0-.862-.698-1.56-1.558-1.56H2.059a1.559 1.559 0 100 3.118h15.9a1.56 1.56 0 001.56-1.559zm47.387-24.18c.861 0 1.559-.697 1.559-1.558v-2.38a1.558 1.558 0 10-3.117 0v2.38c0 .861.697 1.559 1.558 1.559zm17.138 1.602a1.56 1.56 0 00-2.204 0l-1.683 1.683a1.559 1.559 0 002.205 2.204l1.682-1.682a1.56 1.56 0 000-2.205zm3.161 15.579a1.558 1.558 0 100 3.118h2.379a1.559 1.559 0 100-3.118h-2.38zM82.36 53.25a1.56 1.56 0 00-2.204 2.205l1.683 1.683a1.559 1.559 0 002.204-2.205l-1.682-1.682zm-17.013 7.048v2.379a1.558 1.558 0 103.117 0v-2.38a1.558 1.558 0 10-3.117 0zM51.45 53.25l-1.682 1.683a1.559 1.559 0 102.204 2.205l1.683-1.683a1.559 1.559 0 00-2.205-2.204zm-7.222-14.809a1.559 1.559 0 100 3.118h2.38a1.559 1.559 0 100-3.118h-2.38zm9.427-13.896l-1.683-1.683a1.559 1.559 0 00-2.204 2.205l1.682 1.682a1.559 1.559 0 002.205-2.204zM75.287 40a1.56 1.56 0 00-1.559-1.559h-5.264V26.87a1.558 1.558 0 10-3.117 0V40c0 .861.697 1.559 1.558 1.559h6.823c.861 0 1.559-.698 1.559-1.559z"/><path d="M96.46 39.743a1.558 1.558 0 001.462-1.65C96.93 21.737 83.306 8.924 66.905 8.924c-17.135 0-31.076 13.94-31.076 31.077 0 17.135 13.94 31.076 31.076 31.076 15.352 0 28.451-11.248 30.73-26.426a1.559 1.559 0 10-3.083-.463C92.505 57.824 80.731 67.96 66.905 67.96 51.49 67.96 38.946 55.417 38.946 40c0-15.416 12.543-27.958 27.96-27.958 14.755 0 27.012 11.526 27.904 26.24a1.56 1.56 0 001.65 1.461z"/><path d="M66.906 0a39.985 39.985 0 00-15.799 3.264H23.606a1.559 1.559 0 100 3.118h21.637a39.955 39.955 0 00-7.993 6.776 1.559 1.559 0 102.31 2.092A36.962 36.962 0 0166.906 3.117c20.337 0 36.882 16.546 36.882 36.883 0 20.337-16.545 36.883-36.882 36.883-20.338 0-36.883-16.546-36.883-36.883a36.747 36.747 0 015.883-19.99 1.559 1.559 0 00-2.619-1.691A39.855 39.855 0 0026.905 40c0 14.083 7.317 26.489 18.348 33.618H23.606a1.559 1.559 0 100 3.118h27.48A39.772 39.772 0 0066.906 80c22.056 0 40-17.944 40-40s-17.944-40-40-40z"/></g></svg>