<svg width="89" height="88" fill="none" xmlns="http://www.w3.org/2000/svg"><g fill="#F8B540"><path d="M55.5 44c0-6.065-4.935-11-11-11s-11 4.935-11 11 4.935 11 11 11 11-4.935 11-11zm-11 8.25c-4.55 0-8.25-3.7-8.25-8.25s3.7-8.25 8.25-8.25 8.25 3.7 8.25 8.25-3.7 8.25-8.25 8.25z"/><path d="M81.595 42.761a36.866 36.866 0 00-2.72-12.793v-3.557c0-.92.454-1.783 1.184-2.254A12.323 12.323 0 0085.75 13.75c0-3.52-1.507-6.885-4.133-9.232a12.433 12.433 0 00-9.679-3.062c-5.156.583-9.438 4.477-10.608 9.459a37.15 37.15 0 00-16.83-4.04c-4.26 0-8.412.714-12.375 2.117V1.375h-8.25v22h-2.75v-16.5h-8.25v16.5h-2.75v-11h-8.25v13.75h10.087a37.005 37.005 0 00-2.447 30.25 5.443 5.443 0 00-.765 2.75H6a4.13 4.13 0 00-4.125 4.125v6.875h2.75a2.753 2.753 0 012.75 2.75 2.753 2.753 0 01-2.75 2.75h-2.75V82.5A4.13 4.13 0 006 86.625h16.5a4.13 4.13 0 004.125-4.125v-6.875h-2.75a2.753 2.753 0 01-2.75-2.75 2.753 2.753 0 012.75-2.75h2.75V63.25a4.13 4.13 0 00-4.125-4.125h-2.75c0-3.033-2.467-5.5-5.5-5.5-.917 0-1.77.248-2.53.646a34.178 34.178 0 01-1.535-8.896h16.44v3.724l2.51.886c.086.216.175.432.27.648l-1.15 2.403 7.211 7.211 2.404-1.15c.214.095.43.186.647.27l.884 2.508h3.724v16.463a34.012 34.012 0 01-13.12-3.16l-1.16 2.493c4.919 2.292 10.187 3.454 15.655 3.454 11.356 0 21.86-5.093 28.875-13.798v9.998l3.655 7.309a3.579 3.579 0 003.22 1.991 3.58 3.58 0 003.22-1.99l3.655-7.31V49.5c0-3.33-2.382-6.112-5.53-6.739zM7.375 23.375h-2.75v-8.25h2.75v8.25zm56.458-10.897c.55-4.313 4.089-7.8 8.415-8.29a10.41 10.41 0 011.14-.063c2.371 0 4.61.848 6.396 2.445A9.64 9.64 0 0183 13.75a9.588 9.588 0 01-4.427 8.095c-1.454.935-2.34 2.52-2.43 4.28H74.75v-8.503c1.596-.57 2.75-2.082 2.75-3.872a4.13 4.13 0 00-4.125-4.125 4.13 4.13 0 00-4.125 4.125c0 1.79 1.154 3.303 2.75 3.872v8.503h-1.396c-.101-1.775-.977-3.354-2.403-4.265-3.175-2.028-4.848-5.623-4.368-9.382zm12.292 16.397v1.375c0 .758-.617 1.375-1.375 1.375H72a1.377 1.377 0 01-1.375-1.375v-1.375h5.5zM72 13.75c0-.758.617-1.375 1.375-1.375s1.375.617 1.375 1.375-.617 1.375-1.375 1.375A1.377 1.377 0 0172 13.75zM45.875 9.67a34.336 34.336 0 0115.13 4.187c.032 4.178 2.125 8.026 5.714 10.32.713.455 1.155 1.333 1.155 2.292v3.781a4.13 4.13 0 004.125 4.125h2.75c.939 0 1.795-.327 2.49-.858a34.15 34.15 0 011.602 9.108H62.375v-3.724l-2.51-.886a18.509 18.509 0 00-.27-.648l1.15-2.403-7.211-7.211-2.404 1.15c-.214-.095-.43-.186-.647-.27l-.884-2.508h-3.724V9.67zm-19.25-5.545h2.75v19.25h-2.75V4.125zm-11 5.5h2.75v13.75h-2.75V9.625zM11.5 61.875v-2.75a2.753 2.753 0 012.75-2.75 2.753 2.753 0 012.75 2.75v2.75h5.5c.758 0 1.375.617 1.375 1.375v4.125a5.506 5.506 0 00-5.5 5.5c0 3.033 2.467 5.5 5.5 5.5V82.5c0 .758-.617 1.375-1.375 1.375H6A1.377 1.377 0 014.625 82.5v-4.125c3.033 0 5.5-2.467 5.5-5.5s-2.467-5.5-5.5-5.5V63.25c0-.758.617-1.375 1.375-1.375h5.5zm15.125-22.974v3.724H10.173a34.216 34.216 0 014.98-16.5h16.972V11.931a34.063 34.063 0 0111-2.272v16.466h-3.724l-.886 2.51a18.7 18.7 0 00-.648.27l-2.403-1.15-7.211 7.211 1.15 2.404c-.095.214-.186.43-.27.647l-2.508.884zm14.724 20.224l-.676-1.914-.63-.216a13.445 13.445 0 01-1.576-.657l-.599-.293-1.834.877-4.458-4.457.878-1.835-.293-.598c-.256-.52-.476-1.05-.658-1.577l-.215-.63-1.913-.674v-6.304l1.914-.675.216-.63c.18-.526.401-1.057.657-1.577l.293-.598-.877-1.834 4.457-4.458 1.835.877.598-.293c.52-.255 1.05-.475 1.577-.657l.63-.216.674-1.911h6.304l.675 1.914.63.216c.526.18 1.057.401 1.577.657l.598.293 1.834-.877 4.458 4.457-.877 1.835.293.598c.255.52.475 1.05.657 1.577l.216.63 1.911.674v6.304l-1.914.675-.216.63c-.18.526-.401 1.057-.657 1.577l-.293.598.877 1.834-4.457 4.458-1.835-.877-.598.293c-.52.255-1.05.475-1.577.657l-.63.216-.674 1.911h-6.303zM73.375 49.5v13.14c-6.121 9.47-16.298 15.251-27.5 15.691V61.875h3.724l.886-2.51c.216-.086.432-.175.648-.27l2.403 1.15 7.211-7.211-1.15-2.404c.095-.214.186-.43.27-.647l2.508-.884v-3.724h12.41c-.872 1.152-1.41 2.571-1.41 4.125zm2.75 4.125h2.75v22h-2.75v-22zm4.885 29.781c-.29.579-1.23.579-1.519 0l-2.516-5.031h6.55l-2.515 5.031zm3.365-7.781h-2.75v-22h2.75v22zm0-24.75h-8.25V49.5a4.13 4.13 0 014.125-4.125 4.13 4.13 0 014.125 4.125v1.375z"/><path d="M48.81 75.334c7.177-.98 13.862-4.449 18.823-9.77l-2.012-1.875c-4.53 4.859-10.632 8.027-17.183 8.92l.373 2.725zm23.083-15.521l-2.38-1.376a29.04 29.04 0 01-1.716 2.627l2.218 1.626a31.769 31.769 0 001.878-2.877z"/></g></svg>