<svg width="77" height="80" fill="none" xmlns="http://www.w3.org/2000/svg"><path d="M73.12 41.61c-.632-.178-1.294.17-1.479.776-4.33 14.185-14.749 26.051-29.335 33.413l-3.617 1.826a.824.824 0 01-.74 0l-3.617-1.826c-14.505-7.32-24.9-19.112-29.27-33.203-.188-.606-.851-.95-1.482-.77-.63.18-.99.817-.802 1.423 2.239 7.216 6.013 13.887 11.218 19.826 5.26 6.003 11.73 10.965 19.228 14.75l3.617 1.825a3.292 3.292 0 002.957 0l3.616-1.826c7.537-3.803 14.032-8.796 19.306-14.838 5.22-5.98 8.99-12.695 11.207-19.957.186-.606-.176-1.242-.807-1.42zm.2-28.584c-6.329-.641-11.304-4.906-12.1-10.371C60.999 1.14 59.644 0 58.069 0h-39.5c-1.576 0-2.93 1.141-3.15 2.655-.797 5.465-5.773 9.73-12.1 10.37C1.712 13.19.5 14.493.5 16.059v12.224c0 3 .272 6.02.81 8.978.1.555.604.947 1.172.947.068 0 .137-.006.206-.017.648-.109 1.082-.701.969-1.324a48.16 48.16 0 01-.775-8.584V16.058a.77.77 0 01.687-.757c7.417-.752 13.26-5.821 14.209-12.33a.794.794 0 01.79-.683h39.5c.402 0 .734.287.792.684.948 6.508 6.791 11.577 14.21 12.329a.77.77 0 01.685.757v12.224a48.14 48.14 0 01-.728 8.327c-.11.623.328 1.213.976 1.319.649.106 1.264-.315 1.373-.938.506-2.87.762-5.8.762-8.708V16.058c0-1.566-1.212-2.87-2.819-3.032z" fill="#fff"/><path d="M67.954 17.365c-5.102-1.939-9.152-5.51-11.403-10.054-.613-1.238-1.94-2.038-3.378-2.038H23.464c-1.438 0-2.764.8-3.377 2.038-2.251 4.545-6.301 8.116-11.404 10.054-1.433.545-2.36 1.857-2.36 3.343v6.939c0 9.096 2.763 18.082 7.99 25.986 5.276 7.982 12.922 14.652 22.111 19.29l.15.075a3.874 3.874 0 001.745.414c.6 0 1.199-.138 1.745-.414l.15-.075c9.189-4.638 16.835-11.308 22.112-19.29 5.226-7.904 7.988-16.89 7.988-25.986v-6.939c0-1.486-.926-2.798-2.36-3.343zm-.022 10.282c0 8.661-2.634 17.223-7.618 24.76-5.054 7.645-12.388 14.038-21.21 18.49l-.149.076a1.418 1.418 0 01-1.272 0l-.15-.075c-8.821-4.452-16.155-10.846-21.21-18.491-4.983-7.537-7.617-16.099-7.617-24.76v-6.939a1.3 1.3 0 01.854-1.216c5.665-2.152 10.167-6.13 12.678-11.199.22-.445.702-.733 1.227-.733h29.708c.524 0 1.006.288 1.226.733 2.511 5.07 7.014 9.047 12.678 11.199a1.3 1.3 0 01.855 1.216v6.939z" fill="#fff"/><path d="M63.617 23.11a2.756 2.756 0 00-1.192-1.797l-4.695-3.159a2.98 2.98 0 00-2.166-.46 2.894 2.894 0 00-1.871 1.143L37.497 41.04a.515.515 0 01-.384.21.52.52 0 01-.413-.152l-8.202-8.269c-1.103-1.111-2.941-1.154-4.098-.095l-4.15 3.796a2.704 2.704 0 00-.1 3.935l15.908 16.037a2.943 2.943 0 002.316.856 2.916 2.916 0 002.157-1.179l22.605-30.99a2.68 2.68 0 00.48-2.08zm-2.432.767L38.58 54.867a.515.515 0 01-.385.21.518.518 0 01-.412-.153L21.874 38.888a.483.483 0 01.018-.701l4.15-3.797a.527.527 0 01.357-.136c.136 0 .272.051.374.153l8.202 8.269a2.957 2.957 0 002.316.856 2.916 2.916 0 002.157-1.18L55.644 20.15a.53.53 0 01.72-.122l4.694 3.158a.49.49 0 01.212.32.477.477 0 01-.085.37z" fill="#fff"/></svg>