<svg width="89" height="88" fill="none" xmlns="http://www.w3.org/2000/svg"><g fill="#F8B540" clip-path="url(#clip0_2223_13207)"><path d="M35.648 46.578a1.29 1.29 0 001.29-1.289V29.133a1.29 1.29 0 00-1.29-1.29H15.711a1.29 1.29 0 00-1.29 1.29v16.156c0 .712.578 1.29 1.29 1.29h19.937zM17 30.422h17.36V44H17V30.422z"/><path d="M87.21 49.156h-6.1V21.454l2.57-.58a3.871 3.871 0 002.92-4.624 3.871 3.871 0 00-4.624-2.92l-4.423.998a1.289 1.289 0 10.568 2.515l4.422-.998a1.29 1.29 0 011.542.973 1.29 1.29 0 01-.973 1.541l-3.572.807-.015.003-30.227 6.825a.893.893 0 00-.027.006l-3.455.78a1.297 1.297 0 01-1.541-.974 1.29 1.29 0 01.973-1.54l27.44-6.196a1.289 1.289 0 00-.568-2.515l-27.44 6.196a3.861 3.861 0 00-2.586 2.005v-2.302l2.57-.58a3.871 3.871 0 002.92-4.624 3.872 3.872 0 00-4.624-2.92L5.664 21.75a3.872 3.872 0 00-2.92 4.624 3.845 3.845 0 003.77 3.016c.286 0 .573-.032.854-.096l1.898-.428v9.593a1.289 1.289 0 102.578 0V28.285l27.672-6.249v27.12H11.844v-5.248a1.289 1.289 0 10-2.578 0v5.248H1.789A1.29 1.29 0 00.5 50.446v23.03c0 .713.577 1.29 1.29 1.29h70.223a1.289 1.289 0 100-2.579H3.078V69.61h82.844v2.579h-8.395a1.289 1.289 0 100 2.578h9.684a1.29 1.29 0 001.289-1.29v-23.03a1.29 1.29 0 00-1.29-1.29zM6.8 26.78a1.297 1.297 0 01-1.541-.974 1.29 1.29 0 01.973-1.54l37.296-8.421a1.292 1.292 0 011.542.974 1.29 1.29 0 01-.974 1.54l-3.57.806-.018.004-30.226 6.825-.027.006-3.455.78zm71.73 22.376H50.86V28.285l27.672-6.249v27.12zm-33-19.765c.287 0 .574-.032.855-.096l1.897-.428v20.29h-6.187V27.298a3.84 3.84 0 003.435 2.092zM3.08 51.734h36.437v15.297h-2.578V56.977a1.29 1.29 0 00-1.29-1.29H18.461a1.29 1.29 0 00-1.29 1.29V67.03H3.079V51.734zm16.67 15.297v-8.765h14.61v8.765H19.75zm22.344-15.297H78.53v15.297h-2.578V56.977a1.29 1.29 0 00-1.289-1.29H57.477a1.29 1.29 0 00-1.29 1.29V67.03H42.094V51.734zm16.672 15.297v-8.765h14.609v8.765h-14.61zm22.343 0V51.734h4.813v15.297h-4.813z"/><path d="M54.727 46.578h19.937a1.29 1.29 0 001.29-1.289V29.133a1.29 1.29 0 00-1.29-1.29H54.727a1.29 1.29 0 00-1.29 1.29v16.156c0 .712.578 1.29 1.29 1.29zm1.289-16.156h17.359V44h-17.36V30.422z"/></g><defs><clipPath id="clip0_2223_13207"><path fill="#fff" transform="translate(.5)" d="M0 0h88v88H0z"/></clipPath></defs></svg>