<svg width="45" height="45" fill="none" xmlns="http://www.w3.org/2000/svg"><path d="M33.53 17.175c-.036.38-.627 1.735-.911 2.388l-.017.038a.177.177 0 01-.217.104l-3.388-.908a.187.187 0 01-.13-.226l.061-.231a3.027 3.027 0 00-.408-2.517 3.028 3.028 0 00-2.154-1.363 27.506 27.506 0 00-3.866-.268c-1.32 0-2.62.09-3.866.268-.905.13-1.65.6-2.154 1.363a3.028 3.028 0 00-.408 2.517l.062.231a.187.187 0 01-.13.226l-3.39.908a.177.177 0 01-.216-.104l-.017-.038c-.284-.652-.875-2.007-.911-2.388.008-.95 1.095-1.995 2.91-2.796 2.152-.95 5.035-1.473 8.12-1.473 3.084 0 5.968.523 8.12 1.473 1.815.801 2.902 1.846 2.91 2.796zm-.723 10.81l-7.975-3.535a1.055 1.055 0 01-.627-.965v-1.834h-3.41v1.834c0 .418-.246.795-.627.965l-7.975 3.535c-.045.02-.13.198-.13.537v3.291c0 .133.158.281.382.281h20.11c.224 0 .381-.148.381-.28V28.52c0-.338-.084-.516-.129-.536zM45 22.5C45 34.907 34.907 45 22.5 45 10.094 45 0 34.907 0 22.5 0 10.094 10.094 0 22.5 0 34.907 0 45 10.094 45 22.5zm-9.955 6.021c0-1.176-.504-2.075-1.383-2.465L26.314 22.8v-1.617c0-.905-.756-1.64-1.685-1.64h-4.258c-.93 0-1.685.735-1.685 1.64V22.8l-7.348 3.257c-.88.39-1.384 1.288-1.384 2.465v3.292c0 1.318 1.118 2.39 2.491 2.39h20.11c1.373 0 2.49-1.072 2.49-2.39v-3.291zm.595-11.335c0-1.868-1.48-3.55-4.169-4.737-2.413-1.066-5.6-1.652-8.971-1.652-3.372 0-6.557.586-8.971 1.652-2.688 1.186-4.169 2.869-4.169 4.737 0 .676.431 1.714 1.088 3.22l.016.038a2.28 2.28 0 002.697 1.299l3.388-.909a2.297 2.297 0 001.622-2.81l-.062-.23a.936.936 0 01.131-.808.935.935 0 01.691-.438 25.378 25.378 0 013.569-.246c1.22 0 2.42.083 3.568.246a.936.936 0 01.692.438c.168.255.21.512.13.808l-.061.231a2.297 2.297 0 001.622 2.81l3.388.908a2.278 2.278 0 002.696-1.299l.017-.038c.657-1.506 1.088-2.544 1.088-3.22z" fill="url(#paint0_linear_411_14650)"/><defs><linearGradient id="paint0_linear_411_14650" x1="22.5" y1="0" x2="22.5" y2="45" gradientUnits="userSpaceOnUse"><stop stop-color="#01F1FE"/><stop offset="0" stop-color="#304193"/><stop offset="1" stop-color="#078DD6"/></linearGradient></defs></svg>