<svg width="7" height="14" fill="none" xmlns="http://www.w3.org/2000/svg"><path d="M5.98 1.796h0L1.931 7l4.05 5.203s0 0 0 0a.55.55 0 01.089.17.637.637 0 010 .392.552.552 0 01-.09.17.442.442 0 01-.14.12.37.37 0 01-.35 0 .442.442 0 01-.14-.12s0 0 0 0l-4.33-5.57s0 0 0 0a.551.551 0 01-.09-.17.637.637 0 010-.39.528.528 0 01.09-.171s0 0 0 0l4.33-5.57c.078-.1.19-.164.315-.164.061 0 .12.016.175.044.054.03.102.07.14.12.04.05.07.109.09.17.02.063.03.13.03.196a.6.6 0 01-.12.366z" fill="#9B9B9B" stroke="#727272" stroke-width=".2"/></svg>