<svg width="196" height="82" fill="none" xmlns="http://www.w3.org/2000/svg"><path d="M98.268 81.152L74.972 58.416H39L98.268.483l59.267 57.932h-35.972L98.268 81.152zm-15.146-26.95a6.591 6.591 0 001.58-.165c.428-.115.79-.28 1.07-.494a2.833 2.833 0 001.021-2.156c0-.577-.165-1.07-.494-1.482-.312-.412-.757-.724-1.35-.889.445-.23.79-.51 1.02-.889.231-.346.33-.757.33-1.169a2.33 2.33 0 00-.379-1.284 2.264 2.264 0 00-1.053-.906c-.461-.197-1.054-.296-1.795-.296h-3.67v9.713l3.72.017zm-2.437-5.647v-2.93h1.975a5.6 5.6 0 011.483.131c.274.084.509.265.658.51.165.231.23.527.23.857 0 .33-.082.61-.247.823-.164.247-.411.411-.74.494-.247.082-.659.115-1.235.115h-2.124zm.016 4.494v-3.358h2.256c.61 0 1.103.066 1.432.165.316.1.588.303.774.576.19.276.287.604.28.938 0 .313-.066.593-.197.823a1.41 1.41 0 01-.495.544c-.197.131-.444.214-.74.263-.165.033-.461.033-.873.033l-2.437.016zm8.166 1.153l1.054-2.964h4.116l1.12 2.947h1.48l-3.983-9.713h-1.416l-3.753 9.713 1.382.017zm1.432-4l1.07-2.849c.215-.609.412-1.235.544-1.877.165.544.395 1.22.692 2.042l1.02 2.683-3.326.001zm14.323 4V53.05h-6.256l.593-.69 5.482-6.734v-1.153h-6.98v1.153h5.45c-.33.33-.66.707-1.021 1.152L96.885 53v1.185l7.737.017zm1.581-.017h1.317v-9.713h-1.3l-.017 9.713zm3.16-3.11c.017.641.215 1.217.544 1.744.34.516.828.917 1.4 1.152a5.646 5.646 0 004.099 0c.56-.247.987-.609 1.284-1.07.296-.46.444-.938.444-1.448 0-.527-.131-.988-.411-1.383-.264-.396-.692-.725-1.252-.988-.395-.18-1.119-.379-2.156-.61-1.054-.246-1.712-.477-1.96-.69a1.158 1.158 0 01-.378-.873c.01-.407.21-.786.543-1.02.346-.297.922-.429 1.713-.429.74 0 1.317.148 1.712.46.4.358.638.864.658 1.4l1.252-.099a2.75 2.75 0 00-1.762-2.55 4.94 4.94 0 00-1.91-.363 4.77 4.77 0 00-1.794.33c-.543.23-.955.56-1.235.987-.28.428-.411.872-.411 1.366 0 .445.115.856.345 1.218.26.39.618.701 1.038.906.6.272 1.23.476 1.876.61.906.213 1.482.361 1.746.46.411.164.708.346.872.576.185.228.284.513.28.807a1.399 1.399 0 01-.296.823c-.165.247-.445.444-.824.61a4.012 4.012 0 01-1.317.213c-.543 0-1.053-.099-1.481-.296-.462-.198-.79-.428-.988-.758-.214-.312-.346-.707-.412-1.2l-1.219.114zm16.003-7.82h5.598v9.877h13.631L98.268 7.924 52.072 53.132h13.5v-9.878h5.713l26.983-26.39 27.098 26.39zm-3.803 0L98.548 20.781v7.853l14.981 14.62h8.034zM97.988 29.588L83.962 43.255h14.026V29.59zM74.973 55.57l23.015 22.472v-7.853l-14.981-14.62-8.034.001zm23.575 13.664l14.157-13.665H98.548v13.665z" fill="#0D0D0D" opacity=".8"/></svg>