<svg width="26" height="26" fill="none" xmlns="http://www.w3.org/2000/svg"><g fill="#fff" clip-path="url(#clip0_496_2154)"><path d="M10.766 15.234c-2.481-2.482-3.042-4.963-3.168-5.958a.891.891 0 01.256-.746l2.008-2.007a.897.897 0 00.127-1.11L6.79.45A.897.897 0 005.63.122L.496 2.539a.892.892 0 00-.493.891c.27 2.555 1.383 8.836 7.556 15.01 6.173 6.173 12.453 7.286 15.01 7.555a.891.891 0 00.89-.493l2.418-5.133a.897.897 0 00-.325-1.16l-4.965-3.196a.897.897 0 00-1.11.125l-2.007 2.008a.891.891 0 01-.746.256c-.994-.126-3.476-.686-5.958-3.168z"/><path d="M20.62 13.897a.897.897 0 01-.896-.897A6.732 6.732 0 0013 6.276a.897.897 0 110-1.793A8.527 8.527 0 0121.517 13a.897.897 0 01-.896.897z"/><path d="M25.104 13.897a.897.897 0 01-.897-.897C24.2 6.813 19.187 1.8 13 1.793A.897.897 0 1113 0c7.177.008 12.992 5.824 13 13a.897.897 0 01-.896.897z"/></g><defs><clipPath id="clip0_496_2154"><path fill="#fff" d="M0 0h26v26H0z"/></clipPath></defs></svg>