<svg width="65" height="64" fill="none" xmlns="http://www.w3.org/2000/svg"><path d="M32.013 53.76c-12.032 0-21.76-9.728-21.76-21.76 0-12.032 9.728-21.76 21.76-21.76 12.032 0 21.76 9.728 21.76 21.76 0 12.032-9.728 21.76-21.76 21.76zm0-40.96c-10.624 0-19.2 8.576-19.2 19.2 0 10.624 8.576 19.2 19.2 19.2 10.624 0 19.2-8.576 19.2-19.2 0-10.624-8.576-19.2-19.2-19.2z" fill="#F8B540"/><path d="M20.493 30.72h23.04v2.56h-23.04v-2.56z" fill="#F8B540"/><path d="M30.733 20.48h2.56v23.04h-2.56V20.48z" fill="#F8B540"/></svg>