<svg width="24" height="20" fill="none" xmlns="http://www.w3.org/2000/svg"><g clip-path="url(#clip0_189_2109)" fill="#fff"><path d="M10.276 16.62C5.713 16.62 2 12.909 2 8.346 2 3.782 5.713.069 10.276.069s8.276 3.713 8.276 8.276-3.713 8.276-8.276 8.276zm0-14.896c-3.65 0-6.62 2.97-6.62 6.62 0 3.651 2.97 6.622 6.62 6.622s6.62-2.97 6.62-6.621c0-3.65-2.969-6.62-6.62-6.62z"/><path d="M22.105 21a.826.826 0 01-.585-.242l-6.367-6.367a.826.826 0 01.268-1.35.829.829 0 01.902.18l6.367 6.367a.827.827 0 01-.585 1.413z"/></g><defs><clipPath id="clip0_189_2109"><path fill="#fff" transform="translate(0 .069)" d="M0 0h24v19.862H0z"/></clipPath></defs></svg>