<svg width="45" height="45" fill="none" xmlns="http://www.w3.org/2000/svg"><g clip-path="url(#clip0_352_66)" fill="#2751A0"><path d="M18.431 9.935A.876.876 0 0017.3 9.45a13.662 13.662 0 00-6.245 4.89 13.323 13.323 0 00-2.434 7.697c0 .475.39.86.872.86a.867.867 0 00.873-.86c0-4.882 2.973-9.194 7.574-10.985a.857.857 0 00.491-1.117zm9.647 11.249a.867.867 0 00-.872.86c0 2.658-2.191 4.82-4.885 4.82s-4.885-2.162-4.885-4.82c0-2.657 2.191-4.819 4.885-4.819a.867.867 0 00.872-.86.866.866 0 00-.872-.861c-3.656 0-6.63 2.934-6.63 6.54 0 3.607 2.974 6.542 6.63 6.542 3.655 0 6.63-2.934 6.63-6.541a.866.866 0 00-.873-.86zm3.234-.032a.866.866 0 00-.873.86v.033c0 .475.391.86.873.86a.867.867 0 00.872-.86v-.033c0-.475-.39-.86-.872-.86zm-3.53 7.849a.88.88 0 00-1.233 0 .86.86 0 00-.256.608.86.86 0 00.256.609.883.883 0 001.233 0 .861.861 0 00.256-.608.86.86 0 00-.256-.609zm13.916 2.205c-.501 0-.973.124-1.388.341L37.73 29a.878.878 0 00-.617-.252h-6.36a.867.867 0 00-.873.86c0 .476.39.861.872.861h6l2.326 2.296a2.87 2.87 0 00-.345 1.367c0 1.614 1.33 2.927 2.966 2.927 1.635 0 2.965-1.313 2.965-2.927 0-1.613-1.33-2.926-2.965-2.926zm0 4.131c-.674 0-1.221-.54-1.221-1.205 0-.664.547-1.204 1.22-1.204.674 0 1.222.54 1.222 1.205 0 .664-.548 1.204-1.221 1.204z"/><path d="M41.698 7.012c-1.635 0-2.966 1.313-2.966 2.926 0 .494.125.96.345 1.368L36.751 13.6h-9.545a9.954 9.954 0 00-4.002-1.247V10.8h9.198c.318 0 .61-.17.764-.445l2.65-4.74c.36.153.756.238 1.172.238 1.635 0 2.966-1.312 2.966-2.926 0-1.613-1.33-2.926-2.966-2.926-1.636 0-2.966 1.313-2.966 2.926 0 .564.163 1.091.445 1.539l-2.58 4.612h-8.683V.864a.867.867 0 00-.873-.86H18.42a.866.866 0 00-.872.86v2.663A19.312 19.312 0 0012.43 5.62l-1.9-1.876a.879.879 0 00-1.234 0L3.781 9.188a.852.852 0 000 1.217l1.9 1.874a18.773 18.773 0 00-2.12 5.05H.873a.867.867 0 00-.872.86v7.696c0 .475.39.86.872.86H3.56a18.766 18.766 0 002.121 5.05l-1.9 1.873a.852.852 0 000 1.217l5.514 5.444a.879.879 0 001.234 0l1.901-1.876c1.6.94 3.316 1.642 5.118 2.093v2.659c0 .475.39.86.871.86h3.912a.876.876 0 00.617-.25.855.855 0 00.256-.608v-8.253h8.681l2.583 4.647a2.88 2.88 0 00-.446 1.54c0 1.614 1.33 2.927 2.966 2.927 1.635 0 2.966-1.313 2.966-2.926 0-1.614-1.33-2.927-2.966-2.927-.415 0-.81.085-1.17.238l-2.651-4.774a.874.874 0 00-.765-.447h-9.199v-2.317c0-.475-.39-.86-.872-.86-4.48 0-8.127-3.597-8.127-8.018 0-4.368 3.559-7.93 7.965-8.016.05.008.1.014.153.014 3.376 0 6.435 2.096 7.612 5.217a.872.872 0 001.121.506.857.857 0 00.514-1.106 9.65 9.65 0 00-2.125-3.33h7.668c.231 0 .453-.09.617-.252l2.581-2.547c.415.218.887.341 1.388.341 1.636 0 2.966-1.312 2.966-2.926 0-1.613-1.33-2.926-2.966-2.926zm-4.71-5.29c.673 0 1.221.54 1.221 1.204 0 .665-.548 1.205-1.221 1.205-.674 0-1.221-.54-1.221-1.205 0-.664.547-1.205 1.22-1.205zm0 38.215c.673 0 1.221.54 1.221 1.205 0 .664-.548 1.205-1.221 1.205-.674 0-1.221-.54-1.221-1.205s.547-1.205 1.22-1.205zM21.459 12.335c-5.036.437-9 4.622-9 9.702s3.964 9.264 9 9.701v10.608l-2.167-.001v-2.481a.863.863 0 00-.689-.842 17.584 17.584 0 01-5.827-2.382.881.881 0 00-1.09.114l-1.774 1.75-4.28-4.227 1.772-1.748a.852.852 0 00.115-1.075 17.092 17.092 0 01-2.414-5.75.87.87 0 00-.853-.68H1.746V19.05h2.506a.87.87 0 00.853-.68 17.094 17.094 0 012.414-5.75.852.852 0 00-.115-1.075L5.632 9.797l4.28-4.227 1.773 1.75a.881.881 0 001.09.114 17.584 17.584 0 015.828-2.382.863.863 0 00.689-.842V1.725h2.167v10.61zm20.24-1.192c-.674 0-1.222-.54-1.222-1.205 0-.664.548-1.205 1.221-1.205s1.221.54 1.221 1.205c0 .664-.548 1.205-1.22 1.205z"/><path d="M41.697 19.121a2.966 2.966 0 00-2.835 2.066h-2.574a.867.867 0 00-.872.86c0 .476.39.861.872.861h2.574a2.967 2.967 0 002.834 2.066c1.636 0 2.966-1.313 2.966-2.927 0-1.613-1.33-2.926-2.965-2.926zm0 4.131c-.674 0-1.222-.54-1.222-1.204 0-.665.548-1.205 1.222-1.205.673 0 1.22.54 1.22 1.204 0 .665-.547 1.205-1.22 1.205z"/></g><defs><clipPath id="clip0_352_66"><path fill="#fff" d="M0 0h44.665v44.068H0z"/></clipPath></defs></svg>