<svg width="45" height="45" fill="none" xmlns="http://www.w3.org/2000/svg"><path d="M19.697 26.716l7.32-4.216-7.32-4.215v8.43z" fill="#0D0D0D"/><path d="M22.5 0C10.075 0 0 10.075 0 22.5S10.075 45 22.5 45 45 34.925 45 22.5 34.925 0 22.5 0zm14.06 22.523s0 4.563-.58 6.764a3.523 3.523 0 01-2.478 2.478c-2.2.579-11.002.579-11.002.579s-8.778 0-11.002-.602a3.523 3.523 0 01-2.478-2.479c-.58-2.177-.58-6.763-.58-6.763s0-4.563.58-6.763a3.595 3.595 0 012.478-2.502c2.2-.579 11.002-.579 11.002-.579s8.801 0 11.002.602a3.523 3.523 0 012.478 2.479c.602 2.2.58 6.786.58 6.786z" fill="#0D0D0D"/></svg>