<svg width="45" height="45" fill="none" xmlns="http://www.w3.org/2000/svg"><path d="M26.807 22.5a4.307 4.307 0 11-8.614 0 4.307 4.307 0 018.614 0z" fill="#fff"/><path d="M32.572 14.88a4.004 4.004 0 00-.967-1.485 4.001 4.001 0 00-1.485-.967c-.456-.177-1.14-.387-2.4-.444-1.362-.062-1.77-.076-5.22-.076-3.45 0-3.859.013-5.221.075-1.26.058-1.944.268-2.399.445a3.999 3.999 0 00-1.485.967c-.43.417-.76.924-.967 1.485-.177.456-.387 1.14-.445 2.4-.062 1.362-.075 1.77-.075 5.22 0 3.45.013 3.859.075 5.221.058 1.26.268 1.944.445 2.4.207.56.537 1.068.966 1.485a4 4 0 001.486.966c.455.177 1.14.388 2.399.445 1.362.062 1.77.075 5.22.075 3.451 0 3.86-.013 5.222-.075 1.26-.057 1.943-.268 2.399-.445a4.278 4.278 0 002.452-2.452c.176-.455.387-1.139.445-2.399.062-1.362.075-1.77.075-5.22 0-3.45-.013-3.86-.075-5.222-.058-1.26-.268-1.943-.445-2.399zM22.5 29.134a6.634 6.634 0 110-13.268 6.634 6.634 0 010 13.268zm6.897-11.98a1.55 1.55 0 110-3.101 1.55 1.55 0 010 3.1z" fill="#fff"/><path d="M22.5 0C10.075 0 0 10.075 0 22.5S10.075 45 22.5 45 45 34.925 45 22.5 34.925 0 22.5 0zm12.842 27.827c-.063 1.375-.281 2.314-.6 3.136a6.606 6.606 0 01-3.78 3.779c-.82.319-1.76.537-3.135.6-1.378.063-1.818.078-5.327.078s-3.949-.015-5.327-.078c-1.375-.063-2.314-.281-3.136-.6a6.33 6.33 0 01-2.288-1.49 6.334 6.334 0 01-1.49-2.29c-.32-.82-.538-1.76-.6-3.135-.064-1.378-.079-1.818-.079-5.327s.015-3.949.078-5.327c.063-1.375.28-2.314.6-3.136a6.332 6.332 0 011.49-2.288 6.33 6.33 0 012.29-1.49c.821-.32 1.76-.538 3.135-.601 1.378-.063 1.818-.078 5.327-.078s3.949.015 5.327.078c1.375.063 2.314.281 3.136.6a6.335 6.335 0 012.288 1.49 6.331 6.331 0 011.49 2.29c.32.821.538 1.76.601 3.135.063 1.378.078 1.818.078 5.327s-.015 3.949-.078 5.327z" fill="#fff"/></svg>