<svg width="45" height="45" fill="none" xmlns="http://www.w3.org/2000/svg"><path d="M22.5 0C10.075 0 0 10.075 0 22.5S10.075 45 22.5 45 45 34.925 45 22.5 34.925 0 22.5 0zm.477 35.6h-.006a13.463 13.463 0 01-6.435-1.639l-7.139 1.873 1.91-6.977a13.432 13.432 0 01-1.797-6.73c.003-7.422 6.044-13.461 13.467-13.461a13.381 13.381 0 019.526 3.948 13.38 13.38 0 013.94 9.524C36.44 29.56 30.4 35.6 22.977 35.6z" fill="#fff"/><path d="M22.981 10.94c-6.174 0-11.195 5.019-11.198 11.188 0 2.114.591 4.173 1.712 5.955l.266.423-1.131 4.129 4.236-1.11.409.241a11.175 11.175 0 005.697 1.56h.004c6.17 0 11.19-5.02 11.193-11.19a11.12 11.12 0 00-3.275-7.915 11.119 11.119 0 00-7.913-3.281zm6.584 15.999c-.28.785-1.625 1.502-2.271 1.6-.58.086-1.314.122-2.12-.134a19.436 19.436 0 01-1.918-.709c-3.375-1.457-5.58-4.854-5.748-5.079-.168-.224-1.374-1.824-1.374-3.48 0-1.655.87-2.47 1.177-2.806a1.24 1.24 0 01.898-.42c.224 0 .449.002.645.011.206.01.484-.079.757.578.28.673.953 2.329 1.037 2.497.084.169.14.365.028.59-.112.224-.485.708-.84 1.15-.15.185-.345.35-.148.687.196.336.871 1.438 1.871 2.33 1.286 1.146 2.37 1.5 2.706 1.67.337.167.533.14.73-.085.195-.224.84-.982 1.065-1.319.224-.337.448-.28.757-.168.308.112 1.962.926 2.299 1.094.336.169.56.253.645.393.084.14.084.814-.196 1.6z" fill="#fff"/></svg>