<svg width="37" height="35" fill="none" xmlns="http://www.w3.org/2000/svg"><path d="M9.779 7.015l-2.18-2.013a1.633 1.633 0 00-2.18 0 1.347 1.347 0 000 2.013l2.18 2.012c.3.278.695.417 1.09.417.394 0 .789-.139 1.09-.417a1.347 1.347 0 000-2.012zm-5.154 8.641H1.542C.69 15.656 0 16.293 0 17.079s.69 1.423 1.542 1.423h3.083c.851 0 1.542-.637 1.542-1.423s-.691-1.423-1.542-1.423zm5.154 9.474a1.633 1.633 0 00-2.18 0l-2.18 2.012a1.347 1.347 0 000 2.013c.3.278.695.417 1.09.417.394 0 .79-.14 1.09-.417l2.18-2.013a1.347 1.347 0 000-2.012zm8.721 3.335c-.851 0-1.542.637-1.542 1.423v2.846c0 .786.69 1.424 1.542 1.424.85 0 1.542-.638 1.542-1.424v-2.846c0-.786-.691-1.423-1.542-1.423zm13.081-1.323l-2.18-2.012a1.633 1.633 0 00-2.18 0 1.347 1.347 0 000 2.012l2.18 2.013c.3.278.695.417 1.09.417.395 0 .79-.14 1.09-.417a1.347 1.347 0 000-2.013zm3.877-11.486h-3.083c-.851 0-1.542.637-1.542 1.423s.69 1.423 1.542 1.423h3.083c.851 0 1.542-.637 1.542-1.423s-.69-1.423-1.542-1.423zM31.581 5.002a1.633 1.633 0 00-2.18 0l-2.18 2.013a1.347 1.347 0 000 2.012c.3.278.696.417 1.09.417.395 0 .79-.139 1.09-.417l2.18-2.012a1.347 1.347 0 000-2.013zM18.5 0c-.851 0-1.542.638-1.542 1.423V4.27c0 .785.69 1.423 1.542 1.423.85 0 1.542-.638 1.542-1.423V1.423C20.042.638 19.35 0 18.5 0zm0 7.828c-5.525 0-10.02 4.15-10.02 9.25 0 5.102 4.495 9.252 10.02 9.252 5.525 0 10.02-4.15 10.02-9.251 0-5.101-4.495-9.251-10.02-9.251zm0 15.655c-3.825 0-6.937-2.873-6.937-6.404 0-3.531 3.112-6.405 6.937-6.405s6.938 2.874 6.938 6.405c0 3.53-3.113 6.404-6.938 6.404z" fill="#fff"/></svg>