<svg xmlns="http://www.w3.org/2000/svg" width="40" height="38" fill="none"><path d="M39.202 35.88h-.923V15.688l.486.227a.797.797 0 001.135-.723v-3.206c0-.31-.18-.592-.46-.723L36.692 9.98V4.796a.798.798 0 00-.798-.798h-4.747a.798.798 0 00-.798.798V7.02L15.466.075a.798.798 0 00-.728.027L.408 8.152A.798.798 0 000 8.846v3.206a.798.798 0 001.189.696l.432-.243V35.88H.83a.798.798 0 000 1.596h38.372a.798.798 0 000-1.596zM31.945 7.738V5.594h3.15v3.64l-3.151-1.47.001-.027zM1.596 9.314l13.566-7.62 23.142 10.8v1.444L15.466 3.28a.796.796 0 00-.728.028L1.596 10.689V9.314zm1.621 26.567V11.636l-.001-.026L15.163 4.9l21.52 10.042v20.939H3.217z" fill="#F8B540"/><path d="M18.354 22.32H5.62a.798.798 0 00-.798.799v10.38c0 .44.358.798.798.798h12.735c.44 0 .798-.357.798-.798V23.12a.798.798 0 00-.798-.798zM6.417 23.918h4.772V32.7H6.417v-8.784zm11.14 8.784h-4.772v-8.784h4.771V32.7zM34.314 22.32H21.546a.798.798 0 00-.798.799v10.38c0 .44.357.798.798.798h12.768c.44 0 .798-.357.798-.798V23.12a.798.798 0 00-.798-.798zm-11.97 1.597h4.788V32.7h-4.788v-8.784zM33.516 32.7h-4.788v-8.784h4.788V32.7zm1.136-16.77L21.942 10a.793.793 0 00-.37-.075.8.8 0 00-.824.798v9.227c0 .44.357.798.798.798h12.768c.44 0 .798-.358.798-.798v-3.296c0-.31-.18-.592-.46-.723zm-12.308-3.98l4.788 2.234v4.969h-4.788V11.95zm11.172 7.203h-4.788v-4.224l4.788 2.234v1.99zM19.149 9.14l-.004-.036a.774.774 0 00-.164-.39.878.878 0 00-.134-.134.785.785 0 00-.14-.089l-.015-.008-2.76-1.288a.798.798 0 00-.813.082l-.043.021L5.23 12.83a.798.798 0 00-.407.713v6.407c0 .441.357.799.797.799h12.735c.44 0 .798-.358.798-.798V9.187a.777.777 0 00-.003-.048zM6.417 13.992l4.772-2.68v7.839H6.417v-5.16zm6.368 5.159v-8.736l2.848-1.6 1.923.898v9.438h-4.771z" fill="#F8B540"/></svg>