<svg width="41" height="40" fill="none" xmlns="http://www.w3.org/2000/svg"><path d="M24.563 23.125h-4.688c-.375 0-.625-.25-.625-.625s.25-.625.625-.625h4.688c.375 0 .625.25.625.625s-.25.625-.625.625zm-8.438 0H1.75c-.375 0-.625-.25-.625-.625V20c0-.375.25-.625.625-.625h20.625c.375 0 .625.25.625.625s-.25.625-.625.625h-20v1.25h13.75c.375 0 .625.25.625.625s-.25.625-.625.625zm23.125 0h-2.813c-.374 0-.624-.25-.624-.625s.25-.625.624-.625h2.188v-1.25h-1.75c-.375 0-.625-.25-.625-.625s.25-.625.625-.625h2.375c.375 0 .625.25.625.625v2.5c0 .375-.25.625-.625.625z" fill="#fff"/><path d="M39.25 39.375c-.375 0-.625-.25-.625-.625V22.5c0-.375.25-.625.625-.625s.625.25.625.625v16.25c0 .375-.25.625-.625.625zm-37.5 0c-.375 0-.625-.25-.625-.625V22.5c0-.375.25-.625.625-.625s.625.25.625.625v16.25c0 .375-.25.625-.625.625zm8.75 0c-.375 0-.625-.25-.625-.625V20c0-.375.25-.625.625-.625s.625.25.625.625v18.75c0 .375-.25.625-.625.625zm-1.25-18.75c-.375 0-.625-.25-.625-.625v-6.875h-3.75V20c0 .375-.25.625-.625.625s-.625-.25-.625-.625v-7.5c0-.375.25-.625.625-.625h5c.375 0 .625.25.625.625V20c0 .375-.25.625-.625.625z" fill="#fff"/><path d="M4.25 18.125H2.375c-.688 0-1.25-.563-1.25-1.25v-2.5c0-.688.563-1.25 1.25-1.25H4.25c.375 0 .625.25.625.625s-.25.625-.625.625H2.375v2.5H4.25c.375 0 .625.25.625.625s-.25.625-.625.625zM23 16.875H13A1.842 1.842 0 0111.125 15V2.5c0-1.063.813-1.875 1.875-1.875h20c1.063 0 1.875.813 1.875 1.875v8.125c0 .375-.25.625-.625.625s-.625-.25-.625-.625V2.5c0-.375-.25-.625-.625-.625H13c-.375 0-.625.25-.625.625V15c0 .375.25.625.625.625h10c.375 0 .625.25.625.625s-.25.625-.625.625z" fill="#fff"/><path d="M23.625 14.375H11.75c-.375 0-.625-.25-.625-.625s.25-.625.625-.625h11.875c.375 0 .625.25.625.625s-.25.625-.625.625zM14.25 7.5a.567.567 0 01-.438-.188.604.604 0 010-.875l3.126-3.125c.25-.25.625-.25.875 0s.25.626 0 .876l-3.125 3.125a.567.567 0 01-.438.187zm4.375-.625a.567.567 0 01-.438-.188.604.604 0 010-.875l1.25-1.25c.25-.25.625-.25.875 0s.25.625 0 .875l-1.25 1.25a.567.567 0 01-.437.188zM14.25 11.25a.567.567 0 01-.438-.188.604.604 0 010-.874l2.5-2.5c.25-.25.625-.25.875 0s.25.625 0 .875l-2.5 2.5a.567.567 0 01-.437.187zm6.875 9.375c-.375 0-.625-.25-.625-.625v-3.75c0-.375.25-.625.625-.625s.625.25.625.625V20c0 .375-.25.625-.625.625zm-2.5 18.75A1.842 1.842 0 0116.75 37.5c0-1.063.813-1.875 1.875-1.875 1.063 0 1.875.813 1.875 1.875a1.842 1.842 0 01-1.875 1.875zm0-2.5c-.375 0-.625.25-.625.625s.25.625.625.625.625-.25.625-.625-.25-.625-.625-.625zm13.75 2.5A1.842 1.842 0 0130.5 37.5c0-1.063.813-1.875 1.875-1.875 1.063 0 1.875.813 1.875 1.875a1.842 1.842 0 01-1.875 1.875zm0-2.5c-.375 0-.625.25-.625.625s.25.625.625.625.625-.25.625-.625-.25-.625-.625-.625z" fill="#fff"/><path d="M32.375 36.875c-.375 0-.625-.25-.625-.625 0-.688-.563-1.25-1.25-1.25h-10c-.688 0-1.25.563-1.25 1.25 0 .375-.25.625-.625.625S18 36.625 18 36.25c0-1.375 1.125-2.5 2.5-2.5h10c1.375 0 2.5 1.125 2.5 2.5 0 .375-.25.625-.625.625zm1.25-5.625H18a1.842 1.842 0 01-1.875-1.875c0-1.063.813-1.875 1.875-1.875h5.125l2.25-13.438c.125-.937.938-1.562 1.875-1.562h9.313c.562 0 1.062.25 1.437.688.375.437.5 1 .438 1.5l-2.126 12.937a3.54 3.54 0 00-.187 1.125c0 1.375-1.125 2.5-2.5 2.5zM18 28.75c-.375 0-.625.25-.625.625s.25.625.625.625h15.625c.688 0 1.25-.563 1.25-1.25 0-.438.063-.875.125-1.375l2.125-12.938c0-.187 0-.374-.125-.5-.125-.124-.313-.25-.5-.25h-9.313c-.312 0-.562.25-.625.5L24.25 28.25c-.063.313-.313.5-.625.5H18z" fill="#fff"/><path d="M16.75 29.875h-.125c-.313-.063-.563-.375-.5-.688v-.125l.75-4.687c.25-1.438 1.5-2.5 2.938-2.5h.687c.375 0 .625.25.625.625s-.25.625-.625.625h-.625a1.69 1.69 0 00-1.688 1.438l-.812 4.75c-.063.312-.313.562-.625.562zM24.25 35c-.375 0-.625-.25-.625-.625v-3.75c0-.375.25-.625.625-.625s.625.25.625.625v3.75c0 .375-.25.625-.625.625zm2.5 0c-.375 0-.625-.25-.625-.625v-3.75c0-.375.25-.625.625-.625s.625.25.625.625v3.75c0 .375-.25.625-.625.625z" fill="#fff"/></svg>