<svg width="40" height="40" fill="none" xmlns="http://www.w3.org/2000/svg"><g clip-path="url(#clip0_2126_9371)" fill="#fff"><path d="M32.5 33.281a.781.781 0 100 1.563.781.781 0 000-1.563z"/><path d="M34.844 3.706V2.344A2.346 2.346 0 0032.5 0h-25a2.346 2.346 0 00-2.344 2.344v1.362C.06 13.116 0 12.837 0 13.28v1.564c0 1.354.783 2.613 2.031 3.33v21.045c0 .431.35.781.781.781h34.376c.43 0 .78-.35.78-.781V18.173c1.236-.715 2.032-1.99 2.032-3.33v-1.562c0-.448-.11-.256-5.156-9.575zm3.053 8.794h-4.834L30.46 4.687h3.142l4.297 7.813zm-10.866 1.563h4.688v.78a2.346 2.346 0 01-2.344 2.345 2.346 2.346 0 01-2.344-2.344v-.781zm-.12-1.563L25.61 4.687h3.202l2.604 7.813h-4.504zM6.72 2.344c0-.431.35-.781.781-.781h25c.43 0 .781.35.781.78v.782H6.72v-.781zm18.75 11.719v.78a2.346 2.346 0 01-2.344 2.345 2.346 2.346 0 01-2.344-2.344v-.781h4.688zM20.78 12.5V4.687h3.245l1.302 7.813H20.78zm-6.109 0l1.302-7.813h3.245V12.5h-4.547zm4.547 1.563v.78a2.346 2.346 0 01-2.344 2.345 2.346 2.346 0 01-2.344-2.344v-.781h4.688zM8.584 12.5l2.604-7.813h3.202L13.088 12.5H8.584zm4.385 1.563v.78a2.346 2.346 0 01-2.344 2.345 2.346 2.346 0 01-2.344-2.344v-.781h4.688zm-6.57-9.376h3.142L6.937 12.5H2.102L6.4 4.687zM1.562 14.845v-.781H6.72v.78c0 1.227-1.23 2.345-2.578 2.345a2.61 2.61 0 01-1.021-.215c-.932-.396-1.558-1.252-1.558-2.13zm14.532 23.593H8.28V31.72h7.813v6.718zm0-8.28H8.28v-6.72h7.813v6.72zm20.312 8.28h-18.75v-15.78a.781.781 0 00-.781-.782H7.5a.781.781 0 00-.781.781v15.782H3.594V18.712c.18.024.363.038.547.038a4.306 4.306 0 003.32-1.619 3.903 3.903 0 006.289.054 3.903 3.903 0 006.25 0 3.903 3.903 0 006.25 0 3.903 3.903 0 006.288-.054 4.306 4.306 0 003.321 1.619 4 4 0 00.547-.038v19.726zm2.032-23.593c0 .902-.65 1.768-1.616 2.154-.316.126-.64.19-.963.19-1.349 0-2.578-1.118-2.578-2.344v-.781h5.157v.78z"/><path d="M34.063 30.156h-.782v-7.5a.781.781 0 00-.781-.781h-9.375a.781.781 0 00-.781.781v7.5h-.782a.781.781 0 000 1.563h12.5a.781.781 0 000-1.563zm-2.344 0h-7.813v-6.718h7.813v6.718zm-2.344 3.125h-6.25a.781.781 0 000 1.563h6.25a.781.781 0 000-1.563z"/></g><defs><clipPath id="clip0_2126_9371"><path fill="#fff" d="M0 0h40v40H0z"/></clipPath></defs></svg>