<svg width="40" height="40" fill="none" xmlns="http://www.w3.org/2000/svg"><g clip-path="url(#clip0_2126_9269)" fill="#fff"><path d="M39.333 38.667h-2.707c.028-.22.04-.443.04-.667A4.636 4.636 0 0034 33.775V11.333c0-.4-.267-.666-.667-.666h-10v-10c0-.4-.266-.667-.666-.667h-18C4.267 0 4 .267 4 .667v38H.667c-.4 0-.667.266-.667.666S.267 40 .667 40h38.666c.4 0 .667-.267.667-.667s-.267-.666-.667-.666zm-6.666-5.287a4.504 4.504 0 00-2.13.199.647.647 0 00-.537-.246c-.4 0-.667.267-.667.667v.204a4.669 4.669 0 00-.8.73c-.552-.691-1.264-1.191-2.068-1.434a.672.672 0 00-.465-.167.788.788 0 00-.208.027 3.944 3.944 0 00-.459-.027c-.417 0-.888.054-1.27.21a4.174 4.174 0 00-.14.049c-.46-.374-1-.644-1.567-.792l-.018-.005a3.85 3.85 0 00-.271-.06l-.054-.01a4.24 4.24 0 00-.129-.02l-.058-.007a3.38 3.38 0 00-.12-.014l-.088-.006-.095-.007a4.016 4.016 0 00-.336-.002l-.095.005-.038.002a3.919 3.919 0 00-1.72.516V12h13.333v21.38zM5.333 1.333H22v9.334h-3.333c-.4 0-.667.266-.667.666v20.734a4.827 4.827 0 00-1.275-.914l-.045-.022a4.614 4.614 0 00-1.535-.439l-.023-.002a4.56 4.56 0 00-.455-.023c-.992 0-1.912.326-2.667.874v-.208c0-.4-.267-.666-.667-.666s-.666.266-.666.666v1.334c0 .1.016.191.048.273a4.807 4.807 0 00-.648 1.793A4.529 4.529 0 008 35.51v-.177c0-.4-.267-.666-.667-.666s-.666.266-.666.666v1.334c0 .078.01.15.03.217a4.65 4.65 0 00-.649 1.783h-.714V1.333zm5.03 34.68l.04-.002a3.354 3.354 0 01.264-.011c.4 0 .666-.267.666-.667A3.301 3.301 0 0114.667 32c1.666 0 3.066 1.2 3.266 2.867a.722.722 0 00.327.446l.031.018c.025.014.05.026.077.037l.003.001a.746.746 0 00.096.03c.04.014.085.02.132.018a.645.645 0 00.534-.284l.067-.066C19.734 34.4 20.467 34 21.334 34c.45 0 .9.126 1.303.362a4.049 4.049 0 00-1.303 2.971c0 .464.077.908.23 1.334H7.4c.312-1.436 1.5-2.52 2.963-2.653zm12.774 2.654a2.845 2.845 0 01-.404-1.4c0-.738.291-1.402.79-1.887.096-.089.198-.17.305-.245a.67.67 0 00.305-.068c1.467-.8 3.2-.067 3.734 1.4.066.2.266.4.6.4a.46.46 0 00.203-.056c.168-.028.3-.15.397-.344a3.068 3.068 0 011.145-1.295.612.612 0 00.267-.151A3.38 3.38 0 0132 34.666 3.3 3.3 0 0135.333 38c0 .2 0 .467-.066.667h-12.13z"/><path d="M22 17.333c-.4 0-.667.267-.667.667v1.333c0 .4.267.667.667.667s.667-.267.667-.667V18c0-.4-.267-.667-.667-.667zm0 12c-.4 0-.667.267-.667.667v1.333c0 .4.267.667.667.667s.667-.267.667-.667V30c0-.4-.267-.667-.667-.667zm0-8c-.4 0-.667.267-.667.667v1.333c0 .4.267.667.667.667s.667-.267.667-.667V22c0-.4-.267-.667-.667-.667zm0 4c-.4 0-.667.267-.667.667v1.333c0 .4.267.667.667.667s.667-.267.667-.667V26c0-.4-.267-.667-.667-.667zm0-12c-.4 0-.667.267-.667.667v1.333c0 .4.267.667.667.667s.667-.267.667-.667V14c0-.4-.267-.667-.667-.667zM26 20c.4 0 .667-.267.667-.667V18c0-.4-.267-.667-.667-.667s-.667.267-.667.667v1.333c0 .4.267.667.667.667zm0-4c.4 0 .667-.267.667-.667V14c0-.4-.267-.667-.667-.667s-.667.267-.667.667v1.333c0 .4.267.667.667.667zm0 8c.4 0 .667-.267.667-.667V22c0-.4-.267-.667-.667-.667s-.667.267-.667.667v1.333c0 .4.267.667.667.667zm0 4c.4 0 .667-.267.667-.667V26c0-.4-.267-.667-.667-.667s-.667.267-.667.667v1.333c0 .4.267.667.667.667zm0 4c.4 0 .667-.267.667-.667V30c0-.4-.267-.667-.667-.667s-.667.267-.667.667v1.333c0 .4.267.667.667.667zm4-8c.4 0 .667-.267.667-.667V22c0-.4-.267-.667-.667-.667s-.667.267-.667.667v1.333c0 .4.267.667.667.667zm0-4c.4 0 .667-.267.667-.667V18c0-.4-.267-.667-.667-.667s-.667.267-.667.667v1.333c0 .4.267.667.667.667zm0 12c.4 0 .667-.267.667-.667V30c0-.4-.267-.667-.667-.667s-.667.267-.667.667v1.333c0 .4.267.667.667.667zm0-4c.4 0 .667-.267.667-.667V26c0-.4-.267-.667-.667-.667s-.667.267-.667.667v1.333c0 .4.267.667.667.667zm0-12c.4 0 .667-.267.667-.667V14c0-.4-.267-.667-.667-.667s-.667.267-.667.667v1.333c0 .4.267.667.667.667zM7.333 25.333c.4 0 .667-.266.667-.666v-1.334c0-.4-.267-.666-.667-.666s-.666.266-.666.666v1.334c0 .4.266.666.666.666zm0 4c.4 0 .667-.266.667-.666v-1.334c0-.4-.267-.666-.667-.666s-.666.266-.666.666v1.334c0 .4.266.666.666.666zm0 4c.4 0 .667-.266.667-.666v-1.334c0-.4-.267-.666-.667-.666s-.666.266-.666.666v1.334c0 .4.266.666.666.666zm0-28c.4 0 .667-.266.667-.666V3.333c0-.4-.267-.666-.667-.666s-.666.266-.666.666v1.334c0 .4.266.666.666.666zm0 4c.4 0 .667-.266.667-.666V7.333c0-.4-.267-.666-.667-.666s-.666.266-.666.666v1.334c0 .4.266.666.666.666zm0 4c.4 0 .667-.266.667-.666v-1.334c0-.4-.267-.666-.667-.666s-.666.266-.666.666v1.334c0 .4.266.666.666.666zm0 4c.4 0 .667-.266.667-.666v-1.334c0-.4-.267-.666-.667-.666s-.666.266-.666.666v1.334c0 .4.266.666.666.666zm0 4c.4 0 .667-.266.667-.666v-1.334c0-.4-.267-.666-.667-.666s-.666.266-.666.666v1.334c0 .4.266.666.666.666zm4-12c.4 0 .667-.266.667-.666V7.333c0-.4-.267-.666-.667-.666s-.666.266-.666.666v1.334c0 .4.266.666.666.666zm0-4c.4 0 .667-.266.667-.666V3.333c0-.4-.267-.666-.667-.666s-.666.266-.666.666v1.334c0 .4.266.666.666.666zm0 12c.4 0 .667-.266.667-.666v-1.334c0-.4-.267-.666-.667-.666s-.666.266-.666.666v1.334c0 .4.266.666.666.666zm0-4c.4 0 .667-.266.667-.666v-1.334c0-.4-.267-.666-.667-.666s-.666.266-.666.666v1.334c0 .4.266.666.666.666zm0 8c.4 0 .667-.266.667-.666v-1.334c0-.4-.267-.666-.667-.666s-.666.266-.666.666v1.334c0 .4.266.666.666.666zm0 4c.4 0 .667-.266.667-.666v-1.334c0-.4-.267-.666-.667-.666s-.666.266-.666.666v1.334c0 .4.266.666.666.666zm0 4c.4 0 .667-.266.667-.666v-1.334c0-.4-.267-.666-.667-.666s-.666.266-.666.666v1.334c0 .4.266.666.666.666zm4-16c.4 0 .667-.266.667-.666v-1.334c0-.4-.267-.666-.667-.666s-.666.266-.666.666v1.334c0 .4.266.666.666.666zm0-4c.4 0 .667-.266.667-.666V7.333c0-.4-.267-.666-.667-.666s-.666.266-.666.666v1.334c0 .4.266.666.666.666zm0-4c.4 0 .667-.266.667-.666V3.333c0-.4-.267-.666-.667-.666s-.666.266-.666.666v1.334c0 .4.266.666.666.666zm0 24c.4 0 .667-.266.667-.666v-1.334c0-.4-.267-.666-.667-.666s-.666.266-.666.666v1.334c0 .4.266.666.666.666zm0-4c.4 0 .667-.266.667-.666v-1.334c0-.4-.267-.666-.667-.666s-.666.266-.666.666v1.334c0 .4.266.666.666.666zm0-4c.4 0 .667-.266.667-.666v-1.334c0-.4-.267-.666-.667-.666s-.666.266-.666.666v1.334c0 .4.266.666.666.666zm0-4c.4 0 .667-.266.667-.666v-1.334c0-.4-.267-.666-.667-.666s-.666.266-.666.666v1.334c0 .4.266.666.666.666zm4-8c.4 0 .667-.266.667-.666V7.333c0-.4-.267-.666-.667-.666s-.666.266-.666.666v1.334c0 .4.266.666.666.666zm0-4c.4 0 .667-.266.667-.666V3.333c0-.4-.267-.666-.667-.666s-.666.266-.666.666v1.334c0 .4.266.666.666.666z"/></g><defs><clipPath id="clip0_2126_9269"><path fill="#fff" d="M0 0h40v40H0z"/></clipPath></defs></svg>