<svg width="39" height="39" fill="none" xmlns="http://www.w3.org/2000/svg"><path d="M23.563 22.5h-4.688c-.375 0-.625-.25-.625-.625s.25-.625.625-.625h4.688c.375 0 .625.25.625.625s-.25.625-.625.625zm-8.438 0H.75c-.375 0-.625-.25-.625-.625v-2.5c0-.375.25-.625.625-.625h20.625c.375 0 .625.25.625.625s-.25.625-.625.625h-20v1.25h13.75c.375 0 .625.25.625.625s-.25.625-.625.625zm23.125 0h-2.813c-.374 0-.624-.25-.624-.625s.25-.625.624-.625h2.188V20h-1.75c-.375 0-.625-.25-.625-.625s.25-.625.625-.625h2.375c.375 0 .625.25.625.625v2.5c0 .375-.25.625-.625.625z" fill="#F8B540"/><path d="M38.25 38.75c-.375 0-.625-.25-.625-.625v-16.25c0-.375.25-.625.625-.625s.625.25.625.625v16.25c0 .375-.25.625-.625.625zm-37.5 0c-.375 0-.625-.25-.625-.625v-16.25c0-.375.25-.625.625-.625s.625.25.625.625v16.25c0 .375-.25.625-.625.625zm8.75 0c-.375 0-.625-.25-.625-.625v-18.75c0-.375.25-.625.625-.625s.625.25.625.625v18.75c0 .375-.25.625-.625.625zM8.25 20c-.375 0-.625-.25-.625-.625V12.5h-3.75v6.875c0 .375-.25.625-.625.625s-.625-.25-.625-.625v-7.5c0-.375.25-.625.625-.625h5c.375 0 .625.25.625.625v7.5c0 .375-.25.625-.625.625z" fill="#F8B540"/><path d="M3.25 17.5H1.375c-.688 0-1.25-.563-1.25-1.25v-2.5c0-.688.563-1.25 1.25-1.25H3.25c.375 0 .625.25.625.625s-.25.625-.625.625H1.375v2.5H3.25c.375 0 .625.25.625.625s-.25.625-.625.625zM22 16.25H12a1.842 1.842 0 01-1.875-1.875v-12.5C10.125.812 10.938 0 12 0h20c1.063 0 1.875.813 1.875 1.875V10c0 .375-.25.625-.625.625s-.625-.25-.625-.625V1.875c0-.375-.25-.625-.625-.625H12c-.375 0-.625.25-.625.625v12.5c0 .375.25.625.625.625h10c.375 0 .625.25.625.625s-.25.625-.625.625z" fill="#F8B540"/><path d="M22.625 13.75H10.75c-.375 0-.625-.25-.625-.625s.25-.625.625-.625h11.875c.375 0 .625.25.625.625s-.25.625-.625.625zM13.25 6.875a.567.567 0 01-.438-.188.604.604 0 010-.875l3.126-3.125c.25-.25.624-.25.874 0s.25.626 0 .876l-3.125 3.124a.567.567 0 01-.437.188zm4.375-.625a.567.567 0 01-.438-.188.604.604 0 010-.875l1.25-1.25c.25-.25.625-.25.875 0s.25.626 0 .876l-1.25 1.25a.567.567 0 01-.437.187zm-4.375 4.375a.567.567 0 01-.438-.188.604.604 0 010-.874l2.5-2.5c.25-.25.626-.25.876 0s.25.625 0 .875l-2.5 2.5a.567.567 0 01-.438.187zM20.125 20c-.375 0-.625-.25-.625-.625v-3.75c0-.375.25-.625.625-.625s.625.25.625.625v3.75c0 .375-.25.625-.625.625zm-2.5 18.75a1.842 1.842 0 01-1.875-1.875c0-1.063.813-1.875 1.875-1.875 1.063 0 1.875.813 1.875 1.875a1.842 1.842 0 01-1.875 1.875zm0-2.5c-.375 0-.625.25-.625.625s.25.625.625.625.625-.25.625-.625-.25-.625-.625-.625zm13.75 2.5a1.842 1.842 0 01-1.875-1.875c0-1.063.813-1.875 1.875-1.875 1.063 0 1.875.813 1.875 1.875a1.842 1.842 0 01-1.875 1.875zm0-2.5c-.375 0-.625.25-.625.625s.25.625.625.625.625-.25.625-.625-.25-.625-.625-.625z" fill="#F8B540"/><path d="M31.375 36.25c-.375 0-.625-.25-.625-.625 0-.688-.563-1.25-1.25-1.25h-10c-.688 0-1.25.563-1.25 1.25 0 .375-.25.625-.625.625S17 36 17 35.625c0-1.375 1.125-2.5 2.5-2.5h10c1.375 0 2.5 1.125 2.5 2.5 0 .375-.25.625-.625.625zm1.25-5.625H17a1.842 1.842 0 01-1.875-1.875c0-1.063.813-1.875 1.875-1.875h5.125l2.25-13.438c.125-.937.938-1.562 1.875-1.562h9.313c.562 0 1.062.25 1.437.688.375.437.5 1 .438 1.5L35.312 27a3.54 3.54 0 00-.187 1.125c0 1.375-1.125 2.5-2.5 2.5zM17 28.125c-.375 0-.625.25-.625.625s.25.625.625.625h15.625c.688 0 1.25-.563 1.25-1.25 0-.438.063-.875.125-1.375l2.125-12.938c0-.187 0-.374-.125-.5-.125-.124-.313-.25-.5-.25h-9.313c-.312 0-.562.25-.625.5L23.25 27.626c-.063.313-.313.5-.625.5H17z" fill="#F8B540"/><path d="M15.75 29.25h-.125c-.312-.063-.562-.375-.5-.688v-.125l.75-4.687c.25-1.438 1.5-2.5 2.938-2.5h.687c.375 0 .625.25.625.625s-.25.625-.625.625h-.625a1.69 1.69 0 00-1.687 1.438l-.813 4.75c-.062.312-.312.562-.625.562zm7.5 5.125c-.375 0-.625-.25-.625-.625V30c0-.375.25-.625.625-.625s.625.25.625.625v3.75c0 .375-.25.625-.625.625zm2.5 0c-.375 0-.625-.25-.625-.625V30c0-.375.25-.625.625-.625s.625.25.625.625v3.75c0 .375-.25.625-.625.625z" fill="#F8B540"/></svg>