<svg width="40" height="40" fill="none" xmlns="http://www.w3.org/2000/svg"><path d="M39.202 37.142h-.923V16.95l.486.226a.797.797 0 001.135-.723v-3.205c0-.31-.18-.592-.46-.723l-2.748-1.283V6.058a.798.798 0 00-.798-.798h-4.747a.798.798 0 00-.798.798v2.224L15.466 1.337a.798.798 0 00-.728.027L.408 9.414a.798.798 0 00-.408.695v3.205a.798.798 0 001.189.696l.432-.242v23.374H.83a.798.798 0 000 1.596h38.372a.798.798 0 000-1.596zM31.945 8.998V6.856h3.15v3.64l-3.151-1.47.001-.028zM1.596 10.576l13.566-7.62 23.142 10.799v1.444L15.466 4.542a.796.796 0 00-.728.027L1.596 11.951v-1.375zm1.621 26.566V12.897l-.001-.025 11.947-6.71 21.52 10.042v20.938H3.217z" fill="#fff"/><path d="M18.354 23.582H5.62a.798.798 0 00-.798.799v10.38c0 .44.358.798.798.798h12.735c.44 0 .798-.357.798-.798V24.38a.798.798 0 00-.798-.799zM6.417 25.178h4.772v8.785H6.417v-8.785zm11.14 8.785h-4.772v-8.785h4.771v8.785zm16.757-10.381H21.546a.798.798 0 00-.798.799v10.38c0 .44.357.798.798.798h12.768c.44 0 .798-.357.798-.798V24.38a.798.798 0 00-.798-.799zm-11.97 1.596h4.788v8.785h-4.788v-8.785zm11.172 8.785h-4.788v-8.785h4.788v8.785zm1.136-16.771l-12.71-5.93a.793.793 0 00-.37-.075.8.8 0 00-.824.798v9.227c0 .44.357.797.798.797h12.768c.44 0 .798-.357.798-.797v-3.296c0-.31-.18-.592-.46-.724zM22.344 13.21l4.788 2.235v4.968h-4.788V13.21zm11.172 7.203h-4.788V16.19l4.788 2.234v1.99zM19.149 10.401l-.004-.035a.772.772 0 00-.164-.391.862.862 0 00-.134-.134.873.873 0 00-.14-.088l-.015-.008-2.76-1.288a.798.798 0 00-.813.082c-.014.007-.029.013-.043.021L5.23 14.091a.798.798 0 00-.407.714v6.405c0 .441.357.799.797.799h12.735a.8.8 0 00.798-.799V10.45a.778.778 0 00-.003-.048zM6.417 15.254l4.772-2.68v7.84H6.417v-5.16zm6.368 5.16v-8.736l2.847-1.6 1.924.898v9.437h-4.771z" fill="#fff"/></svg>