<svg width="40" height="40" fill="none" xmlns="http://www.w3.org/2000/svg"><g fill="#F8B540"><path d="M39.333 38.667h-2.707c.028-.22.04-.443.04-.667A4.636 4.636 0 0034 33.775V11.333c0-.4-.267-.666-.667-.666h-10v-10c0-.4-.266-.667-.666-.667h-18C4.267 0 4 .267 4 .667v38H.667c-.4 0-.667.266-.667.666S.267 40 .667 40h38.666c.4 0 .667-.267.667-.667s-.267-.666-.667-.666zm-6.666-5.287a4.504 4.504 0 00-2.13.199.647.647 0 00-.537-.246c-.4 0-.667.267-.667.667v.204a4.668 4.668 0 00-.8.73c-.552-.691-1.264-1.19-2.068-1.434a.672.672 0 00-.465-.167.788.788 0 00-.208.027 3.944 3.944 0 00-.459-.027c-.417 0-.888.054-1.27.21a3.964 3.964 0 00-.14.05c-.46-.375-1-.645-1.567-.793l-.018-.005-.15-.036-.121-.024-.054-.01a3.95 3.95 0 00-.395-.047l-.095-.007a3.887 3.887 0 00-.336-.002l-.095.005-.038.002a3.918 3.918 0 00-1.72.516V12h13.333v21.38zM5.333 1.333H22v9.334h-3.333c-.4 0-.667.266-.667.666v20.734a4.83 4.83 0 00-1.275-.913l-.045-.023a4.616 4.616 0 00-1.535-.439l-.023-.002a4.56 4.56 0 00-.455-.023c-.992 0-1.912.326-2.667.874v-.208c0-.4-.267-.666-.667-.666s-.666.266-.666.666v1.334c0 .1.016.191.048.273a4.806 4.806 0 00-.648 1.794A4.528 4.528 0 008 35.51v-.176c0-.4-.267-.667-.667-.667s-.666.267-.666.666v1.334c0 .078.01.15.03.217a4.65 4.65 0 00-.649 1.783h-.714V1.333zm5.03 34.68l.04-.002a3.683 3.683 0 01.264-.011c.4 0 .666-.267.666-.667A3.3 3.3 0 0114.667 32c1.666 0 3.066 1.2 3.266 2.867a.723.723 0 00.327.446l.031.018a.681.681 0 00.176.069c.04.013.085.018.132.017a.645.645 0 00.534-.284l.067-.066C19.734 34.4 20.467 34 21.334 34c.45 0 .9.126 1.303.362a4.049 4.049 0 00-1.303 2.971c0 .464.077.908.23 1.334H7.4c.312-1.436 1.5-2.52 2.963-2.653zm12.774 2.654a2.845 2.845 0 01-.404-1.4c0-.738.291-1.402.79-1.887a2.74 2.74 0 01.305-.244c.104 0 .21-.021.305-.07 1.467-.8 3.2-.066 3.734 1.4.066.2.266.4.6.4a.46.46 0 00.203-.055c.168-.028.3-.15.397-.344a3.067 3.067 0 011.145-1.295.613.613 0 00.267-.151c.458-.23.977-.354 1.521-.354A3.301 3.301 0 0135.333 38c0 .2 0 .467-.066.667h-12.13z"/><path d="M22 17.333c-.4 0-.667.267-.667.667v1.333c0 .4.267.667.667.667s.666-.267.666-.667V18c0-.4-.266-.667-.666-.667zm0 12c-.4 0-.667.267-.667.667v1.333c0 .4.267.667.667.667s.666-.267.666-.667V30c0-.4-.266-.667-.666-.667zm0-8c-.4 0-.667.267-.667.667v1.333c0 .4.267.667.667.667s.666-.267.666-.667V22c0-.4-.266-.667-.666-.667zm0 4c-.4 0-.667.267-.667.667v1.333c0 .4.267.667.667.667s.666-.267.666-.667V26c0-.4-.266-.667-.666-.667zm0-12c-.4 0-.667.267-.667.667v1.333c0 .4.267.667.667.667s.666-.267.666-.667V14c0-.4-.266-.667-.666-.667zM26 20c.4 0 .666-.267.666-.667V18c0-.4-.266-.667-.666-.667s-.667.267-.667.667v1.333c0 .4.267.667.667.667zm0-4c.4 0 .666-.267.666-.667V14c0-.4-.266-.667-.666-.667s-.667.267-.667.667v1.333c0 .4.267.667.667.667zm0 8c.4 0 .666-.267.666-.667V22c0-.4-.266-.667-.666-.667s-.667.267-.667.667v1.333c0 .4.267.667.667.667zm0 4c.4 0 .666-.267.666-.667V26c0-.4-.266-.667-.666-.667s-.667.267-.667.667v1.333c0 .4.267.667.667.667zm0 4c.4 0 .666-.267.666-.667V30c0-.4-.266-.667-.666-.667s-.667.267-.667.667v1.333c0 .4.267.667.667.667zm4-8c.4 0 .666-.267.666-.667V22c0-.4-.266-.667-.666-.667s-.667.267-.667.667v1.333c0 .4.267.667.667.667zm0-4c.4 0 .666-.267.666-.667V18c0-.4-.266-.667-.666-.667s-.667.267-.667.667v1.333c0 .4.267.667.667.667zm0 12c.4 0 .666-.267.666-.667V30c0-.4-.266-.667-.666-.667s-.667.267-.667.667v1.333c0 .4.267.667.667.667zm0-4c.4 0 .666-.267.666-.667V26c0-.4-.266-.667-.666-.667s-.667.267-.667.667v1.333c0 .4.267.667.667.667zm0-12c.4 0 .666-.267.666-.667V14c0-.4-.266-.667-.666-.667s-.667.267-.667.667v1.333c0 .4.267.667.667.667zM7.333 25.333c.4 0 .667-.266.667-.666v-1.334c0-.4-.267-.666-.667-.666s-.666.266-.666.666v1.334c0 .4.266.666.666.666zm0 4c.4 0 .667-.266.667-.666v-1.334c0-.4-.267-.666-.667-.666s-.666.266-.666.666v1.334c0 .4.266.666.666.666zm0 4c.4 0 .667-.266.667-.666v-1.334c0-.4-.267-.666-.667-.666s-.666.266-.666.666v1.334c0 .4.266.666.666.666zm0-28c.4 0 .667-.266.667-.666V3.333c0-.4-.267-.666-.667-.666s-.666.266-.666.666v1.334c0 .4.266.666.666.666zm0 4c.4 0 .667-.266.667-.666V7.333c0-.4-.267-.666-.667-.666s-.666.266-.666.666v1.334c0 .4.266.666.666.666zm0 4c.4 0 .667-.266.667-.666v-1.334c0-.4-.267-.666-.667-.666s-.666.266-.666.666v1.334c0 .4.266.666.666.666zm0 4c.4 0 .667-.266.667-.666v-1.334c0-.4-.267-.666-.667-.666s-.666.266-.666.666v1.334c0 .4.266.666.666.666zm0 4c.4 0 .667-.266.667-.666v-1.334c0-.4-.267-.666-.667-.666s-.666.266-.666.666v1.334c0 .4.266.666.666.666zm4-12c.4 0 .667-.266.667-.666V7.333c0-.4-.267-.666-.667-.666s-.666.266-.666.666v1.334c0 .4.266.666.666.666zm0-4c.4 0 .667-.266.667-.666V3.333c0-.4-.267-.666-.667-.666s-.666.266-.666.666v1.334c0 .4.266.666.666.666zm0 12c.4 0 .667-.266.667-.666v-1.334c0-.4-.267-.666-.667-.666s-.666.266-.666.666v1.334c0 .4.266.666.666.666zm0-4c.4 0 .667-.266.667-.666v-1.334c0-.4-.267-.666-.667-.666s-.666.266-.666.666v1.334c0 .4.266.666.666.666zm0 8c.4 0 .667-.266.667-.666v-1.334c0-.4-.267-.666-.667-.666s-.666.266-.666.666v1.334c0 .4.266.666.666.666zm0 4c.4 0 .667-.266.667-.666v-1.334c0-.4-.267-.666-.667-.666s-.666.266-.666.666v1.334c0 .4.266.666.666.666zm0 4c.4 0 .667-.266.667-.666v-1.334c0-.4-.267-.666-.667-.666s-.666.266-.666.666v1.334c0 .4.266.666.666.666zm4-16c.4 0 .667-.266.667-.666v-1.334c0-.4-.267-.666-.667-.666s-.666.266-.666.666v1.334c0 .4.266.666.666.666zm0-4c.4 0 .667-.266.667-.666V7.333c0-.4-.267-.666-.667-.666s-.666.266-.666.666v1.334c0 .4.266.666.666.666zm0-4c.4 0 .667-.266.667-.666V3.333c0-.4-.267-.666-.667-.666s-.666.266-.666.666v1.334c0 .4.266.666.666.666zm0 24c.4 0 .667-.266.667-.666v-1.334c0-.4-.267-.666-.667-.666s-.666.266-.666.666v1.334c0 .4.266.666.666.666zm0-4c.4 0 .667-.266.667-.666v-1.334c0-.4-.267-.666-.667-.666s-.666.266-.666.666v1.334c0 .4.266.666.666.666zm0-4c.4 0 .667-.266.667-.666v-1.334c0-.4-.267-.666-.667-.666s-.666.266-.666.666v1.334c0 .4.266.666.666.666zm0-4c.4 0 .667-.266.667-.666v-1.334c0-.4-.267-.666-.667-.666s-.666.266-.666.666v1.334c0 .4.266.666.666.666zm4-8c.4 0 .667-.266.667-.666V7.333c0-.4-.267-.666-.667-.666s-.666.266-.666.666v1.334c0 .4.266.666.666.666zm0-4c.4 0 .667-.266.667-.666V3.333c0-.4-.267-.666-.667-.666s-.666.266-.666.666v1.334c0 .4.266.666.666.666z"/></g></svg>