<svg width="101" height="101" fill="none" xmlns="http://www.w3.org/2000/svg"><path d="M60.54 52.655l-15.112 8.769c-1.282.743-2.928-.157-2.928-1.656V42.231c0-1.496 1.644-2.398 2.928-1.653l15.113 8.769a1.906 1.906 0 010 3.308z" fill="#fff"/><circle cx="50.5" cy="50.5" r="28.5" stroke="#fff" stroke-width="2"/><path d="M83.65 55.007a5.78 5.78 0 01.791-1.997c.375-.58.83-1.06 1.363-1.438a4.856 4.856 0 011.784-.767 5.108 5.108 0 012.053.017 5.007 5.007 0 011.885.781c.552.379 1 .846 1.344 1.401.354.558.59 1.177.71 1.858a5.738 5.738 0 01-.047 2.133 5.644 5.644 0 01-.788 1.984 5.054 5.054 0 01-1.376 1.435 4.67 4.67 0 01-1.784.767 5.008 5.008 0 01-2.04-.014 5.108 5.108 0 01-1.898-.784 4.67 4.67 0 01-1.345-1.401 5.172 5.172 0 01-.695-1.855 5.604 5.604 0 01.044-2.12zm1.568.303c-.098.485-.107.95-.026 1.395.082.445.243.85.483 1.212a3.528 3.528 0 002.234 1.453c.494.1.96.104 1.398.012a3.22 3.22 0 001.212-.483c.372-.24.682-.548.93-.926s.421-.81.52-1.294c.098-.485.106-.95.025-1.395a3.295 3.295 0 00-.496-1.215 3.392 3.392 0 00-.926-.93c-.37-.247-.8-.42-1.295-.52a3.66 3.66 0 00-1.395-.025 3.56 3.56 0 00-1.228.493 3.21 3.21 0 00-.917.929 3.66 3.66 0 00-.52 1.294zM79.5 67.008c.335-.518.712-.93 1.132-1.236.42-.306.888-.504 1.402-.594.516-.077 1.076-.032 1.68.136.602.167 1.249.474 1.938.92.502.325.933.664 1.292 1.019.36.355.648.725.866 1.11.226.39.384.798.475 1.224.087.434.102.883.047 1.347-.056.464-.181.95-.376 1.458l-1.262 3.318-1.454-.64 1.17-2.994c.065-.17.134-.38.208-.632.077-.24.128-.507.152-.803a2.511 2.511 0 00-.094-.91c-.087-.313-.258-.634-.51-.964-.251-.318-.62-.634-1.105-.948a4.386 4.386 0 00-.349-.209 2.22 2.22 0 01-.258-.117 2.321 2.321 0 01-.367-.204l.933-.18c.298.415.5.851.605 1.308.107.47.116.937.027 1.401a3.748 3.748 0 01-.555 1.375c-.38.588-.84 1.03-1.376 1.328a3.201 3.201 0 01-1.715.409c-.606-.026-1.187-.218-1.743-.578-.58-.375-1.003-.848-1.267-1.42-.264-.57-.358-1.198-.283-1.882.08-.672.341-1.353.787-2.042zm1.112.885c-.228.353-.354.71-.377 1.073-.021.376.054.724.224 1.046.165.329.412.6.741.812.33.213.666.32 1.01.32.348.013.684-.069 1.01-.247.322-.17.602-.44.84-.808.228-.352.362-.715.404-1.089a1.927 1.927 0 00-.17-1.027 1.89 1.89 0 00-.702-.77 2.135 2.135 0 00-1.057-.35 2.031 2.031 0 00-1.065.228c-.339.18-.625.451-.858.812zm-7.64 7.265a7.435 7.435 0 011.43-.928 6.114 6.114 0 011.53-.502l.452 1.316a4.838 4.838 0 00-1.253.418 5.751 5.751 0 00-1.165.745c-.302.25-.537.493-.705.729-.162.243-.25.473-.264.69a.751.751 0 00.164.573c.19.23.434.32.73.268.296-.038.627-.21.994-.513l1.111-.918.75.906-1.004.83c-.23.19-.404.376-.52.557a1.016 1.016 0 00-.19.539.687.687 0 00.164.463c.113.136.265.21.457.222.19.025.402-.018.638-.128.242-.103.5-.268.773-.494.288-.238.556-.52.806-.848.243-.322.466-.682.67-1.08l1.165.707a8.25 8.25 0 01-.755 1.26 5.75 5.75 0 01-.922 1.017c-.507.456-1.02.788-1.537.998-.517.21-.995.29-1.435.242a1.556 1.556 0 01-1.07-.569 1.54 1.54 0 01-.356-.959c-.013-.352.078-.712.271-1.078a3.27 3.27 0 01.841-1.004l.198.327c-.64.53-1.25.816-1.832.86-.575.052-1.044-.141-1.406-.58a1.804 1.804 0 01-.42-1.233c.017-.463.172-.942.464-1.438.285-.49.694-.955 1.226-1.395zm-8.227 5.61c.709-.287 1.401-.392 2.078-.314.68.087 1.288.334 1.826.74.537.407.944.952 1.222 1.635.28.692.367 1.367.261 2.024a3.662 3.662 0 01-.8 1.79c-.43.527-1 .934-1.71 1.222-.718.291-1.415.397-2.091.32a3.568 3.568 0 01-1.816-.715c-.534-.398-.943-.947-1.227-1.648-.277-.683-.364-1.358-.261-2.024a3.636 3.636 0 01.794-1.803c.431-.527 1.006-.936 1.724-1.227zm.562 1.388a2.324 2.324 0 00-.958.691c-.242.3-.382.648-.422 1.047-.048.403.017.824.196 1.265.182.45.43.798.74 1.045.307.258.65.41 1.032.458.382.046.767-.01 1.156-.167a2.33 2.33 0 00.959-.69c.233-.297.373-.646.421-1.048.052-.394-.013-.815-.195-1.265-.18-.441-.426-.79-.74-1.044a2.055 2.055 0 00-1.033-.458 2.296 2.296 0 00-1.156.166zm-12.383 1.757a3.373 3.373 0 011.684.342c.507.257.922.658 1.247 1.204.315.555.493 1.266.533 2.133.04.877-.066 1.601-.32 2.173-.263.573-.635 1.006-1.117 1.3-.48.302-1.038.468-1.672.497-.737.035-1.392-.094-1.967-.385a3.473 3.473 0 01-1.404-1.266c-.362-.553-.56-1.217-.596-1.99-.036-.775.1-1.458.41-2.052.3-.584.726-1.047 1.28-1.39.545-.344 1.185-.532 1.922-.566zm4.018-2.807l.472 10.18-1.664.078-.082-1.762-.036-1.989-.232-1.98-.206-4.446 1.748-.081zM53.19 85.4c-.42.02-.788.13-1.106.331-.327.203-.58.485-.76.849-.179.363-.257.782-.235 1.258.022.485.14.895.351 1.23.212.346.49.604.835.775.335.171.712.247 1.132.228.42-.02.792-.13 1.12-.332a2.03 2.03 0 00.759-.848c.18-.354.258-.774.236-1.259-.022-.475-.14-.886-.351-1.23a2.026 2.026 0 00-.835-.775 2.296 2.296 0 00-1.146-.227zm-12.394-2.171l-3.117 6.795-1.59-.73 1.266-2.76-3.423-1.57-1.267 2.761-1.59-.73L34.19 80.2l1.59.73-1.23 2.685 3.423 1.57 1.23-2.686 1.592.73zM27.035 75.03l-1.034 1.104-.148.302-1.809 1.931c-.35.375-.51.77-.476 1.184.027.422.268.847.725 1.274.306.287.654.524 1.043.709.382.179.756.28 1.12.3l-.37 1.399a4.065 4.065 0 01-1.512-.476 6.336 6.336 0 01-1.43-1.013c-.79-.74-1.221-1.501-1.293-2.285-.085-.783.243-1.57.983-2.36l2.995-3.198 1.206 1.13zm1.784 1.537c.408.383.702.786.881 1.209.173.43.23.848.17 1.252a2.09 2.09 0 01-.55 1.078 2.208 2.208 0 01-.99.627c-.379.105-.802.072-1.27-.097-.468-.17-.978-.513-1.53-1.03l-1.583-1.483.794-.848 1.492 1.397c.436.408.796.611 1.08.608a.907.907 0 00.703-.3.892.892 0 00.241-.81c-.056-.309-.248-.616-.575-.922a2.235 2.235 0 00-1.039-.57 1.658 1.658 0 00-1.135.126l.504-.968a1.939 1.939 0 011.362-.123c.48.116.961.4 1.445.854zm-8.583-9.439l-7 2.626-.615-1.638 2.845-1.068-1.323-3.526-2.845 1.068-.614-1.639 7-2.626.614 1.638-2.766 1.038 1.323 3.526 2.766-1.038.615 1.639zm-4.012-15.435l-1.51.058-.319.11-2.644.103c-.513.02-.903.189-1.171.507-.277.32-.404.791-.38 1.416.017.42.098.832.244 1.237.146.396.341.73.585 1l-1.246.735a4.064 4.064 0 01-.741-1.4 6.337 6.337 0 01-.305-1.726c-.042-1.081.187-1.926.687-2.534.49-.617 1.276-.946 2.358-.988l4.378-.169.064 1.651zm.189 2.346c.021.56-.053 1.053-.223 1.48-.18.427-.433.764-.76 1.01a2.09 2.09 0 01-1.148.38 2.209 2.209 0 01-1.145-.25c-.343-.191-.622-.512-.835-.962-.214-.45-.335-1.052-.364-1.807l-.084-2.168 1.161-.045.079 2.042c.023.597.136.994.34 1.192a.906.906 0 00.712.28.892.892 0 00.74-.406c.177-.26.257-.612.24-1.06a2.236 2.236 0 00-.338-1.136 1.659 1.659 0 00-.896-.708l1.038-.334c.444.15.796.44 1.056.87.259.42.401.96.427 1.622zm-.559-13.361l.262.5-6.012-2.23.609-1.64 6.011 2.23-.54.247 1.286-3.465.253.526-6.012-2.23.609-1.64 7.009 2.6-3.832 10.33-7.01-2.6.61-1.64 6.011 2.23-.535.234 1.28-3.453zm8.607-8.602a3.436 3.436 0 01-.874.68 2.592 2.592 0 01-.988.326l-.471-1.388a2.14 2.14 0 00.686-.186c.22-.101.41-.238.568-.41.215-.232.331-.475.347-.726.017-.252-.055-.566-.216-.943l-.425-.983-.06-.246-2.937-6.56 1.14-1.234 3.561 8.05c.253.552.402 1.045.446 1.479a2.3 2.3 0 01-.142 1.165 3.22 3.22 0 01-.635.976zm-.827-2.86l-7.978-2.772 1.235-1.337 6.603 2.361.14 1.748zm13.204-10.218a3.373 3.373 0 01-1.706.205c-.562-.084-1.083-.334-1.563-.75-.474-.428-.866-1.047-1.177-1.858-.315-.819-.442-1.54-.38-2.163.069-.626.286-1.155.65-1.585.362-.438.84-.771 1.432-.999.688-.264 1.35-.348 1.987-.253a3.473 3.473 0 011.731.76c.518.412.916.979 1.193 1.702.278.723.363 1.415.257 2.076a3.473 3.473 0 01-.778 1.723c-.41.497-.958.878-1.646 1.142zm-2.931 3.929l-3.652-9.515 1.555-.597.632 1.646.66 1.877.844 1.805L35.54 22.3l-1.634.627zm2.21-5.258c.393-.15.708-.37.946-.662.247-.295.398-.643.454-1.044.056-.402-.001-.824-.172-1.269-.174-.453-.414-.806-.72-1.058a2.026 2.026 0 00-1.037-.472 2.217 2.217 0 00-1.146.14c-.392.15-.711.373-.958.668a2.026 2.026 0 00-.454 1.044c-.06.392-.002.815.172 1.268.17.445.41.797.72 1.058.311.261.656.419 1.037.472.38.054.767.006 1.159-.145zm12.1-1.403l-.07-1.51-.113-.318-.123-2.643c-.023-.513-.196-.902-.516-1.167-.321-.275-.794-.398-1.419-.369-.42.02-.831.104-1.235.253-.395.15-.727.347-.996.593l-.744-1.24a4.064 4.064 0 011.395-.752 6.338 6.338 0 011.723-.318c1.081-.05 1.928.172 2.54.667.62.485.955 1.268 1.005 2.35l.203 4.377-1.65.077zm-2.345.207c-.56.026-1.053-.045-1.482-.212a2.39 2.39 0 01-1.016-.752 2.09 2.09 0 01-.389-1.145c-.02-.42.061-.802.241-1.147.19-.345.508-.626.956-.843.448-.217 1.05-.343 1.805-.378l2.167-.1.054 1.16-2.042.095c-.596.028-.993.145-1.189.35a.907.907 0 00-.275.713.892.892 0 00.413.738c.26.175.614.252 1.061.231.43-.02.807-.135 1.134-.347.335-.212.57-.512.7-.901l.343 1.035c-.148.446-.435.8-.862 1.063-.417.262-.957.409-1.62.44zm11.81.672c-.592-.17-1.096-.412-1.51-.725a3.323 3.323 0 01-.976-1.169c-.223-.472-.342-1.02-.357-1.646-.014-.626.092-1.334.319-2.123a8.078 8.078 0 01.6-1.532 5.08 5.08 0 01.811-1.15 4.194 4.194 0 011.034-.81 4.24 4.24 0 011.276-.435 6.09 6.09 0 011.504-.063l3.542.245-.191 1.577-3.205-.25a8.47 8.47 0 00-.666-.017 3.583 3.583 0 00-.811.087c-.279.056-.56.174-.845.354-.273.174-.532.43-.774.769-.232.331-.427.775-.587 1.331-.049.17-.082.302-.099.394-.005.086-.017.18-.037.281a2.311 2.311 0 01-.089.412l-.443-.841c.311-.406.67-.726 1.077-.958.418-.24.862-.384 1.333-.433a3.746 3.746 0 011.477.133c.673.193 1.23.504 1.67.931.44.428.736.935.888 1.523a3.44 3.44 0 01-.047 1.836c-.191.664-.521 1.205-.991 1.624-.47.418-1.044.69-1.72.816-.666.12-1.394.066-2.183-.16zm.525-1.32a2.23 2.23 0 001.136.05c.366-.09.678-.262.936-.518a2.06 2.06 0 00.563-.945c.108-.377.112-.73.013-1.06a1.925 1.925 0 00-.53-.895c-.256-.258-.594-.448-1.016-.569a2.5 2.5 0 00-1.16-.07c-.36.07-.67.224-.933.46a1.89 1.89 0 00-.534.895 2.136 2.136 0 00-.029 1.113c.09.366.266.683.528.953.271.272.613.467 1.026.586zm9.736 5.462c-.624-.443-1.085-.971-1.382-1.584a3.766 3.766 0 01-.358-1.937c.054-.672.294-1.308.721-1.91.433-.608.955-1.044 1.566-1.308a3.664 3.664 0 011.94-.288c.676.08 1.325.342 1.95.785.63.449 1.095.98 1.393 1.592a3.57 3.57 0 01.374 1.915c-.049.664-.292 1.304-.73 1.92-.427.601-.949 1.037-1.566 1.309a3.636 3.636 0 01-1.947.299c-.676-.08-1.33-.344-1.961-.793zm.868-1.22c.35.248.715.393 1.097.436.382.042.752-.027 1.11-.208.365-.175.686-.457.961-.845.282-.395.442-.79.483-1.186a1.937 1.937 0 00-.169-1.116 2.296 2.296 0 00-.762-.885 2.323 2.323 0 00-1.098-.437 2.055 2.055 0 00-1.11.208c-.36.168-.68.45-.96.845-.277.388-.437.783-.483 1.186-.046.402.01.774.168 1.116.166.347.42.642.763.885zm6.881 7.607l5.115-3.866-.09.577-1.832-2.424 1.184-.894 4.22 5.584-1.183.895-1.823-2.413.58.071-5.116 3.866-1.055-1.396zm2.163 7.719a3.435 3.435 0 01-.214-1.086 2.588 2.588 0 01.153-1.029l1.452.203a2.116 2.116 0 00-.143.696c-.009.243.028.473.11.692.112.297.276.51.493.637.218.128.53.205.94.231l1.07.062.245.057 7.18.327.59 1.572-8.792-.439c-.606-.021-1.113-.11-1.52-.266a2.3 2.3 0 01-.977-.65 3.223 3.223 0 01-.587-1.007zm2.926.547l6.063-5.879.64 1.704-5.079 4.837-1.624-.662z" fill="#fff"/></svg>