<svg width="61" height="61" fill="none" xmlns="http://www.w3.org/2000/svg"><path d="M18.565 55.206v-2.041a1.849 1.849 0 00-1.847-1.847H10.73a1.849 1.849 0 00-1.846 1.847v2.04c0 1.02.828 1.848 1.847 1.848h5.988a1.849 1.849 0 001.847-1.847zm-7.895 0v-2.041a.06.06 0 01.06-.06h5.988a.06.06 0 01.06.06v2.04a.06.06 0 01-.06.06H10.73a.06.06 0 01-.06-.06z" fill="#F1EE00"/><path d="M43.33 41.449a2.87 2.87 0 00-2.867 2.867 2.87 2.87 0 002.867 2.868 2.87 2.87 0 002.867-2.868 2.87 2.87 0 00-2.867-2.867zm0 3.948a1.081 1.081 0 010-2.16 1.081 1.081 0 010 2.16z" fill="#2751A0"/><path d="M53.199 33.554h-1.08V20.63a2.87 2.87 0 00-2.868-2.867h-1.08V5.828c0-1.037-.844-1.88-1.88-1.88H28.527c-.032 0-.063.003-.094.004V2.8c0-1.544-1.256-2.8-2.8-2.8H9.709a2.803 2.803 0 00-2.8 2.8v3.215a.894.894 0 001.788 0V2.8c0-.559.454-1.013 1.012-1.013h1.148V25.66h-2.16V9.589a.894.894 0 00-1.788 0v8.258a4.798 4.798 0 00-2.576 1.382 4.801 4.801 0 00-1.37 3.347l-.001.029v33.554A4.847 4.847 0 007.802 61h4.134a.894.894 0 000-1.787H7.802a3.058 3.058 0 01-3.054-3.054V26.32a4.947 4.947 0 002.974 1.122c.026.002 41.529.004 41.529.004.596 0 1.08.484 1.08 1.08v8.975H39.382a2.87 2.87 0 00-2.867 2.868v7.895a2.87 2.87 0 002.867 2.867h10.95v7.002c0 .595-.485 1.08-1.081 1.08h-33.74a.894.894 0 000 1.787h33.74a2.87 2.87 0 002.867-2.867V51.13h1.08a4.847 4.847 0 004.841-4.84v-7.896a4.846 4.846 0 00-4.84-4.841zM4.749 22.69a3.033 3.033 0 01.864-2.215c.365-.376.81-.645 1.295-.793v5.821c-1.22-.395-2.123-1.506-2.159-2.813zM28.526 5.735H46.29c.052 0 .094.042.094.093v19.83h-2.16V11.325c0-.655-.446-1.21-1.084-1.353-.457-.102-.893-.538-.992-.992a1.391 1.391 0 00-1.353-1.084h-6.773c-.654 0-1.21.446-1.352 1.084-.102.456-.538.892-.993.992a1.392 1.392 0 00-1.084 1.352V25.66h-2.16V5.828c0-.051.042-.093.093-.093zm13.91 19.924H32.381V11.626a3.226 3.226 0 001.943-1.944h6.169a3.225 3.225 0 001.943 1.944v14.033zm-15.79-22.86v22.86H16.591V1.787h9.042c.559 0 1.013.454 1.013 1.013zM12.643 25.66V1.787h2.16V25.66h-2.16zm36.608 0h-1.08v-6.108h1.08c.596 0 1.08.485 1.08 1.08v5.24a2.85 2.85 0 00-1.08-.212zm7.002 20.631a3.057 3.057 0 01-3.054 3.054H39.382c-.595 0-1.08-.485-1.08-1.08V40.37c0-.596.484-1.08 1.08-1.08h12.83a.894.894 0 100-1.788h-.094v-2.16h1.08a3.057 3.057 0 013.054 3.054v7.895z" fill="#2751A0"/><path d="M37.408 17.764a2.87 2.87 0 00-2.867 2.867 2.87 2.87 0 002.867 2.867 2.87 2.87 0 002.868-2.867 2.87 2.87 0 00-2.868-2.867zm0 3.947a1.081 1.081 0 010-2.16 1.081 1.081 0 010 2.16zm.002-6.108c.493 0 .893-.4.893-.893v-1.974a.894.894 0 10-1.787 0v1.974c0 .493.4.893.893.893zm-16.811-3.947h2.04a1.849 1.849 0 001.848-1.847V5.794a1.849 1.849 0 00-1.847-1.846h-2.041a1.849 1.849 0 00-1.847 1.846V9.81c0 1.018.828 1.847 1.847 1.847zm-.06-5.862a.06.06 0 01.06-.06h2.04a.06.06 0 01.06.06V9.81a.06.06 0 01-.06.06H20.6a.06.06 0 01-.06-.06V5.794z" fill="#F1EE00"/></svg>