<svg width="22" height="22" fill="none" xmlns="http://www.w3.org/2000/svg"><path d="M6.157 18.742a.485.485 0 00-.4-.053h0L2.47 19.701c.26-.95.678-2.467.927-3.335a.486.486 0 00-.059-.397h0A9.095 9.095 0 011.87 11c0-5.034 4.097-9.13 9.131-9.13s9.13 4.096 9.13 9.13c0 5.034-4.096 9.13-9.13 9.13-1.72 0-3.394-.48-4.843-1.388zm0 0l-.054.084.054-.084s0 0 0 0zm-.324.938c1.56.93 3.34 1.42 5.167 1.42 5.57 0 10.1-4.53 10.1-10.1C21.1 5.43 16.57.9 11 .9 5.43.9.9 5.43.9 11c0 1.885.52 3.715 1.506 5.308a321.613 321.613 0 00-.982 3.541l-.088.322-.025.09-.007.024-.001.007-.001.002h0v.002a.483.483 0 00.61.59h0l3.921-1.206z" fill="#2751A0" stroke="#2751A0" stroke-width=".2"/><path d="M15.831 12.194h0l-.002-.001a9.292 9.292 0 00-.766-.473h0c-.54-.269-.964-.084-1.137.091a.49.49 0 00-.06.074h0a9.59 9.59 0 01-.808 1.045c-.128.143-.244.26-.34.345a1.213 1.213 0 01-.122.096.338.338 0 01-.045.027.738.738 0 01-.08-.03 2.55 2.55 0 01-.186-.086 7.554 7.554 0 01-.545-.312 13.739 13.739 0 01-1.484-1.077c-.54-.45-.977-.888-1.291-1.285-.298-.376-.478-.707-.536-.97.674-.7.94-1.17.94-1.715 0-.082-.023-.186-.058-.3a4.393 4.393 0 00-.146-.394 13.46 13.46 0 00-.453-.95c-.17-.324-.345-.64-.494-.888a7.813 7.813 0 00-.198-.318 1.364 1.364 0 00-.14-.185h0c-.136-.137-.347-.205-.608-.223-.263-.018-.592.013-.983.09h0a.488.488 0 00-.247.133h0c-.051.05-.63.64-1.065 1.562-.436.923-.732 2.185-.2 3.57h0c.576 1.496 1.602 3.112 2.953 4.425 1.352 1.312 3.036 2.327 4.928 2.611h0c.429.064.832.096 1.21.096 1.114 0 2.013-.28 2.68-.85.667-.57 1.09-1.418 1.275-2.53a.483.483 0 00-.242-.503 28.081 28.081 0 01-1.75-1.075h0zm-3.029 3.904h0c-1.944-.292-3.533-1.402-4.734-2.691-1.202-1.29-2.008-2.753-2.385-3.735l-.093.036.093-.036c-.367-.954-.214-1.858.079-2.577a5.28 5.28 0 01.87-1.416c.128-.02.257-.036.37-.043.098-.007.178-.008.233-.005.136.203.406.684.655 1.166.131.255.256.508.35.715.047.104.085.196.114.27.027.072.041.12.046.148-.002.16-.05.419-.82 1.189a.483.483 0 00-.142.342c0 .536.281 1.11.696 1.661.416.554.977 1.098 1.559 1.576s1.188.893 1.696 1.19c.255.148.486.267.68.35.188.08.353.131.47.131.19 0 .385-.08.572-.198a3.25 3.25 0 00.558-.471 8.83 8.83 0 00.907-1.136.427.427 0 01.053.023l.045-.09-.045.09a9.3 9.3 0 01.672.419h0c.387.253.9.588 1.503.937-.144.652-.41 1.283-.976 1.708-.586.44-1.517.673-3.026.447z" fill="#2751A0" stroke="#2751A0" stroke-width=".2"/></svg>