<svg width="18" height="18" fill="none" xmlns="http://www.w3.org/2000/svg"><path d="M5.709 3.15a5.075 5.075 0 017.36 6.854l-.27.377c-.751 1.055-1.527 2.145-2.215 3.26a30.52 30.52 0 00-.804 1.382l-.553 1.003a.338.338 0 01-.292.175.339.339 0 01-.293-.168l-.115-.197c-.378-.692-.8-1.41-1.286-2.193a83.565 83.565 0 00-2.47-3.666 5.083 5.083 0 01.938-6.828zm-.383 6.44a83.891 83.891 0 012.49 3.695c.415.668.782 1.29 1.114 1.883l.26-.473c.263-.48.535-.948.822-1.412.698-1.133 1.482-2.233 2.239-3.297l.27-.377a4.388 4.388 0 00-3.587-6.937 4.398 4.398 0 00-3.61 6.915l.002.003z" fill="#fff"/><path d="M8.935 4.702a2.369 2.369 0 110 4.737 2.369 2.369 0 010-4.737zm0 4.06a1.692 1.692 0 100-3.384 1.692 1.692 0 000 3.384z" fill="#fff"/></svg>