<svg width="465" height="206" fill="none" xmlns="http://www.w3.org/2000/svg"><path d="M59.39 130.597h54.05l18.96-18.913h106.402v-46.86h198.372V63.13H237.387v46.86H131.834l-18.96 18.914H59.39c-.283-1.129-1.415-2.259-2.83-2.259-1.698 0-2.83 1.412-2.83 3.106 0 1.693 1.415 3.105 2.83 3.105 1.132 0 2.264-1.129 2.83-2.259z" fill="url(#paint0_linear_337_10311)"/><path d="M72.69 137.092h43.863l18.959-18.913h110.364v-46.86h191.015v-1.694H244.178v46.86H134.664l-18.96 18.914h-43.58c-.283-1.13-1.415-2.259-2.83-2.259-1.698 0-3.113 1.412-3.113 2.823 0 1.694 1.415 3.105 3.113 3.105s2.83-.847 3.396-1.976z" fill="url(#paint1_linear_337_10311)"/><path d="M124.192 146.403h54.333l18.96-18.913h74.142v16.655h136.682v-1.694H273.042v-16.655h-76.406l-18.96 18.914h-53.484c-.283-1.13-1.414-2.259-2.829-2.259-1.698 0-3.113 1.412-3.113 3.106 0 1.693 1.415 3.105 3.113 3.105 1.415 0 2.546-1.129 2.829-2.259z" fill="url(#paint2_linear_337_10311)"/><path d="M137.493 152.9h44.146l18.96-18.914h64.52v16.655h146.303v-1.693H266.534v-16.656H199.75l-18.96 18.914h-43.58c-.283-1.129-1.415-2.258-2.83-2.258-1.698 0-2.829 1.411-2.829 2.823 0 1.693 1.414 3.105 2.829 3.105 1.698 0 2.83-.847 3.113-1.976z" fill="url(#paint3_linear_337_10311)"/><path d="M140.04 159.956h44.146l18.96-18.913h54.616v16.655h156.49v-1.694H259.46v-16.655h-56.88l-18.96 18.914h-43.58c-.283-1.13-1.415-2.259-2.83-2.259-1.697 0-2.829 1.412-2.829 2.823 0 1.694 1.415 3.105 2.829 3.105 1.415.283 2.547-.564 2.83-1.976z" fill="url(#paint4_linear_337_10311)"/><path d="M271.343 78.376c0 1.411.849 2.54 2.264 2.823v15.526h27.449l18.677-18.631h74.142v16.655h136.682v-1.694H395.29V76.4h-76.406l-18.959 18.913h-24.903V81.2c1.132-.282 2.264-1.412 2.264-2.823 0-1.694-1.415-3.105-2.83-3.105-1.698 0-3.113 1.411-3.113 3.105z" fill="url(#paint5_linear_337_10311)"/><path d="M322.564 82.893l-18.96 18.913h-37.637v-9.033c1.132-.282 2.264-1.412 2.264-2.823 0-1.694-1.415-3.105-3.113-3.105s-3.113 1.411-3.113 3.105c0 1.411.849 2.54 2.264 2.823v10.445h39.901l18.96-18.914h64.52v16.655h146.303v-1.694H389.065V82.61h-66.501v.283z" fill="url(#paint6_linear_337_10311)"/><path d="M325.111 89.948l-18.96 18.914h-49.522c-.283-1.13-1.415-2.259-2.83-2.259-1.698 0-3.113 1.412-3.113 3.105 0 1.694 1.415 3.106 3.113 3.106 1.415 0 2.547-.847 2.83-2.259h50.088l18.96-18.913h54.616v16.655h156.49v-1.694H381.991V89.948h-56.88z" fill="url(#paint7_linear_337_10311)"/><path d="M338.977 99.544c-.283-1.129-1.415-2.258-2.83-2.258-1.698 0-3.113 1.412-3.113 3.105 0 1.694 1.415 2.823 3.113 2.823 1.415 0 2.547-.847 2.83-2.258h33.109v16.655h136.682v-1.694H373.501V99.262h-34.524v.282z" fill="url(#paint8_linear_337_10311)"/><path d="M329.073 105.759c-.283-1.129-1.415-2.258-2.83-2.258-1.698 0-3.113 1.411-3.113 3.105s1.415 3.105 3.113 3.105c1.415 0 2.547-.847 2.83-2.258h36.505v16.655h146.303v-1.694H366.993v-16.655h-37.92z" fill="url(#paint9_linear_337_10311)"/><path d="M321.999 113.097c-.283-1.129-1.415-2.258-2.83-2.258-1.698 0-2.83 1.411-2.83 3.105s1.415 3.105 2.83 3.105 2.547-.847 2.83-2.258h36.222v16.655h156.49v-1.694H359.919v-16.655h-37.92z" fill="url(#paint10_linear_337_10311)"/><path d="M280.966 120.719v18.067h46.692v-9.316h-26.6c-.283-1.129-1.415-2.258-2.83-2.258-1.698 0-2.83 1.411-2.83 2.823 0 1.693 1.415 3.105 2.83 3.105s2.547-.847 2.83-2.259h24.902v6.493h-43.579v-14.961h55.748v16.655h133.568v-1.694h-131.87v-16.655h-58.861z" fill="url(#paint11_linear_337_10311)"/><path d="M201.731 28.129v14.396h102.723l14.149-15.243h43.863v16.655h71.595c.283 1.129 1.415 2.258 2.83 2.258 1.698 0 2.83-1.411 2.83-3.105s-1.415-2.823-2.83-2.823-2.547.847-2.83 2.258h-70.18V25.87h-45.843l-14.15 15.244H203.429V26.717h-74.425l-18.96 18.914H50.618v1.411h59.992l18.96-18.913h72.161z" fill="url(#paint12_linear_337_10311)"/><path d="M194.373 34.622v16.655h114.042l16.696-16.655h29.714v16.655h105.553c.283 1.13 1.415 2.258 2.829 2.258 1.698 0 3.113-1.411 3.113-3.105s-1.415-2.823-3.113-2.823c-1.414 0-2.546.847-2.829 2.259H356.522V33.21h-31.977l-16.696 16.656H195.787V32.928h-66.784l-18.96 18.914H60.804v1.693h49.805l18.96-18.913h64.804z" fill="url(#paint13_linear_337_10311)"/><path d="M72.124 59.743h44.146l18.96-18.914h54.616v16.655h247.328v-1.693h-245.63V39.136h-56.88l-18.96 18.913h-43.58c-.283-1.13-1.415-2.258-2.83-2.258-1.697 0-3.112 1.411-3.112 3.105S67.597 62 69.294 62c1.415 0 2.547-1.13 2.83-2.258z" fill="url(#paint14_linear_337_10311)"/><path d="M213.9 23.044h78.104L310.681 4.13h74.142v16.656h136.681v-1.694H386.237V2.719h-76.405l-18.677 18.913h-77.538c-.283-1.129-1.415-2.258-2.83-2.258-1.698 0-2.83 1.412-2.83 3.105 0 1.694 1.415 2.823 2.83 2.823s2.547-.847 3.113-2.258z" fill="url(#paint15_linear_337_10311)"/><path d="M228.331 25.87c-1.698 0-3.113 1.41-3.113 2.822 0 1.694 1.415 3.106 3.113 3.106 1.415 0 2.547-.847 2.83-2.259h63.954l18.96-18.913h64.521V27.28h146.302v-1.694H380.011V8.932h-66.502l-18.96 18.913h-63.388c-.283-1.129-1.415-1.976-2.83-1.976z" fill="url(#paint16_linear_337_10311)"/><path d="M316.056 16.272l-18.96 18.913h-50.654c-.283-1.129-1.415-2.258-2.83-2.258-1.697 0-3.112 1.411-3.112 3.105s1.415 3.105 3.112 3.105c1.415 0 2.547-.847 2.83-2.258h51.22l18.96-19.196h54.616v16.655h156.491v-1.411H372.936V16.272h-56.88z" fill="url(#paint17_linear_337_10311)"/><path d="M228.331 181.974v-28.511c1.132-.283 2.264-1.412 2.264-2.823 0-1.694-1.415-2.823-2.83-2.823-1.698 0-3.113 1.411-3.113 2.823 0 1.411.849 2.54 2.264 2.823v30.205h27.449l18.96-18.914h74.142v16.656h136.681v-1.694H348.882v-16.655h-76.406l-18.96 18.913h-25.185z" fill="url(#paint18_linear_337_10311)"/><path d="M340.957 171.248v16.655H487.26v-1.694H342.372v-16.655h-66.784l-18.96 18.913h-37.637v-23.43c1.132-.282 2.264-1.411 2.264-2.823 0-1.693-1.415-3.105-2.83-3.105-1.698 0-3.113 1.412-3.113 3.105 0 1.412.849 2.541 2.264 2.823v25.124h39.901l18.96-18.913h64.52z" fill="url(#paint19_linear_337_10311)"/><path d="M190.41 197.221h69.614l18.96-18.913H333.6v16.655h156.49v-1.694H335.297v-16.373h-56.879l-18.96 18.914H190.41c-.283-1.13-1.415-2.259-2.83-2.259-1.698 0-3.113 1.412-3.113 3.106 0 1.693 1.415 3.105 3.113 3.105 1.132-.283 2.264-1.129 2.83-2.541z" fill="url(#paint20_linear_337_10311)"/><defs><linearGradient id="paint0_linear_337_10311" x1="507.117" y1="86.058" x2="-183.528" y2="109.026" gradientUnits="userSpaceOnUse"><stop stop-color="#fff"/><stop offset=".326" stop-color="#B8B7B7"/><stop offset=".656" stop-color="#706E6E"/><stop offset=".778" stop-color="#575454"/><stop offset="1"/></linearGradient><linearGradient id="paint1_linear_337_10311" x1="507.342" y1="92.82" x2="-183.301" y2="115.788" gradientUnits="userSpaceOnUse"><stop stop-color="#fff"/><stop offset=".326" stop-color="#B8B7B7"/><stop offset=".656" stop-color="#706E6E"/><stop offset=".778" stop-color="#575454"/><stop offset="1"/></linearGradient><linearGradient id="paint2_linear_337_10311" x1="-78.849" y1="138.023" x2="584.527" y2="135.835" gradientUnits="userSpaceOnUse"><stop stop-color="#fff"/><stop offset=".326" stop-color="#B8B7B7"/><stop offset=".656" stop-color="#706E6E"/><stop offset=".778" stop-color="#575454"/><stop offset="1"/></linearGradient><linearGradient id="paint3_linear_337_10311" x1="86.638" y1="142.609" x2="668.179" y2="148.078" gradientUnits="userSpaceOnUse"><stop stop-color="#fff"/><stop offset=".326" stop-color="#B8B7B7"/><stop offset=".656" stop-color="#706E6E"/><stop offset=".778" stop-color="#575454"/><stop offset="1"/></linearGradient><linearGradient id="paint4_linear_337_10311" x1="86.57" y1="149.807" x2="668.112" y2="155.276" gradientUnits="userSpaceOnUse"><stop stop-color="#fff"/><stop offset=".326" stop-color="#B8B7B7"/><stop offset=".656" stop-color="#706E6E"/><stop offset=".778" stop-color="#575454"/><stop offset="1"/></linearGradient><linearGradient id="paint5_linear_337_10311" x1="506.965" y1="81.529" x2="-183.686" y2="104.498" gradientUnits="userSpaceOnUse"><stop stop-color="#fff"/><stop offset=".326" stop-color="#B8B7B7"/><stop offset=".656" stop-color="#706E6E"/><stop offset=".778" stop-color="#575454"/><stop offset="1"/></linearGradient><linearGradient id="paint6_linear_337_10311" x1="87.121" y1="90.825" x2="668.667" y2="96.294" gradientUnits="userSpaceOnUse"><stop stop-color="#fff"/><stop offset=".326" stop-color="#B8B7B7"/><stop offset=".656" stop-color="#706E6E"/><stop offset=".778" stop-color="#575454"/><stop offset="1"/></linearGradient><linearGradient id="paint7_linear_337_10311" x1="87.045" y1="99.174" x2="668.59" y2="104.643" gradientUnits="userSpaceOnUse"><stop stop-color="#fff"/><stop offset=".326" stop-color="#B8B7B7"/><stop offset=".656" stop-color="#706E6E"/><stop offset=".778" stop-color="#575454"/><stop offset="1"/></linearGradient><linearGradient id="paint8_linear_337_10311" x1="86.988" y1="104.951" x2="668.534" y2="110.42" gradientUnits="userSpaceOnUse"><stop stop-color="#fff"/><stop offset=".326" stop-color="#B8B7B7"/><stop offset=".656" stop-color="#706E6E"/><stop offset=".778" stop-color="#575454"/><stop offset="1"/></linearGradient><linearGradient id="paint9_linear_337_10311" x1="86.926" y1="111.461" x2="668.477" y2="116.93" gradientUnits="userSpaceOnUse"><stop stop-color="#fff"/><stop offset=".326" stop-color="#B8B7B7"/><stop offset=".656" stop-color="#706E6E"/><stop offset=".778" stop-color="#575454"/><stop offset="1"/></linearGradient><linearGradient id="paint10_linear_337_10311" x1="508.18" y1="118.039" x2="-182.462" y2="141.007" gradientUnits="userSpaceOnUse"><stop stop-color="#fff"/><stop offset=".326" stop-color="#B8B7B7"/><stop offset=".656" stop-color="#706E6E"/><stop offset=".778" stop-color="#575454"/><stop offset="1"/></linearGradient><linearGradient id="paint11_linear_337_10311" x1="86.776" y1="127.684" x2="668.321" y2="133.153" gradientUnits="userSpaceOnUse"><stop stop-color="#fff"/><stop offset=".326" stop-color="#B8B7B7"/><stop offset=".656" stop-color="#706E6E"/><stop offset=".778" stop-color="#575454"/><stop offset="1"/></linearGradient><linearGradient id="paint12_linear_337_10311" x1="505.22" y1="28.995" x2="-185.427" y2="51.963" gradientUnits="userSpaceOnUse"><stop stop-color="#fff"/><stop offset=".326" stop-color="#B8B7B7"/><stop offset=".656" stop-color="#706E6E"/><stop offset=".778" stop-color="#575454"/><stop offset="1"/></linearGradient><linearGradient id="paint13_linear_337_10311" x1="505.46" y1="36.225" x2="-185.187" y2="59.194" gradientUnits="userSpaceOnUse"><stop stop-color="#fff"/><stop offset=".326" stop-color="#B8B7B7"/><stop offset=".656" stop-color="#706E6E"/><stop offset=".778" stop-color="#575454"/><stop offset="1"/></linearGradient><linearGradient id="paint14_linear_337_10311" x1="87.506" y1="50.186" x2="669.05" y2="55.655" gradientUnits="userSpaceOnUse"><stop stop-color="#fff"/><stop offset=".326" stop-color="#B8B7B7"/><stop offset=".656" stop-color="#706E6E"/><stop offset=".778" stop-color="#575454"/><stop offset="1"/></linearGradient><linearGradient id="paint15_linear_337_10311" x1="87.867" y1="11.955" x2="669.408" y2="17.424" gradientUnits="userSpaceOnUse"><stop stop-color="#fff"/><stop offset=".326" stop-color="#B8B7B7"/><stop offset=".656" stop-color="#706E6E"/><stop offset=".778" stop-color="#575454"/><stop offset="1"/></linearGradient><linearGradient id="paint16_linear_337_10311" x1="-79.232" y1="21.513" x2="584.143" y2="19.325" gradientUnits="userSpaceOnUse"><stop stop-color="#fff"/><stop offset=".326" stop-color="#B8B7B7"/><stop offset=".656" stop-color="#706E6E"/><stop offset=".778" stop-color="#575454"/><stop offset="1"/></linearGradient><linearGradient id="paint17_linear_337_10311" x1="-79.207" y1="28.719" x2="584.167" y2="26.532" gradientUnits="userSpaceOnUse"><stop stop-color="#fff"/><stop offset=".326" stop-color="#B8B7B7"/><stop offset=".656" stop-color="#706E6E"/><stop offset=".778" stop-color="#575454"/><stop offset="1"/></linearGradient><linearGradient id="paint18_linear_337_10311" x1="86.431" y1="164.323" x2="667.976" y2="169.792" gradientUnits="userSpaceOnUse"><stop stop-color="#fff"/><stop offset=".326" stop-color="#B8B7B7"/><stop offset=".656" stop-color="#706E6E"/><stop offset=".778" stop-color="#575454"/><stop offset="1"/></linearGradient><linearGradient id="paint19_linear_337_10311" x1="-78.725" y1="175.678" x2="584.652" y2="173.491" gradientUnits="userSpaceOnUse"><stop stop-color="#fff"/><stop offset=".326" stop-color="#B8B7B7"/><stop offset=".656" stop-color="#706E6E"/><stop offset=".778" stop-color="#575454"/><stop offset="1"/></linearGradient><linearGradient id="paint20_linear_337_10311" x1="510.297" y1="181.716" x2="-180.351" y2="204.684" gradientUnits="userSpaceOnUse"><stop stop-color="#fff"/><stop offset=".326" stop-color="#B8B7B7"/><stop offset=".656" stop-color="#706E6E"/><stop offset=".778" stop-color="#575454"/><stop offset="1"/></linearGradient></defs></svg>