<svg width="368" height="206" fill="none" xmlns="http://www.w3.org/2000/svg"><path d="M308.61 130.597h-54.05l-18.96-18.913H129.198v-46.86H-69.174V63.13h199.787v46.86h105.553l18.96 18.914h53.484c.283-1.129 1.415-2.259 2.83-2.259 1.698 0 2.83 1.412 2.83 3.106 0 1.693-1.415 3.105-2.83 3.105-1.132 0-2.264-1.129-2.83-2.259z" fill="url(#paint0_linear_337_8149)"/><path d="M295.31 137.092h-43.863l-18.959-18.913H122.124v-46.86H-68.891v-1.694h192.713v46.86h109.514l18.96 18.914h43.58c.283-1.13 1.415-2.259 2.83-2.259 1.698 0 3.113 1.412 3.113 2.823 0 1.694-1.415 3.105-3.113 3.105s-2.83-.847-3.396-1.976z" fill="url(#paint1_linear_337_8149)"/><path d="M243.808 146.403h-54.333l-18.96-18.913H96.373v16.655H-40.31v-1.694H94.958v-16.655h76.406l18.96 18.914h53.484c.283-1.13 1.414-2.259 2.829-2.259 1.698 0 3.113 1.412 3.113 3.106 0 1.693-1.415 3.105-3.113 3.105-1.415 0-2.546-1.129-2.829-2.259z" fill="url(#paint2_linear_337_8149)"/><path d="M230.507 152.9h-44.146l-18.96-18.914h-64.52v16.655H-43.422v-1.693h144.888v-16.656h66.784l18.96 18.914h43.58c.283-1.129 1.415-2.258 2.83-2.258 1.698 0 2.829 1.411 2.829 2.823 0 1.693-1.414 3.105-2.829 3.105-1.698 0-2.83-.847-3.113-1.976z" fill="url(#paint3_linear_337_8149)"/><path d="M227.96 159.956h-44.146l-18.96-18.913h-54.616v16.655h-156.49v-1.694H108.54v-16.655h56.88l18.96 18.914h43.58c.283-1.13 1.415-2.259 2.83-2.259 1.697 0 2.829 1.412 2.829 2.823 0 1.694-1.415 3.105-2.829 3.105-1.415.283-2.547-.564-2.83-1.976z" fill="url(#paint4_linear_337_8149)"/><path d="M96.657 78.376c0 1.411-.85 2.54-2.264 2.823v15.526h-27.45L48.267 78.094h-74.142v16.655h-136.682v-1.694H-27.29V76.4h76.405l18.96 18.913h24.903V81.2c-1.132-.282-2.264-1.412-2.264-2.823 0-1.694 1.415-3.105 2.83-3.105 1.698 0 3.113 1.411 3.113 3.105z" fill="url(#paint5_linear_337_8149)"/><path d="M45.436 82.893l18.96 18.913h37.637v-9.033c-1.132-.282-2.264-1.412-2.264-2.823 0-1.694 1.415-3.105 3.113-3.105s3.113 1.411 3.113 3.105c0 1.411-.849 2.54-2.264 2.823v10.445H63.83L44.87 84.304h-64.52v16.655h-146.303v-1.694h144.888V82.61h66.501v.283z" fill="url(#paint6_linear_337_8149)"/><path d="M42.889 89.948l18.96 18.914h49.522c.283-1.13 1.415-2.259 2.83-2.259 1.698 0 3.113 1.412 3.113 3.105 0 1.694-1.415 3.106-3.113 3.106-1.415 0-2.547-.847-2.83-2.259H61.283l-18.96-18.913h-54.616v16.655h-156.49v-1.694h154.792V89.948h56.88z" fill="url(#paint7_linear_337_8149)"/><path d="M29.023 99.544c.283-1.129 1.415-2.258 2.83-2.258 1.698 0 3.113 1.412 3.113 3.105 0 1.694-1.415 2.823-3.113 2.823-1.415 0-2.547-.847-2.83-2.258h-33.11v16.655h-136.681v-1.694H-5.501V99.262h34.524v.282z" fill="url(#paint8_linear_337_8149)"/><path d="M38.927 105.759c.283-1.129 1.415-2.258 2.83-2.258 1.698 0 3.113 1.411 3.113 3.105s-1.415 3.105-3.113 3.105c-1.415 0-2.547-.847-2.83-2.258H2.422v16.655h-146.303v-1.694H1.007v-16.655h37.92z" fill="url(#paint9_linear_337_8149)"/><path d="M46.001 113.097c.283-1.129 1.415-2.258 2.83-2.258 1.698 0 2.83 1.411 2.83 3.105s-1.415 3.105-2.83 3.105-2.547-.847-2.83-2.258H9.78v16.655h-156.49v-1.694H8.081v-16.655h37.92z" fill="url(#paint10_linear_337_8149)"/><path d="M87.034 120.719v18.067H40.342v-9.316h26.6c.283-1.129 1.415-2.258 2.83-2.258 1.698 0 2.83 1.411 2.83 2.823 0 1.693-1.415 3.105-2.83 3.105s-2.547-.847-2.83-2.259H42.04v6.493h43.58v-14.961H29.87v16.655h-133.568v-1.694h131.87v-16.655h58.861z" fill="url(#paint11_linear_337_8149)"/><path d="M166.269 28.129v14.396H63.546l-14.15-15.243H5.535v16.655H-66.06c-.283 1.129-1.415 2.258-2.83 2.258-1.698 0-2.83-1.411-2.83-3.105s1.415-2.823 2.83-2.823 2.547.847 2.83 2.258H4.12V25.87h45.843l14.15 15.244H164.57V26.717h74.425l18.96 18.914h59.427v1.411H257.39L238.43 28.13h-72.161z" fill="url(#paint12_linear_337_8149)"/><path d="M173.627 34.622v16.655H59.585L42.889 34.622H13.175v16.655H-92.377c-.283 1.13-1.415 2.258-2.83 2.258-1.697 0-3.112-1.411-3.112-3.105s1.415-2.823 3.112-2.823c1.415 0 2.547.847 2.83 2.259H11.478V33.21h31.977L60.15 49.866h112.062V32.928h66.784l18.96 18.914h49.239v1.693H257.39l-18.96-18.913h-64.804z" fill="url(#paint13_linear_337_8149)"/><path d="M295.876 59.743H251.73l-18.96-18.914h-54.616v16.655H-69.174v-1.693h245.63V39.136h56.88l18.96 18.913h43.58c.283-1.13 1.415-2.258 2.83-2.258 1.697 0 3.112 1.411 3.112 3.105S300.403 62 298.706 62c-1.415 0-2.547-1.13-2.83-2.258z" fill="url(#paint14_linear_337_8149)"/><path d="M154.1 23.044H75.996L57.32 4.13h-74.142v16.656h-136.681v-1.694h135.266V2.719h76.406l18.677 18.913h77.538c.283-1.129 1.415-2.258 2.83-2.258 1.698 0 2.83 1.412 2.83 3.105 0 1.694-1.415 2.823-2.83 2.823s-2.547-.847-3.113-2.258z" fill="url(#paint15_linear_337_8149)"/><path d="M139.669 25.87c1.698 0 3.113 1.41 3.113 2.822 0 1.694-1.415 3.106-3.113 3.106-1.415 0-2.547-.847-2.83-2.259H72.885l-18.96-18.913h-64.52V27.28h-146.303v-1.694h144.887V8.932h66.502l18.96 18.913h63.388c.283-1.129 1.415-1.976 2.83-1.976z" fill="url(#paint16_linear_337_8149)"/><path d="M51.944 16.272l18.96 18.913h50.654c.283-1.129 1.415-2.258 2.83-2.258 1.697 0 3.112 1.411 3.112 3.105s-1.415 3.105-3.112 3.105c-1.415 0-2.547-.847-2.83-2.258h-51.22l-18.96-19.196H-3.238v16.655H-159.73v-1.411H-4.936V16.272h56.88z" fill="url(#paint17_linear_337_8149)"/><path d="M139.669 181.974v-28.511c-1.132-.283-2.264-1.412-2.264-2.823 0-1.694 1.415-2.823 2.83-2.823 1.698 0 3.113 1.411 3.113 2.823 0 1.411-.849 2.54-2.264 2.823v30.205h-27.449l-18.96-18.914H20.533v16.656h-136.681v-1.694H19.118v-16.655h76.406l18.96 18.913h25.185z" fill="url(#paint18_linear_337_8149)"/><path d="M27.043 171.248v16.655H-119.26v-1.694H25.628v-16.655h66.784l18.96 18.913h37.637v-23.43c-1.132-.282-2.264-1.411-2.264-2.823 0-1.693 1.415-3.105 2.83-3.105 1.698 0 3.113 1.412 3.113 3.105 0 1.412-.849 2.541-2.264 2.823v25.124h-39.901l-18.96-18.913h-64.52z" fill="url(#paint19_linear_337_8149)"/><path d="M177.59 197.221h-69.614l-18.96-18.913H34.4v16.655h-156.49v-1.694H32.703v-16.373h56.88l18.959 18.914h69.048c.283-1.13 1.415-2.259 2.83-2.259 1.698 0 3.113 1.412 3.113 3.106 0 1.693-1.415 3.105-3.113 3.105-1.132-.283-2.264-1.129-2.83-2.541z" fill="url(#paint20_linear_337_8149)"/><defs><linearGradient id="paint0_linear_337_8149" x1="-139.117" y1="86.058" x2="551.528" y2="109.026" gradientUnits="userSpaceOnUse"><stop stop-color="#fff"/><stop offset=".326" stop-color="#B8B7B7"/><stop offset=".656" stop-color="#706E6E"/><stop offset=".778" stop-color="#575454"/><stop offset="1"/></linearGradient><linearGradient id="paint1_linear_337_8149" x1="-139.342" y1="92.82" x2="551.301" y2="115.788" gradientUnits="userSpaceOnUse"><stop stop-color="#fff"/><stop offset=".326" stop-color="#B8B7B7"/><stop offset=".656" stop-color="#706E6E"/><stop offset=".778" stop-color="#575454"/><stop offset="1"/></linearGradient><linearGradient id="paint2_linear_337_8149" x1="446.849" y1="138.023" x2="-216.527" y2="135.835" gradientUnits="userSpaceOnUse"><stop stop-color="#fff"/><stop offset=".326" stop-color="#B8B7B7"/><stop offset=".656" stop-color="#706E6E"/><stop offset=".778" stop-color="#575454"/><stop offset="1"/></linearGradient><linearGradient id="paint3_linear_337_8149" x1="281.362" y1="142.609" x2="-300.179" y2="148.078" gradientUnits="userSpaceOnUse"><stop stop-color="#fff"/><stop offset=".326" stop-color="#B8B7B7"/><stop offset=".656" stop-color="#706E6E"/><stop offset=".778" stop-color="#575454"/><stop offset="1"/></linearGradient><linearGradient id="paint4_linear_337_8149" x1="281.43" y1="149.807" x2="-300.112" y2="155.276" gradientUnits="userSpaceOnUse"><stop stop-color="#fff"/><stop offset=".326" stop-color="#B8B7B7"/><stop offset=".656" stop-color="#706E6E"/><stop offset=".778" stop-color="#575454"/><stop offset="1"/></linearGradient><linearGradient id="paint5_linear_337_8149" x1="-138.965" y1="81.529" x2="551.686" y2="104.498" gradientUnits="userSpaceOnUse"><stop stop-color="#fff"/><stop offset=".326" stop-color="#B8B7B7"/><stop offset=".656" stop-color="#706E6E"/><stop offset=".778" stop-color="#575454"/><stop offset="1"/></linearGradient><linearGradient id="paint6_linear_337_8149" x1="280.879" y1="90.825" x2="-300.667" y2="96.294" gradientUnits="userSpaceOnUse"><stop stop-color="#fff"/><stop offset=".326" stop-color="#B8B7B7"/><stop offset=".656" stop-color="#706E6E"/><stop offset=".778" stop-color="#575454"/><stop offset="1"/></linearGradient><linearGradient id="paint7_linear_337_8149" x1="280.955" y1="99.174" x2="-300.59" y2="104.643" gradientUnits="userSpaceOnUse"><stop stop-color="#fff"/><stop offset=".326" stop-color="#B8B7B7"/><stop offset=".656" stop-color="#706E6E"/><stop offset=".778" stop-color="#575454"/><stop offset="1"/></linearGradient><linearGradient id="paint8_linear_337_8149" x1="281.012" y1="104.951" x2="-300.534" y2="110.42" gradientUnits="userSpaceOnUse"><stop stop-color="#fff"/><stop offset=".326" stop-color="#B8B7B7"/><stop offset=".656" stop-color="#706E6E"/><stop offset=".778" stop-color="#575454"/><stop offset="1"/></linearGradient><linearGradient id="paint9_linear_337_8149" x1="281.074" y1="111.461" x2="-300.477" y2="116.93" gradientUnits="userSpaceOnUse"><stop stop-color="#fff"/><stop offset=".326" stop-color="#B8B7B7"/><stop offset=".656" stop-color="#706E6E"/><stop offset=".778" stop-color="#575454"/><stop offset="1"/></linearGradient><linearGradient id="paint10_linear_337_8149" x1="-140.18" y1="118.039" x2="550.462" y2="141.007" gradientUnits="userSpaceOnUse"><stop stop-color="#fff"/><stop offset=".326" stop-color="#B8B7B7"/><stop offset=".656" stop-color="#706E6E"/><stop offset=".778" stop-color="#575454"/><stop offset="1"/></linearGradient><linearGradient id="paint11_linear_337_8149" x1="281.224" y1="127.684" x2="-300.321" y2="133.153" gradientUnits="userSpaceOnUse"><stop stop-color="#fff"/><stop offset=".326" stop-color="#B8B7B7"/><stop offset=".656" stop-color="#706E6E"/><stop offset=".778" stop-color="#575454"/><stop offset="1"/></linearGradient><linearGradient id="paint12_linear_337_8149" x1="-137.22" y1="28.995" x2="553.427" y2="51.963" gradientUnits="userSpaceOnUse"><stop stop-color="#fff"/><stop offset=".326" stop-color="#B8B7B7"/><stop offset=".656" stop-color="#706E6E"/><stop offset=".778" stop-color="#575454"/><stop offset="1"/></linearGradient><linearGradient id="paint13_linear_337_8149" x1="-137.46" y1="36.225" x2="553.187" y2="59.194" gradientUnits="userSpaceOnUse"><stop stop-color="#fff"/><stop offset=".326" stop-color="#B8B7B7"/><stop offset=".656" stop-color="#706E6E"/><stop offset=".778" stop-color="#575454"/><stop offset="1"/></linearGradient><linearGradient id="paint14_linear_337_8149" x1="280.494" y1="50.186" x2="-301.05" y2="55.655" gradientUnits="userSpaceOnUse"><stop stop-color="#fff"/><stop offset=".326" stop-color="#B8B7B7"/><stop offset=".656" stop-color="#706E6E"/><stop offset=".778" stop-color="#575454"/><stop offset="1"/></linearGradient><linearGradient id="paint15_linear_337_8149" x1="280.133" y1="11.955" x2="-301.408" y2="17.424" gradientUnits="userSpaceOnUse"><stop stop-color="#fff"/><stop offset=".326" stop-color="#B8B7B7"/><stop offset=".656" stop-color="#706E6E"/><stop offset=".778" stop-color="#575454"/><stop offset="1"/></linearGradient><linearGradient id="paint16_linear_337_8149" x1="447.232" y1="21.513" x2="-216.143" y2="19.325" gradientUnits="userSpaceOnUse"><stop stop-color="#fff"/><stop offset=".326" stop-color="#B8B7B7"/><stop offset=".656" stop-color="#706E6E"/><stop offset=".778" stop-color="#575454"/><stop offset="1"/></linearGradient><linearGradient id="paint17_linear_337_8149" x1="447.207" y1="28.719" x2="-216.167" y2="26.532" gradientUnits="userSpaceOnUse"><stop stop-color="#fff"/><stop offset=".326" stop-color="#B8B7B7"/><stop offset=".656" stop-color="#706E6E"/><stop offset=".778" stop-color="#575454"/><stop offset="1"/></linearGradient><linearGradient id="paint18_linear_337_8149" x1="281.569" y1="164.323" x2="-299.976" y2="169.792" gradientUnits="userSpaceOnUse"><stop stop-color="#fff"/><stop offset=".326" stop-color="#B8B7B7"/><stop offset=".656" stop-color="#706E6E"/><stop offset=".778" stop-color="#575454"/><stop offset="1"/></linearGradient><linearGradient id="paint19_linear_337_8149" x1="446.725" y1="175.678" x2="-216.652" y2="173.491" gradientUnits="userSpaceOnUse"><stop stop-color="#fff"/><stop offset=".326" stop-color="#B8B7B7"/><stop offset=".656" stop-color="#706E6E"/><stop offset=".778" stop-color="#575454"/><stop offset="1"/></linearGradient><linearGradient id="paint20_linear_337_8149" x1="-142.297" y1="181.716" x2="548.351" y2="204.684" gradientUnits="userSpaceOnUse"><stop stop-color="#fff"/><stop offset=".326" stop-color="#B8B7B7"/><stop offset=".656" stop-color="#706E6E"/><stop offset=".778" stop-color="#575454"/><stop offset="1"/></linearGradient></defs></svg>