<svg width="45" height="188" viewBox="0 0 45 188" fill="none" xmlns="http://www.w3.org/2000/svg">
<path d="M22.4988 114.629C33.9126 114.629 43.1988 105.342 43.1988 93.9286C43.1988 82.5148 33.9126 73.2286 22.4988 73.2286C11.085 73.2286 1.79883 82.5148 1.79883 93.9286C1.79883 105.342 11.085 114.629 22.4988 114.629ZM22.4988 74.1286C33.4167 74.1286 42.2988 83.0107 42.2988 93.9286C42.2988 104.847 33.4167 113.729 22.4988 113.729C11.5809 113.729 2.69883 104.847 2.69883 93.9286C2.69883 83.0107 11.5809 74.1286 22.4988 74.1286Z" fill="#727272"/>
<path d="M38.698 94.3786H40.291C40.5399 94.3786 40.741 94.177 40.741 93.9286C40.741 93.6802 40.5399 93.4786 40.291 93.4786H38.698C38.4492 93.4786 38.248 93.6802 38.248 93.9286C38.248 94.177 38.4492 94.3786 38.698 94.3786Z" fill="#727272"/>
<path d="M6.29886 93.4786H4.70586C4.45701 93.4786 4.25586 93.6802 4.25586 93.9286C4.25586 94.177 4.45701 94.3786 4.70586 94.3786H6.29886C6.54771 94.3786 6.74886 94.177 6.74886 93.9286C6.74886 93.6802 6.54771 93.4786 6.29886 93.4786Z" fill="#727272"/>
<path d="M22.4988 78.1787C22.7477 78.1787 22.9488 77.9771 22.9488 77.7287V76.1357C22.9488 75.8873 22.7477 75.6857 22.4988 75.6857C22.25 75.6857 22.0488 75.8873 22.0488 76.1357V77.7287C22.0488 77.9771 22.25 78.1787 22.4988 78.1787Z" fill="#727272"/>
<path d="M22.4988 112.172C22.7477 112.172 22.9488 111.97 22.9488 111.722V110.129C22.9488 109.88 22.7477 109.679 22.4988 109.679C22.25 109.679 22.0488 109.88 22.0488 110.129V111.722C22.0488 111.97 22.25 112.172 22.4988 112.172Z" fill="#727272"/>
<path d="M33.956 82.9216C34.0712 82.9216 34.1864 82.8775 34.2741 82.7897L35.3991 81.6647C35.5751 81.4888 35.5751 81.2044 35.3991 81.0284C35.2232 80.8525 34.9388 80.8525 34.7628 81.0284L33.6378 82.1534C33.4619 82.3294 33.4619 82.6138 33.6378 82.7897C33.7256 82.8775 33.8408 82.9216 33.956 82.9216Z" fill="#727272"/>
<path d="M9.91691 106.961C10.0321 106.961 10.1473 106.917 10.2351 106.829L11.3601 105.704C11.536 105.528 11.536 105.243 11.3601 105.068C11.1841 104.892 10.8997 104.892 10.7238 105.068L9.59876 106.193C9.42281 106.368 9.42281 106.653 9.59876 106.829C9.68651 106.917 9.80171 106.961 9.91691 106.961Z" fill="#727272"/>
<path d="M10.7238 82.7897C10.8115 82.8775 10.9267 82.9216 11.0419 82.9216C11.1571 82.9216 11.2723 82.8775 11.3601 82.7897C11.536 82.6138 11.536 82.3294 11.3601 82.1534L10.2351 81.0284C10.0591 80.8525 9.77471 80.8525 9.59876 81.0284C9.42281 81.2044 9.42281 81.4888 9.59876 81.6647L10.7238 82.7897Z" fill="#727272"/>
<path d="M34.7628 106.829C34.8506 106.917 34.9658 106.961 35.081 106.961C35.1962 106.961 35.3114 106.917 35.3991 106.829C35.5751 106.653 35.5751 106.368 35.3991 106.193L34.2741 105.068C34.0982 104.892 33.8138 104.892 33.6378 105.068C33.4619 105.243 33.4619 105.528 33.6378 105.704L34.7628 106.829Z" fill="#727272"/>
<path d="M27.1527 99.2188C27.2405 99.3066 27.3557 99.3507 27.4709 99.3507C27.5861 99.3507 27.7013 99.3066 27.789 99.2188C27.965 99.0429 27.965 98.7585 27.789 98.5825L22.9488 93.7423V81.9091C22.9488 81.6607 22.7477 81.4591 22.4988 81.4591C22.25 81.4591 22.0488 81.6607 22.0488 81.9091V93.9286C22.0488 94.0479 22.0961 94.1626 22.1807 94.2468L27.1527 99.2188Z" fill="#727272"/>
<line x1="21.3574" y1="187.857" x2="21.3574" y2="126.429" stroke="#EBEFF2" stroke-width="3"/>
<line x1="21.3574" y1="61.4286" x2="21.3574" y2="1.90735e-05" stroke="#EBEFF2" stroke-width="3"/>
</svg>
