<svg width="508" height="348" fill="none" xmlns="http://www.w3.org/2000/svg"><g opacity=".14" clip-path="url(#clip0_473_5736)"><path d="M115.312 220.621h91.134l31.969-31.951H417.82v-79.162h334.477v-2.861H415.435v79.162H237.461l-31.969 31.951h-90.18c-.477-1.908-2.386-3.815-4.771-3.815-2.863 0-4.772 2.384-4.772 5.245 0 2.862 2.386 5.246 4.772 5.246 1.908 0 3.817-1.907 4.771-3.815z" fill="url(#paint0_linear_473_5736)"/><path d="M137.736 231.593h73.958l31.968-31.951h186.085V120.48h322.071v-2.862H426.885v79.163H242.231l-31.969 31.951h-73.48c-.477-1.908-2.385-3.815-4.771-3.815-2.863 0-5.249 2.384-5.249 4.768 0 2.862 2.386 5.246 5.249 5.246 2.863 0 4.771-1.431 5.725-3.338z" fill="url(#paint1_linear_473_5736)"/><path d="M224.574 247.322h91.612l31.968-31.951h125.011v28.136h230.46v-2.861H475.551V212.51H346.723l-31.969 31.951h-90.18c-.477-1.908-2.385-3.815-4.771-3.815-2.863 0-5.249 2.384-5.249 5.246 0 2.861 2.386 5.245 5.249 5.245 2.386 0 4.294-1.907 4.771-3.815z" fill="url(#paint2_linear_473_5736)"/><path d="M247.003 258.297h74.435l31.968-31.951h108.788v28.136h246.683v-2.861H464.58v-28.136H351.975l-31.969 31.951h-73.48c-.477-1.908-2.385-3.815-4.771-3.815-2.863 0-4.772 2.384-4.772 4.768 0 2.862 2.386 5.246 4.772 5.246 2.863 0 4.771-1.431 5.248-3.338z" fill="url(#paint3_linear_473_5736)"/><path d="M251.296 270.217h74.434l31.968-31.951h92.089v28.136h263.859v-2.861H452.65v-28.136h-95.906l-31.968 31.951h-73.48c-.477-1.907-2.386-3.815-4.772-3.815-2.863 0-4.771 2.384-4.771 4.769 0 2.861 2.386 5.246 4.771 5.246 2.386.476 4.295-.954 4.772-3.339z" fill="url(#paint4_linear_473_5736)"/><path d="M472.69 132.402c0 2.384 1.431 4.292 3.817 4.769v26.228h46.283l31.491-31.474h125.011v28.136h230.46V157.2H681.678v-28.136H552.85l-31.969 31.951h-41.988v-23.844c1.908-.477 3.817-2.385 3.817-4.769 0-2.861-2.386-5.246-4.772-5.246-2.863 0-5.248 2.385-5.248 5.246z" fill="url(#paint5_linear_473_5736)"/><path d="M559.053 140.032l-31.968 31.951h-63.46v-15.26c1.908-.477 3.817-2.384 3.817-4.769 0-2.861-2.386-5.245-5.249-5.245-2.862 0-5.248 2.384-5.248 5.245 0 2.385 1.431 4.292 3.817 4.769v17.645h67.277l31.969-31.951h108.788v28.136h246.683v-2.862H671.182v-28.136H559.053v.477z" fill="url(#paint6_linear_473_5736)"/><path d="M563.348 151.951l-31.969 31.951h-83.5c-.477-1.907-2.385-3.815-4.771-3.815-2.863 0-5.249 2.385-5.249 5.246 0 2.861 2.386 5.245 5.249 5.245 2.386 0 4.294-1.43 4.771-3.815h84.454l31.969-31.951h92.088v28.136h263.86v-2.861H659.253v-28.136h-95.905z" fill="url(#paint7_linear_473_5736)"/><path d="M488.912 203.933v30.52h78.729v-15.737h-44.852c-.477-1.907-2.386-3.815-4.771-3.815-2.863 0-4.772 2.385-4.772 4.769 0 2.861 2.386 5.246 4.772 5.246 2.385 0 4.294-1.431 4.771-3.815h41.989v10.968h-73.48v-25.275h93.997v28.136h225.211v-2.861H588.158v-28.136h-99.246z" fill="url(#paint8_linear_473_5736)"/><path d="M355.313 47.518V71.84h173.203l23.857-25.751h73.957v28.136h120.717c.477 1.907 2.386 3.815 4.771 3.815 2.863 0 4.772-2.385 4.772-5.246 0-2.861-2.386-4.769-4.772-4.769-2.385 0-4.294 1.43-4.771 3.815H628.716V43.703h-77.297l-23.857 25.752H358.176V45.134H232.688l-31.969 31.95h-100.2v2.385h101.154l31.969-31.95h121.671z" fill="url(#paint9_linear_473_5736)"/><path d="M342.904 58.487v28.136h192.288l28.152-28.136h50.099v28.136h177.975c.477 1.908 2.385 3.816 4.771 3.816 2.863 0 5.249-2.385 5.249-5.246 0-2.861-2.386-4.769-5.249-4.769-2.386 0-4.294 1.43-4.771 3.815H616.306V56.103h-53.917L534.238 84.24H345.29V55.626H232.684l-31.969 31.951h-83.022v2.862h83.977l31.968-31.951h109.266z" fill="url(#paint10_linear_473_5736)"/><path d="M136.783 100.925h74.435l31.968-31.951h92.089V97.11h417.022v-2.861h-414.16V66.113h-95.905l-31.969 31.95h-73.48c-.477-1.907-2.385-3.814-4.771-3.814-2.863 0-5.249 2.384-5.249 5.245s2.386 5.246 5.249 5.246c2.386 0 4.294-1.908 4.771-3.815z" fill="url(#paint11_linear_473_5736)"/><path d="M375.833 38.929h131.691l31.491-31.951h125.012v28.136h230.459v-2.862H666.412V4.593H537.584l-31.491 31.951H375.356c-.477-1.907-2.386-3.815-4.772-3.815-2.863 0-4.771 2.385-4.771 5.246 0 2.861 2.386 4.769 4.771 4.769 2.386 0 4.295-1.43 5.249-3.815z" fill="url(#paint12_linear_473_5736)"/><path d="M400.164 43.702c-2.863 0-5.249 2.384-5.249 4.769 0 2.861 2.386 5.245 5.249 5.245 2.386 0 4.294-1.43 4.771-3.815H512.77l31.968-31.95h108.788v28.135h246.683v-2.86H655.912V15.088H543.784L511.815 47.04h-106.88c-.477-1.907-2.385-3.338-4.771-3.338z" fill="url(#paint13_linear_473_5736)"/><path d="M548.078 27.488L516.11 59.439h-85.409c-.477-1.907-2.386-3.815-4.771-3.815-2.863 0-5.249 2.384-5.249 5.246 0 2.86 2.386 5.245 5.249 5.245 2.385 0 4.294-1.43 4.771-3.815h86.363l31.968-32.428h92.089v28.136H904.98v-2.384H643.984V27.488h-95.906z" fill="url(#paint14_linear_473_5736)"/><path d="M400.162 307.413v-48.165c1.908-.477 3.817-2.384 3.817-4.769 0-2.861-2.386-4.769-4.772-4.769-2.863 0-5.248 2.385-5.248 4.769 0 2.385 1.431 4.292 3.817 4.769v51.026h46.283l31.968-31.951h125.011v28.136h230.46v-2.861H603.424v-28.136H474.596l-31.969 31.951h-42.465z" fill="url(#paint15_linear_473_5736)"/><path d="M590.066 289.292v28.136h246.682v-2.861H592.451v-28.136H479.846l-31.969 31.951h-63.46v-39.581c1.909-.477 3.817-2.385 3.817-4.769 0-2.861-2.385-5.246-4.771-5.246-2.863 0-5.249 2.385-5.249 5.246 0 2.384 1.432 4.292 3.818 4.769v42.442h67.277l31.968-31.951h108.789z" fill="url(#paint16_linear_473_5736)"/><path d="M336.226 333.17h117.377l31.968-31.951h92.089v28.136h263.86v-2.862H580.523v-27.659h-95.906l-31.968 31.951H336.226c-.477-1.907-2.386-3.815-4.772-3.815-2.862 0-5.248 2.385-5.248 5.246 0 2.861 2.386 5.246 5.248 5.246 1.909-.477 3.818-1.908 4.772-4.292z" fill="url(#paint17_linear_473_5736)"/></g><defs><linearGradient id="paint0_linear_473_5736" x1="870.229" y1="145.379" x2="-294.279" y2="184.033" gradientUnits="userSpaceOnUse"><stop stop-color="#fff"/><stop offset=".326" stop-color="#B8B7B7"/><stop offset=".656" stop-color="#706E6E"/><stop offset=".778" stop-color="#575454"/><stop offset="1"/></linearGradient><linearGradient id="paint1_linear_473_5736" x1="870.607" y1="156.802" x2="-293.897" y2="195.456" gradientUnits="userSpaceOnUse"><stop stop-color="#fff"/><stop offset=".326" stop-color="#B8B7B7"/><stop offset=".656" stop-color="#706E6E"/><stop offset=".778" stop-color="#575454"/><stop offset="1"/></linearGradient><linearGradient id="paint2_linear_473_5736" x1="-117.775" y1="233.165" x2="1000.75" y2="229.483" gradientUnits="userSpaceOnUse"><stop stop-color="#fff"/><stop offset=".326" stop-color="#B8B7B7"/><stop offset=".656" stop-color="#706E6E"/><stop offset=".778" stop-color="#575454"/><stop offset="1"/></linearGradient><linearGradient id="paint3_linear_473_5736" x1="161.255" y1="240.912" x2="1141.8" y2="250.116" gradientUnits="userSpaceOnUse"><stop stop-color="#fff"/><stop offset=".326" stop-color="#B8B7B7"/><stop offset=".656" stop-color="#706E6E"/><stop offset=".778" stop-color="#575454"/><stop offset="1"/></linearGradient><linearGradient id="paint4_linear_473_5736" x1="161.139" y1="253.073" x2="1141.68" y2="262.276" gradientUnits="userSpaceOnUse"><stop stop-color="#fff"/><stop offset=".326" stop-color="#B8B7B7"/><stop offset=".656" stop-color="#706E6E"/><stop offset=".778" stop-color="#575454"/><stop offset="1"/></linearGradient><linearGradient id="paint5_linear_473_5736" x1="869.974" y1="137.729" x2="-294.543" y2="176.383" gradientUnits="userSpaceOnUse"><stop stop-color="#fff"/><stop offset=".326" stop-color="#B8B7B7"/><stop offset=".656" stop-color="#706E6E"/><stop offset=".778" stop-color="#575454"/><stop offset="1"/></linearGradient><linearGradient id="paint6_linear_473_5736" x1="162.072" y1="153.432" x2="1142.62" y2="162.636" gradientUnits="userSpaceOnUse"><stop stop-color="#fff"/><stop offset=".326" stop-color="#B8B7B7"/><stop offset=".656" stop-color="#706E6E"/><stop offset=".778" stop-color="#575454"/><stop offset="1"/></linearGradient><linearGradient id="paint7_linear_473_5736" x1="161.943" y1="167.538" x2="1142.49" y2="176.741" gradientUnits="userSpaceOnUse"><stop stop-color="#fff"/><stop offset=".326" stop-color="#B8B7B7"/><stop offset=".656" stop-color="#706E6E"/><stop offset=".778" stop-color="#575454"/><stop offset="1"/></linearGradient><linearGradient id="paint8_linear_473_5736" x1="161.487" y1="215.699" x2="1142.04" y2="224.903" gradientUnits="userSpaceOnUse"><stop stop-color="#fff"/><stop offset=".326" stop-color="#B8B7B7"/><stop offset=".656" stop-color="#706E6E"/><stop offset=".778" stop-color="#575454"/><stop offset="1"/></linearGradient><linearGradient id="paint9_linear_473_5736" x1="867.029" y1="48.982" x2="-297.483" y2="87.636" gradientUnits="userSpaceOnUse"><stop stop-color="#fff"/><stop offset=".326" stop-color="#B8B7B7"/><stop offset=".656" stop-color="#706E6E"/><stop offset=".778" stop-color="#575454"/><stop offset="1"/></linearGradient><linearGradient id="paint10_linear_473_5736" x1="867.431" y1="61.197" x2="-297.08" y2="99.851" gradientUnits="userSpaceOnUse"><stop stop-color="#fff"/><stop offset=".326" stop-color="#B8B7B7"/><stop offset=".656" stop-color="#706E6E"/><stop offset=".778" stop-color="#575454"/><stop offset="1"/></linearGradient><linearGradient id="paint11_linear_473_5736" x1="162.718" y1="84.781" x2="1143.27" y2="93.984" gradientUnits="userSpaceOnUse"><stop stop-color="#fff"/><stop offset=".326" stop-color="#B8B7B7"/><stop offset=".656" stop-color="#706E6E"/><stop offset=".778" stop-color="#575454"/><stop offset="1"/></linearGradient><linearGradient id="paint12_linear_473_5736" x1="163.328" y1="20.196" x2="1143.87" y2="29.4" gradientUnits="userSpaceOnUse"><stop stop-color="#fff"/><stop offset=".326" stop-color="#B8B7B7"/><stop offset=".656" stop-color="#706E6E"/><stop offset=".778" stop-color="#575454"/><stop offset="1"/></linearGradient><linearGradient id="paint13_linear_473_5736" x1="-118.421" y1="36.343" x2="1000.1" y2="32.661" gradientUnits="userSpaceOnUse"><stop stop-color="#fff"/><stop offset=".326" stop-color="#B8B7B7"/><stop offset=".656" stop-color="#706E6E"/><stop offset=".778" stop-color="#575454"/><stop offset="1"/></linearGradient><linearGradient id="paint14_linear_473_5736" x1="-118.38" y1="48.516" x2="1000.14" y2="44.834" gradientUnits="userSpaceOnUse"><stop stop-color="#fff"/><stop offset=".326" stop-color="#B8B7B7"/><stop offset=".656" stop-color="#706E6E"/><stop offset=".778" stop-color="#575454"/><stop offset="1"/></linearGradient><linearGradient id="paint15_linear_473_5736" x1="160.902" y1="277.594" x2="1141.45" y2="286.798" gradientUnits="userSpaceOnUse"><stop stop-color="#fff"/><stop offset=".326" stop-color="#B8B7B7"/><stop offset=".656" stop-color="#706E6E"/><stop offset=".778" stop-color="#575454"/><stop offset="1"/></linearGradient><linearGradient id="paint16_linear_473_5736" x1="-117.563" y1="296.777" x2="1000.96" y2="293.096" gradientUnits="userSpaceOnUse"><stop stop-color="#fff"/><stop offset=".326" stop-color="#B8B7B7"/><stop offset=".656" stop-color="#706E6E"/><stop offset=".778" stop-color="#575454"/><stop offset="1"/></linearGradient><linearGradient id="paint17_linear_473_5736" x1="875.591" y1="306.976" x2="-288.922" y2="345.631" gradientUnits="userSpaceOnUse"><stop stop-color="#fff"/><stop offset=".326" stop-color="#B8B7B7"/><stop offset=".656" stop-color="#706E6E"/><stop offset=".778" stop-color="#575454"/><stop offset="1"/></linearGradient><clipPath id="clip0_473_5736"><path fill="#fff" transform="rotate(90 319.5 319.5)" d="M0 0h348v639H0z"/></clipPath></defs></svg>