<svg width="586" height="348" fill="none" xmlns="http://www.w3.org/2000/svg"><g opacity=".14" clip-path="url(#clip0_473_3574)"><path d="M470.688 220.621h-91.134l-31.969-31.951H168.18v-79.162h-334.477v-2.861h336.862v79.162h177.974l31.969 31.951h90.18c.477-1.908 2.386-3.815 4.771-3.815 2.863 0 4.772 2.384 4.772 5.245 0 2.862-2.386 5.246-4.772 5.246-1.908 0-3.817-1.907-4.771-3.815z" fill="url(#paint0_linear_473_3574)"/><path d="M448.264 231.593h-73.958l-31.968-31.951H156.253V120.48h-322.071v-2.862h324.933v79.163h184.654l31.969 31.951h73.48c.477-1.908 2.385-3.815 4.771-3.815 2.863 0 5.249 2.384 5.249 4.768 0 2.862-2.386 5.246-5.249 5.246-2.863 0-4.771-1.431-5.725-3.338z" fill="url(#paint1_linear_473_3574)"/><path d="M361.426 247.322h-91.612l-31.968-31.951H112.835v28.136h-230.46v-2.861h228.074V212.51h128.828l31.969 31.951h90.18c.477-1.908 2.385-3.815 4.771-3.815 2.863 0 5.249 2.384 5.249 5.246 0 2.861-2.386 5.245-5.249 5.245-2.386 0-4.294-1.907-4.771-3.815z" fill="url(#paint2_linear_473_3574)"/><path d="M338.997 258.297h-74.435l-31.968-31.951H123.806v28.136h-246.683v-2.861H121.42v-28.136h112.605l31.969 31.951h73.48c.477-1.908 2.385-3.815 4.771-3.815 2.863 0 4.772 2.384 4.772 4.768 0 2.862-2.386 5.246-4.772 5.246-2.863 0-4.771-1.431-5.248-3.338z" fill="url(#paint3_linear_473_3574)"/><path d="M334.704 270.217H260.27l-31.968-31.951h-92.089v28.136h-263.859v-2.861H133.35v-28.136h95.906l31.968 31.951h73.48c.477-1.907 2.386-3.815 4.772-3.815 2.863 0 4.771 2.384 4.771 4.769 0 2.861-2.386 5.246-4.771 5.246-2.386.476-4.295-.954-4.772-3.339z" fill="url(#paint4_linear_473_3574)"/><path d="M113.31 132.402c0 2.384-1.431 4.292-3.817 4.769v26.228H63.21l-31.49-31.474H-93.292v28.136h-230.46V157.2h228.074v-28.136H33.15l31.969 31.951h41.988v-23.844c-1.908-.477-3.817-2.385-3.817-4.769 0-2.861 2.386-5.246 4.772-5.246 2.863 0 5.248 2.385 5.248 5.246z" fill="url(#paint5_linear_473_3574)"/><path d="M26.947 140.032l31.968 31.951h63.46v-15.26c-1.908-.477-3.817-2.384-3.817-4.769 0-2.861 2.386-5.245 5.249-5.245 2.862 0 5.248 2.384 5.248 5.245 0 2.385-1.431 4.292-3.817 4.769v17.645H57.961l-31.969-31.951H-82.796v28.136h-246.683v-2.862h244.297v-28.136H26.947v.477z" fill="url(#paint6_linear_473_3574)"/><path d="M22.652 151.951l31.969 31.951h83.5c.477-1.907 2.385-3.815 4.771-3.815 2.863 0 5.249 2.385 5.249 5.246 0 2.861-2.386 5.245-5.249 5.245-2.386 0-4.294-1.43-4.771-3.815H53.667l-31.969-31.951H-70.39v28.136h-263.86v-2.861h260.997v-28.136h95.905z" fill="url(#paint7_linear_473_3574)"/><path d="M-.726 168.163c.477-1.908 2.385-3.815 4.771-3.815 2.863 0 5.249 2.384 5.249 5.245 0 2.862-2.386 4.769-5.249 4.769-2.386 0-4.294-1.431-4.771-3.815h-55.826v28.136h-230.46v-2.861h228.074v-28.136H-.726v.477z" fill="url(#paint8_linear_473_3574)"/><path d="M15.972 178.661c.477-1.907 2.386-3.815 4.772-3.815 2.862 0 5.248 2.385 5.248 5.246 0 2.861-2.386 5.246-5.248 5.246-2.386 0-4.295-1.431-4.772-3.815h-61.551v28.136h-246.683v-2.862h244.297v-28.136h63.937z" fill="url(#paint9_linear_473_3574)"/><path d="M27.9 191.057c.478-1.907 2.386-3.815 4.772-3.815 2.863 0 4.771 2.385 4.771 5.246 0 2.861-2.385 5.246-4.771 5.246s-4.294-1.431-4.771-3.815h-61.075v28.136h-263.859v-2.862h260.997v-28.136H27.9z" fill="url(#paint10_linear_473_3574)"/><path d="M97.088 203.933v30.52H18.36v-15.737h44.85c.478-1.907 2.387-3.815 4.772-3.815 2.863 0 4.772 2.385 4.772 4.769 0 2.861-2.386 5.246-4.772 5.246-2.385 0-4.294-1.431-4.771-3.815H21.222v10.968h73.48v-25.275H.705v28.136h-225.211v-2.861H-2.158v-28.136h99.246z" fill="url(#paint11_linear_473_3574)"/><path d="M230.687 47.518V71.84H57.484L33.627 46.088H-40.33v28.136h-120.717c-.477 1.907-2.386 3.815-4.771 3.815-2.863 0-4.772-2.385-4.772-5.246 0-2.861 2.386-4.769 4.772-4.769 2.385 0 4.294 1.43 4.771 3.815h118.331V43.703h77.297l23.857 25.752h169.386V45.134h125.488l31.969 31.95h100.2v2.385H384.327l-31.969-31.95H230.687z" fill="url(#paint12_linear_473_3574)"/><path d="M243.096 58.487v28.136H50.808L22.656 58.487h-50.1v28.136h-177.974c-.477 1.908-2.385 3.816-4.771 3.816-2.863 0-5.249-2.385-5.249-5.246 0-2.861 2.386-4.769 5.249-4.769 2.386 0 4.294 1.43 4.771 3.815h175.112V56.103H23.61L51.762 84.24H240.71V55.626h112.606l31.969 31.951h83.022v2.862H384.33l-31.968-31.951H243.096z" fill="url(#paint13_linear_473_3574)"/><path d="M449.217 100.925h-74.435l-31.968-31.951h-92.089V97.11h-417.022v-2.861h414.16V66.113h95.905l31.969 31.95h73.48c.477-1.907 2.385-3.814 4.771-3.814 2.863 0 5.249 2.384 5.249 5.245s-2.386 5.246-5.249 5.246c-2.386 0-4.294-1.908-4.771-3.815z" fill="url(#paint14_linear_473_3574)"/><path d="M210.167 38.929H78.476L46.984 6.978h-125.01v28.136h-230.46v-2.862h228.074V4.593H48.416l31.491 31.951h130.737c.477-1.907 2.386-3.815 4.772-3.815 2.863 0 4.771 2.385 4.771 5.246 0 2.861-2.386 4.769-4.771 4.769-2.386 0-4.295-1.43-5.249-3.815z" fill="url(#paint15_linear_473_3574)"/><path d="M185.836 43.702c2.863 0 5.249 2.384 5.249 4.769 0 2.861-2.386 5.245-5.249 5.245-2.386 0-4.294-1.43-4.771-3.815H73.231l-31.97-31.95H-67.525v28.135H-314.21v-2.86h244.297V15.088H42.216L74.185 47.04h106.88c.477-1.907 2.385-3.338 4.771-3.338z" fill="url(#paint16_linear_473_3574)"/><path d="M37.922 27.488L69.89 59.439h85.41c.477-1.907 2.386-3.815 4.771-3.815 2.863 0 5.249 2.384 5.249 5.246 0 2.86-2.386 5.245-5.249 5.245-2.385 0-4.294-1.43-4.771-3.815H68.936L36.968 29.872h-92.089v28.136H-318.98v-2.384h260.996V27.488h95.906z" fill="url(#paint17_linear_473_3574)"/><path d="M185.838 307.413v-48.165c-1.908-.477-3.817-2.384-3.817-4.769 0-2.861 2.386-4.769 4.772-4.769 2.863 0 5.248 2.385 5.248 4.769 0 2.385-1.431 4.292-3.817 4.769v51.026h-46.283l-31.968-31.951H-15.038v28.136h-230.46v-2.861h228.074v-28.136h128.828l31.969 31.951h42.465z" fill="url(#paint18_linear_473_3574)"/><path d="M-4.066 289.292v28.136h-246.682v-2.861H-6.451v-28.136h112.605l31.969 31.951h63.46v-39.581c-1.909-.477-3.817-2.385-3.817-4.769 0-2.861 2.385-5.246 4.771-5.246 2.863 0 5.249 2.385 5.249 5.246 0 2.384-1.432 4.292-3.818 4.769v42.442h-67.277l-31.968-31.951H-4.066z" fill="url(#paint19_linear_473_3574)"/><path d="M249.774 333.17H132.397l-31.968-31.951H8.34v28.136h-263.86v-2.862H5.477v-27.659h95.906l31.968 31.951h116.423c.477-1.907 2.386-3.815 4.772-3.815 2.862 0 5.248 2.385 5.248 5.246 0 2.861-2.386 5.246-5.248 5.246-1.909-.477-3.818-1.908-4.772-4.292z" fill="url(#paint20_linear_473_3574)"/></g><defs><linearGradient id="paint0_linear_473_3574" x1="-284.229" y1="145.379" x2="880.279" y2="184.033" gradientUnits="userSpaceOnUse"><stop stop-color="#fff"/><stop offset=".326" stop-color="#B8B7B7"/><stop offset=".656" stop-color="#706E6E"/><stop offset=".778" stop-color="#575454"/><stop offset="1"/></linearGradient><linearGradient id="paint1_linear_473_3574" x1="-284.607" y1="156.802" x2="879.897" y2="195.456" gradientUnits="userSpaceOnUse"><stop stop-color="#fff"/><stop offset=".326" stop-color="#B8B7B7"/><stop offset=".656" stop-color="#706E6E"/><stop offset=".778" stop-color="#575454"/><stop offset="1"/></linearGradient><linearGradient id="paint2_linear_473_3574" x1="703.775" y1="233.165" x2="-414.748" y2="229.483" gradientUnits="userSpaceOnUse"><stop stop-color="#fff"/><stop offset=".326" stop-color="#B8B7B7"/><stop offset=".656" stop-color="#706E6E"/><stop offset=".778" stop-color="#575454"/><stop offset="1"/></linearGradient><linearGradient id="paint3_linear_473_3574" x1="424.745" y1="240.912" x2="-555.798" y2="250.116" gradientUnits="userSpaceOnUse"><stop stop-color="#fff"/><stop offset=".326" stop-color="#B8B7B7"/><stop offset=".656" stop-color="#706E6E"/><stop offset=".778" stop-color="#575454"/><stop offset="1"/></linearGradient><linearGradient id="paint4_linear_473_3574" x1="424.861" y1="253.073" x2="-555.682" y2="262.276" gradientUnits="userSpaceOnUse"><stop stop-color="#fff"/><stop offset=".326" stop-color="#B8B7B7"/><stop offset=".656" stop-color="#706E6E"/><stop offset=".778" stop-color="#575454"/><stop offset="1"/></linearGradient><linearGradient id="paint5_linear_473_3574" x1="-283.974" y1="137.729" x2="880.543" y2="176.383" gradientUnits="userSpaceOnUse"><stop stop-color="#fff"/><stop offset=".326" stop-color="#B8B7B7"/><stop offset=".656" stop-color="#706E6E"/><stop offset=".778" stop-color="#575454"/><stop offset="1"/></linearGradient><linearGradient id="paint6_linear_473_3574" x1="423.928" y1="153.432" x2="-556.621" y2="162.636" gradientUnits="userSpaceOnUse"><stop stop-color="#fff"/><stop offset=".326" stop-color="#B8B7B7"/><stop offset=".656" stop-color="#706E6E"/><stop offset=".778" stop-color="#575454"/><stop offset="1"/></linearGradient><linearGradient id="paint7_linear_473_3574" x1="424.057" y1="167.538" x2="-556.49" y2="176.741" gradientUnits="userSpaceOnUse"><stop stop-color="#fff"/><stop offset=".326" stop-color="#B8B7B7"/><stop offset=".656" stop-color="#706E6E"/><stop offset=".778" stop-color="#575454"/><stop offset="1"/></linearGradient><linearGradient id="paint8_linear_473_3574" x1="424.154" y1="177.295" x2="-556.396" y2="186.499" gradientUnits="userSpaceOnUse"><stop stop-color="#fff"/><stop offset=".326" stop-color="#B8B7B7"/><stop offset=".656" stop-color="#706E6E"/><stop offset=".778" stop-color="#575454"/><stop offset="1"/></linearGradient><linearGradient id="paint9_linear_473_3574" x1="424.258" y1="188.293" x2="-556.3" y2="197.497" gradientUnits="userSpaceOnUse"><stop stop-color="#fff"/><stop offset=".326" stop-color="#B8B7B7"/><stop offset=".656" stop-color="#706E6E"/><stop offset=".778" stop-color="#575454"/><stop offset="1"/></linearGradient><linearGradient id="paint10_linear_473_3574" x1="-286.021" y1="199.405" x2="878.482" y2="238.059" gradientUnits="userSpaceOnUse"><stop stop-color="#fff"/><stop offset=".326" stop-color="#B8B7B7"/><stop offset=".656" stop-color="#706E6E"/><stop offset=".778" stop-color="#575454"/><stop offset="1"/></linearGradient><linearGradient id="paint11_linear_473_3574" x1="424.513" y1="215.699" x2="-556.036" y2="224.903" gradientUnits="userSpaceOnUse"><stop stop-color="#fff"/><stop offset=".326" stop-color="#B8B7B7"/><stop offset=".656" stop-color="#706E6E"/><stop offset=".778" stop-color="#575454"/><stop offset="1"/></linearGradient><linearGradient id="paint12_linear_473_3574" x1="-281.029" y1="48.982" x2="883.483" y2="87.636" gradientUnits="userSpaceOnUse"><stop stop-color="#fff"/><stop offset=".326" stop-color="#B8B7B7"/><stop offset=".656" stop-color="#706E6E"/><stop offset=".778" stop-color="#575454"/><stop offset="1"/></linearGradient><linearGradient id="paint13_linear_473_3574" x1="-281.431" y1="61.197" x2="883.08" y2="99.851" gradientUnits="userSpaceOnUse"><stop stop-color="#fff"/><stop offset=".326" stop-color="#B8B7B7"/><stop offset=".656" stop-color="#706E6E"/><stop offset=".778" stop-color="#575454"/><stop offset="1"/></linearGradient><linearGradient id="paint14_linear_473_3574" x1="423.282" y1="84.781" x2="-557.266" y2="93.984" gradientUnits="userSpaceOnUse"><stop stop-color="#fff"/><stop offset=".326" stop-color="#B8B7B7"/><stop offset=".656" stop-color="#706E6E"/><stop offset=".778" stop-color="#575454"/><stop offset="1"/></linearGradient><linearGradient id="paint15_linear_473_3574" x1="422.672" y1="20.196" x2="-557.869" y2="29.4" gradientUnits="userSpaceOnUse"><stop stop-color="#fff"/><stop offset=".326" stop-color="#B8B7B7"/><stop offset=".656" stop-color="#706E6E"/><stop offset=".778" stop-color="#575454"/><stop offset="1"/></linearGradient><linearGradient id="paint16_linear_473_3574" x1="704.421" y1="36.343" x2="-414.102" y2="32.661" gradientUnits="userSpaceOnUse"><stop stop-color="#fff"/><stop offset=".326" stop-color="#B8B7B7"/><stop offset=".656" stop-color="#706E6E"/><stop offset=".778" stop-color="#575454"/><stop offset="1"/></linearGradient><linearGradient id="paint17_linear_473_3574" x1="704.38" y1="48.516" x2="-414.142" y2="44.834" gradientUnits="userSpaceOnUse"><stop stop-color="#fff"/><stop offset=".326" stop-color="#B8B7B7"/><stop offset=".656" stop-color="#706E6E"/><stop offset=".778" stop-color="#575454"/><stop offset="1"/></linearGradient><linearGradient id="paint18_linear_473_3574" x1="425.098" y1="277.594" x2="-555.452" y2="286.798" gradientUnits="userSpaceOnUse"><stop stop-color="#fff"/><stop offset=".326" stop-color="#B8B7B7"/><stop offset=".656" stop-color="#706E6E"/><stop offset=".778" stop-color="#575454"/><stop offset="1"/></linearGradient><linearGradient id="paint19_linear_473_3574" x1="703.563" y1="296.777" x2="-414.961" y2="293.096" gradientUnits="userSpaceOnUse"><stop stop-color="#fff"/><stop offset=".326" stop-color="#B8B7B7"/><stop offset=".656" stop-color="#706E6E"/><stop offset=".778" stop-color="#575454"/><stop offset="1"/></linearGradient><linearGradient id="paint20_linear_473_3574" x1="-289.591" y1="306.976" x2="874.922" y2="345.631" gradientUnits="userSpaceOnUse"><stop stop-color="#fff"/><stop offset=".326" stop-color="#B8B7B7"/><stop offset=".656" stop-color="#706E6E"/><stop offset=".778" stop-color="#575454"/><stop offset="1"/></linearGradient><clipPath id="clip0_473_3574"><path fill="#fff" transform="matrix(0 1 1 0 -53 0)" d="M0 0h348v639H0z"/></clipPath></defs></svg>