<svg width="45" height="188" fill="none" xmlns="http://www.w3.org/2000/svg"><path d="M22.499 114.629c11.414 0 20.7-9.287 20.7-20.7 0-11.414-9.286-20.7-20.7-20.7s-20.7 9.286-20.7 20.7c0 11.413 9.286 20.7 20.7 20.7zm0-40.5c10.918 0 19.8 8.882 19.8 19.8 0 10.918-8.882 19.8-19.8 19.8-10.918 0-19.8-8.882-19.8-19.8 0-10.918 8.882-19.8 19.8-19.8z" fill="#727272"/><path d="M38.698 94.379h1.593a.45.45 0 100-.9h-1.593a.45.45 0 100 .9zm-32.399-.9H4.706a.45.45 0 100 .9h1.593a.45.45 0 100-.9zm16.2-15.3a.45.45 0 00.45-.45v-1.593a.45.45 0 10-.9 0v1.593c0 .248.201.45.45.45zm0 33.993a.45.45 0 00.45-.45v-1.593a.45.45 0 10-.9 0v1.593c0 .248.201.45.45.45zm11.457-29.25c.115 0 .23-.044.318-.132l1.125-1.125a.45.45 0 10-.636-.637l-1.125 1.125a.45.45 0 00.318.769zM9.917 106.961c.115 0 .23-.044.318-.132l1.125-1.125a.45.45 0 10-.636-.636l-1.125 1.125a.45.45 0 00.318.768zm.807-24.171a.448.448 0 00.636 0 .45.45 0 000-.637l-1.125-1.125a.45.45 0 10-.636.637l1.125 1.125zm24.039 24.039a.448.448 0 00.636 0 .449.449 0 000-.636l-1.125-1.125a.45.45 0 10-.636.636l1.125 1.125zm-7.61-7.61a.449.449 0 00.636 0 .45.45 0 000-.636l-4.84-4.84V81.908a.45.45 0 10-.9 0v12.02c0 .119.047.234.132.318l4.972 4.972z" fill="#727272"/><path stroke="#EBEFF2" stroke-width="3" d="M21.357 187.857v-61.428m0-65V0"/></svg>