<svg width="368" height="206" viewBox="0 0 368 206" fill="none" xmlns="http://www.w3.org/2000/svg">
<path d="M308.61 130.597H254.56L235.6 111.684H129.198V64.8236H-69.1738V63.1299H130.613V109.99H236.166L255.126 128.904H308.61C308.893 127.775 310.025 126.645 311.44 126.645C313.138 126.645 314.27 128.057 314.27 129.751C314.27 131.444 312.855 132.856 311.44 132.856C310.308 132.856 309.176 131.727 308.61 130.597Z" fill="url(#paint0_linear_337_8149)"/>
<path d="M295.31 137.092H251.447L232.488 118.179H122.124V71.3184H-68.8906V69.6246H123.822V116.485H233.336L252.296 135.399H295.876C296.159 134.269 297.291 133.14 298.706 133.14C300.404 133.14 301.819 134.552 301.819 135.963C301.819 137.657 300.404 139.068 298.706 139.068C297.008 139.068 295.876 138.221 295.31 137.092Z" fill="url(#paint1_linear_337_8149)"/>
<path d="M243.808 146.403H189.475L170.515 127.49H96.3728V144.145H-40.3086V142.451H94.9579V125.796H171.364L190.324 144.71H243.808C244.091 143.58 245.222 142.451 246.637 142.451C248.335 142.451 249.75 143.863 249.75 145.557C249.75 147.25 248.335 148.662 246.637 148.662C245.222 148.662 244.091 147.533 243.808 146.403Z" fill="url(#paint2_linear_337_8149)"/>
<path d="M230.507 152.9H186.361L167.401 133.986H102.881V150.641H-43.4219V148.948H101.466V132.292H168.25L187.21 151.206H230.79C231.073 150.077 232.205 148.948 233.62 148.948C235.318 148.948 236.449 150.359 236.449 151.771C236.449 153.464 235.035 154.876 233.62 154.876C231.922 154.876 230.79 154.029 230.507 152.9Z" fill="url(#paint3_linear_337_8149)"/>
<path d="M227.96 159.956H183.814L164.854 141.043H110.238V157.698H-46.252V156.004H108.54V139.349H165.42L184.38 158.263H227.96C228.243 157.133 229.375 156.004 230.79 156.004C232.487 156.004 233.619 157.416 233.619 158.827C233.619 160.521 232.204 161.932 230.79 161.932C229.375 162.215 228.243 161.368 227.96 159.956Z" fill="url(#paint4_linear_337_8149)"/>
<path d="M96.6568 78.376C96.6568 79.7874 95.8079 80.9166 94.393 81.1989V96.7249H66.9435L48.2665 78.0937H-25.8753V94.7489H-162.557V93.0551H-27.2902V76.3999H49.1155L68.0754 95.3134H92.9781V81.1989C91.8461 80.9166 90.7142 79.7874 90.7142 78.376C90.7142 76.6822 92.1291 75.2708 93.544 75.2708C95.2419 75.2708 96.6568 76.6822 96.6568 78.376Z" fill="url(#paint5_linear_337_8149)"/>
<path d="M45.436 82.8926L64.396 101.806H102.033V92.7728C100.901 92.4905 99.769 91.3614 99.769 89.9499C99.769 88.2562 101.184 86.8447 102.882 86.8447C104.58 86.8447 105.995 88.2562 105.995 89.9499C105.995 91.3614 105.146 92.4905 103.731 92.7728V103.218H63.83L44.87 84.3041H-19.6503V100.959H-165.953V99.2655H-21.0653V82.6104H45.436V82.8926Z" fill="url(#paint6_linear_337_8149)"/>
<path d="M42.8889 89.948L61.8489 108.862H111.371C111.654 107.732 112.786 106.603 114.201 106.603C115.899 106.603 117.314 108.015 117.314 109.708C117.314 111.402 115.899 112.814 114.201 112.814C112.786 112.814 111.654 111.967 111.371 110.555H61.2829L42.323 91.6417H-12.293V108.297H-168.783V106.603H-13.9909V89.948H42.8889Z" fill="url(#paint7_linear_337_8149)"/>
<path d="M29.0229 99.5445C29.3059 98.4153 30.4378 97.2861 31.8527 97.2861C33.5506 97.2861 34.9656 98.6976 34.9656 100.391C34.9656 102.085 33.5506 103.214 31.8527 103.214C30.4378 103.214 29.3059 102.367 29.0229 100.956H-4.08624V117.611H-140.768V115.917H-5.50115V99.2622H29.0229V99.5445Z" fill="url(#paint8_linear_337_8149)"/>
<path d="M38.9269 105.759C39.2099 104.63 40.3418 103.501 41.7567 103.501C43.4546 103.501 44.8696 104.912 44.8696 106.606C44.8696 108.3 43.4546 109.711 41.7567 109.711C40.3418 109.711 39.2099 108.864 38.9269 107.453H2.42194V124.108H-143.881V122.414H1.00703V105.759H38.9269Z" fill="url(#paint9_linear_337_8149)"/>
<path d="M46.0013 113.097C46.2843 111.968 47.4162 110.839 48.8311 110.839C50.529 110.839 51.661 112.25 51.661 113.944C51.661 115.638 50.246 117.049 48.8311 117.049C47.4162 117.049 46.2843 116.202 46.0013 114.791H9.77932V131.446H-146.711V129.752H8.08141V113.097H46.0013Z" fill="url(#paint10_linear_337_8149)"/>
<path d="M87.034 120.719V138.786H40.3417V129.47H66.9422C67.2251 128.341 68.3571 127.212 69.772 127.212C71.4699 127.212 72.6019 128.623 72.6019 130.035C72.6019 131.728 71.1869 133.14 69.772 133.14C68.3571 133.14 67.2251 132.293 66.9422 130.881H42.0396V137.374H85.6191V122.413H29.8713V139.068H-103.697V137.374H28.1733V120.719H87.034Z" fill="url(#paint11_linear_337_8149)"/>
<path d="M166.269 28.1286V42.5254H63.5457L49.3965 27.2817H5.53398V43.9369H-66.061C-66.344 45.066 -67.4759 46.1952 -68.8909 46.1952C-70.5888 46.1952 -71.7207 44.7838 -71.7207 43.09C-71.7207 41.3963 -70.3058 40.2671 -68.8909 40.2671C-67.4759 40.2671 -66.344 41.114 -66.061 42.5254H4.11906V25.8702H49.9625L64.1117 41.114H164.571V26.7171H238.996L257.956 45.6306H317.383V47.0421H257.39L238.43 28.1286H166.269Z" fill="url(#paint12_linear_337_8149)"/>
<path d="M173.627 34.6218V51.277H59.5849L42.8888 34.6218H13.1755V51.277H-92.3776C-92.6606 52.4062 -93.7926 53.5354 -95.2075 53.5354C-96.9054 53.5354 -98.3203 52.1239 -98.3203 50.4302C-98.3203 48.7364 -96.9054 47.6072 -95.2075 47.6072C-93.7926 47.6072 -92.6606 48.4541 -92.3776 49.8656H11.4776V33.2104H43.4548L60.1508 49.8656H172.213V32.9281H238.997L257.957 51.8416H307.196V53.5354H257.391L238.431 34.6218H173.627Z" fill="url(#paint13_linear_337_8149)"/>
<path d="M295.876 59.7428H251.73L232.77 40.8292H178.154V57.4844H-69.1738V55.7907H176.456V39.1355H233.336L252.296 58.049H295.876C296.159 56.9198 297.291 55.7907 298.706 55.7907C300.403 55.7907 301.818 57.2021 301.818 58.8959C301.818 60.5896 300.403 62.0011 298.706 62.0011C297.291 62.0011 296.159 60.8719 295.876 59.7428Z" fill="url(#paint14_linear_337_8149)"/>
<path d="M154.1 23.044H75.9962L57.3193 4.13045H-16.8225V20.7856H-153.504V19.0919H-18.2375V2.71899H58.1682L76.8452 21.6325H154.383C154.666 20.5033 155.798 19.3742 157.213 19.3742C158.911 19.3742 160.043 20.7856 160.043 22.4794C160.043 24.1731 158.628 25.3023 157.213 25.3023C155.798 25.3023 154.666 24.4554 154.1 23.044Z" fill="url(#paint15_linear_337_8149)"/>
<path d="M139.669 25.8695C141.367 25.8695 142.782 27.2809 142.782 28.6924C142.782 30.3861 141.367 31.7976 139.669 31.7976C138.254 31.7976 137.122 30.9507 136.839 29.5393H72.8847L53.9247 10.6258H-10.5956V27.2809H-156.898V25.5872H-12.0105V8.93201H54.4907L73.4507 27.8455H136.839C137.122 26.7164 138.254 25.8695 139.669 25.8695Z" fill="url(#paint16_linear_337_8149)"/>
<path d="M51.9436 16.2716L70.9036 35.1851H121.558C121.841 34.056 122.973 32.9268 124.388 32.9268C126.085 32.9268 127.5 34.3383 127.5 36.032C127.5 37.7257 126.085 39.1372 124.388 39.1372C122.973 39.1372 121.841 38.2903 121.558 36.8789H70.3376L51.3777 17.6831H-3.23828V34.3382H-159.729V32.9268H-4.93618V16.2716H51.9436Z" fill="url(#paint17_linear_337_8149)"/>
<path d="M139.669 181.974V153.463C138.537 153.18 137.405 152.051 137.405 150.64C137.405 148.946 138.82 147.817 140.235 147.817C141.933 147.817 143.348 149.228 143.348 150.64C143.348 152.051 142.499 153.18 141.084 153.463V183.668H113.635L94.6747 164.754H20.5329V181.41H-116.148V179.716H19.118V163.061H95.5237L114.484 181.974H139.669Z" fill="url(#paint18_linear_337_8149)"/>
<path d="M27.043 171.248V187.903H-119.26V186.209H25.6281V169.554H92.4124L111.372 188.467H149.009V165.037C147.877 164.755 146.745 163.626 146.745 162.214C146.745 160.521 148.16 159.109 149.575 159.109C151.273 159.109 152.688 160.521 152.688 162.214C152.688 163.626 151.839 164.755 150.424 165.037V190.161H110.523L91.5634 171.248H27.043Z" fill="url(#paint19_linear_337_8149)"/>
<path d="M177.59 197.221H107.976L89.0163 178.308H34.4004V194.963H-122.09V193.269H32.7025V176.896H89.5823L108.542 195.81H177.59C177.873 194.68 179.005 193.551 180.42 193.551C182.118 193.551 183.533 194.963 183.533 196.657C183.533 198.35 182.118 199.762 180.42 199.762C179.288 199.479 178.156 198.633 177.59 197.221Z" fill="url(#paint20_linear_337_8149)"/>
<defs>
<linearGradient id="paint0_linear_337_8149" x1="-139.117" y1="86.0578" x2="551.528" y2="109.026" gradientUnits="userSpaceOnUse">
<stop stop-color="white"/>
<stop offset="0.3255" stop-color="#B8B7B7"/>
<stop offset="0.6557" stop-color="#706E6E"/>
<stop offset="0.7783" stop-color="#575454"/>
<stop offset="1"/>
</linearGradient>
<linearGradient id="paint1_linear_337_8149" x1="-139.342" y1="92.8197" x2="551.301" y2="115.788" gradientUnits="userSpaceOnUse">
<stop stop-color="white"/>
<stop offset="0.3255" stop-color="#B8B7B7"/>
<stop offset="0.6557" stop-color="#706E6E"/>
<stop offset="0.7783" stop-color="#575454"/>
<stop offset="1"/>
</linearGradient>
<linearGradient id="paint2_linear_337_8149" x1="446.849" y1="138.023" x2="-216.527" y2="135.835" gradientUnits="userSpaceOnUse">
<stop stop-color="white"/>
<stop offset="0.3255" stop-color="#B8B7B7"/>
<stop offset="0.6557" stop-color="#706E6E"/>
<stop offset="0.7783" stop-color="#575454"/>
<stop offset="1"/>
</linearGradient>
<linearGradient id="paint3_linear_337_8149" x1="281.362" y1="142.609" x2="-300.179" y2="148.078" gradientUnits="userSpaceOnUse">
<stop stop-color="white"/>
<stop offset="0.3255" stop-color="#B8B7B7"/>
<stop offset="0.6557" stop-color="#706E6E"/>
<stop offset="0.7783" stop-color="#575454"/>
<stop offset="1"/>
</linearGradient>
<linearGradient id="paint4_linear_337_8149" x1="281.43" y1="149.807" x2="-300.112" y2="155.276" gradientUnits="userSpaceOnUse">
<stop stop-color="white"/>
<stop offset="0.3255" stop-color="#B8B7B7"/>
<stop offset="0.6557" stop-color="#706E6E"/>
<stop offset="0.7783" stop-color="#575454"/>
<stop offset="1"/>
</linearGradient>
<linearGradient id="paint5_linear_337_8149" x1="-138.965" y1="81.5292" x2="551.686" y2="104.498" gradientUnits="userSpaceOnUse">
<stop stop-color="white"/>
<stop offset="0.3255" stop-color="#B8B7B7"/>
<stop offset="0.6557" stop-color="#706E6E"/>
<stop offset="0.7783" stop-color="#575454"/>
<stop offset="1"/>
</linearGradient>
<linearGradient id="paint6_linear_337_8149" x1="280.879" y1="90.8245" x2="-300.667" y2="96.2938" gradientUnits="userSpaceOnUse">
<stop stop-color="white"/>
<stop offset="0.3255" stop-color="#B8B7B7"/>
<stop offset="0.6557" stop-color="#706E6E"/>
<stop offset="0.7783" stop-color="#575454"/>
<stop offset="1"/>
</linearGradient>
<linearGradient id="paint7_linear_337_8149" x1="280.955" y1="99.1744" x2="-300.59" y2="104.643" gradientUnits="userSpaceOnUse">
<stop stop-color="white"/>
<stop offset="0.3255" stop-color="#B8B7B7"/>
<stop offset="0.6557" stop-color="#706E6E"/>
<stop offset="0.7783" stop-color="#575454"/>
<stop offset="1"/>
</linearGradient>
<linearGradient id="paint8_linear_337_8149" x1="281.012" y1="104.951" x2="-300.534" y2="110.42" gradientUnits="userSpaceOnUse">
<stop stop-color="white"/>
<stop offset="0.3255" stop-color="#B8B7B7"/>
<stop offset="0.6557" stop-color="#706E6E"/>
<stop offset="0.7783" stop-color="#575454"/>
<stop offset="1"/>
</linearGradient>
<linearGradient id="paint9_linear_337_8149" x1="281.074" y1="111.461" x2="-300.477" y2="116.93" gradientUnits="userSpaceOnUse">
<stop stop-color="white"/>
<stop offset="0.3255" stop-color="#B8B7B7"/>
<stop offset="0.6557" stop-color="#706E6E"/>
<stop offset="0.7783" stop-color="#575454"/>
<stop offset="1"/>
</linearGradient>
<linearGradient id="paint10_linear_337_8149" x1="-140.18" y1="118.039" x2="550.462" y2="141.007" gradientUnits="userSpaceOnUse">
<stop stop-color="white"/>
<stop offset="0.3255" stop-color="#B8B7B7"/>
<stop offset="0.6557" stop-color="#706E6E"/>
<stop offset="0.7783" stop-color="#575454"/>
<stop offset="1"/>
</linearGradient>
<linearGradient id="paint11_linear_337_8149" x1="281.224" y1="127.684" x2="-300.321" y2="133.153" gradientUnits="userSpaceOnUse">
<stop stop-color="white"/>
<stop offset="0.3255" stop-color="#B8B7B7"/>
<stop offset="0.6557" stop-color="#706E6E"/>
<stop offset="0.7783" stop-color="#575454"/>
<stop offset="1"/>
</linearGradient>
<linearGradient id="paint12_linear_337_8149" x1="-137.22" y1="28.9949" x2="553.427" y2="51.9634" gradientUnits="userSpaceOnUse">
<stop stop-color="white"/>
<stop offset="0.3255" stop-color="#B8B7B7"/>
<stop offset="0.6557" stop-color="#706E6E"/>
<stop offset="0.7783" stop-color="#575454"/>
<stop offset="1"/>
</linearGradient>
<linearGradient id="paint13_linear_337_8149" x1="-137.46" y1="36.2255" x2="553.187" y2="59.1943" gradientUnits="userSpaceOnUse">
<stop stop-color="white"/>
<stop offset="0.3255" stop-color="#B8B7B7"/>
<stop offset="0.6557" stop-color="#706E6E"/>
<stop offset="0.7783" stop-color="#575454"/>
<stop offset="1"/>
</linearGradient>
<linearGradient id="paint14_linear_337_8149" x1="280.494" y1="50.1861" x2="-301.05" y2="55.6551" gradientUnits="userSpaceOnUse">
<stop stop-color="white"/>
<stop offset="0.3255" stop-color="#B8B7B7"/>
<stop offset="0.6557" stop-color="#706E6E"/>
<stop offset="0.7783" stop-color="#575454"/>
<stop offset="1"/>
</linearGradient>
<linearGradient id="paint15_linear_337_8149" x1="280.133" y1="11.9553" x2="-301.408" y2="17.4243" gradientUnits="userSpaceOnUse">
<stop stop-color="white"/>
<stop offset="0.3255" stop-color="#B8B7B7"/>
<stop offset="0.6557" stop-color="#706E6E"/>
<stop offset="0.7783" stop-color="#575454"/>
<stop offset="1"/>
</linearGradient>
<linearGradient id="paint16_linear_337_8149" x1="447.232" y1="21.5132" x2="-216.143" y2="19.3254" gradientUnits="userSpaceOnUse">
<stop stop-color="white"/>
<stop offset="0.3255" stop-color="#B8B7B7"/>
<stop offset="0.6557" stop-color="#706E6E"/>
<stop offset="0.7783" stop-color="#575454"/>
<stop offset="1"/>
</linearGradient>
<linearGradient id="paint17_linear_337_8149" x1="447.207" y1="28.7192" x2="-216.167" y2="26.5315" gradientUnits="userSpaceOnUse">
<stop stop-color="white"/>
<stop offset="0.3255" stop-color="#B8B7B7"/>
<stop offset="0.6557" stop-color="#706E6E"/>
<stop offset="0.7783" stop-color="#575454"/>
<stop offset="1"/>
</linearGradient>
<linearGradient id="paint18_linear_337_8149" x1="281.569" y1="164.323" x2="-299.976" y2="169.792" gradientUnits="userSpaceOnUse">
<stop stop-color="white"/>
<stop offset="0.3255" stop-color="#B8B7B7"/>
<stop offset="0.6557" stop-color="#706E6E"/>
<stop offset="0.7783" stop-color="#575454"/>
<stop offset="1"/>
</linearGradient>
<linearGradient id="paint19_linear_337_8149" x1="446.725" y1="175.678" x2="-216.652" y2="173.491" gradientUnits="userSpaceOnUse">
<stop stop-color="white"/>
<stop offset="0.3255" stop-color="#B8B7B7"/>
<stop offset="0.6557" stop-color="#706E6E"/>
<stop offset="0.7783" stop-color="#575454"/>
<stop offset="1"/>
</linearGradient>
<linearGradient id="paint20_linear_337_8149" x1="-142.297" y1="181.716" x2="548.351" y2="204.684" gradientUnits="userSpaceOnUse">
<stop stop-color="white"/>
<stop offset="0.3255" stop-color="#B8B7B7"/>
<stop offset="0.6557" stop-color="#706E6E"/>
<stop offset="0.7783" stop-color="#575454"/>
<stop offset="1"/>
</linearGradient>
</defs>
</svg>
