<svg width="465" height="206" viewBox="0 0 465 206" fill="none" xmlns="http://www.w3.org/2000/svg">
<path d="M59.39 130.597H113.44L132.4 111.684H238.802V64.8236H437.174V63.1299H237.387V109.99H131.834L112.874 128.904H59.39C59.107 127.775 57.9751 126.645 56.5601 126.645C54.8622 126.645 53.7303 128.057 53.7303 129.751C53.7303 131.444 55.1452 132.856 56.5601 132.856C57.6921 132.856 58.824 131.727 59.39 130.597Z" fill="url(#paint0_linear_337_10311)"/>
<path d="M72.6901 137.092H116.553L135.512 118.179H245.876V71.3184H436.891V69.6246H244.178V116.485H134.664L115.704 135.399H72.1241C71.8411 134.269 70.7092 133.14 69.2942 133.14C67.5963 133.14 66.1814 134.552 66.1814 135.963C66.1814 137.657 67.5963 139.068 69.2942 139.068C70.9921 139.068 72.1241 138.221 72.6901 137.092Z" fill="url(#paint1_linear_337_10311)"/>
<path d="M124.192 146.403H178.525L197.485 127.49H271.627V144.145H408.309V142.451H273.042V125.796H196.636L177.676 144.71H124.192C123.909 143.58 122.778 142.451 121.363 142.451C119.665 142.451 118.25 143.863 118.25 145.557C118.25 147.25 119.665 148.662 121.363 148.662C122.778 148.662 123.909 147.533 124.192 146.403Z" fill="url(#paint2_linear_337_10311)"/>
<path d="M137.493 152.9H181.639L200.599 133.986H265.119V150.641H411.422V148.948H266.534V132.292H199.75L180.79 151.206H137.21C136.927 150.077 135.795 148.948 134.38 148.948C132.682 148.948 131.551 150.359 131.551 151.771C131.551 153.464 132.965 154.876 134.38 154.876C136.078 154.876 137.21 154.029 137.493 152.9Z" fill="url(#paint3_linear_337_10311)"/>
<path d="M140.04 159.956H184.186L203.146 141.043H257.762V157.698H414.252V156.004H259.46V139.349H202.58L183.62 158.263H140.04C139.757 157.133 138.625 156.004 137.21 156.004C135.513 156.004 134.381 157.416 134.381 158.827C134.381 160.521 135.796 161.932 137.21 161.932C138.625 162.215 139.757 161.368 140.04 159.956Z" fill="url(#paint4_linear_337_10311)"/>
<path d="M271.343 78.376C271.343 79.7874 272.192 80.9166 273.607 81.1989V96.7249H301.056L319.733 78.0937H393.875V94.7489H530.557V93.0551H395.29V76.3999H318.884L299.925 95.3134H275.022V81.1989C276.154 80.9166 277.286 79.7874 277.286 78.376C277.286 76.6822 275.871 75.2708 274.456 75.2708C272.758 75.2708 271.343 76.6822 271.343 78.376Z" fill="url(#paint5_linear_337_10311)"/>
<path d="M322.564 82.8926L303.604 101.806H265.967V92.7728C267.099 92.4905 268.231 91.3614 268.231 89.9499C268.231 88.2562 266.816 86.8447 265.118 86.8447C263.42 86.8447 262.005 88.2562 262.005 89.9499C262.005 91.3614 262.854 92.4905 264.269 92.7728V103.218H304.17L323.13 84.3041H387.65V100.959H533.953V99.2655H389.065V82.6104H322.564V82.8926Z" fill="url(#paint6_linear_337_10311)"/>
<path d="M325.111 89.948L306.151 108.862H256.629C256.346 107.732 255.214 106.603 253.799 106.603C252.101 106.603 250.686 108.015 250.686 109.708C250.686 111.402 252.101 112.814 253.799 112.814C255.214 112.814 256.346 111.967 256.629 110.555H306.717L325.677 91.6417H380.293V108.297H536.783V106.603H381.991V89.948H325.111Z" fill="url(#paint7_linear_337_10311)"/>
<path d="M338.977 99.5445C338.694 98.4153 337.562 97.2861 336.147 97.2861C334.449 97.2861 333.034 98.6976 333.034 100.391C333.034 102.085 334.449 103.214 336.147 103.214C337.562 103.214 338.694 102.367 338.977 100.956H372.086V117.611H508.768V115.917H373.501V99.2622H338.977V99.5445Z" fill="url(#paint8_linear_337_10311)"/>
<path d="M329.073 105.759C328.79 104.63 327.658 103.501 326.243 103.501C324.545 103.501 323.13 104.912 323.13 106.606C323.13 108.3 324.545 109.711 326.243 109.711C327.658 109.711 328.79 108.864 329.073 107.453H365.578V124.108H511.881V122.414H366.993V105.759H329.073Z" fill="url(#paint9_linear_337_10311)"/>
<path d="M321.999 113.097C321.716 111.968 320.584 110.839 319.169 110.839C317.471 110.839 316.339 112.25 316.339 113.944C316.339 115.638 317.754 117.049 319.169 117.049C320.584 117.049 321.716 116.202 321.999 114.791H358.221V131.446H514.711V129.752H359.919V113.097H321.999Z" fill="url(#paint10_linear_337_10311)"/>
<path d="M280.966 120.719V138.786H327.658V129.47H301.058C300.775 128.341 299.643 127.212 298.228 127.212C296.53 127.212 295.398 128.623 295.398 130.035C295.398 131.728 296.813 133.14 298.228 133.14C299.643 133.14 300.775 132.293 301.058 130.881H325.96V137.374H282.381V122.413H338.129V139.068H471.697V137.374H339.827V120.719H280.966Z" fill="url(#paint11_linear_337_10311)"/>
<path d="M201.731 28.1286V42.5254H304.454L318.603 27.2817H362.466V43.9369H434.061C434.344 45.066 435.476 46.1952 436.891 46.1952C438.589 46.1952 439.721 44.7838 439.721 43.09C439.721 41.3963 438.306 40.2671 436.891 40.2671C435.476 40.2671 434.344 41.114 434.061 42.5254H363.881V25.8702H318.038L303.888 41.114H203.429V26.7171H129.004L110.044 45.6306H50.6175V47.0421H110.61L129.57 28.1286H201.731Z" fill="url(#paint12_linear_337_10311)"/>
<path d="M194.373 34.6218V51.277H308.415L325.111 34.6218H354.825V51.277H460.378C460.661 52.4062 461.793 53.5354 463.207 53.5354C464.905 53.5354 466.32 52.1239 466.32 50.4302C466.32 48.7364 464.905 47.6072 463.207 47.6072C461.793 47.6072 460.661 48.4541 460.378 49.8656H356.522V33.2104H324.545L307.849 49.8656H195.787V32.9281H129.003L110.043 51.8416H60.804V53.5354H110.609L129.569 34.6218H194.373Z" fill="url(#paint13_linear_337_10311)"/>
<path d="M72.1243 59.7428H116.27L135.23 40.8292H189.846V57.4844H437.174V55.7907H191.544V39.1355H134.664L115.704 58.049H72.1243C71.8413 56.9198 70.7093 55.7907 69.2944 55.7907C67.5965 55.7907 66.1816 57.2021 66.1816 58.8959C66.1816 60.5896 67.5965 62.0011 69.2944 62.0011C70.7093 62.0011 71.8413 60.8719 72.1243 59.7428Z" fill="url(#paint14_linear_337_10311)"/>
<path d="M213.9 23.044H292.004L310.681 4.13045H384.823V20.7856H521.504V19.0919H386.237V2.71899H309.832L291.155 21.6325H213.617C213.334 20.5033 212.202 19.3742 210.787 19.3742C209.089 19.3742 207.957 20.7856 207.957 22.4794C207.957 24.1731 209.372 25.3023 210.787 25.3023C212.202 25.3023 213.334 24.4554 213.9 23.044Z" fill="url(#paint15_linear_337_10311)"/>
<path d="M228.331 25.8695C226.633 25.8695 225.218 27.2809 225.218 28.6924C225.218 30.3861 226.633 31.7976 228.331 31.7976C229.746 31.7976 230.878 30.9507 231.161 29.5393H295.115L314.075 10.6258H378.596V27.2809H524.898V25.5872H380.011V8.93201H313.509L294.549 27.8455H231.161C230.878 26.7164 229.746 25.8695 228.331 25.8695Z" fill="url(#paint16_linear_337_10311)"/>
<path d="M316.056 16.2716L297.096 35.1851H246.442C246.159 34.056 245.027 32.9268 243.612 32.9268C241.915 32.9268 240.5 34.3383 240.5 36.032C240.5 37.7257 241.915 39.1372 243.612 39.1372C245.027 39.1372 246.159 38.2903 246.442 36.8789H297.662L316.622 17.6831H371.238V34.3382H527.729V32.9268H372.936V16.2716H316.056Z" fill="url(#paint17_linear_337_10311)"/>
<path d="M228.331 181.974V153.463C229.463 153.18 230.595 152.051 230.595 150.64C230.595 148.946 229.18 147.817 227.765 147.817C226.067 147.817 224.652 149.228 224.652 150.64C224.652 152.051 225.501 153.18 226.916 153.463V183.668H254.365L273.325 164.754H347.467V181.41H484.148V179.716H348.882V163.061H272.476L253.516 181.974H228.331Z" fill="url(#paint18_linear_337_10311)"/>
<path d="M340.957 171.248V187.903H487.26V186.209H342.372V169.554H275.588L256.628 188.467H218.991V165.037C220.123 164.755 221.255 163.626 221.255 162.214C221.255 160.521 219.84 159.109 218.425 159.109C216.727 159.109 215.312 160.521 215.312 162.214C215.312 163.626 216.161 164.755 217.576 165.037V190.161H257.477L276.437 171.248H340.957Z" fill="url(#paint19_linear_337_10311)"/>
<path d="M190.41 197.221H260.024L278.984 178.308H333.6V194.963H490.09V193.269H335.297V176.896H278.418L259.458 195.81H190.41C190.127 194.68 188.995 193.551 187.58 193.551C185.882 193.551 184.467 194.963 184.467 196.657C184.467 198.35 185.882 199.762 187.58 199.762C188.712 199.479 189.844 198.633 190.41 197.221Z" fill="url(#paint20_linear_337_10311)"/>
<defs>
<linearGradient id="paint0_linear_337_10311" x1="507.117" y1="86.0578" x2="-183.528" y2="109.026" gradientUnits="userSpaceOnUse">
<stop stop-color="white"/>
<stop offset="0.3255" stop-color="#B8B7B7"/>
<stop offset="0.6557" stop-color="#706E6E"/>
<stop offset="0.7783" stop-color="#575454"/>
<stop offset="1"/>
</linearGradient>
<linearGradient id="paint1_linear_337_10311" x1="507.342" y1="92.8197" x2="-183.301" y2="115.788" gradientUnits="userSpaceOnUse">
<stop stop-color="white"/>
<stop offset="0.3255" stop-color="#B8B7B7"/>
<stop offset="0.6557" stop-color="#706E6E"/>
<stop offset="0.7783" stop-color="#575454"/>
<stop offset="1"/>
</linearGradient>
<linearGradient id="paint2_linear_337_10311" x1="-78.8487" y1="138.023" x2="584.527" y2="135.835" gradientUnits="userSpaceOnUse">
<stop stop-color="white"/>
<stop offset="0.3255" stop-color="#B8B7B7"/>
<stop offset="0.6557" stop-color="#706E6E"/>
<stop offset="0.7783" stop-color="#575454"/>
<stop offset="1"/>
</linearGradient>
<linearGradient id="paint3_linear_337_10311" x1="86.6376" y1="142.609" x2="668.179" y2="148.078" gradientUnits="userSpaceOnUse">
<stop stop-color="white"/>
<stop offset="0.3255" stop-color="#B8B7B7"/>
<stop offset="0.6557" stop-color="#706E6E"/>
<stop offset="0.7783" stop-color="#575454"/>
<stop offset="1"/>
</linearGradient>
<linearGradient id="paint4_linear_337_10311" x1="86.5699" y1="149.807" x2="668.112" y2="155.276" gradientUnits="userSpaceOnUse">
<stop stop-color="white"/>
<stop offset="0.3255" stop-color="#B8B7B7"/>
<stop offset="0.6557" stop-color="#706E6E"/>
<stop offset="0.7783" stop-color="#575454"/>
<stop offset="1"/>
</linearGradient>
<linearGradient id="paint5_linear_337_10311" x1="506.965" y1="81.5292" x2="-183.686" y2="104.498" gradientUnits="userSpaceOnUse">
<stop stop-color="white"/>
<stop offset="0.3255" stop-color="#B8B7B7"/>
<stop offset="0.6557" stop-color="#706E6E"/>
<stop offset="0.7783" stop-color="#575454"/>
<stop offset="1"/>
</linearGradient>
<linearGradient id="paint6_linear_337_10311" x1="87.1215" y1="90.8245" x2="668.667" y2="96.2938" gradientUnits="userSpaceOnUse">
<stop stop-color="white"/>
<stop offset="0.3255" stop-color="#B8B7B7"/>
<stop offset="0.6557" stop-color="#706E6E"/>
<stop offset="0.7783" stop-color="#575454"/>
<stop offset="1"/>
</linearGradient>
<linearGradient id="paint7_linear_337_10311" x1="87.0453" y1="99.1744" x2="668.59" y2="104.643" gradientUnits="userSpaceOnUse">
<stop stop-color="white"/>
<stop offset="0.3255" stop-color="#B8B7B7"/>
<stop offset="0.6557" stop-color="#706E6E"/>
<stop offset="0.7783" stop-color="#575454"/>
<stop offset="1"/>
</linearGradient>
<linearGradient id="paint8_linear_337_10311" x1="86.9882" y1="104.951" x2="668.534" y2="110.42" gradientUnits="userSpaceOnUse">
<stop stop-color="white"/>
<stop offset="0.3255" stop-color="#B8B7B7"/>
<stop offset="0.6557" stop-color="#706E6E"/>
<stop offset="0.7783" stop-color="#575454"/>
<stop offset="1"/>
</linearGradient>
<linearGradient id="paint9_linear_337_10311" x1="86.9261" y1="111.461" x2="668.477" y2="116.93" gradientUnits="userSpaceOnUse">
<stop stop-color="white"/>
<stop offset="0.3255" stop-color="#B8B7B7"/>
<stop offset="0.6557" stop-color="#706E6E"/>
<stop offset="0.7783" stop-color="#575454"/>
<stop offset="1"/>
</linearGradient>
<linearGradient id="paint10_linear_337_10311" x1="508.18" y1="118.039" x2="-182.462" y2="141.007" gradientUnits="userSpaceOnUse">
<stop stop-color="white"/>
<stop offset="0.3255" stop-color="#B8B7B7"/>
<stop offset="0.6557" stop-color="#706E6E"/>
<stop offset="0.7783" stop-color="#575454"/>
<stop offset="1"/>
</linearGradient>
<linearGradient id="paint11_linear_337_10311" x1="86.776" y1="127.684" x2="668.321" y2="133.153" gradientUnits="userSpaceOnUse">
<stop stop-color="white"/>
<stop offset="0.3255" stop-color="#B8B7B7"/>
<stop offset="0.6557" stop-color="#706E6E"/>
<stop offset="0.7783" stop-color="#575454"/>
<stop offset="1"/>
</linearGradient>
<linearGradient id="paint12_linear_337_10311" x1="505.22" y1="28.9949" x2="-185.427" y2="51.9634" gradientUnits="userSpaceOnUse">
<stop stop-color="white"/>
<stop offset="0.3255" stop-color="#B8B7B7"/>
<stop offset="0.6557" stop-color="#706E6E"/>
<stop offset="0.7783" stop-color="#575454"/>
<stop offset="1"/>
</linearGradient>
<linearGradient id="paint13_linear_337_10311" x1="505.46" y1="36.2255" x2="-185.187" y2="59.1943" gradientUnits="userSpaceOnUse">
<stop stop-color="white"/>
<stop offset="0.3255" stop-color="#B8B7B7"/>
<stop offset="0.6557" stop-color="#706E6E"/>
<stop offset="0.7783" stop-color="#575454"/>
<stop offset="1"/>
</linearGradient>
<linearGradient id="paint14_linear_337_10311" x1="87.5056" y1="50.1861" x2="669.05" y2="55.6551" gradientUnits="userSpaceOnUse">
<stop stop-color="white"/>
<stop offset="0.3255" stop-color="#B8B7B7"/>
<stop offset="0.6557" stop-color="#706E6E"/>
<stop offset="0.7783" stop-color="#575454"/>
<stop offset="1"/>
</linearGradient>
<linearGradient id="paint15_linear_337_10311" x1="87.8674" y1="11.9553" x2="669.408" y2="17.4243" gradientUnits="userSpaceOnUse">
<stop stop-color="white"/>
<stop offset="0.3255" stop-color="#B8B7B7"/>
<stop offset="0.6557" stop-color="#706E6E"/>
<stop offset="0.7783" stop-color="#575454"/>
<stop offset="1"/>
</linearGradient>
<linearGradient id="paint16_linear_337_10311" x1="-79.2323" y1="21.5132" x2="584.143" y2="19.3254" gradientUnits="userSpaceOnUse">
<stop stop-color="white"/>
<stop offset="0.3255" stop-color="#B8B7B7"/>
<stop offset="0.6557" stop-color="#706E6E"/>
<stop offset="0.7783" stop-color="#575454"/>
<stop offset="1"/>
</linearGradient>
<linearGradient id="paint17_linear_337_10311" x1="-79.2074" y1="28.7192" x2="584.167" y2="26.5315" gradientUnits="userSpaceOnUse">
<stop stop-color="white"/>
<stop offset="0.3255" stop-color="#B8B7B7"/>
<stop offset="0.6557" stop-color="#706E6E"/>
<stop offset="0.7783" stop-color="#575454"/>
<stop offset="1"/>
</linearGradient>
<linearGradient id="paint18_linear_337_10311" x1="86.4306" y1="164.323" x2="667.976" y2="169.792" gradientUnits="userSpaceOnUse">
<stop stop-color="white"/>
<stop offset="0.3255" stop-color="#B8B7B7"/>
<stop offset="0.6557" stop-color="#706E6E"/>
<stop offset="0.7783" stop-color="#575454"/>
<stop offset="1"/>
</linearGradient>
<linearGradient id="paint19_linear_337_10311" x1="-78.7246" y1="175.678" x2="584.652" y2="173.491" gradientUnits="userSpaceOnUse">
<stop stop-color="white"/>
<stop offset="0.3255" stop-color="#B8B7B7"/>
<stop offset="0.6557" stop-color="#706E6E"/>
<stop offset="0.7783" stop-color="#575454"/>
<stop offset="1"/>
</linearGradient>
<linearGradient id="paint20_linear_337_10311" x1="510.297" y1="181.716" x2="-180.351" y2="204.684" gradientUnits="userSpaceOnUse">
<stop stop-color="white"/>
<stop offset="0.3255" stop-color="#B8B7B7"/>
<stop offset="0.6557" stop-color="#706E6E"/>
<stop offset="0.7783" stop-color="#575454"/>
<stop offset="1"/>
</linearGradient>
</defs>
</svg>
