<svg width="4" height="8" viewBox="0 0 4 8" fill="none" xmlns="http://www.w3.org/2000/svg">
<path d="M3.92118 4.20254L0.457193 7.91552C0.432422 7.94229 0.402951 7.96353 0.37048 7.97803C0.33801 7.99254 0.303182 8 0.268006 8C0.23283 8 0.198002 7.99254 0.165531 7.97803C0.13306 7.96353 0.10359 7.94229 0.0788186 7.91552C0.0538437 7.88896 0.0340206 7.85738 0.0204927 7.82257C0.00696488 7.78777 0 7.75044 0 7.71273C0 7.67503 0.00696488 7.6377 0.0204927 7.60289C0.0340206 7.56809 0.0538437 7.5365 0.0788186 7.50995L3.35628 3.99976L0.0788186 0.489568C0.0286431 0.435786 0.000454869 0.362841 0.000454869 0.286782C0.000454869 0.249121 0.0073751 0.211829 0.0208208 0.177035C0.0342665 0.142241 0.0539742 0.110627 0.0788186 0.0839965C0.103663 0.0573663 0.133157 0.0362421 0.165618 0.02183C0.198079 0.00741782 0.23287 0 0.268006 0C0.338965 0 0.407017 0.0302144 0.457193 0.0839965L3.92118 3.79697C3.94616 3.82352 3.96598 3.85511 3.97951 3.88992C3.99304 3.92472 4 3.96205 4 3.99976C4 4.03746 3.99304 4.07479 3.97951 4.1096C3.96598 4.1444 3.94616 4.17599 3.92118 4.20254Z" fill="black"/>
</svg>
